%FSLAX24Y24*%
%MOIN*%
G04 EasyPC Gerber Version 18.0.8 Build 3632 *
%ADD96C,0.00100*%
%ADD10C,0.00500*%
%ADD134C,0.00600*%
%ADD11C,0.00800*%
%ADD14C,0.01000*%
X0Y0D02*
D02*
D10*
X4725Y7462D02*
Y7610D01*
X4811*
X4836Y7597*
X4848Y7573*
X4836Y7548*
X4811Y7536*
X4725*
X4811D02*
X4848Y7462D01*
X4946D02*
X4996D01*
X4971D02*
Y7610D01*
X4946Y7585*
X5119Y7462D02*
X5217Y7610D01*
X5119*
X4975Y17062D02*
Y17210D01*
X5061*
X5086Y17197*
X5098Y17173*
X5086Y17148*
X5061Y17136*
X4975*
X5061D02*
X5098Y17062D01*
X5270D02*
X5172D01*
X5258Y17148*
X5270Y17173*
X5258Y17197*
X5233Y17210*
X5196*
X5172Y17197*
X5369Y17074D02*
X5393Y17062D01*
X5430*
X5455Y17074*
X5467Y17099*
Y17111*
X5455Y17136*
X5430Y17148*
X5369*
Y17210*
X5467*
X5125Y4539D02*
Y4490D01*
X5113Y4465*
X5100Y4453*
X5076Y4440*
X5051*
X5027Y4453*
X5014Y4465*
X5002Y4490*
Y4539*
X5014Y4564*
X5027Y4576*
X5051Y4588*
X5076*
X5100Y4576*
X5113Y4564*
X5125Y4539*
X5039Y4551D02*
X5002Y4588D01*
X4904D02*
X4854D01*
X4879D02*
Y4440D01*
X4904Y4465*
X5125Y14612D02*
Y14760D01*
X5211*
X5236Y14747*
X5248Y14723*
X5236Y14698*
X5211Y14686*
X5125*
X5211D02*
X5248Y14612D01*
X5322Y14624D02*
X5346Y14612D01*
X5383*
X5408Y14624*
X5420Y14649*
Y14661*
X5408Y14686*
X5383Y14698*
X5322*
Y14760*
X5420*
X5519Y14649D02*
X5531Y14673D01*
X5556Y14686*
X5580*
X5605Y14673*
X5617Y14649*
X5605Y14624*
X5580Y14612*
X5556*
X5531Y14624*
X5519Y14649*
Y14686*
X5531Y14723*
X5556Y14747*
X5580Y14760*
X5325Y7762D02*
Y7910D01*
X5411*
X5436Y7897*
X5448Y7873*
X5436Y7848*
X5411Y7836*
X5325*
X5411D02*
X5448Y7762D01*
X5583D02*
Y7910D01*
X5522Y7811*
X5620*
X5756Y7836D02*
X5780D01*
X5805Y7848*
X5817Y7873*
X5805Y7897*
X5780Y7910*
X5756*
X5731Y7897*
X5719Y7873*
X5731Y7848*
X5756Y7836*
X5731Y7823*
X5719Y7799*
X5731Y7774*
X5756Y7762*
X5780*
X5805Y7774*
X5817Y7799*
X5805Y7823*
X5780Y7836*
X5675Y17561D02*
Y17610D01*
X5687Y17635*
X5700Y17647*
X5724Y17660*
X5749*
X5773Y17647*
X5786Y17635*
X5798Y17610*
Y17561*
X5786Y17537*
X5773Y17524*
X5749Y17512*
X5724*
X5700Y17524*
X5687Y17537*
X5675Y17561*
X5761Y17549D02*
X5798Y17512D01*
X5909D02*
X5933Y17524D01*
X5958Y17549*
X5970Y17586*
Y17623*
X5958Y17647*
X5933Y17660*
X5909*
X5884Y17647*
X5872Y17623*
X5884Y17598*
X5909Y17586*
X5933*
X5958Y17598*
X5970Y17623*
X5948Y8887D02*
X5936Y8874D01*
X5911Y8862*
X5874*
X5850Y8874*
X5837Y8887*
X5825Y8911*
Y8960*
X5837Y8985*
X5850Y8997*
X5874Y9010*
X5911*
X5936Y8997*
X5948Y8985*
X6120Y8862D02*
X6022D01*
X6108Y8948*
X6120Y8973*
X6108Y8997*
X6083Y9010*
X6046*
X6022Y8997*
X5998Y14637D02*
X5986Y14624D01*
X5961Y14612*
X5924*
X5900Y14624*
X5887Y14637*
X5875Y14661*
Y14710*
X5887Y14735*
X5900Y14747*
X5924Y14760*
X5961*
X5986Y14747*
X5998Y14735*
X6096Y14612D02*
X6146D01*
X6121D02*
Y14760D01*
X6096Y14735*
X6281Y14624D02*
X6306Y14612D01*
X6330*
X6355Y14624*
X6367Y14649*
Y14723*
X6355Y14747*
X6330Y14760*
X6306*
X6281Y14747*
X6269Y14723*
Y14649*
X6281Y14624*
X6355Y14747*
X6225Y5112D02*
Y5260D01*
X6311*
X6336Y5247*
X6348Y5223*
X6336Y5198*
X6311Y5186*
X6225*
X6311D02*
X6348Y5112D01*
X6422Y5149D02*
X6434Y5173D01*
X6459Y5186*
X6483*
X6508Y5173*
X6520Y5149*
X6508Y5124*
X6483Y5112*
X6459*
X6434Y5124*
X6422Y5149*
Y5186*
X6434Y5223*
X6459Y5247*
X6483Y5260*
X6680Y5112D02*
Y5260D01*
X6619Y5161*
X6717*
X6375Y19162D02*
Y19310D01*
X6461*
X6486Y19297*
X6498Y19273*
X6486Y19248*
X6461Y19236*
X6375*
X6461D02*
X6498Y19162D01*
X6572D02*
X6670Y19310D01*
X6572*
X6867Y19162D02*
X6769D01*
X6855Y19248*
X6867Y19273*
X6855Y19297*
X6830Y19310*
X6793*
X6769Y19297*
X6925Y10162D02*
Y10310D01*
X7011*
X7036Y10297*
X7048Y10273*
X7036Y10248*
X7011Y10236*
X6925*
X7011D02*
X7048Y10162D01*
X7183D02*
Y10310D01*
X7122Y10211*
X7220*
X7356Y10162D02*
X7380Y10174D01*
X7405Y10199*
X7417Y10236*
Y10273*
X7405Y10297*
X7380Y10310*
X7356*
X7331Y10297*
X7319Y10273*
X7331Y10248*
X7356Y10236*
X7380*
X7405Y10248*
X7417Y10273*
X7240Y15362D02*
Y15510D01*
X7326*
X7351Y15497*
X7363Y15473*
X7351Y15448*
X7326Y15436*
X7240*
X7326D02*
X7363Y15362D01*
X7535D02*
X7437D01*
X7523Y15448*
X7535Y15473*
X7523Y15497*
X7498Y15510*
X7461*
X7437Y15497*
X7634Y15399D02*
X7646Y15423D01*
X7671Y15436*
X7695*
X7720Y15423*
X7732Y15399*
X7720Y15374*
X7695Y15362*
X7671*
X7646Y15374*
X7634Y15399*
Y15436*
X7646Y15473*
X7671Y15497*
X7695Y15510*
X7275Y13727D02*
Y13875D01*
X7361*
X7386Y13862*
X7398Y13838*
X7386Y13813*
X7361Y13801*
X7275*
X7361D02*
X7398Y13727D01*
X7472Y13739D02*
X7496Y13727D01*
X7533*
X7558Y13739*
X7570Y13764*
Y13776*
X7558Y13801*
X7533Y13813*
X7472*
Y13875*
X7570*
X7669Y13727D02*
X7767Y13875D01*
X7669*
X7325Y19212D02*
Y19360D01*
X7411*
X7436Y19347*
X7448Y19323*
X7436Y19298*
X7411Y19286*
X7325*
X7411D02*
X7448Y19212D01*
X7522D02*
X7620Y19360D01*
X7522*
X7731Y19224D02*
X7756Y19212D01*
X7780*
X7805Y19224*
X7817Y19249*
X7805Y19273*
X7780Y19286*
X7756*
X7780D02*
X7805Y19298D01*
X7817Y19323*
X7805Y19347*
X7780Y19360*
X7756*
X7731Y19347*
X7425Y7561D02*
Y7610D01*
X7437Y7635*
X7450Y7647*
X7474Y7660*
X7499*
X7523Y7647*
X7536Y7635*
X7548Y7610*
Y7561*
X7536Y7537*
X7523Y7524*
X7499Y7512*
X7474*
X7450Y7524*
X7437Y7537*
X7425Y7561*
X7511Y7549D02*
X7548Y7512D01*
X7720D02*
X7622D01*
X7708Y7598*
X7720Y7623*
X7708Y7647*
X7683Y7660*
X7646*
X7622Y7647*
X7625Y8562D02*
Y8710D01*
X7711*
X7736Y8697*
X7748Y8673*
X7736Y8648*
X7711Y8636*
X7625*
X7711D02*
X7748Y8562D01*
X7846D02*
X7896D01*
X7871D02*
Y8710D01*
X7846Y8685*
X8056Y8636D02*
X8080D01*
X8105Y8648*
X8117Y8673*
X8105Y8697*
X8080Y8710*
X8056*
X8031Y8697*
X8019Y8673*
X8031Y8648*
X8056Y8636*
X8031Y8623*
X8019Y8599*
X8031Y8574*
X8056Y8562*
X8080*
X8105Y8574*
X8117Y8599*
X8105Y8623*
X8080Y8636*
X7748Y10187D02*
X7736Y10174D01*
X7711Y10162*
X7674*
X7650Y10174*
X7637Y10187*
X7625Y10211*
Y10260*
X7637Y10285*
X7650Y10297*
X7674Y10310*
X7711*
X7736Y10297*
X7748Y10285*
X7834Y10174D02*
X7859Y10162D01*
X7883*
X7908Y10174*
X7920Y10199*
X7908Y10223*
X7883Y10236*
X7859*
X7883D02*
X7908Y10248D01*
X7920Y10273*
X7908Y10297*
X7883Y10310*
X7859*
X7834Y10297*
X7740Y16561D02*
Y16610D01*
X7752Y16635*
X7765Y16647*
X7789Y16660*
X7814*
X7838Y16647*
X7851Y16635*
X7863Y16610*
Y16561*
X7851Y16537*
X7838Y16524*
X7814Y16512*
X7789*
X7765Y16524*
X7752Y16537*
X7740Y16561*
X7826Y16549D02*
X7863Y16512D01*
X7961D02*
X8011D01*
X7986D02*
Y16660D01*
X7961Y16635*
X8146Y16524D02*
X8171Y16512D01*
X8195*
X8220Y16524*
X8232Y16549*
Y16623*
X8220Y16647*
X8195Y16660*
X8171*
X8146Y16647*
X8134Y16623*
Y16549*
X8146Y16524*
X8220Y16647*
X8098Y13752D02*
X8086Y13739D01*
X8061Y13727*
X8024*
X8000Y13739*
X7987Y13752*
X7975Y13776*
Y13825*
X7987Y13850*
X8000Y13862*
X8024Y13875*
X8061*
X8086Y13862*
X8098Y13850*
X8196Y13727D02*
X8246D01*
X8221D02*
Y13875D01*
X8196Y13850*
X8393Y13727D02*
X8443D01*
X8418D02*
Y13875D01*
X8393Y13850*
X8275Y7112D02*
Y7260D01*
X8361*
X8386Y7247*
X8398Y7223*
X8386Y7198*
X8361Y7186*
X8275*
X8361D02*
X8398Y7112D01*
X8472Y7149D02*
X8484Y7173D01*
X8509Y7186*
X8533*
X8558Y7173*
X8570Y7149*
X8558Y7124*
X8533Y7112*
X8509*
X8484Y7124*
X8472Y7149*
Y7186*
X8484Y7223*
X8509Y7247*
X8533Y7260*
X8669Y7124D02*
X8693Y7112D01*
X8730*
X8755Y7124*
X8767Y7149*
Y7161*
X8755Y7186*
X8730Y7198*
X8669*
Y7260*
X8767*
X9225Y10162D02*
Y10310D01*
X9311*
X9336Y10297*
X9348Y10273*
X9336Y10248*
X9311Y10236*
X9225*
X9311D02*
X9348Y10162D01*
X9422Y10174D02*
X9446Y10162D01*
X9483*
X9508Y10174*
X9520Y10199*
Y10211*
X9508Y10236*
X9483Y10248*
X9422*
Y10310*
X9520*
X9631Y10174D02*
X9656Y10162D01*
X9680*
X9705Y10174*
X9717Y10199*
Y10273*
X9705Y10297*
X9680Y10310*
X9656*
X9631Y10297*
X9619Y10273*
Y10199*
X9631Y10174*
X9705Y10297*
X9325Y8512D02*
Y8660D01*
X9411*
X9436Y8647*
X9448Y8623*
X9436Y8598*
X9411Y8586*
X9325*
X9411D02*
X9448Y8512D01*
X9546D02*
X9596D01*
X9571D02*
Y8660D01*
X9546Y8635*
X9756Y8512D02*
X9780Y8524D01*
X9805Y8549*
X9817Y8586*
Y8623*
X9805Y8647*
X9780Y8660*
X9756*
X9731Y8647*
X9719Y8623*
X9731Y8598*
X9756Y8586*
X9780*
X9805Y8598*
X9817Y8623*
X9525Y16611D02*
Y16660D01*
X9537Y16685*
X9550Y16697*
X9574Y16710*
X9599*
X9623Y16697*
X9636Y16685*
X9648Y16660*
Y16611*
X9636Y16587*
X9623Y16574*
X9599Y16562*
X9574*
X9550Y16574*
X9537Y16587*
X9525Y16611*
X9611Y16599D02*
X9648Y16562D01*
X9746D02*
X9796D01*
X9771D02*
Y16710D01*
X9746Y16685*
X9943Y16562D02*
X9993D01*
X9968D02*
Y16710D01*
X9943Y16685*
X9625Y15412D02*
Y15560D01*
X9711*
X9736Y15547*
X9748Y15523*
X9736Y15498*
X9711Y15486*
X9625*
X9711D02*
X9748Y15412D01*
X9920D02*
X9822D01*
X9908Y15498*
X9920Y15523*
X9908Y15547*
X9883Y15560*
X9846*
X9822Y15547*
X10019Y15412D02*
X10117Y15560D01*
X10019*
X9675Y13812D02*
Y13960D01*
X9761*
X9786Y13947*
X9798Y13923*
X9786Y13898*
X9761Y13886*
X9675*
X9761D02*
X9798Y13812D01*
X9872Y13824D02*
X9896Y13812D01*
X9933*
X9958Y13824*
X9970Y13849*
Y13861*
X9958Y13886*
X9933Y13898*
X9872*
Y13960*
X9970*
X10106Y13886D02*
X10130D01*
X10155Y13898*
X10167Y13923*
X10155Y13947*
X10130Y13960*
X10106*
X10081Y13947*
X10069Y13923*
X10081Y13898*
X10106Y13886*
X10081Y13873*
X10069Y13849*
X10081Y13824*
X10106Y13812*
X10130*
X10155Y13824*
X10167Y13849*
X10155Y13873*
X10130Y13886*
X9750Y7461D02*
Y7510D01*
X9762Y7535*
X9775Y7547*
X9799Y7560*
X9824*
X9848Y7547*
X9861Y7535*
X9873Y7510*
Y7461*
X9861Y7437*
X9848Y7424*
X9824Y7412*
X9799*
X9775Y7424*
X9762Y7437*
X9750Y7461*
X9836Y7449D02*
X9873Y7412D01*
X9959Y7424D02*
X9984Y7412D01*
X10008*
X10033Y7424*
X10045Y7449*
X10033Y7473*
X10008Y7486*
X9984*
X10008D02*
X10033Y7498D01*
X10045Y7523*
X10033Y7547*
X10008Y7560*
X9984*
X9959Y7547*
X9881Y4469D02*
X18169D01*
Y2181*
X9881*
Y4469*
X10448Y13787D02*
X10436Y13774D01*
X10411Y13762*
X10374*
X10350Y13774*
X10337Y13787*
X10325Y13811*
Y13860*
X10337Y13885*
X10350Y13897*
X10374Y13910*
X10411*
X10436Y13897*
X10448Y13885*
X10546Y13762D02*
X10596D01*
X10571D02*
Y13910D01*
X10546Y13885*
X10817Y13762D02*
X10719D01*
X10805Y13848*
X10817Y13873*
X10805Y13897*
X10780Y13910*
X10743*
X10719Y13897*
X10375Y18412D02*
Y18560D01*
X10461*
X10486Y18547*
X10498Y18523*
X10486Y18498*
X10461Y18486*
X10375*
X10461D02*
X10498Y18412D01*
X10572D02*
X10670Y18560D01*
X10572*
X10830Y18412D02*
Y18560D01*
X10769Y18461*
X10867*
X10598Y10087D02*
X10586Y10074D01*
X10561Y10062*
X10524*
X10500Y10074*
X10487Y10087*
X10475Y10111*
Y10160*
X10487Y10185*
X10500Y10197*
X10524Y10210*
X10561*
X10586Y10197*
X10598Y10185*
X10733Y10062D02*
Y10210D01*
X10672Y10111*
X10770*
X10775Y5512D02*
Y5660D01*
X10861*
X10886Y5647*
X10898Y5623*
X10886Y5598*
X10861Y5586*
X10775*
X10861D02*
X10898Y5512D01*
X10972Y5549D02*
X10984Y5573D01*
X11009Y5586*
X11033*
X11058Y5573*
X11070Y5549*
X11058Y5524*
X11033Y5512*
X11009*
X10984Y5524*
X10972Y5549*
Y5586*
X10984Y5623*
X11009Y5647*
X11033Y5660*
X11169Y5549D02*
X11181Y5573D01*
X11206Y5586*
X11230*
X11255Y5573*
X11267Y5549*
X11255Y5524*
X11230Y5512*
X11206*
X11181Y5524*
X11169Y5549*
Y5586*
X11181Y5623*
X11206Y5647*
X11230Y5660*
X11475Y10162D02*
Y10310D01*
X11561*
X11586Y10297*
X11598Y10273*
X11586Y10248*
X11561Y10236*
X11475*
X11561D02*
X11598Y10162D01*
X11672Y10174D02*
X11696Y10162D01*
X11733*
X11758Y10174*
X11770Y10199*
Y10211*
X11758Y10236*
X11733Y10248*
X11672*
Y10310*
X11770*
X11893Y10162D02*
X11943D01*
X11918D02*
Y10310D01*
X11893Y10285*
X11675Y8562D02*
Y8710D01*
X11761*
X11786Y8697*
X11798Y8673*
X11786Y8648*
X11761Y8636*
X11675*
X11761D02*
X11798Y8562D01*
X11970D02*
X11872D01*
X11958Y8648*
X11970Y8673*
X11958Y8697*
X11933Y8710*
X11896*
X11872Y8697*
X12081Y8574D02*
X12106Y8562D01*
X12130*
X12155Y8574*
X12167Y8599*
Y8673*
X12155Y8697*
X12130Y8710*
X12106*
X12081Y8697*
X12069Y8673*
Y8599*
X12081Y8574*
X12155Y8697*
X11875Y16511D02*
Y16560D01*
X11887Y16585*
X11900Y16597*
X11924Y16610*
X11949*
X11973Y16597*
X11986Y16585*
X11998Y16560*
Y16511*
X11986Y16487*
X11973Y16474*
X11949Y16462*
X11924*
X11900Y16474*
X11887Y16487*
X11875Y16511*
X11961Y16499D02*
X11998Y16462D01*
X12096D02*
X12146D01*
X12121D02*
Y16610D01*
X12096Y16585*
X12367Y16462D02*
X12269D01*
X12355Y16548*
X12367Y16573*
X12355Y16597*
X12330Y16610*
X12293*
X12269Y16597*
X11925Y13762D02*
Y13910D01*
X12011*
X12036Y13897*
X12048Y13873*
X12036Y13848*
X12011Y13836*
X11925*
X12011D02*
X12048Y13762D01*
X12122Y13774D02*
X12146Y13762D01*
X12183*
X12208Y13774*
X12220Y13799*
Y13811*
X12208Y13836*
X12183Y13848*
X12122*
Y13910*
X12220*
X12356Y13762D02*
X12380Y13774D01*
X12405Y13799*
X12417Y13836*
Y13873*
X12405Y13897*
X12380Y13910*
X12356*
X12331Y13897*
X12319Y13873*
X12331Y13848*
X12356Y13836*
X12380*
X12405Y13848*
X12417Y13873*
X11975Y15462D02*
Y15610D01*
X12061*
X12086Y15597*
X12098Y15573*
X12086Y15548*
X12061Y15536*
X11975*
X12061D02*
X12098Y15462D01*
X12270D02*
X12172D01*
X12258Y15548*
X12270Y15573*
X12258Y15597*
X12233Y15610*
X12196*
X12172Y15597*
X12406Y15536D02*
X12430D01*
X12455Y15548*
X12467Y15573*
X12455Y15597*
X12430Y15610*
X12406*
X12381Y15597*
X12369Y15573*
X12381Y15548*
X12406Y15536*
X12381Y15523*
X12369Y15499*
X12381Y15474*
X12406Y15462*
X12430*
X12455Y15474*
X12467Y15499*
X12455Y15523*
X12430Y15536*
X12025Y7511D02*
Y7560D01*
X12037Y7585*
X12050Y7597*
X12074Y7610*
X12099*
X12123Y7597*
X12136Y7585*
X12148Y7560*
Y7511*
X12136Y7487*
X12123Y7474*
X12099Y7462*
X12074*
X12050Y7474*
X12037Y7487*
X12025Y7511*
X12111Y7499D02*
X12148Y7462D01*
X12283D02*
Y7610D01*
X12222Y7511*
X12320*
X12348Y10187D02*
X12336Y10174D01*
X12311Y10162*
X12274*
X12250Y10174*
X12237Y10187*
X12225Y10211*
Y10260*
X12237Y10285*
X12250Y10297*
X12274Y10310*
X12311*
X12336Y10297*
X12348Y10285*
X12422Y10174D02*
X12446Y10162D01*
X12483*
X12508Y10174*
X12520Y10199*
Y10211*
X12508Y10236*
X12483Y10248*
X12422*
Y10310*
X12520*
X12698Y13787D02*
X12686Y13774D01*
X12661Y13762*
X12624*
X12600Y13774*
X12587Y13787*
X12575Y13811*
Y13860*
X12587Y13885*
X12600Y13897*
X12624Y13910*
X12661*
X12686Y13897*
X12698Y13885*
X12796Y13762D02*
X12846D01*
X12821D02*
Y13910D01*
X12796Y13885*
X12981Y13774D02*
X13006Y13762D01*
X13030*
X13055Y13774*
X13067Y13799*
X13055Y13823*
X13030Y13836*
X13006*
X13030D02*
X13055Y13848D01*
X13067Y13873*
X13055Y13897*
X13030Y13910*
X13006*
X12981Y13897*
X12775Y18412D02*
Y18560D01*
X12861*
X12886Y18547*
X12898Y18523*
X12886Y18498*
X12861Y18486*
X12775*
X12861D02*
X12898Y18412D01*
X12972D02*
X13070Y18560D01*
X12972*
X13169Y18424D02*
X13193Y18412D01*
X13230*
X13255Y18424*
X13267Y18449*
Y18461*
X13255Y18486*
X13230Y18498*
X13169*
Y18560*
X13267*
X13075Y5362D02*
Y5510D01*
X13161*
X13186Y5497*
X13198Y5473*
X13186Y5448*
X13161Y5436*
X13075*
X13161D02*
X13198Y5362D01*
X13272Y5399D02*
X13284Y5423D01*
X13309Y5436*
X13333*
X13358Y5423*
X13370Y5399*
X13358Y5374*
X13333Y5362*
X13309*
X13284Y5374*
X13272Y5399*
Y5436*
X13284Y5473*
X13309Y5497*
X13333Y5510*
X13469Y5362D02*
X13567Y5510D01*
X13469*
X13825Y10212D02*
Y10360D01*
X13911*
X13936Y10347*
X13948Y10323*
X13936Y10298*
X13911Y10286*
X13825*
X13911D02*
X13948Y10212D01*
X14022Y10224D02*
X14046Y10212D01*
X14083*
X14108Y10224*
X14120Y10249*
Y10261*
X14108Y10286*
X14083Y10298*
X14022*
Y10360*
X14120*
X14317Y10212D02*
X14219D01*
X14305Y10298*
X14317Y10323*
X14305Y10347*
X14280Y10360*
X14243*
X14219Y10347*
X13975Y8568D02*
Y8739D01*
X14075*
X14103Y8725*
X14118Y8696*
X14103Y8668*
X14075Y8653*
X13975*
X14075D02*
X14118Y8568D01*
X14318D02*
X14203D01*
X14303Y8668*
X14318Y8696*
X14303Y8725*
X14275Y8739*
X14232*
X14203Y8725*
X14460Y8568D02*
X14517D01*
X14489D02*
Y8739D01*
X14460Y8711*
X14125Y16561D02*
Y16610D01*
X14137Y16635*
X14150Y16647*
X14174Y16660*
X14199*
X14223Y16647*
X14236Y16635*
X14248Y16610*
Y16561*
X14236Y16537*
X14223Y16524*
X14199Y16512*
X14174*
X14150Y16524*
X14137Y16537*
X14125Y16561*
X14211Y16549D02*
X14248Y16512D01*
X14346D02*
X14396D01*
X14371D02*
Y16660D01*
X14346Y16635*
X14531Y16524D02*
X14556Y16512D01*
X14580*
X14605Y16524*
X14617Y16549*
X14605Y16573*
X14580Y16586*
X14556*
X14580D02*
X14605Y16598D01*
X14617Y16623*
X14605Y16647*
X14580Y16660*
X14556*
X14531Y16647*
X14325Y7461D02*
Y7510D01*
X14337Y7535*
X14350Y7547*
X14374Y7560*
X14399*
X14423Y7547*
X14436Y7535*
X14448Y7510*
Y7461*
X14436Y7437*
X14423Y7424*
X14399Y7412*
X14374*
X14350Y7424*
X14337Y7437*
X14325Y7461*
X14411Y7449D02*
X14448Y7412D01*
X14522Y7424D02*
X14546Y7412D01*
X14583*
X14608Y7424*
X14620Y7449*
Y7461*
X14608Y7486*
X14583Y7498*
X14522*
Y7560*
X14620*
X14575Y13712D02*
Y13860D01*
X14661*
X14686Y13847*
X14698Y13823*
X14686Y13798*
X14661Y13786*
X14575*
X14661D02*
X14698Y13712D01*
X14772Y13749D02*
X14784Y13773D01*
X14809Y13786*
X14833*
X14858Y13773*
X14870Y13749*
X14858Y13724*
X14833Y13712*
X14809*
X14784Y13724*
X14772Y13749*
Y13786*
X14784Y13823*
X14809Y13847*
X14833Y13860*
X14981Y13724D02*
X15006Y13712D01*
X15030*
X15055Y13724*
X15067Y13749*
Y13823*
X15055Y13847*
X15030Y13860*
X15006*
X14981Y13847*
X14969Y13823*
Y13749*
X14981Y13724*
X15055Y13847*
X14575Y15362D02*
Y15510D01*
X14661*
X14686Y15497*
X14698Y15473*
X14686Y15448*
X14661Y15436*
X14575*
X14661D02*
X14698Y15362D01*
X14870D02*
X14772D01*
X14858Y15448*
X14870Y15473*
X14858Y15497*
X14833Y15510*
X14796*
X14772Y15497*
X15006Y15362D02*
X15030Y15374D01*
X15055Y15399*
X15067Y15436*
Y15473*
X15055Y15497*
X15030Y15510*
X15006*
X14981Y15497*
X14969Y15473*
X14981Y15448*
X15006Y15436*
X15030*
X15055Y15448*
X15067Y15473*
X14748Y10237D02*
X14736Y10224D01*
X14711Y10212*
X14674*
X14650Y10224*
X14637Y10237*
X14625Y10261*
Y10310*
X14637Y10335*
X14650Y10347*
X14674Y10360*
X14711*
X14736Y10347*
X14748Y10335*
X14822Y10249D02*
X14834Y10273D01*
X14859Y10286*
X14883*
X14908Y10273*
X14920Y10249*
X14908Y10224*
X14883Y10212*
X14859*
X14834Y10224*
X14822Y10249*
Y10286*
X14834Y10323*
X14859Y10347*
X14883Y10360*
X15075Y5312D02*
Y5460D01*
X15161*
X15186Y5447*
X15198Y5423*
X15186Y5398*
X15161Y5386*
X15075*
X15161D02*
X15198Y5312D01*
X15272Y5349D02*
X15284Y5373D01*
X15309Y5386*
X15333*
X15358Y5373*
X15370Y5349*
X15358Y5324*
X15333Y5312*
X15309*
X15284Y5324*
X15272Y5349*
Y5386*
X15284Y5423*
X15309Y5447*
X15333Y5460*
X15506Y5386D02*
X15530D01*
X15555Y5398*
X15567Y5423*
X15555Y5447*
X15530Y5460*
X15506*
X15481Y5447*
X15469Y5423*
X15481Y5398*
X15506Y5386*
X15481Y5373*
X15469Y5349*
X15481Y5324*
X15506Y5312*
X15530*
X15555Y5324*
X15567Y5349*
X15555Y5373*
X15530Y5386*
X15175Y18462D02*
Y18610D01*
X15261*
X15286Y18597*
X15298Y18573*
X15286Y18548*
X15261Y18536*
X15175*
X15261D02*
X15298Y18462D01*
X15372D02*
X15470Y18610D01*
X15372*
X15569Y18499D02*
X15581Y18523D01*
X15606Y18536*
X15630*
X15655Y18523*
X15667Y18499*
X15655Y18474*
X15630Y18462*
X15606*
X15581Y18474*
X15569Y18499*
Y18536*
X15581Y18573*
X15606Y18597*
X15630Y18610*
X15398Y13737D02*
X15386Y13724D01*
X15361Y13712*
X15324*
X15300Y13724*
X15287Y13737*
X15275Y13761*
Y13810*
X15287Y13835*
X15300Y13847*
X15324Y13860*
X15361*
X15386Y13847*
X15398Y13835*
X15496Y13712D02*
X15546D01*
X15521D02*
Y13860D01*
X15496Y13835*
X15730Y13712D02*
Y13860D01*
X15669Y13761*
X15767*
X16275Y10162D02*
Y10310D01*
X16361*
X16386Y10297*
X16398Y10273*
X16386Y10248*
X16361Y10236*
X16275*
X16361D02*
X16398Y10162D01*
X16472Y10174D02*
X16496Y10162D01*
X16533*
X16558Y10174*
X16570Y10199*
Y10211*
X16558Y10236*
X16533Y10248*
X16472*
Y10310*
X16570*
X16681Y10174D02*
X16706Y10162D01*
X16730*
X16755Y10174*
X16767Y10199*
X16755Y10223*
X16730Y10236*
X16706*
X16730D02*
X16755Y10248D01*
X16767Y10273*
X16755Y10297*
X16730Y10310*
X16706*
X16681Y10297*
X16350Y8562D02*
Y8710D01*
X16436*
X16461Y8697*
X16473Y8673*
X16461Y8648*
X16436Y8636*
X16350*
X16436D02*
X16473Y8562D01*
X16645D02*
X16547D01*
X16633Y8648*
X16645Y8673*
X16633Y8697*
X16608Y8710*
X16571*
X16547Y8697*
X16842Y8562D02*
X16744D01*
X16830Y8648*
X16842Y8673*
X16830Y8697*
X16805Y8710*
X16768*
X16744Y8697*
X16475Y16561D02*
Y16610D01*
X16487Y16635*
X16499Y16647*
X16524Y16660*
X16549*
X16573Y16647*
X16585Y16635*
X16598Y16610*
Y16561*
X16585Y16537*
X16573Y16524*
X16549Y16512*
X16524*
X16499Y16524*
X16487Y16537*
X16475Y16561*
X16561Y16549D02*
X16598Y16512D01*
X16696D02*
X16745D01*
X16721D02*
Y16660D01*
X16696Y16635*
X16930Y16512D02*
Y16660D01*
X16868Y16561*
X16967*
X16825Y7461D02*
Y7510D01*
X16837Y7535*
X16850Y7547*
X16874Y7560*
X16899*
X16923Y7547*
X16936Y7535*
X16948Y7510*
Y7461*
X16936Y7437*
X16923Y7424*
X16899Y7412*
X16874*
X16850Y7424*
X16837Y7437*
X16825Y7461*
X16911Y7449D02*
X16948Y7412D01*
X17022Y7449D02*
X17034Y7473D01*
X17059Y7486*
X17083*
X17108Y7473*
X17120Y7449*
X17108Y7424*
X17083Y7412*
X17059*
X17034Y7424*
X17022Y7449*
Y7486*
X17034Y7523*
X17059Y7547*
X17083Y7560*
X17198Y10187D02*
X17186Y10174D01*
X17161Y10162*
X17124*
X17100Y10174*
X17087Y10187*
X17075Y10211*
Y10260*
X17087Y10285*
X17100Y10297*
X17124Y10310*
X17161*
X17186Y10297*
X17198Y10285*
X17272Y10162D02*
X17370Y10310D01*
X17272*
X17075Y13662D02*
Y13810D01*
X17161*
X17186Y13797*
X17198Y13773*
X17186Y13748*
X17161Y13736*
X17075*
X17161D02*
X17198Y13662D01*
X17272Y13699D02*
X17284Y13723D01*
X17309Y13736*
X17333*
X17358Y13723*
X17370Y13699*
X17358Y13674*
X17333Y13662*
X17309*
X17284Y13674*
X17272Y13699*
Y13736*
X17284Y13773*
X17309Y13797*
X17333Y13810*
X17493Y13662D02*
X17543D01*
X17518D02*
Y13810D01*
X17493Y13785*
X17425Y15512D02*
Y15660D01*
X17511*
X17536Y15647*
X17548Y15623*
X17536Y15598*
X17511Y15586*
X17425*
X17511D02*
X17548Y15512D01*
X17634Y15524D02*
X17659Y15512D01*
X17683*
X17708Y15524*
X17720Y15549*
X17708Y15573*
X17683Y15586*
X17659*
X17683D02*
X17708Y15598D01*
X17720Y15623*
X17708Y15647*
X17683Y15660*
X17659*
X17634Y15647*
X17831Y15524D02*
X17856Y15512D01*
X17880*
X17905Y15524*
X17917Y15549*
Y15623*
X17905Y15647*
X17880Y15660*
X17856*
X17831Y15647*
X17819Y15623*
Y15549*
X17831Y15524*
X17905Y15647*
X17575Y18512D02*
Y18660D01*
X17661*
X17686Y18647*
X17698Y18623*
X17686Y18598*
X17661Y18586*
X17575*
X17661D02*
X17698Y18512D01*
X17772D02*
X17870Y18660D01*
X17772*
X17969Y18512D02*
X18067Y18660D01*
X17969*
X17798Y13687D02*
X17786Y13674D01*
X17761Y13662*
X17724*
X17700Y13674*
X17687Y13687*
X17675Y13711*
Y13760*
X17687Y13785*
X17700Y13797*
X17724Y13810*
X17761*
X17786Y13797*
X17798Y13785*
X17896Y13662D02*
X17946D01*
X17921D02*
Y13810D01*
X17896Y13785*
X18069Y13674D02*
X18093Y13662D01*
X18130*
X18155Y13674*
X18167Y13699*
Y13711*
X18155Y13736*
X18130Y13748*
X18069*
Y13810*
X18167*
X17725Y5412D02*
Y5560D01*
X17811*
X17836Y5547*
X17848Y5523*
X17836Y5498*
X17811Y5486*
X17725*
X17811D02*
X17848Y5412D01*
X17922Y5449D02*
X17934Y5473D01*
X17959Y5486*
X17983*
X18008Y5473*
X18020Y5449*
X18008Y5424*
X17983Y5412*
X17959*
X17934Y5424*
X17922Y5449*
Y5486*
X17934Y5523*
X17959Y5547*
X17983Y5560*
X18156Y5412D02*
X18180Y5424D01*
X18205Y5449*
X18217Y5486*
Y5523*
X18205Y5547*
X18180Y5560*
X18156*
X18131Y5547*
X18119Y5523*
X18131Y5498*
X18156Y5486*
X18180*
X18205Y5498*
X18217Y5523*
X18625Y10212D02*
Y10360D01*
X18711*
X18736Y10347*
X18748Y10323*
X18736Y10298*
X18711Y10286*
X18625*
X18711D02*
X18748Y10212D01*
X18822Y10224D02*
X18846Y10212D01*
X18883*
X18908Y10224*
X18920Y10249*
Y10261*
X18908Y10286*
X18883Y10298*
X18822*
Y10360*
X18920*
X19080Y10212D02*
Y10360D01*
X19019Y10261*
X19117*
X18725Y8612D02*
Y8760D01*
X18811*
X18836Y8747*
X18848Y8723*
X18836Y8698*
X18811Y8686*
X18725*
X18811D02*
X18848Y8612D01*
X19020D02*
X18922D01*
X19008Y8698*
X19020Y8723*
X19008Y8747*
X18983Y8760*
X18946*
X18922Y8747*
X19131Y8624D02*
X19156Y8612D01*
X19180*
X19205Y8624*
X19217Y8649*
X19205Y8673*
X19180Y8686*
X19156*
X19180D02*
X19205Y8698D01*
X19217Y8723*
X19205Y8747*
X19180Y8760*
X19156*
X19131Y8747*
X19125Y7511D02*
Y7560D01*
X19137Y7585*
X19150Y7597*
X19174Y7610*
X19199*
X19223Y7597*
X19236Y7585*
X19248Y7560*
Y7511*
X19236Y7487*
X19223Y7474*
X19199Y7462*
X19174*
X19150Y7474*
X19137Y7487*
X19125Y7511*
X19211Y7499D02*
X19248Y7462D01*
X19322D02*
X19420Y7610D01*
X19322*
X19125Y16511D02*
Y16560D01*
X19137Y16585*
X19150Y16597*
X19174Y16610*
X19199*
X19223Y16597*
X19236Y16585*
X19248Y16560*
Y16511*
X19236Y16487*
X19223Y16474*
X19199Y16462*
X19174*
X19150Y16474*
X19137Y16487*
X19125Y16511*
X19211Y16499D02*
X19248Y16462D01*
X19346D02*
X19396D01*
X19371D02*
Y16610D01*
X19346Y16585*
X19519Y16474D02*
X19543Y16462D01*
X19580*
X19605Y16474*
X19617Y16499*
Y16511*
X19605Y16536*
X19580Y16548*
X19519*
Y16610*
X19617*
X19325Y13762D02*
Y13910D01*
X19411*
X19436Y13897*
X19448Y13873*
X19436Y13848*
X19411Y13836*
X19325*
X19411D02*
X19448Y13762D01*
X19522Y13799D02*
X19534Y13823D01*
X19559Y13836*
X19583*
X19608Y13823*
X19620Y13799*
X19608Y13774*
X19583Y13762*
X19559*
X19534Y13774*
X19522Y13799*
Y13836*
X19534Y13873*
X19559Y13897*
X19583Y13910*
X19817Y13762D02*
X19719D01*
X19805Y13848*
X19817Y13873*
X19805Y13897*
X19780Y13910*
X19743*
X19719Y13897*
X19325Y15562D02*
Y15710D01*
X19411*
X19436Y15697*
X19448Y15673*
X19436Y15648*
X19411Y15636*
X19325*
X19411D02*
X19448Y15562D01*
X19534Y15574D02*
X19559Y15562D01*
X19583*
X19608Y15574*
X19620Y15599*
X19608Y15623*
X19583Y15636*
X19559*
X19583D02*
X19608Y15648D01*
X19620Y15673*
X19608Y15697*
X19583Y15710*
X19559*
X19534Y15697*
X19743Y15562D02*
X19793D01*
X19768D02*
Y15710D01*
X19743Y15685*
X19498Y10237D02*
X19486Y10224D01*
X19461Y10212*
X19424*
X19400Y10224*
X19387Y10237*
X19375Y10261*
Y10310*
X19387Y10335*
X19400Y10347*
X19424Y10360*
X19461*
X19486Y10347*
X19498Y10335*
X19609Y10286D02*
X19633D01*
X19658Y10298*
X19670Y10323*
X19658Y10347*
X19633Y10360*
X19609*
X19584Y10347*
X19572Y10323*
X19584Y10298*
X19609Y10286*
X19584Y10273*
X19572Y10249*
X19584Y10224*
X19609Y10212*
X19633*
X19658Y10224*
X19670Y10249*
X19658Y10273*
X19633Y10286*
X19825Y18512D02*
Y18660D01*
X19911*
X19936Y18647*
X19948Y18623*
X19936Y18598*
X19911Y18586*
X19825*
X19911D02*
X19948Y18512D01*
X20022D02*
X20120Y18660D01*
X20022*
X20256Y18586D02*
X20280D01*
X20305Y18598*
X20317Y18623*
X20305Y18647*
X20280Y18660*
X20256*
X20231Y18647*
X20219Y18623*
X20231Y18598*
X20256Y18586*
X20231Y18573*
X20219Y18549*
X20231Y18524*
X20256Y18512*
X20280*
X20305Y18524*
X20317Y18549*
X20305Y18573*
X20280Y18586*
X20075Y5362D02*
Y5510D01*
X20161*
X20186Y5497*
X20198Y5473*
X20186Y5448*
X20161Y5436*
X20075*
X20161D02*
X20198Y5362D01*
X20272D02*
X20370Y5510D01*
X20272*
X20481Y5374D02*
X20506Y5362D01*
X20530*
X20555Y5374*
X20567Y5399*
Y5473*
X20555Y5497*
X20530Y5510*
X20506*
X20481Y5497*
X20469Y5473*
Y5399*
X20481Y5374*
X20555Y5497*
X20198Y13787D02*
X20186Y13774D01*
X20161Y13762*
X20124*
X20100Y13774*
X20087Y13787*
X20075Y13811*
Y13860*
X20087Y13885*
X20100Y13897*
X20124Y13910*
X20161*
X20186Y13897*
X20198Y13885*
X20296Y13762D02*
X20346D01*
X20321D02*
Y13910D01*
X20296Y13885*
X20469Y13799D02*
X20481Y13823D01*
X20506Y13836*
X20530*
X20555Y13823*
X20567Y13799*
X20555Y13774*
X20530Y13762*
X20506*
X20481Y13774*
X20469Y13799*
Y13836*
X20481Y13873*
X20506Y13897*
X20530Y13910*
X20525Y10462D02*
Y10610D01*
X20611*
X20636Y10597*
X20648Y10573*
X20636Y10548*
X20611Y10536*
X20525*
X20611D02*
X20648Y10462D01*
X20722Y10474D02*
X20746Y10462D01*
X20783*
X20808Y10474*
X20820Y10499*
Y10511*
X20808Y10536*
X20783Y10548*
X20722*
Y10610*
X20820*
X20919Y10474D02*
X20943Y10462D01*
X20980*
X21005Y10474*
X21017Y10499*
Y10511*
X21005Y10536*
X20980Y10548*
X20919*
Y10610*
X21017*
X21125Y8762D02*
Y8910D01*
X21211*
X21236Y8897*
X21248Y8873*
X21236Y8848*
X21211Y8836*
X21125*
X21211D02*
X21248Y8762D01*
X21420D02*
X21322D01*
X21408Y8848*
X21420Y8873*
X21408Y8897*
X21383Y8910*
X21346*
X21322Y8897*
X21580Y8762D02*
Y8910D01*
X21519Y8811*
X21617*
X21125Y13812D02*
Y13960D01*
X21211*
X21236Y13947*
X21248Y13923*
X21236Y13898*
X21211Y13886*
X21125*
X21211D02*
X21248Y13812D01*
X21322Y13849D02*
X21334Y13873D01*
X21359Y13886*
X21383*
X21408Y13873*
X21420Y13849*
X21408Y13824*
X21383Y13812*
X21359*
X21334Y13824*
X21322Y13849*
Y13886*
X21334Y13923*
X21359Y13947*
X21383Y13960*
X21531Y13824D02*
X21556Y13812D01*
X21580*
X21605Y13824*
X21617Y13849*
X21605Y13873*
X21580Y13886*
X21556*
X21580D02*
X21605Y13898D01*
X21617Y13923*
X21605Y13947*
X21580Y13960*
X21556*
X21531Y13947*
X21275Y16561D02*
Y16610D01*
X21287Y16635*
X21300Y16647*
X21324Y16660*
X21349*
X21373Y16647*
X21386Y16635*
X21398Y16610*
Y16561*
X21386Y16537*
X21373Y16524*
X21349Y16512*
X21324*
X21300Y16524*
X21287Y16537*
X21275Y16561*
X21361Y16549D02*
X21398Y16512D01*
X21496D02*
X21546D01*
X21521D02*
Y16660D01*
X21496Y16635*
X21669Y16549D02*
X21681Y16573D01*
X21706Y16586*
X21730*
X21755Y16573*
X21767Y16549*
X21755Y16524*
X21730Y16512*
X21706*
X21681Y16524*
X21669Y16549*
Y16586*
X21681Y16623*
X21706Y16647*
X21730Y16660*
X21598Y10487D02*
X21586Y10474D01*
X21561Y10462*
X21524*
X21500Y10474*
X21487Y10487*
X21475Y10511*
Y10560*
X21487Y10585*
X21500Y10597*
X21524Y10610*
X21561*
X21586Y10597*
X21598Y10585*
X21709Y10462D02*
X21733Y10474D01*
X21758Y10499*
X21770Y10536*
Y10573*
X21758Y10597*
X21733Y10610*
X21709*
X21684Y10597*
X21672Y10573*
X21684Y10548*
X21709Y10536*
X21733*
X21758Y10548*
X21770Y10573*
X21675Y7761D02*
Y7810D01*
X21687Y7835*
X21700Y7847*
X21724Y7860*
X21749*
X21773Y7847*
X21786Y7835*
X21798Y7810*
Y7761*
X21786Y7737*
X21773Y7724*
X21749Y7712*
X21724*
X21700Y7724*
X21687Y7737*
X21675Y7761*
X21761Y7749D02*
X21798Y7712D01*
X21909Y7786D02*
X21933D01*
X21958Y7798*
X21970Y7823*
X21958Y7847*
X21933Y7860*
X21909*
X21884Y7847*
X21872Y7823*
X21884Y7798*
X21909Y7786*
X21884Y7773*
X21872Y7749*
X21884Y7724*
X21909Y7712*
X21933*
X21958Y7724*
X21970Y7749*
X21958Y7773*
X21933Y7786*
X21975Y4662D02*
Y4810D01*
X22061*
X22086Y4797*
X22098Y4773*
X22086Y4748*
X22061Y4736*
X21975*
X22061D02*
X22098Y4662D01*
X22172D02*
X22270Y4810D01*
X22172*
X22393Y4662D02*
X22443D01*
X22418D02*
Y4810D01*
X22393Y4785*
X22225Y18462D02*
Y18610D01*
X22311*
X22336Y18597*
X22348Y18573*
X22336Y18548*
X22311Y18536*
X22225*
X22311D02*
X22348Y18462D01*
X22422D02*
X22520Y18610D01*
X22422*
X22656Y18462D02*
X22680Y18474D01*
X22705Y18499*
X22717Y18536*
Y18573*
X22705Y18597*
X22680Y18610*
X22656*
X22631Y18597*
X22619Y18573*
X22631Y18548*
X22656Y18536*
X22680*
X22705Y18548*
X22717Y18573*
X22375Y15412D02*
Y15560D01*
X22461*
X22486Y15547*
X22498Y15523*
X22486Y15498*
X22461Y15486*
X22375*
X22461D02*
X22498Y15412D01*
X22584Y15424D02*
X22609Y15412D01*
X22633*
X22658Y15424*
X22670Y15449*
X22658Y15473*
X22633Y15486*
X22609*
X22633D02*
X22658Y15498D01*
X22670Y15523*
X22658Y15547*
X22633Y15560*
X22609*
X22584Y15547*
X22867Y15412D02*
X22769D01*
X22855Y15498*
X22867Y15523*
X22855Y15547*
X22830Y15560*
X22793*
X22769Y15547*
X22598Y14587D02*
X22586Y14574D01*
X22561Y14562*
X22524*
X22500Y14574*
X22487Y14587*
X22475Y14611*
Y14660*
X22487Y14685*
X22500Y14697*
X22524Y14710*
X22561*
X22586Y14697*
X22598Y14685*
X22696Y14562D02*
X22746D01*
X22721D02*
Y14710D01*
X22696Y14685*
X22869Y14562D02*
X22967Y14710D01*
X22869*
D02*
D11*
X4560Y7960D02*
Y8490D01*
X5790*
Y7960*
X4560*
X4585Y6810D02*
Y7340D01*
X5815*
Y6810*
X4585*
X4910Y16460D02*
Y16990D01*
X6140*
Y16460*
X4910*
X5640Y14910D02*
X5110D01*
Y16140*
X5640*
Y14910*
X5810Y16140D02*
X6340D01*
Y14910*
X5810*
Y16140*
X5960Y8690D02*
X6490D01*
Y7460*
X5960*
Y8690*
X6310Y18940D02*
X6840D01*
Y17710*
X6310*
Y18940*
X6640Y5460D02*
X6110D01*
Y6690*
X6640*
Y5460*
X6885Y7910D02*
Y8440D01*
X8115*
Y7910*
X6885*
X7225Y15660D02*
Y16190D01*
X8455*
Y15660*
X7225*
X7390Y8810D02*
X6860D01*
Y10040*
X7390*
Y8810*
X7560Y10040D02*
X8090D01*
Y8810*
X7560*
Y10040*
X7790Y13960D02*
X7260D01*
Y15190*
X7790*
Y13960*
X7975Y15190D02*
X8505D01*
Y13960*
X7975*
Y15190*
X8490Y19090D02*
Y18560D01*
X7260*
Y19090*
X8490*
X8990Y5710D02*
X8460D01*
Y6940*
X8990*
Y5710*
X9185Y7910D02*
Y8440D01*
X10415*
Y7910*
X9185*
X9210Y10040D02*
X9740D01*
Y8810*
X9210*
Y10040*
X9610Y15710D02*
Y16240D01*
X10840*
Y15710*
X9610*
X9860Y10040D02*
X10390D01*
Y8810*
X9860*
Y10040*
X10190Y14060D02*
X9660D01*
Y15290*
X10190*
Y14060*
X10360Y15290D02*
X10890D01*
Y14060*
X10360*
Y15290*
Y18290D02*
X10890D01*
Y17060*
X10360*
Y18290*
X11240Y5810D02*
X10710D01*
Y7040*
X11240*
Y5810*
X11485Y7910D02*
Y8440D01*
X12715*
Y7910*
X11485*
X11990Y8810D02*
X11460D01*
Y10040*
X11990*
Y8810*
X12010Y15760D02*
Y16290D01*
X13240*
Y15760*
X12010*
X12160Y10040D02*
X12690D01*
Y8810*
X12160*
Y10040*
X12440Y14010D02*
X11910D01*
Y15240*
X12440*
Y14010*
X12610Y15240D02*
X13140D01*
Y14010*
X12610*
Y15240*
X12760Y18290D02*
X13290D01*
Y17060*
X12760*
Y18290*
X13490Y5710D02*
X12960D01*
Y6940*
X13490*
Y5710*
X13785Y7910D02*
Y8440D01*
X15015*
Y7910*
X13785*
X14340Y8860D02*
X13810D01*
Y10090*
X14340*
Y8860*
X14510Y10090D02*
X15040D01*
Y8860*
X14510*
Y10090*
Y15660D02*
Y16190D01*
X15740*
Y15660*
X14510*
X15090Y13960D02*
X14560D01*
Y15190*
X15090*
Y13960*
X15210Y18290D02*
X15740D01*
Y17060*
X15210*
Y18290*
X15310Y15190D02*
X15840D01*
Y13960*
X15310*
Y15190*
X15840Y5660D02*
X15310D01*
Y6890*
X15840*
Y5660*
X16235Y7910D02*
Y8440D01*
X17465*
Y7910*
X16235*
X16790Y8810D02*
X16260D01*
Y10040*
X16790*
Y8810*
X16960Y10040D02*
X17490D01*
Y8810*
X16960*
Y10040*
X17410Y15760D02*
Y16290D01*
X18640*
Y15760*
X17410*
X17490Y13960D02*
X16960D01*
Y15190*
X17490*
Y13960*
X17510Y18340D02*
X18040D01*
Y17110*
X17510*
Y18340*
X17660Y15190D02*
X18190D01*
Y13960*
X17660*
Y15190*
X18340Y5760D02*
X17810D01*
Y6990*
X18340*
Y5760*
X18685Y7910D02*
Y8440D01*
X19915*
Y7910*
X18685*
X19190Y8860D02*
X18660D01*
Y10090*
X19190*
Y8860*
X19360Y10090D02*
X19890D01*
Y8860*
X19360*
Y10090*
X19410Y15760D02*
Y16290D01*
X20640*
Y15760*
X19410*
X19810Y18340D02*
X20340D01*
Y17110*
X19810*
Y18340*
X19890Y14060D02*
X19360D01*
Y15290*
X19890*
Y14060*
X20060Y15290D02*
X20590D01*
Y14060*
X20060*
Y15290*
X20690Y5710D02*
X20160D01*
Y6940*
X20690*
Y5710*
X21040Y9110D02*
X20510D01*
Y10340*
X21040*
Y9110*
X21135Y8110D02*
Y8640D01*
X22365*
Y8110*
X21135*
X21410Y10340D02*
X21940D01*
Y9110*
X21410*
Y10340*
X21690Y14060D02*
X21160D01*
Y15290*
X21690*
Y14060*
X21760Y15660D02*
Y16190D01*
X22990*
Y15660*
X21760*
X21860Y15290D02*
X22390D01*
Y14060*
X21860*
Y15290*
X22210Y18340D02*
X22740D01*
Y17110*
X22210*
Y18340*
X22490Y4960D02*
X21960D01*
Y6190*
X22490*
Y4960*
D02*
D14*
X4125Y14175D02*
Y9175D01*
X5125*
Y14175*
X4125*
X8275Y2325D02*
Y4325D01*
X7275*
Y2325*
X8275*
X20275Y21025D02*
Y19025D01*
X21275*
Y21025*
X20275*
X21075Y2275D02*
Y4275D01*
X20075*
Y2275*
X21075*
X22625Y14175D02*
Y9175D01*
X23625*
Y14175*
X22625*
D02*
D96*
X5566Y9438D02*
X5583Y9408D01*
X5601Y9379*
X5613Y9344*
Y9308*
X5601Y9243*
X5589Y9219*
X5566Y9190*
X5518Y9160*
X5447Y9149*
X5406Y9155*
X5365Y9166*
X5329Y9190*
X5306Y9219*
X5288Y9261*
X5282Y9302*
X5288Y9355*
X5306Y9391*
X5335Y9414*
X5377Y9432*
X5388Y9391*
X5359Y9379*
X5335Y9361*
X5323Y9332*
X5318Y9302*
X5329Y9255*
X5353Y9219*
X5394Y9196*
X5447Y9190*
X5489Y9196*
X5518Y9202*
X5548Y9219*
X5566Y9243*
X5571Y9273*
X5577Y9308*
X5571Y9355*
X5542Y9397*
X5477*
Y9302*
X5442*
Y9438*
X5566*
X5607Y9751D02*
Y9710D01*
X5359Y9544*
X5607*
Y9503*
X5288*
Y9550*
X5536Y9710*
X5288*
Y9751*
X5607*
X5288Y9822D02*
Y9928D01*
X5294Y9981*
X5306Y10017*
X5335Y10052*
X5382Y10076*
X5447Y10082*
X5512Y10076*
X5560Y10046*
X5583Y10029*
X5595Y10005*
X5607Y9969*
Y9934*
Y9822*
X5288*
X5571Y9863D02*
Y9934D01*
Y9969*
X5554Y9999*
X5542Y10017*
X5518Y10029*
X5483Y10040*
X5447*
X5400Y10034*
X5359Y10023*
X5335Y9993*
X5323Y9964*
Y9928*
Y9863*
X5571*
X5416Y9153D02*
X5474D01*
X5378Y9162D02*
X5522D01*
X5356Y9172D02*
X5537D01*
X5342Y9181D02*
X5552D01*
X5329Y9191D02*
X5442D01*
X5452D02*
X5566D01*
X5321Y9200D02*
X5387D01*
X5509D02*
X5574D01*
X5314Y9209D02*
X5371D01*
X5531D02*
X5581D01*
X5306Y9219D02*
X5354D01*
X5547D02*
X5589D01*
X5302Y9228D02*
X5347D01*
X5554D02*
X5593D01*
X5298Y9237D02*
X5341D01*
X5561D02*
X5598D01*
X5294Y9247D02*
X5335D01*
X5566D02*
X5602D01*
X5290Y9256D02*
X5329D01*
X5568D02*
X5603D01*
X5287Y9266D02*
X5327D01*
X5570D02*
X5605D01*
X5286Y9275D02*
X5324D01*
X5572D02*
X5607D01*
X5285Y9284D02*
X5322D01*
X5573D02*
X5608D01*
X5283Y9294D02*
X5320D01*
X5575D02*
X5610D01*
X5282Y9303D02*
X5318D01*
X5442D02*
X5477D01*
X5577D02*
X5612D01*
X5283Y9312D02*
X5320D01*
X5442D02*
X5477D01*
X5577D02*
X5613D01*
X5284Y9322D02*
X5321D01*
X5442D02*
X5477D01*
X5576D02*
X5613D01*
X5285Y9331D02*
X5323D01*
X5442D02*
X5477D01*
X5574D02*
X5613D01*
X5286Y9341D02*
X5327D01*
X5442D02*
X5477D01*
X5573D02*
X5613D01*
X5287Y9350D02*
X5331D01*
X5442D02*
X5477D01*
X5572D02*
X5611D01*
X5290Y9359D02*
X5334D01*
X5442D02*
X5477D01*
X5569D02*
X5608D01*
X5295Y9369D02*
X5345D01*
X5442D02*
X5477D01*
X5562D02*
X5604D01*
X5299Y9378D02*
X5358D01*
X5442D02*
X5477D01*
X5555D02*
X5601D01*
X5304Y9387D02*
X5380D01*
X5442D02*
X5477D01*
X5549D02*
X5596D01*
X5313Y9397D02*
X5387D01*
X5442D02*
X5590D01*
X5325Y9406D02*
X5384D01*
X5442D02*
X5585D01*
X5338Y9415D02*
X5381D01*
X5442D02*
X5579D01*
X5360Y9425D02*
X5379D01*
X5442D02*
X5573D01*
X5442Y9434D02*
X5568D01*
X5288Y9509D02*
X5607D01*
X5288Y9519D02*
X5607D01*
X5288Y9528D02*
X5607D01*
X5288Y9537D02*
X5607D01*
X5288Y9547D02*
X5362D01*
X5297Y9556D02*
X5376D01*
X5312Y9565D02*
X5391D01*
X5326Y9575D02*
X5405D01*
X5341Y9584D02*
X5419D01*
X5355Y9594D02*
X5433D01*
X5370Y9603D02*
X5447D01*
X5385Y9612D02*
X5461D01*
X5399Y9622D02*
X5475D01*
X5414Y9631D02*
X5489D01*
X5428Y9640D02*
X5503D01*
X5443Y9650D02*
X5517D01*
X5457Y9659D02*
X5531D01*
X5472Y9668D02*
X5545D01*
X5487Y9678D02*
X5559D01*
X5501Y9687D02*
X5573D01*
X5516Y9697D02*
X5587D01*
X5530Y9706D02*
X5601D01*
X5288Y9715D02*
X5607D01*
X5288Y9725D02*
X5607D01*
X5288Y9734D02*
X5607D01*
X5288Y9743D02*
X5607D01*
X5288Y9828D02*
X5607D01*
X5288Y9837D02*
X5607D01*
X5288Y9846D02*
X5607D01*
X5288Y9856D02*
X5607D01*
X5288Y9865D02*
X5323D01*
X5571D02*
X5607D01*
X5288Y9875D02*
X5323D01*
X5571D02*
X5607D01*
X5288Y9884D02*
X5323D01*
X5571D02*
X5607D01*
X5288Y9893D02*
X5323D01*
X5571D02*
X5607D01*
X5288Y9903D02*
X5323D01*
X5571D02*
X5607D01*
X5288Y9912D02*
X5323D01*
X5571D02*
X5607D01*
X5288Y9921D02*
X5323D01*
X5571D02*
X5607D01*
X5288Y9931D02*
X5323D01*
X5571D02*
X5607D01*
X5289Y9940D02*
X5323D01*
X5571D02*
X5607D01*
X5290Y9950D02*
X5323D01*
X5571D02*
X5607D01*
X5291Y9959D02*
X5323D01*
X5571D02*
X5607D01*
X5292Y9968D02*
X5325D01*
X5571D02*
X5607D01*
X5294Y9978D02*
X5329D01*
X5567D02*
X5604D01*
X5296Y9987D02*
X5333D01*
X5561D02*
X5601D01*
X5299Y9996D02*
X5338D01*
X5555D02*
X5598D01*
X5302Y10006D02*
X5345D01*
X5549D02*
X5595D01*
X5305Y10015D02*
X5353D01*
X5543D02*
X5590D01*
X5312Y10025D02*
X5365D01*
X5526D02*
X5585D01*
X5320Y10034D02*
X5398D01*
X5502D02*
X5576D01*
X5328Y10043D02*
X5564D01*
X5336Y10053D02*
X5549D01*
X5355Y10062D02*
X5534D01*
X5374Y10071D02*
X5519D01*
X5437Y10081D02*
X5458D01*
X5282Y10596D02*
X5294Y10655D01*
X5329Y10703*
X5382Y10732*
X5447Y10744*
X5518Y10732*
X5566Y10703*
X5601Y10655*
X5613Y10596*
X5601Y10537*
X5589Y10514*
X5566Y10490*
X5512Y10460*
X5453Y10449*
X5382Y10460*
X5329Y10490*
X5294Y10537*
X5282Y10596*
X5577D02*
X5571Y10638D01*
X5542Y10673*
X5501Y10697*
X5447Y10703*
X5394Y10697*
X5353Y10673*
X5329Y10638*
X5318Y10596*
X5323Y10555*
X5353Y10519*
X5394Y10496*
X5453Y10490*
X5501Y10496*
X5542Y10519*
X5571Y10555*
X5577Y10596*
X5607Y11039D02*
Y10803D01*
X5288*
Y11033*
X5323*
Y10844*
X5424*
Y11021*
X5459*
Y10844*
X5571*
Y11039*
X5607*
X5426Y10453D02*
X5476D01*
X5379Y10462D02*
X5516D01*
X5362Y10472D02*
X5533D01*
X5345Y10481D02*
X5550D01*
X5329Y10491D02*
X5447D01*
X5458D02*
X5566D01*
X5322Y10500D02*
X5387D01*
X5508D02*
X5576D01*
X5315Y10509D02*
X5371D01*
X5524D02*
X5585D01*
X5308Y10519D02*
X5354D01*
X5541D02*
X5592D01*
X5301Y10528D02*
X5346D01*
X5549D02*
X5596D01*
X5294Y10537D02*
X5338D01*
X5557D02*
X5601D01*
X5292Y10547D02*
X5330D01*
X5565D02*
X5603D01*
X5290Y10556D02*
X5323D01*
X5572D02*
X5605D01*
X5288Y10566D02*
X5322D01*
X5573D02*
X5607D01*
X5286Y10575D02*
X5321D01*
X5574D02*
X5609D01*
X5284Y10584D02*
X5319D01*
X5576D02*
X5610D01*
X5283Y10594D02*
X5318D01*
X5577D02*
X5612D01*
X5283Y10603D02*
X5319D01*
X5576D02*
X5611D01*
X5285Y10612D02*
X5322D01*
X5575D02*
X5610D01*
X5287Y10622D02*
X5325D01*
X5574D02*
X5608D01*
X5289Y10631D02*
X5327D01*
X5572D02*
X5606D01*
X5291Y10641D02*
X5331D01*
X5569D02*
X5604D01*
X5293Y10650D02*
X5338D01*
X5561D02*
X5602D01*
X5297Y10659D02*
X5344D01*
X5553D02*
X5598D01*
X5304Y10669D02*
X5350D01*
X5546D02*
X5591D01*
X5311Y10678D02*
X5362D01*
X5533D02*
X5584D01*
X5318Y10687D02*
X5378D01*
X5517D02*
X5577D01*
X5325Y10697D02*
X5394D01*
X5500D02*
X5570D01*
X5336Y10706D02*
X5560D01*
X5353Y10715D02*
X5545D01*
X5369Y10725D02*
X5530D01*
X5394Y10734D02*
X5506D01*
X5446Y10744D02*
X5449D01*
X5288Y10809D02*
X5607D01*
X5288Y10819D02*
X5607D01*
X5288Y10828D02*
X5607D01*
X5288Y10837D02*
X5607D01*
X5288Y10847D02*
X5323D01*
X5424D02*
X5459D01*
X5571D02*
X5607D01*
X5288Y10856D02*
X5323D01*
X5424D02*
X5459D01*
X5571D02*
X5607D01*
X5288Y10865D02*
X5323D01*
X5424D02*
X5459D01*
X5571D02*
X5607D01*
X5288Y10875D02*
X5323D01*
X5424D02*
X5459D01*
X5571D02*
X5607D01*
X5288Y10884D02*
X5323D01*
X5424D02*
X5459D01*
X5571D02*
X5607D01*
X5288Y10894D02*
X5323D01*
X5424D02*
X5459D01*
X5571D02*
X5607D01*
X5288Y10903D02*
X5323D01*
X5424D02*
X5459D01*
X5571D02*
X5607D01*
X5288Y10912D02*
X5323D01*
X5424D02*
X5459D01*
X5571D02*
X5607D01*
X5288Y10922D02*
X5323D01*
X5424D02*
X5459D01*
X5571D02*
X5607D01*
X5288Y10931D02*
X5323D01*
X5424D02*
X5459D01*
X5571D02*
X5607D01*
X5288Y10940D02*
X5323D01*
X5424D02*
X5459D01*
X5571D02*
X5607D01*
X5288Y10950D02*
X5323D01*
X5424D02*
X5459D01*
X5571D02*
X5607D01*
X5288Y10959D02*
X5323D01*
X5424D02*
X5459D01*
X5571D02*
X5607D01*
X5288Y10968D02*
X5323D01*
X5424D02*
X5459D01*
X5571D02*
X5607D01*
X5288Y10978D02*
X5323D01*
X5424D02*
X5459D01*
X5571D02*
X5607D01*
X5288Y10987D02*
X5323D01*
X5424D02*
X5459D01*
X5571D02*
X5607D01*
X5288Y10997D02*
X5323D01*
X5424D02*
X5459D01*
X5571D02*
X5607D01*
X5288Y11006D02*
X5323D01*
X5424D02*
X5459D01*
X5571D02*
X5607D01*
X5288Y11015D02*
X5323D01*
X5424D02*
X5459D01*
X5571D02*
X5607D01*
X5288Y11025D02*
X5323D01*
X5571D02*
X5607D01*
X5571Y11034D02*
X5607D01*
X5382Y11444D02*
X5353Y11438D01*
X5335Y11426*
X5323Y11402*
X5318Y11373*
X5323Y11343*
X5329Y11319*
X5347Y11308*
X5365Y11302*
X5388Y11308*
X5400Y11314*
X5412Y11337*
X5418Y11373*
X5430Y11408*
X5436Y11438*
X5465Y11479*
X5489Y11491*
X5518Y11497*
X5554Y11491*
X5583Y11467*
X5607Y11426*
X5613Y11379*
X5607Y11325*
X5583Y11284*
X5548Y11260*
X5506Y11249*
X5501Y11290*
X5536Y11296*
X5560Y11319*
X5571Y11349*
X5577Y11379*
X5571Y11408*
X5566Y11438*
X5548Y11449*
X5524Y11455*
X5501Y11449*
X5483Y11432*
X5471Y11402*
X5459Y11361*
X5447Y11314*
X5424Y11284*
X5400Y11266*
X5371Y11260*
X5335Y11266*
X5306Y11290*
X5288Y11325*
X5282Y11367*
X5288Y11414*
X5306Y11449*
X5341Y11473*
X5377Y11485*
X5382Y11444*
X5506Y11821D02*
X5554Y11804D01*
X5589Y11774*
X5607Y11739*
X5613Y11692*
Y11656*
X5601Y11627*
X5583Y11597*
X5566Y11579*
X5512Y11556*
X5447Y11544*
X5377Y11556*
X5323Y11585*
X5294Y11632*
X5282Y11692*
X5288Y11733*
X5306Y11768*
X5335Y11798*
X5371Y11816*
X5382Y11774*
X5353Y11762*
X5335Y11745*
X5323Y11721*
X5318Y11692*
X5329Y11644*
X5353Y11615*
X5394Y11591*
X5447Y11585*
X5506Y11591*
X5548Y11615*
X5571Y11644*
X5577Y11686*
X5571Y11721*
X5560Y11745*
X5530Y11768*
X5495Y11780*
X5506Y11821*
X5607Y12075D02*
Y11875D01*
X5288*
Y11916*
X5571*
Y12075*
X5607*
X5506Y11253D02*
X5522D01*
X5358Y11262D02*
X5381D01*
X5505D02*
X5551D01*
X5328Y11272D02*
X5408D01*
X5503D02*
X5565D01*
X5317Y11281D02*
X5420D01*
X5502D02*
X5579D01*
X5305Y11291D02*
X5429D01*
X5504D02*
X5587D01*
X5301Y11300D02*
X5437D01*
X5540D02*
X5592D01*
X5296Y11309D02*
X5345D01*
X5392D02*
X5444D01*
X5549D02*
X5598D01*
X5291Y11319D02*
X5331D01*
X5403D02*
X5449D01*
X5559D02*
X5603D01*
X5288Y11328D02*
X5327D01*
X5407D02*
X5451D01*
X5563D02*
X5607D01*
X5286Y11337D02*
X5325D01*
X5412D02*
X5453D01*
X5567D02*
X5608D01*
X5285Y11347D02*
X5323D01*
X5414D02*
X5456D01*
X5571D02*
X5609D01*
X5284Y11356D02*
X5321D01*
X5415D02*
X5458D01*
X5573D02*
X5610D01*
X5282Y11366D02*
X5319D01*
X5417D02*
X5461D01*
X5575D02*
X5611D01*
X5283Y11375D02*
X5318D01*
X5419D02*
X5463D01*
X5577D02*
X5612D01*
X5284Y11384D02*
X5320D01*
X5422D02*
X5466D01*
X5576D02*
X5612D01*
X5285Y11394D02*
X5322D01*
X5425D02*
X5469D01*
X5574D02*
X5611D01*
X5287Y11403D02*
X5324D01*
X5428D02*
X5471D01*
X5572D02*
X5610D01*
X5288Y11412D02*
X5329D01*
X5431D02*
X5475D01*
X5571D02*
X5609D01*
X5292Y11422D02*
X5333D01*
X5432D02*
X5479D01*
X5569D02*
X5607D01*
X5297Y11431D02*
X5343D01*
X5434D02*
X5483D01*
X5567D02*
X5604D01*
X5301Y11441D02*
X5368D01*
X5438D02*
X5492D01*
X5561D02*
X5598D01*
X5306Y11450D02*
X5382D01*
X5444D02*
X5502D01*
X5546D02*
X5593D01*
X5320Y11459D02*
X5380D01*
X5451D02*
X5588D01*
X5335Y11469D02*
X5379D01*
X5458D02*
X5581D01*
X5356Y11478D02*
X5378D01*
X5464D02*
X5570D01*
X5482Y11487D02*
X5558D01*
X5393Y11553D02*
X5497D01*
X5365Y11562D02*
X5527D01*
X5348Y11572D02*
X5548D01*
X5331Y11581D02*
X5567D01*
X5320Y11590D02*
X5401D01*
X5499D02*
X5577D01*
X5314Y11600D02*
X5379D01*
X5522D02*
X5585D01*
X5308Y11609D02*
X5363D01*
X5538D02*
X5591D01*
X5303Y11619D02*
X5350D01*
X5551D02*
X5596D01*
X5297Y11628D02*
X5342D01*
X5558D02*
X5602D01*
X5293Y11637D02*
X5335D01*
X5566D02*
X5605D01*
X5291Y11647D02*
X5329D01*
X5572D02*
X5609D01*
X5289Y11656D02*
X5326D01*
X5573D02*
X5613D01*
X5287Y11665D02*
X5324D01*
X5574D02*
X5613D01*
X5285Y11675D02*
X5322D01*
X5576D02*
X5613D01*
X5284Y11684D02*
X5319D01*
X5577D02*
X5613D01*
X5282Y11694D02*
X5318D01*
X5576D02*
X5613D01*
X5284Y11703D02*
X5320D01*
X5574D02*
X5611D01*
X5285Y11712D02*
X5322D01*
X5573D02*
X5610D01*
X5286Y11722D02*
X5324D01*
X5571D02*
X5609D01*
X5288Y11731D02*
X5328D01*
X5566D02*
X5608D01*
X5292Y11740D02*
X5333D01*
X5562D02*
X5606D01*
X5296Y11750D02*
X5340D01*
X5553D02*
X5601D01*
X5301Y11759D02*
X5350D01*
X5542D02*
X5597D01*
X5306Y11768D02*
X5368D01*
X5530D02*
X5592D01*
X5315Y11778D02*
X5381D01*
X5502D02*
X5585D01*
X5325Y11787D02*
X5379D01*
X5497D02*
X5574D01*
X5334Y11797D02*
X5376D01*
X5499D02*
X5562D01*
X5351Y11806D02*
X5373D01*
X5502D02*
X5548D01*
X5370Y11815D02*
X5371D01*
X5505D02*
X5523D01*
X5288Y11881D02*
X5607D01*
X5288Y11890D02*
X5607D01*
X5288Y11900D02*
X5607D01*
X5288Y11909D02*
X5607D01*
X5571Y11918D02*
X5607D01*
X5571Y11928D02*
X5607D01*
X5571Y11937D02*
X5607D01*
X5571Y11946D02*
X5607D01*
X5571Y11956D02*
X5607D01*
X5571Y11965D02*
X5607D01*
X5571Y11975D02*
X5607D01*
X5571Y11984D02*
X5607D01*
X5571Y11993D02*
X5607D01*
X5571Y12003D02*
X5607D01*
X5571Y12012D02*
X5607D01*
X5571Y12021D02*
X5607D01*
X5571Y12031D02*
X5607D01*
X5571Y12040D02*
X5607D01*
X5571Y12050D02*
X5607D01*
X5571Y12059D02*
X5607D01*
X5571Y12068D02*
X5607D01*
X5382Y12444D02*
X5353Y12438D01*
X5335Y12426*
X5323Y12402*
X5318Y12373*
X5323Y12343*
X5329Y12319*
X5347Y12308*
X5365Y12302*
X5388Y12308*
X5400Y12314*
X5412Y12337*
X5418Y12373*
X5430Y12408*
X5436Y12438*
X5465Y12479*
X5489Y12491*
X5518Y12497*
X5554Y12491*
X5583Y12467*
X5607Y12426*
X5613Y12379*
X5607Y12325*
X5583Y12284*
X5548Y12260*
X5506Y12249*
X5501Y12290*
X5536Y12296*
X5560Y12319*
X5571Y12349*
X5577Y12379*
X5571Y12408*
X5566Y12438*
X5548Y12449*
X5524Y12455*
X5501Y12449*
X5483Y12432*
X5471Y12402*
X5459Y12361*
X5447Y12314*
X5424Y12284*
X5400Y12266*
X5371Y12260*
X5335Y12266*
X5306Y12290*
X5288Y12325*
X5282Y12367*
X5288Y12414*
X5306Y12449*
X5341Y12473*
X5377Y12485*
X5382Y12444*
X5288Y12556D02*
Y12662D01*
X5294Y12715*
X5306Y12751*
X5335Y12786*
X5382Y12810*
X5447Y12816*
X5512Y12810*
X5560Y12780*
X5583Y12762*
X5595Y12739*
X5607Y12703*
Y12668*
Y12556*
X5288*
X5571Y12597D02*
Y12668D01*
Y12703*
X5554Y12733*
X5542Y12751*
X5518Y12762*
X5483Y12774*
X5447*
X5400Y12768*
X5359Y12756*
X5335Y12727*
X5323Y12697*
Y12662*
Y12597*
X5571*
X5607Y13134D02*
Y13093D01*
X5512Y13052*
Y12916*
X5607Y12881*
Y12839*
X5288Y12963*
Y13005*
X5607Y13134*
X5477Y13040D02*
X5430Y13022D01*
X5394Y13005*
X5371Y12999*
X5359Y12993*
X5323Y12987*
Y12981*
X5382Y12969*
X5477Y12934*
Y13040*
X5506Y12253D02*
X5522D01*
X5358Y12262D02*
X5381D01*
X5505D02*
X5551D01*
X5328Y12272D02*
X5408D01*
X5503D02*
X5565D01*
X5317Y12281D02*
X5420D01*
X5502D02*
X5579D01*
X5305Y12291D02*
X5429D01*
X5504D02*
X5587D01*
X5301Y12300D02*
X5437D01*
X5540D02*
X5592D01*
X5296Y12309D02*
X5345D01*
X5392D02*
X5444D01*
X5549D02*
X5598D01*
X5291Y12319D02*
X5331D01*
X5403D02*
X5449D01*
X5559D02*
X5603D01*
X5288Y12328D02*
X5327D01*
X5407D02*
X5451D01*
X5563D02*
X5607D01*
X5286Y12337D02*
X5325D01*
X5412D02*
X5453D01*
X5567D02*
X5608D01*
X5285Y12347D02*
X5323D01*
X5414D02*
X5456D01*
X5571D02*
X5609D01*
X5284Y12356D02*
X5321D01*
X5415D02*
X5458D01*
X5573D02*
X5610D01*
X5282Y12366D02*
X5319D01*
X5417D02*
X5461D01*
X5575D02*
X5611D01*
X5283Y12375D02*
X5318D01*
X5419D02*
X5463D01*
X5577D02*
X5612D01*
X5284Y12384D02*
X5320D01*
X5422D02*
X5466D01*
X5576D02*
X5612D01*
X5285Y12394D02*
X5322D01*
X5425D02*
X5469D01*
X5574D02*
X5611D01*
X5287Y12403D02*
X5324D01*
X5428D02*
X5471D01*
X5572D02*
X5610D01*
X5288Y12412D02*
X5329D01*
X5431D02*
X5475D01*
X5571D02*
X5609D01*
X5292Y12422D02*
X5333D01*
X5432D02*
X5479D01*
X5569D02*
X5607D01*
X5297Y12431D02*
X5343D01*
X5434D02*
X5483D01*
X5567D02*
X5604D01*
X5301Y12441D02*
X5368D01*
X5438D02*
X5492D01*
X5561D02*
X5598D01*
X5306Y12450D02*
X5382D01*
X5444D02*
X5502D01*
X5546D02*
X5593D01*
X5320Y12459D02*
X5380D01*
X5451D02*
X5588D01*
X5335Y12469D02*
X5379D01*
X5458D02*
X5581D01*
X5356Y12478D02*
X5378D01*
X5464D02*
X5570D01*
X5482Y12487D02*
X5558D01*
X5288Y12562D02*
X5607D01*
X5288Y12572D02*
X5607D01*
X5288Y12581D02*
X5607D01*
X5288Y12590D02*
X5607D01*
X5288Y12600D02*
X5323D01*
X5571D02*
X5607D01*
X5288Y12609D02*
X5323D01*
X5571D02*
X5607D01*
X5288Y12619D02*
X5323D01*
X5571D02*
X5607D01*
X5288Y12628D02*
X5323D01*
X5571D02*
X5607D01*
X5288Y12637D02*
X5323D01*
X5571D02*
X5607D01*
X5288Y12647D02*
X5323D01*
X5571D02*
X5607D01*
X5288Y12656D02*
X5323D01*
X5571D02*
X5607D01*
X5288Y12665D02*
X5323D01*
X5571D02*
X5607D01*
X5289Y12675D02*
X5323D01*
X5571D02*
X5607D01*
X5290Y12684D02*
X5323D01*
X5571D02*
X5607D01*
X5291Y12694D02*
X5323D01*
X5571D02*
X5607D01*
X5293Y12703D02*
X5326D01*
X5571D02*
X5607D01*
X5294Y12712D02*
X5329D01*
X5566D02*
X5604D01*
X5296Y12722D02*
X5333D01*
X5561D02*
X5601D01*
X5299Y12731D02*
X5338D01*
X5555D02*
X5598D01*
X5302Y12740D02*
X5346D01*
X5549D02*
X5594D01*
X5305Y12750D02*
X5353D01*
X5543D02*
X5590D01*
X5313Y12759D02*
X5368D01*
X5525D02*
X5585D01*
X5321Y12768D02*
X5400D01*
X5500D02*
X5575D01*
X5328Y12778D02*
X5563D01*
X5338Y12787D02*
X5548D01*
X5356Y12797D02*
X5533D01*
X5375Y12806D02*
X5518D01*
X5445Y12815D02*
X5450D01*
X5596Y12843D02*
X5607D01*
X5572Y12853D02*
X5607D01*
X5548Y12862D02*
X5607D01*
X5524Y12872D02*
X5607D01*
X5500Y12881D02*
X5606D01*
X5475Y12890D02*
X5581D01*
X5451Y12900D02*
X5556D01*
X5427Y12909D02*
X5531D01*
X5403Y12918D02*
X5512D01*
X5379Y12928D02*
X5512D01*
X5355Y12937D02*
X5468D01*
X5477D02*
X5512D01*
X5331Y12946D02*
X5443D01*
X5477D02*
X5512D01*
X5307Y12956D02*
X5418D01*
X5477D02*
X5512D01*
X5288Y12965D02*
X5393D01*
X5477D02*
X5512D01*
X5288Y12975D02*
X5355D01*
X5477D02*
X5512D01*
X5288Y12984D02*
X5323D01*
X5477D02*
X5512D01*
X5288Y12993D02*
X5360D01*
X5477D02*
X5512D01*
X5288Y13003D02*
X5387D01*
X5477D02*
X5512D01*
X5307Y13012D02*
X5409D01*
X5477D02*
X5512D01*
X5330Y13021D02*
X5428D01*
X5477D02*
X5512D01*
X5353Y13031D02*
X5453D01*
X5477D02*
X5512D01*
X5376Y13040D02*
X5512D01*
X5399Y13050D02*
X5512D01*
X5422Y13059D02*
X5529D01*
X5445Y13068D02*
X5550D01*
X5468Y13078D02*
X5572D01*
X5491Y13087D02*
X5593D01*
X5514Y13096D02*
X5607D01*
X5537Y13106D02*
X5607D01*
X5560Y13115D02*
X5607D01*
X5583Y13125D02*
X5607D01*
X5606Y13134D02*
X5607D01*
X5412Y13546D02*
X5400Y13575D01*
X5394Y13611*
X5400Y13646*
X5424Y13676*
X5459Y13699*
X5501Y13705*
X5542Y13699*
X5577Y13676*
X5607Y13640*
X5613Y13593*
X5607Y13558*
X5589Y13528*
X5560Y13505*
X5524Y13493*
X5518Y13534*
X5548Y13540*
X5566Y13558*
X5577Y13575*
X5583Y13599*
X5577Y13623*
X5560Y13646*
X5536Y13658*
X5501Y13664*
X5471Y13658*
X5447Y13646*
X5430Y13623*
X5424Y13599*
X5430Y13564*
X5453Y13540*
X5447Y13499*
X5294Y13528*
Y13694*
X5323*
Y13564*
X5412Y13546*
X5377Y13936D02*
X5607Y13853D01*
Y13818*
X5377Y13729*
Y13764*
X5512Y13818*
X5542Y13829*
X5560Y13835*
X5524Y13847*
X5377Y13900*
Y13936*
X5524Y13494D02*
X5527D01*
X5424Y13503D02*
X5448D01*
X5523D02*
X5555D01*
X5375Y13512D02*
X5449D01*
X5521D02*
X5570D01*
X5327Y13522D02*
X5451D01*
X5520D02*
X5581D01*
X5294Y13531D02*
X5452D01*
X5519D02*
X5591D01*
X5294Y13541D02*
X5453D01*
X5548D02*
X5597D01*
X5294Y13550D02*
X5392D01*
X5410D02*
X5443D01*
X5558D02*
X5602D01*
X5294Y13559D02*
X5345D01*
X5407D02*
X5434D01*
X5567D02*
X5607D01*
X5294Y13569D02*
X5323D01*
X5403D02*
X5429D01*
X5573D02*
X5609D01*
X5294Y13578D02*
X5323D01*
X5400D02*
X5427D01*
X5578D02*
X5610D01*
X5294Y13587D02*
X5323D01*
X5398D02*
X5426D01*
X5580D02*
X5612D01*
X5294Y13597D02*
X5323D01*
X5397D02*
X5424D01*
X5583D02*
X5612D01*
X5294Y13606D02*
X5323D01*
X5395D02*
X5426D01*
X5581D02*
X5611D01*
X5294Y13616D02*
X5323D01*
X5395D02*
X5428D01*
X5579D02*
X5610D01*
X5294Y13625D02*
X5323D01*
X5397D02*
X5431D01*
X5576D02*
X5609D01*
X5294Y13634D02*
X5323D01*
X5398D02*
X5438D01*
X5569D02*
X5608D01*
X5294Y13644D02*
X5323D01*
X5400D02*
X5445D01*
X5562D02*
X5604D01*
X5294Y13653D02*
X5323D01*
X5406D02*
X5461D01*
X5546D02*
X5596D01*
X5294Y13662D02*
X5323D01*
X5413D02*
X5493D01*
X5510D02*
X5589D01*
X5294Y13672D02*
X5323D01*
X5421D02*
X5581D01*
X5294Y13681D02*
X5323D01*
X5432D02*
X5569D01*
X5294Y13691D02*
X5323D01*
X5446D02*
X5555D01*
X5463Y13700D02*
X5539D01*
X5377Y13737D02*
X5398D01*
X5377Y13747D02*
X5423D01*
X5377Y13756D02*
X5447D01*
X5379Y13765D02*
X5472D01*
X5403Y13775D02*
X5496D01*
X5427Y13784D02*
X5520D01*
X5451Y13794D02*
X5545D01*
X5475Y13803D02*
X5569D01*
X5499Y13812D02*
X5593D01*
X5523Y13822D02*
X5607D01*
X5547Y13831D02*
X5607D01*
X5544Y13840D02*
X5607D01*
X5517Y13850D02*
X5607D01*
X5491Y13859D02*
X5590D01*
X5464Y13869D02*
X5563D01*
X5438Y13878D02*
X5537D01*
X5412Y13887D02*
X5511D01*
X5386Y13897D02*
X5485D01*
X5377Y13906D02*
X5459D01*
X5377Y13915D02*
X5433D01*
X5377Y13925D02*
X5407D01*
X5377Y13934D02*
X5381D01*
X7039Y3292D02*
Y3209D01*
X6732*
Y2879*
X7039*
Y2796*
X6401*
Y2879*
X6661*
Y3209*
X6401*
Y3292*
X7039*
X6401Y3942D02*
X7039Y3705D01*
Y3599*
X6401Y3363*
Y3445*
X6862Y3623*
X6968Y3658*
X6862Y3682*
X6401Y3859*
Y3942*
Y2800D02*
X7039D01*
X6401Y2809D02*
X7039D01*
X6401Y2819D02*
X7039D01*
X6401Y2828D02*
X7039D01*
X6401Y2837D02*
X7039D01*
X6401Y2847D02*
X7039D01*
X6401Y2856D02*
X7039D01*
X6401Y2866D02*
X7039D01*
X6401Y2875D02*
X7039D01*
X6661Y2884D02*
X6732D01*
X6661Y2894D02*
X6732D01*
X6661Y2903D02*
X6732D01*
X6661Y2912D02*
X6732D01*
X6661Y2922D02*
X6732D01*
X6661Y2931D02*
X6732D01*
X6661Y2941D02*
X6732D01*
X6661Y2950D02*
X6732D01*
X6661Y2959D02*
X6732D01*
X6661Y2969D02*
X6732D01*
X6661Y2978D02*
X6732D01*
X6661Y2987D02*
X6732D01*
X6661Y2997D02*
X6732D01*
X6661Y3006D02*
X6732D01*
X6661Y3015D02*
X6732D01*
X6661Y3025D02*
X6732D01*
X6661Y3034D02*
X6732D01*
X6661Y3044D02*
X6732D01*
X6661Y3053D02*
X6732D01*
X6661Y3062D02*
X6732D01*
X6661Y3072D02*
X6732D01*
X6661Y3081D02*
X6732D01*
X6661Y3090D02*
X6732D01*
X6661Y3100D02*
X6732D01*
X6661Y3109D02*
X6732D01*
X6661Y3119D02*
X6732D01*
X6661Y3128D02*
X6732D01*
X6661Y3137D02*
X6732D01*
X6661Y3147D02*
X6732D01*
X6661Y3156D02*
X6732D01*
X6661Y3165D02*
X6732D01*
X6661Y3175D02*
X6732D01*
X6661Y3184D02*
X6732D01*
X6661Y3194D02*
X6732D01*
X6661Y3203D02*
X6732D01*
X6401Y3212D02*
X7039D01*
X6401Y3222D02*
X7039D01*
X6401Y3231D02*
X7039D01*
X6401Y3240D02*
X7039D01*
X6401Y3250D02*
X7039D01*
X6401Y3259D02*
X7039D01*
X6401Y3268D02*
X7039D01*
X6401Y3278D02*
X7039D01*
X6401Y3287D02*
X7039D01*
X6401Y3372D02*
X6425D01*
X6401Y3381D02*
X6450D01*
X6401Y3390D02*
X6475D01*
X6401Y3400D02*
X6500D01*
X6401Y3409D02*
X6526D01*
X6401Y3418D02*
X6551D01*
X6401Y3428D02*
X6576D01*
X6401Y3437D02*
X6602D01*
X6404Y3446D02*
X6627D01*
X6428Y3456D02*
X6652D01*
X6452Y3465D02*
X6678D01*
X6477Y3475D02*
X6703D01*
X6501Y3484D02*
X6728D01*
X6525Y3493D02*
X6753D01*
X6550Y3503D02*
X6779D01*
X6574Y3512D02*
X6804D01*
X6599Y3521D02*
X6829D01*
X6623Y3531D02*
X6855D01*
X6647Y3540D02*
X6880D01*
X6672Y3550D02*
X6905D01*
X6696Y3559D02*
X6931D01*
X6720Y3568D02*
X6956D01*
X6745Y3578D02*
X6981D01*
X6769Y3587D02*
X7006D01*
X6793Y3596D02*
X7032D01*
X6818Y3606D02*
X7039D01*
X6842Y3615D02*
X7039D01*
X6867Y3625D02*
X7039D01*
X6895Y3634D02*
X7039D01*
X6924Y3643D02*
X7039D01*
X6952Y3653D02*
X7039D01*
X6950Y3662D02*
X7039D01*
X6908Y3671D02*
X7039D01*
X6866Y3681D02*
X7039D01*
X6840Y3690D02*
X7039D01*
X6815Y3699D02*
X7039D01*
X6791Y3709D02*
X7029D01*
X6767Y3718D02*
X7004D01*
X6742Y3728D02*
X6979D01*
X6718Y3737D02*
X6953D01*
X6694Y3746D02*
X6928D01*
X6669Y3756D02*
X6903D01*
X6645Y3765D02*
X6877D01*
X6620Y3774D02*
X6852D01*
X6596Y3784D02*
X6827D01*
X6572Y3793D02*
X6802D01*
X6547Y3803D02*
X6776D01*
X6523Y3812D02*
X6751D01*
X6499Y3821D02*
X6726D01*
X6474Y3831D02*
X6700D01*
X6450Y3840D02*
X6675D01*
X6426Y3849D02*
X6650D01*
X6401Y3859D02*
X6624D01*
X6401Y3868D02*
X6599D01*
X6401Y3878D02*
X6574D01*
X6401Y3887D02*
X6549D01*
X6401Y3896D02*
X6523D01*
X6401Y3906D02*
X6498D01*
X6401Y3915D02*
X6473D01*
X6401Y3924D02*
X6447D01*
X6401Y3934D02*
X6422D01*
X8626Y3947D02*
Y3699D01*
X8567*
Y3947*
X8626*
X8567Y3703D02*
X8626D01*
X8567Y3712D02*
X8626D01*
X8567Y3722D02*
X8626D01*
X8567Y3731D02*
X8626D01*
X8567Y3741D02*
X8626D01*
X8567Y3750D02*
X8626D01*
X8567Y3759D02*
X8626D01*
X8567Y3769D02*
X8626D01*
X8567Y3778D02*
X8626D01*
X8567Y3787D02*
X8626D01*
X8567Y3797D02*
X8626D01*
X8567Y3806D02*
X8626D01*
X8567Y3816D02*
X8626D01*
X8567Y3825D02*
X8626D01*
X8567Y3834D02*
X8626D01*
X8567Y3844D02*
X8626D01*
X8567Y3853D02*
X8626D01*
X8567Y3862D02*
X8626D01*
X8567Y3872D02*
X8626D01*
X8567Y3881D02*
X8626D01*
X8567Y3891D02*
X8626D01*
X8567Y3900D02*
X8626D01*
X8567Y3909D02*
X8626D01*
X8567Y3919D02*
X8626D01*
X8567Y3928D02*
X8626D01*
X8567Y3937D02*
X8626D01*
X8667Y3047D02*
Y2870D01*
X8844*
Y2788*
X8667*
Y2610*
X8584*
Y2788*
X8407*
Y2870*
X8584*
Y3047*
X8667*
X8584Y2612D02*
X8667D01*
X8584Y2622D02*
X8667D01*
X8584Y2631D02*
X8667D01*
X8584Y2641D02*
X8667D01*
X8584Y2650D02*
X8667D01*
X8584Y2659D02*
X8667D01*
X8584Y2669D02*
X8667D01*
X8584Y2678D02*
X8667D01*
X8584Y2687D02*
X8667D01*
X8584Y2697D02*
X8667D01*
X8584Y2706D02*
X8667D01*
X8584Y2716D02*
X8667D01*
X8584Y2725D02*
X8667D01*
X8584Y2734D02*
X8667D01*
X8584Y2744D02*
X8667D01*
X8584Y2753D02*
X8667D01*
X8584Y2762D02*
X8667D01*
X8584Y2772D02*
X8667D01*
X8584Y2781D02*
X8667D01*
X8407Y2791D02*
X8844D01*
X8407Y2800D02*
X8844D01*
X8407Y2809D02*
X8844D01*
X8407Y2819D02*
X8844D01*
X8407Y2828D02*
X8844D01*
X8407Y2837D02*
X8844D01*
X8407Y2847D02*
X8844D01*
X8407Y2856D02*
X8844D01*
X8407Y2865D02*
X8844D01*
X8584Y2875D02*
X8667D01*
X8584Y2884D02*
X8667D01*
X8584Y2894D02*
X8667D01*
X8584Y2903D02*
X8667D01*
X8584Y2912D02*
X8667D01*
X8584Y2922D02*
X8667D01*
X8584Y2931D02*
X8667D01*
X8584Y2940D02*
X8667D01*
X8584Y2950D02*
X8667D01*
X8584Y2959D02*
X8667D01*
X8584Y2969D02*
X8667D01*
X8584Y2978D02*
X8667D01*
X8584Y2987D02*
X8667D01*
X8584Y2997D02*
X8667D01*
X8584Y3006D02*
X8667D01*
X8584Y3015D02*
X8667D01*
X8584Y3025D02*
X8667D01*
X8584Y3034D02*
X8667D01*
X8584Y3044D02*
X8667D01*
X19839Y3192D02*
Y3109D01*
X19532*
Y2779*
X19839*
Y2696*
X19201*
Y2779*
X19461*
Y3109*
X19201*
Y3192*
X19839*
X19201Y3842D02*
X19839Y3605D01*
Y3499*
X19201Y3263*
Y3345*
X19662Y3523*
X19768Y3558*
X19662Y3582*
X19201Y3759*
Y3842*
Y2700D02*
X19839D01*
X19201Y2709D02*
X19839D01*
X19201Y2719D02*
X19839D01*
X19201Y2728D02*
X19839D01*
X19201Y2737D02*
X19839D01*
X19201Y2747D02*
X19839D01*
X19201Y2756D02*
X19839D01*
X19201Y2766D02*
X19839D01*
X19201Y2775D02*
X19839D01*
X19461Y2784D02*
X19532D01*
X19461Y2794D02*
X19532D01*
X19461Y2803D02*
X19532D01*
X19461Y2812D02*
X19532D01*
X19461Y2822D02*
X19532D01*
X19461Y2831D02*
X19532D01*
X19461Y2841D02*
X19532D01*
X19461Y2850D02*
X19532D01*
X19461Y2859D02*
X19532D01*
X19461Y2869D02*
X19532D01*
X19461Y2878D02*
X19532D01*
X19461Y2887D02*
X19532D01*
X19461Y2897D02*
X19532D01*
X19461Y2906D02*
X19532D01*
X19461Y2915D02*
X19532D01*
X19461Y2925D02*
X19532D01*
X19461Y2934D02*
X19532D01*
X19461Y2944D02*
X19532D01*
X19461Y2953D02*
X19532D01*
X19461Y2962D02*
X19532D01*
X19461Y2972D02*
X19532D01*
X19461Y2981D02*
X19532D01*
X19461Y2990D02*
X19532D01*
X19461Y3000D02*
X19532D01*
X19461Y3009D02*
X19532D01*
X19461Y3019D02*
X19532D01*
X19461Y3028D02*
X19532D01*
X19461Y3037D02*
X19532D01*
X19461Y3047D02*
X19532D01*
X19461Y3056D02*
X19532D01*
X19461Y3065D02*
X19532D01*
X19461Y3075D02*
X19532D01*
X19461Y3084D02*
X19532D01*
X19461Y3094D02*
X19532D01*
X19461Y3103D02*
X19532D01*
X19201Y3112D02*
X19839D01*
X19201Y3122D02*
X19839D01*
X19201Y3131D02*
X19839D01*
X19201Y3140D02*
X19839D01*
X19201Y3150D02*
X19839D01*
X19201Y3159D02*
X19839D01*
X19201Y3168D02*
X19839D01*
X19201Y3178D02*
X19839D01*
X19201Y3187D02*
X19839D01*
X19201Y3272D02*
X19225D01*
X19201Y3281D02*
X19250D01*
X19201Y3290D02*
X19275D01*
X19201Y3300D02*
X19300D01*
X19201Y3309D02*
X19326D01*
X19201Y3318D02*
X19351D01*
X19201Y3328D02*
X19376D01*
X19201Y3337D02*
X19402D01*
X19204Y3346D02*
X19427D01*
X19228Y3356D02*
X19452D01*
X19252Y3365D02*
X19478D01*
X19277Y3375D02*
X19503D01*
X19301Y3384D02*
X19528D01*
X19325Y3393D02*
X19553D01*
X19350Y3403D02*
X19579D01*
X19374Y3412D02*
X19604D01*
X19399Y3421D02*
X19629D01*
X19423Y3431D02*
X19655D01*
X19447Y3440D02*
X19680D01*
X19472Y3450D02*
X19705D01*
X19496Y3459D02*
X19731D01*
X19520Y3468D02*
X19756D01*
X19545Y3478D02*
X19781D01*
X19569Y3487D02*
X19806D01*
X19593Y3496D02*
X19832D01*
X19618Y3506D02*
X19839D01*
X19642Y3515D02*
X19839D01*
X19667Y3525D02*
X19839D01*
X19695Y3534D02*
X19839D01*
X19724Y3543D02*
X19839D01*
X19752Y3553D02*
X19839D01*
X19750Y3562D02*
X19839D01*
X19708Y3571D02*
X19839D01*
X19666Y3581D02*
X19839D01*
X19640Y3590D02*
X19839D01*
X19615Y3599D02*
X19839D01*
X19591Y3609D02*
X19829D01*
X19567Y3618D02*
X19804D01*
X19542Y3628D02*
X19779D01*
X19518Y3637D02*
X19753D01*
X19494Y3646D02*
X19728D01*
X19469Y3656D02*
X19703D01*
X19445Y3665D02*
X19677D01*
X19420Y3674D02*
X19652D01*
X19396Y3684D02*
X19627D01*
X19372Y3693D02*
X19602D01*
X19347Y3703D02*
X19576D01*
X19323Y3712D02*
X19551D01*
X19299Y3721D02*
X19526D01*
X19274Y3731D02*
X19500D01*
X19250Y3740D02*
X19475D01*
X19226Y3749D02*
X19450D01*
X19201Y3759D02*
X19424D01*
X19201Y3768D02*
X19399D01*
X19201Y3778D02*
X19374D01*
X19201Y3787D02*
X19349D01*
X19201Y3796D02*
X19323D01*
X19201Y3806D02*
X19298D01*
X19201Y3815D02*
X19273D01*
X19201Y3824D02*
X19247D01*
X19201Y3834D02*
X19222D01*
X19956Y19701D02*
X19992Y19642D01*
X20027Y19583*
X20051Y19512*
Y19441*
X20027Y19311*
X20003Y19264*
X19956Y19205*
X19862Y19146*
X19720Y19122*
X19637Y19134*
X19555Y19158*
X19484Y19205*
X19436Y19264*
X19401Y19347*
X19389Y19429*
X19401Y19536*
X19436Y19606*
X19495Y19654*
X19578Y19689*
X19602Y19606*
X19543Y19583*
X19495Y19547*
X19472Y19488*
X19460Y19429*
X19484Y19335*
X19531Y19264*
X19614Y19217*
X19720Y19205*
X19803Y19217*
X19862Y19229*
X19921Y19264*
X19956Y19311*
X19968Y19370*
X19980Y19441*
X19968Y19536*
X19909Y19618*
X19779*
Y19429*
X19708*
Y19701*
X19956*
X20039Y20327D02*
Y20244D01*
X19543Y19914*
X20039*
Y19831*
X19401*
Y19925*
X19897Y20244*
X19401*
Y20327*
X20039*
X19401Y20469D02*
Y20681D01*
X19413Y20788*
X19436Y20858*
X19495Y20929*
X19590Y20977*
X19720Y20988*
X19850Y20977*
X19944Y20918*
X19992Y20882*
X20015Y20835*
X20039Y20764*
Y20693*
Y20469*
X19401*
X19968Y20551D02*
Y20693D01*
Y20764*
X19932Y20823*
X19909Y20858*
X19862Y20882*
X19791Y20906*
X19720*
X19625Y20894*
X19543Y20870*
X19495Y20811*
X19472Y20752*
Y20681*
Y20551*
X19968*
X19657Y19131D02*
X19774D01*
X19614Y19141D02*
X19830D01*
X19582Y19150D02*
X19868D01*
X19552Y19159D02*
X19883D01*
X19538Y19169D02*
X19898D01*
X19524Y19178D02*
X19913D01*
X19510Y19187D02*
X19928D01*
X19496Y19197D02*
X19943D01*
X19483Y19206D02*
X19709D01*
X19729D02*
X19957D01*
X19475Y19216D02*
X19624D01*
X19794D02*
X19965D01*
X19468Y19225D02*
X19599D01*
X19844D02*
X19972D01*
X19460Y19234D02*
X19583D01*
X19871D02*
X19980D01*
X19453Y19244D02*
X19566D01*
X19887D02*
X19987D01*
X19445Y19253D02*
X19550D01*
X19902D02*
X19995D01*
X19438Y19262D02*
X19534D01*
X19918D02*
X20002D01*
X19433Y19272D02*
X19526D01*
X19927D02*
X20007D01*
X19429Y19281D02*
X19519D01*
X19934D02*
X20012D01*
X19425Y19291D02*
X19513D01*
X19941D02*
X20017D01*
X19421Y19300D02*
X19507D01*
X19948D02*
X20021D01*
X19417Y19309D02*
X19501D01*
X19955D02*
X20026D01*
X19413Y19319D02*
X19494D01*
X19958D02*
X20028D01*
X19409Y19328D02*
X19488D01*
X19959D02*
X20030D01*
X19405Y19337D02*
X19483D01*
X19961D02*
X20032D01*
X19401Y19347D02*
X19481D01*
X19963D02*
X20033D01*
X19400Y19356D02*
X19478D01*
X19965D02*
X20035D01*
X19398Y19365D02*
X19476D01*
X19967D02*
X20037D01*
X19397Y19375D02*
X19474D01*
X19969D02*
X20039D01*
X19396Y19384D02*
X19471D01*
X19970D02*
X20040D01*
X19394Y19394D02*
X19469D01*
X19972D02*
X20042D01*
X19393Y19403D02*
X19467D01*
X19973D02*
X20044D01*
X19392Y19412D02*
X19464D01*
X19975D02*
X20045D01*
X19390Y19422D02*
X19462D01*
X19976D02*
X20047D01*
X19389Y19431D02*
X19460D01*
X19708D02*
X19779D01*
X19978D02*
X20049D01*
X19390Y19440D02*
X19462D01*
X19708D02*
X19779D01*
X19980D02*
X20050D01*
X19391Y19450D02*
X19464D01*
X19708D02*
X19779D01*
X19979D02*
X20051D01*
X19392Y19459D02*
X19466D01*
X19708D02*
X19779D01*
X19977D02*
X20051D01*
X19394Y19469D02*
X19468D01*
X19708D02*
X19779D01*
X19976D02*
X20051D01*
X19395Y19478D02*
X19470D01*
X19708D02*
X19779D01*
X19975D02*
X20051D01*
X19396Y19487D02*
X19472D01*
X19708D02*
X19779D01*
X19974D02*
X20051D01*
X19397Y19497D02*
X19475D01*
X19708D02*
X19779D01*
X19973D02*
X20051D01*
X19398Y19506D02*
X19479D01*
X19708D02*
X19779D01*
X19972D02*
X20051D01*
X19399Y19515D02*
X19483D01*
X19708D02*
X19779D01*
X19970D02*
X20049D01*
X19400Y19525D02*
X19486D01*
X19708D02*
X19779D01*
X19969D02*
X20046D01*
X19401Y19534D02*
X19490D01*
X19708D02*
X19779D01*
X19968D02*
X20043D01*
X19405Y19544D02*
X19494D01*
X19708D02*
X19779D01*
X19962D02*
X20040D01*
X19410Y19553D02*
X19503D01*
X19708D02*
X19779D01*
X19956D02*
X20037D01*
X19414Y19562D02*
X19515D01*
X19708D02*
X19779D01*
X19949D02*
X20034D01*
X19419Y19572D02*
X19528D01*
X19708D02*
X19779D01*
X19942D02*
X20031D01*
X19424Y19581D02*
X19540D01*
X19708D02*
X19779D01*
X19936D02*
X20028D01*
X19428Y19590D02*
X19561D01*
X19708D02*
X19779D01*
X19929D02*
X20022D01*
X19433Y19600D02*
X19585D01*
X19708D02*
X19779D01*
X19922D02*
X20017D01*
X19440Y19609D02*
X19601D01*
X19708D02*
X19779D01*
X19915D02*
X20011D01*
X19451Y19618D02*
X19598D01*
X19708D02*
X20006D01*
X19463Y19628D02*
X19596D01*
X19708D02*
X20000D01*
X19475Y19637D02*
X19593D01*
X19708D02*
X19994D01*
X19487Y19647D02*
X19590D01*
X19708D02*
X19989D01*
X19501Y19656D02*
X19588D01*
X19708D02*
X19983D01*
X19522Y19665D02*
X19585D01*
X19708D02*
X19978D01*
X19544Y19675D02*
X19582D01*
X19708D02*
X19972D01*
X19566Y19684D02*
X19580D01*
X19708D02*
X19966D01*
X19708Y19693D02*
X19961D01*
X19401Y19834D02*
X20039D01*
X19401Y19843D02*
X20039D01*
X19401Y19853D02*
X20039D01*
X19401Y19862D02*
X20039D01*
X19401Y19871D02*
X20039D01*
X19401Y19881D02*
X20039D01*
X19401Y19890D02*
X20039D01*
X19401Y19900D02*
X20039D01*
X19401Y19909D02*
X20039D01*
X19401Y19918D02*
X19550D01*
X19405Y19928D02*
X19564D01*
X19419Y19937D02*
X19578D01*
X19434Y19946D02*
X19592D01*
X19448Y19956D02*
X19606D01*
X19463Y19965D02*
X19620D01*
X19477Y19975D02*
X19634D01*
X19492Y19984D02*
X19648D01*
X19507Y19993D02*
X19662D01*
X19521Y20003D02*
X19676D01*
X19536Y20012D02*
X19690D01*
X19550Y20021D02*
X19704D01*
X19565Y20031D02*
X19718D01*
X19579Y20040D02*
X19733D01*
X19594Y20049D02*
X19747D01*
X19609Y20059D02*
X19761D01*
X19623Y20068D02*
X19775D01*
X19638Y20078D02*
X19789D01*
X19652Y20087D02*
X19803D01*
X19667Y20096D02*
X19817D01*
X19681Y20106D02*
X19831D01*
X19696Y20115D02*
X19845D01*
X19711Y20124D02*
X19859D01*
X19725Y20134D02*
X19873D01*
X19740Y20143D02*
X19887D01*
X19754Y20153D02*
X19901D01*
X19769Y20162D02*
X19915D01*
X19784Y20171D02*
X19929D01*
X19798Y20181D02*
X19943D01*
X19813Y20190D02*
X19957D01*
X19827Y20199D02*
X19971D01*
X19842Y20209D02*
X19986D01*
X19856Y20218D02*
X20000D01*
X19871Y20228D02*
X20014D01*
X19886Y20237D02*
X20028D01*
X19401Y20246D02*
X20039D01*
X19401Y20256D02*
X20039D01*
X19401Y20265D02*
X20039D01*
X19401Y20274D02*
X20039D01*
X19401Y20284D02*
X20039D01*
X19401Y20293D02*
X20039D01*
X19401Y20302D02*
X20039D01*
X19401Y20312D02*
X20039D01*
X19401Y20321D02*
X20039D01*
X19401Y20471D02*
X20039D01*
X19401Y20481D02*
X20039D01*
X19401Y20490D02*
X20039D01*
X19401Y20499D02*
X20039D01*
X19401Y20509D02*
X20039D01*
X19401Y20518D02*
X20039D01*
X19401Y20527D02*
X20039D01*
X19401Y20537D02*
X20039D01*
X19401Y20546D02*
X20039D01*
X19401Y20555D02*
X19472D01*
X19968D02*
X20039D01*
X19401Y20565D02*
X19472D01*
X19968D02*
X20039D01*
X19401Y20574D02*
X19472D01*
X19968D02*
X20039D01*
X19401Y20584D02*
X19472D01*
X19968D02*
X20039D01*
X19401Y20593D02*
X19472D01*
X19968D02*
X20039D01*
X19401Y20602D02*
X19472D01*
X19968D02*
X20039D01*
X19401Y20612D02*
X19472D01*
X19968D02*
X20039D01*
X19401Y20621D02*
X19472D01*
X19968D02*
X20039D01*
X19401Y20630D02*
X19472D01*
X19968D02*
X20039D01*
X19401Y20640D02*
X19472D01*
X19968D02*
X20039D01*
X19401Y20649D02*
X19472D01*
X19968D02*
X20039D01*
X19401Y20659D02*
X19472D01*
X19968D02*
X20039D01*
X19401Y20668D02*
X19472D01*
X19968D02*
X20039D01*
X19401Y20677D02*
X19472D01*
X19968D02*
X20039D01*
X19402Y20687D02*
X19472D01*
X19968D02*
X20039D01*
X19403Y20696D02*
X19472D01*
X19968D02*
X20039D01*
X19404Y20705D02*
X19472D01*
X19968D02*
X20039D01*
X19405Y20715D02*
X19472D01*
X19968D02*
X20039D01*
X19406Y20724D02*
X19472D01*
X19968D02*
X20039D01*
X19407Y20734D02*
X19472D01*
X19968D02*
X20039D01*
X19408Y20743D02*
X19472D01*
X19968D02*
X20039D01*
X19409Y20752D02*
X19472D01*
X19968D02*
X20039D01*
X19410Y20762D02*
X19476D01*
X19968D02*
X20039D01*
X19411Y20771D02*
X19479D01*
X19964D02*
X20036D01*
X19412Y20780D02*
X19483D01*
X19958D02*
X20033D01*
X19414Y20790D02*
X19487D01*
X19952D02*
X20030D01*
X19417Y20799D02*
X19491D01*
X19947D02*
X20027D01*
X19420Y20808D02*
X19494D01*
X19941D02*
X20024D01*
X19423Y20818D02*
X19501D01*
X19936D02*
X20021D01*
X19426Y20827D02*
X19508D01*
X19930D02*
X20018D01*
X19429Y20837D02*
X19516D01*
X19923D02*
X20014D01*
X19432Y20846D02*
X19523D01*
X19917D02*
X20010D01*
X19435Y20855D02*
X19531D01*
X19911D02*
X20005D01*
X19442Y20865D02*
X19538D01*
X19896D02*
X20000D01*
X19449Y20874D02*
X19556D01*
X19878D02*
X19996D01*
X19457Y20883D02*
X19589D01*
X19858D02*
X19990D01*
X19465Y20893D02*
X19622D01*
X19829D02*
X19977D01*
X19473Y20902D02*
X19692D01*
X19801D02*
X19965D01*
X19481Y20912D02*
X19952D01*
X19488Y20921D02*
X19939D01*
X19497Y20930D02*
X19924D01*
X19516Y20940D02*
X19909D01*
X19535Y20949D02*
X19894D01*
X19554Y20958D02*
X19879D01*
X19572Y20968D02*
X19864D01*
X19596Y20977D02*
X19844D01*
X19699Y20986D02*
X19741D01*
X21426Y3897D02*
Y3649D01*
X21367*
Y3897*
X21426*
X21367Y3653D02*
X21426D01*
X21367Y3662D02*
X21426D01*
X21367Y3672D02*
X21426D01*
X21367Y3681D02*
X21426D01*
X21367Y3691D02*
X21426D01*
X21367Y3700D02*
X21426D01*
X21367Y3709D02*
X21426D01*
X21367Y3719D02*
X21426D01*
X21367Y3728D02*
X21426D01*
X21367Y3737D02*
X21426D01*
X21367Y3747D02*
X21426D01*
X21367Y3756D02*
X21426D01*
X21367Y3766D02*
X21426D01*
X21367Y3775D02*
X21426D01*
X21367Y3784D02*
X21426D01*
X21367Y3794D02*
X21426D01*
X21367Y3803D02*
X21426D01*
X21367Y3812D02*
X21426D01*
X21367Y3822D02*
X21426D01*
X21367Y3831D02*
X21426D01*
X21367Y3841D02*
X21426D01*
X21367Y3850D02*
X21426D01*
X21367Y3859D02*
X21426D01*
X21367Y3869D02*
X21426D01*
X21367Y3878D02*
X21426D01*
X21367Y3887D02*
X21426D01*
X21467Y2997D02*
Y2820D01*
X21644*
Y2738*
X21467*
Y2560*
X21384*
Y2738*
X21207*
Y2820*
X21384*
Y2997*
X21467*
X21384Y2562D02*
X21467D01*
X21384Y2572D02*
X21467D01*
X21384Y2581D02*
X21467D01*
X21384Y2591D02*
X21467D01*
X21384Y2600D02*
X21467D01*
X21384Y2609D02*
X21467D01*
X21384Y2619D02*
X21467D01*
X21384Y2628D02*
X21467D01*
X21384Y2637D02*
X21467D01*
X21384Y2647D02*
X21467D01*
X21384Y2656D02*
X21467D01*
X21384Y2666D02*
X21467D01*
X21384Y2675D02*
X21467D01*
X21384Y2684D02*
X21467D01*
X21384Y2694D02*
X21467D01*
X21384Y2703D02*
X21467D01*
X21384Y2712D02*
X21467D01*
X21384Y2722D02*
X21467D01*
X21384Y2731D02*
X21467D01*
X21207Y2741D02*
X21644D01*
X21207Y2750D02*
X21644D01*
X21207Y2759D02*
X21644D01*
X21207Y2769D02*
X21644D01*
X21207Y2778D02*
X21644D01*
X21207Y2787D02*
X21644D01*
X21207Y2797D02*
X21644D01*
X21207Y2806D02*
X21644D01*
X21207Y2815D02*
X21644D01*
X21384Y2825D02*
X21467D01*
X21384Y2834D02*
X21467D01*
X21384Y2844D02*
X21467D01*
X21384Y2853D02*
X21467D01*
X21384Y2862D02*
X21467D01*
X21384Y2872D02*
X21467D01*
X21384Y2881D02*
X21467D01*
X21384Y2890D02*
X21467D01*
X21384Y2900D02*
X21467D01*
X21384Y2909D02*
X21467D01*
X21384Y2919D02*
X21467D01*
X21384Y2928D02*
X21467D01*
X21384Y2937D02*
X21467D01*
X21384Y2947D02*
X21467D01*
X21384Y2956D02*
X21467D01*
X21384Y2965D02*
X21467D01*
X21384Y2975D02*
X21467D01*
X21384Y2984D02*
X21467D01*
X21384Y2994D02*
X21467D01*
X22466Y9338D02*
X22483Y9308D01*
X22501Y9279*
X22513Y9244*
Y9208*
X22501Y9143*
X22489Y9119*
X22466Y9090*
X22418Y9060*
X22347Y9049*
X22306Y9055*
X22265Y9066*
X22229Y9090*
X22206Y9119*
X22188Y9161*
X22182Y9202*
X22188Y9255*
X22206Y9291*
X22235Y9314*
X22277Y9332*
X22288Y9291*
X22259Y9279*
X22235Y9261*
X22223Y9232*
X22218Y9202*
X22229Y9155*
X22253Y9119*
X22294Y9096*
X22347Y9090*
X22389Y9096*
X22418Y9102*
X22448Y9119*
X22466Y9143*
X22471Y9173*
X22477Y9208*
X22471Y9255*
X22442Y9297*
X22377*
Y9202*
X22342*
Y9338*
X22466*
X22507Y9651D02*
Y9610D01*
X22259Y9444*
X22507*
Y9403*
X22188*
Y9450*
X22436Y9610*
X22188*
Y9651*
X22507*
X22188Y9722D02*
Y9828D01*
X22194Y9881*
X22206Y9917*
X22235Y9952*
X22282Y9976*
X22347Y9982*
X22412Y9976*
X22460Y9946*
X22483Y9929*
X22495Y9905*
X22507Y9869*
Y9834*
Y9722*
X22188*
X22471Y9763D02*
Y9834D01*
Y9869*
X22454Y9899*
X22442Y9917*
X22418Y9929*
X22383Y9940*
X22347*
X22300Y9934*
X22259Y9923*
X22235Y9893*
X22223Y9864*
Y9828*
Y9763*
X22471*
X22316Y9053D02*
X22374D01*
X22278Y9062D02*
X22422D01*
X22256Y9072D02*
X22437D01*
X22242Y9081D02*
X22452D01*
X22229Y9091D02*
X22342D01*
X22352D02*
X22466D01*
X22221Y9100D02*
X22287D01*
X22409D02*
X22474D01*
X22214Y9109D02*
X22271D01*
X22431D02*
X22481D01*
X22206Y9119D02*
X22254D01*
X22447D02*
X22489D01*
X22202Y9128D02*
X22247D01*
X22454D02*
X22493D01*
X22198Y9137D02*
X22241D01*
X22461D02*
X22498D01*
X22194Y9147D02*
X22235D01*
X22466D02*
X22502D01*
X22190Y9156D02*
X22229D01*
X22468D02*
X22503D01*
X22187Y9166D02*
X22227D01*
X22470D02*
X22505D01*
X22186Y9175D02*
X22224D01*
X22472D02*
X22507D01*
X22185Y9184D02*
X22222D01*
X22473D02*
X22508D01*
X22183Y9194D02*
X22220D01*
X22475D02*
X22510D01*
X22182Y9203D02*
X22218D01*
X22342D02*
X22377D01*
X22477D02*
X22512D01*
X22183Y9212D02*
X22220D01*
X22342D02*
X22377D01*
X22477D02*
X22513D01*
X22184Y9222D02*
X22221D01*
X22342D02*
X22377D01*
X22476D02*
X22513D01*
X22185Y9231D02*
X22223D01*
X22342D02*
X22377D01*
X22474D02*
X22513D01*
X22186Y9241D02*
X22227D01*
X22342D02*
X22377D01*
X22473D02*
X22513D01*
X22187Y9250D02*
X22231D01*
X22342D02*
X22377D01*
X22472D02*
X22511D01*
X22190Y9259D02*
X22234D01*
X22342D02*
X22377D01*
X22469D02*
X22508D01*
X22195Y9269D02*
X22245D01*
X22342D02*
X22377D01*
X22462D02*
X22504D01*
X22199Y9278D02*
X22258D01*
X22342D02*
X22377D01*
X22455D02*
X22501D01*
X22204Y9287D02*
X22280D01*
X22342D02*
X22377D01*
X22449D02*
X22496D01*
X22213Y9297D02*
X22287D01*
X22342D02*
X22490D01*
X22225Y9306D02*
X22284D01*
X22342D02*
X22485D01*
X22238Y9315D02*
X22281D01*
X22342D02*
X22479D01*
X22260Y9325D02*
X22279D01*
X22342D02*
X22473D01*
X22342Y9334D02*
X22468D01*
X22188Y9409D02*
X22507D01*
X22188Y9419D02*
X22507D01*
X22188Y9428D02*
X22507D01*
X22188Y9437D02*
X22507D01*
X22188Y9447D02*
X22262D01*
X22197Y9456D02*
X22276D01*
X22212Y9465D02*
X22291D01*
X22226Y9475D02*
X22305D01*
X22241Y9484D02*
X22319D01*
X22255Y9494D02*
X22333D01*
X22270Y9503D02*
X22347D01*
X22285Y9512D02*
X22361D01*
X22299Y9522D02*
X22375D01*
X22314Y9531D02*
X22389D01*
X22328Y9540D02*
X22403D01*
X22343Y9550D02*
X22417D01*
X22357Y9559D02*
X22431D01*
X22372Y9568D02*
X22445D01*
X22387Y9578D02*
X22459D01*
X22401Y9587D02*
X22473D01*
X22416Y9597D02*
X22487D01*
X22430Y9606D02*
X22501D01*
X22188Y9615D02*
X22507D01*
X22188Y9625D02*
X22507D01*
X22188Y9634D02*
X22507D01*
X22188Y9643D02*
X22507D01*
X22188Y9728D02*
X22507D01*
X22188Y9737D02*
X22507D01*
X22188Y9746D02*
X22507D01*
X22188Y9756D02*
X22507D01*
X22188Y9765D02*
X22223D01*
X22471D02*
X22507D01*
X22188Y9775D02*
X22223D01*
X22471D02*
X22507D01*
X22188Y9784D02*
X22223D01*
X22471D02*
X22507D01*
X22188Y9793D02*
X22223D01*
X22471D02*
X22507D01*
X22188Y9803D02*
X22223D01*
X22471D02*
X22507D01*
X22188Y9812D02*
X22223D01*
X22471D02*
X22507D01*
X22188Y9821D02*
X22223D01*
X22471D02*
X22507D01*
X22188Y9831D02*
X22223D01*
X22471D02*
X22507D01*
X22189Y9840D02*
X22223D01*
X22471D02*
X22507D01*
X22190Y9850D02*
X22223D01*
X22471D02*
X22507D01*
X22191Y9859D02*
X22223D01*
X22471D02*
X22507D01*
X22192Y9868D02*
X22225D01*
X22471D02*
X22507D01*
X22194Y9878D02*
X22229D01*
X22467D02*
X22504D01*
X22196Y9887D02*
X22233D01*
X22461D02*
X22501D01*
X22199Y9896D02*
X22238D01*
X22455D02*
X22498D01*
X22202Y9906D02*
X22245D01*
X22449D02*
X22495D01*
X22205Y9915D02*
X22253D01*
X22443D02*
X22490D01*
X22212Y9925D02*
X22265D01*
X22426D02*
X22485D01*
X22220Y9934D02*
X22298D01*
X22402D02*
X22476D01*
X22228Y9943D02*
X22464D01*
X22236Y9953D02*
X22449D01*
X22255Y9962D02*
X22434D01*
X22274Y9971D02*
X22419D01*
X22337Y9981D02*
X22358D01*
X22182Y10496D02*
X22194Y10555D01*
X22229Y10603*
X22282Y10632*
X22347Y10644*
X22418Y10632*
X22466Y10603*
X22501Y10555*
X22513Y10496*
X22501Y10437*
X22489Y10414*
X22466Y10390*
X22412Y10360*
X22353Y10349*
X22282Y10360*
X22229Y10390*
X22194Y10437*
X22182Y10496*
X22477D02*
X22471Y10538D01*
X22442Y10573*
X22401Y10597*
X22347Y10603*
X22294Y10597*
X22253Y10573*
X22229Y10538*
X22218Y10496*
X22223Y10455*
X22253Y10419*
X22294Y10396*
X22353Y10390*
X22401Y10396*
X22442Y10419*
X22471Y10455*
X22477Y10496*
X22507Y10939D02*
Y10703D01*
X22188*
Y10933*
X22223*
Y10744*
X22324*
Y10921*
X22359*
Y10744*
X22471*
Y10939*
X22507*
X22326Y10353D02*
X22376D01*
X22279Y10362D02*
X22416D01*
X22262Y10372D02*
X22433D01*
X22245Y10381D02*
X22450D01*
X22229Y10391D02*
X22347D01*
X22358D02*
X22466D01*
X22222Y10400D02*
X22287D01*
X22408D02*
X22476D01*
X22215Y10409D02*
X22271D01*
X22424D02*
X22485D01*
X22208Y10419D02*
X22254D01*
X22441D02*
X22492D01*
X22201Y10428D02*
X22246D01*
X22449D02*
X22496D01*
X22194Y10437D02*
X22238D01*
X22457D02*
X22501D01*
X22192Y10447D02*
X22230D01*
X22465D02*
X22503D01*
X22190Y10456D02*
X22223D01*
X22472D02*
X22505D01*
X22188Y10466D02*
X22222D01*
X22473D02*
X22507D01*
X22186Y10475D02*
X22221D01*
X22474D02*
X22509D01*
X22184Y10484D02*
X22219D01*
X22476D02*
X22510D01*
X22183Y10494D02*
X22218D01*
X22477D02*
X22512D01*
X22183Y10503D02*
X22219D01*
X22476D02*
X22511D01*
X22185Y10512D02*
X22222D01*
X22475D02*
X22510D01*
X22187Y10522D02*
X22225D01*
X22474D02*
X22508D01*
X22189Y10531D02*
X22227D01*
X22472D02*
X22506D01*
X22191Y10541D02*
X22231D01*
X22469D02*
X22504D01*
X22193Y10550D02*
X22238D01*
X22461D02*
X22502D01*
X22197Y10559D02*
X22244D01*
X22453D02*
X22498D01*
X22204Y10569D02*
X22250D01*
X22446D02*
X22491D01*
X22211Y10578D02*
X22262D01*
X22433D02*
X22484D01*
X22218Y10587D02*
X22278D01*
X22417D02*
X22477D01*
X22225Y10597D02*
X22294D01*
X22400D02*
X22470D01*
X22236Y10606D02*
X22460D01*
X22253Y10615D02*
X22445D01*
X22269Y10625D02*
X22430D01*
X22294Y10634D02*
X22406D01*
X22346Y10644D02*
X22349D01*
X22188Y10709D02*
X22507D01*
X22188Y10719D02*
X22507D01*
X22188Y10728D02*
X22507D01*
X22188Y10737D02*
X22507D01*
X22188Y10747D02*
X22223D01*
X22324D02*
X22359D01*
X22471D02*
X22507D01*
X22188Y10756D02*
X22223D01*
X22324D02*
X22359D01*
X22471D02*
X22507D01*
X22188Y10765D02*
X22223D01*
X22324D02*
X22359D01*
X22471D02*
X22507D01*
X22188Y10775D02*
X22223D01*
X22324D02*
X22359D01*
X22471D02*
X22507D01*
X22188Y10784D02*
X22223D01*
X22324D02*
X22359D01*
X22471D02*
X22507D01*
X22188Y10794D02*
X22223D01*
X22324D02*
X22359D01*
X22471D02*
X22507D01*
X22188Y10803D02*
X22223D01*
X22324D02*
X22359D01*
X22471D02*
X22507D01*
X22188Y10812D02*
X22223D01*
X22324D02*
X22359D01*
X22471D02*
X22507D01*
X22188Y10822D02*
X22223D01*
X22324D02*
X22359D01*
X22471D02*
X22507D01*
X22188Y10831D02*
X22223D01*
X22324D02*
X22359D01*
X22471D02*
X22507D01*
X22188Y10840D02*
X22223D01*
X22324D02*
X22359D01*
X22471D02*
X22507D01*
X22188Y10850D02*
X22223D01*
X22324D02*
X22359D01*
X22471D02*
X22507D01*
X22188Y10859D02*
X22223D01*
X22324D02*
X22359D01*
X22471D02*
X22507D01*
X22188Y10868D02*
X22223D01*
X22324D02*
X22359D01*
X22471D02*
X22507D01*
X22188Y10878D02*
X22223D01*
X22324D02*
X22359D01*
X22471D02*
X22507D01*
X22188Y10887D02*
X22223D01*
X22324D02*
X22359D01*
X22471D02*
X22507D01*
X22188Y10897D02*
X22223D01*
X22324D02*
X22359D01*
X22471D02*
X22507D01*
X22188Y10906D02*
X22223D01*
X22324D02*
X22359D01*
X22471D02*
X22507D01*
X22188Y10915D02*
X22223D01*
X22324D02*
X22359D01*
X22471D02*
X22507D01*
X22188Y10925D02*
X22223D01*
X22471D02*
X22507D01*
X22471Y10934D02*
X22507D01*
X22282Y11344D02*
X22253Y11338D01*
X22235Y11326*
X22223Y11302*
X22218Y11273*
X22223Y11243*
X22229Y11219*
X22247Y11208*
X22265Y11202*
X22288Y11208*
X22300Y11214*
X22312Y11237*
X22318Y11273*
X22330Y11308*
X22336Y11338*
X22365Y11379*
X22389Y11391*
X22418Y11397*
X22454Y11391*
X22483Y11367*
X22507Y11326*
X22513Y11279*
X22507Y11225*
X22483Y11184*
X22448Y11160*
X22406Y11149*
X22401Y11190*
X22436Y11196*
X22460Y11219*
X22471Y11249*
X22477Y11279*
X22471Y11308*
X22466Y11338*
X22448Y11349*
X22424Y11355*
X22401Y11349*
X22383Y11332*
X22371Y11302*
X22359Y11261*
X22347Y11214*
X22324Y11184*
X22300Y11166*
X22271Y11160*
X22235Y11166*
X22206Y11190*
X22188Y11225*
X22182Y11267*
X22188Y11314*
X22206Y11349*
X22241Y11373*
X22277Y11385*
X22282Y11344*
X22406Y11721D02*
X22454Y11704D01*
X22489Y11674*
X22507Y11639*
X22513Y11592*
Y11556*
X22501Y11527*
X22483Y11497*
X22466Y11479*
X22412Y11456*
X22347Y11444*
X22277Y11456*
X22223Y11485*
X22194Y11532*
X22182Y11592*
X22188Y11633*
X22206Y11668*
X22235Y11698*
X22271Y11716*
X22282Y11674*
X22253Y11662*
X22235Y11645*
X22223Y11621*
X22218Y11592*
X22229Y11544*
X22253Y11515*
X22294Y11491*
X22347Y11485*
X22406Y11491*
X22448Y11515*
X22471Y11544*
X22477Y11586*
X22471Y11621*
X22460Y11645*
X22430Y11668*
X22395Y11680*
X22406Y11721*
X22507Y11975D02*
Y11775D01*
X22188*
Y11816*
X22471*
Y11975*
X22507*
X22406Y11153D02*
X22422D01*
X22258Y11162D02*
X22281D01*
X22405D02*
X22451D01*
X22228Y11172D02*
X22308D01*
X22403D02*
X22465D01*
X22217Y11181D02*
X22320D01*
X22402D02*
X22479D01*
X22205Y11191D02*
X22329D01*
X22404D02*
X22487D01*
X22201Y11200D02*
X22337D01*
X22440D02*
X22492D01*
X22196Y11209D02*
X22245D01*
X22292D02*
X22344D01*
X22449D02*
X22498D01*
X22191Y11219D02*
X22231D01*
X22303D02*
X22349D01*
X22459D02*
X22503D01*
X22188Y11228D02*
X22227D01*
X22307D02*
X22351D01*
X22463D02*
X22507D01*
X22186Y11237D02*
X22225D01*
X22312D02*
X22353D01*
X22467D02*
X22508D01*
X22185Y11247D02*
X22223D01*
X22314D02*
X22356D01*
X22471D02*
X22509D01*
X22184Y11256D02*
X22221D01*
X22315D02*
X22358D01*
X22473D02*
X22510D01*
X22182Y11266D02*
X22219D01*
X22317D02*
X22361D01*
X22475D02*
X22511D01*
X22183Y11275D02*
X22218D01*
X22319D02*
X22363D01*
X22477D02*
X22512D01*
X22184Y11284D02*
X22220D01*
X22322D02*
X22366D01*
X22476D02*
X22512D01*
X22185Y11294D02*
X22222D01*
X22325D02*
X22369D01*
X22474D02*
X22511D01*
X22187Y11303D02*
X22224D01*
X22328D02*
X22371D01*
X22472D02*
X22510D01*
X22188Y11312D02*
X22229D01*
X22331D02*
X22375D01*
X22471D02*
X22509D01*
X22192Y11322D02*
X22233D01*
X22332D02*
X22379D01*
X22469D02*
X22507D01*
X22197Y11331D02*
X22243D01*
X22334D02*
X22383D01*
X22467D02*
X22504D01*
X22201Y11341D02*
X22268D01*
X22338D02*
X22392D01*
X22461D02*
X22498D01*
X22206Y11350D02*
X22282D01*
X22344D02*
X22402D01*
X22446D02*
X22493D01*
X22220Y11359D02*
X22280D01*
X22351D02*
X22488D01*
X22235Y11369D02*
X22279D01*
X22358D02*
X22481D01*
X22256Y11378D02*
X22278D01*
X22364D02*
X22470D01*
X22382Y11387D02*
X22458D01*
X22293Y11453D02*
X22397D01*
X22265Y11462D02*
X22427D01*
X22248Y11472D02*
X22448D01*
X22231Y11481D02*
X22467D01*
X22220Y11490D02*
X22301D01*
X22399D02*
X22477D01*
X22214Y11500D02*
X22279D01*
X22422D02*
X22485D01*
X22208Y11509D02*
X22263D01*
X22438D02*
X22491D01*
X22203Y11519D02*
X22250D01*
X22451D02*
X22496D01*
X22197Y11528D02*
X22242D01*
X22458D02*
X22502D01*
X22193Y11537D02*
X22235D01*
X22466D02*
X22505D01*
X22191Y11547D02*
X22229D01*
X22472D02*
X22509D01*
X22189Y11556D02*
X22226D01*
X22473D02*
X22513D01*
X22187Y11565D02*
X22224D01*
X22474D02*
X22513D01*
X22185Y11575D02*
X22222D01*
X22476D02*
X22513D01*
X22184Y11584D02*
X22219D01*
X22477D02*
X22513D01*
X22182Y11594D02*
X22218D01*
X22476D02*
X22513D01*
X22184Y11603D02*
X22220D01*
X22474D02*
X22511D01*
X22185Y11612D02*
X22222D01*
X22473D02*
X22510D01*
X22186Y11622D02*
X22224D01*
X22471D02*
X22509D01*
X22188Y11631D02*
X22228D01*
X22466D02*
X22508D01*
X22192Y11640D02*
X22233D01*
X22462D02*
X22506D01*
X22196Y11650D02*
X22240D01*
X22453D02*
X22501D01*
X22201Y11659D02*
X22250D01*
X22442D02*
X22497D01*
X22206Y11668D02*
X22268D01*
X22430D02*
X22492D01*
X22215Y11678D02*
X22281D01*
X22402D02*
X22485D01*
X22225Y11687D02*
X22279D01*
X22397D02*
X22474D01*
X22234Y11697D02*
X22276D01*
X22399D02*
X22462D01*
X22251Y11706D02*
X22273D01*
X22402D02*
X22448D01*
X22270Y11715D02*
X22271D01*
X22405D02*
X22423D01*
X22188Y11781D02*
X22507D01*
X22188Y11790D02*
X22507D01*
X22188Y11800D02*
X22507D01*
X22188Y11809D02*
X22507D01*
X22471Y11818D02*
X22507D01*
X22471Y11828D02*
X22507D01*
X22471Y11837D02*
X22507D01*
X22471Y11846D02*
X22507D01*
X22471Y11856D02*
X22507D01*
X22471Y11865D02*
X22507D01*
X22471Y11875D02*
X22507D01*
X22471Y11884D02*
X22507D01*
X22471Y11893D02*
X22507D01*
X22471Y11903D02*
X22507D01*
X22471Y11912D02*
X22507D01*
X22471Y11921D02*
X22507D01*
X22471Y11931D02*
X22507D01*
X22471Y11940D02*
X22507D01*
X22471Y11950D02*
X22507D01*
X22471Y11959D02*
X22507D01*
X22471Y11968D02*
X22507D01*
X22282Y12344D02*
X22253Y12338D01*
X22235Y12326*
X22223Y12302*
X22218Y12273*
X22223Y12243*
X22229Y12219*
X22247Y12208*
X22265Y12202*
X22288Y12208*
X22300Y12214*
X22312Y12237*
X22318Y12273*
X22330Y12308*
X22336Y12338*
X22365Y12379*
X22389Y12391*
X22418Y12397*
X22454Y12391*
X22483Y12367*
X22507Y12326*
X22513Y12279*
X22507Y12225*
X22483Y12184*
X22448Y12160*
X22406Y12149*
X22401Y12190*
X22436Y12196*
X22460Y12219*
X22471Y12249*
X22477Y12279*
X22471Y12308*
X22466Y12338*
X22448Y12349*
X22424Y12355*
X22401Y12349*
X22383Y12332*
X22371Y12302*
X22359Y12261*
X22347Y12214*
X22324Y12184*
X22300Y12166*
X22271Y12160*
X22235Y12166*
X22206Y12190*
X22188Y12225*
X22182Y12267*
X22188Y12314*
X22206Y12349*
X22241Y12373*
X22277Y12385*
X22282Y12344*
X22188Y12456D02*
Y12562D01*
X22194Y12615*
X22206Y12651*
X22235Y12686*
X22282Y12710*
X22347Y12716*
X22412Y12710*
X22460Y12680*
X22483Y12662*
X22495Y12639*
X22507Y12603*
Y12568*
Y12456*
X22188*
X22471Y12497D02*
Y12568D01*
Y12603*
X22454Y12633*
X22442Y12651*
X22418Y12662*
X22383Y12674*
X22347*
X22300Y12668*
X22259Y12656*
X22235Y12627*
X22223Y12597*
Y12562*
Y12497*
X22471*
X22507Y13034D02*
Y12993D01*
X22412Y12952*
Y12816*
X22507Y12781*
Y12739*
X22188Y12863*
Y12905*
X22507Y13034*
X22377Y12940D02*
X22330Y12922D01*
X22294Y12905*
X22271Y12899*
X22259Y12893*
X22223Y12887*
Y12881*
X22282Y12869*
X22377Y12834*
Y12940*
X22406Y12153D02*
X22422D01*
X22258Y12162D02*
X22281D01*
X22405D02*
X22451D01*
X22228Y12172D02*
X22308D01*
X22403D02*
X22465D01*
X22217Y12181D02*
X22320D01*
X22402D02*
X22479D01*
X22205Y12191D02*
X22329D01*
X22404D02*
X22487D01*
X22201Y12200D02*
X22337D01*
X22440D02*
X22492D01*
X22196Y12209D02*
X22245D01*
X22292D02*
X22344D01*
X22449D02*
X22498D01*
X22191Y12219D02*
X22231D01*
X22303D02*
X22349D01*
X22459D02*
X22503D01*
X22188Y12228D02*
X22227D01*
X22307D02*
X22351D01*
X22463D02*
X22507D01*
X22186Y12237D02*
X22225D01*
X22312D02*
X22353D01*
X22467D02*
X22508D01*
X22185Y12247D02*
X22223D01*
X22314D02*
X22356D01*
X22471D02*
X22509D01*
X22184Y12256D02*
X22221D01*
X22315D02*
X22358D01*
X22473D02*
X22510D01*
X22182Y12266D02*
X22219D01*
X22317D02*
X22361D01*
X22475D02*
X22511D01*
X22183Y12275D02*
X22218D01*
X22319D02*
X22363D01*
X22477D02*
X22512D01*
X22184Y12284D02*
X22220D01*
X22322D02*
X22366D01*
X22476D02*
X22512D01*
X22185Y12294D02*
X22222D01*
X22325D02*
X22369D01*
X22474D02*
X22511D01*
X22187Y12303D02*
X22224D01*
X22328D02*
X22371D01*
X22472D02*
X22510D01*
X22188Y12312D02*
X22229D01*
X22331D02*
X22375D01*
X22471D02*
X22509D01*
X22192Y12322D02*
X22233D01*
X22332D02*
X22379D01*
X22469D02*
X22507D01*
X22197Y12331D02*
X22243D01*
X22334D02*
X22383D01*
X22467D02*
X22504D01*
X22201Y12341D02*
X22268D01*
X22338D02*
X22392D01*
X22461D02*
X22498D01*
X22206Y12350D02*
X22282D01*
X22344D02*
X22402D01*
X22446D02*
X22493D01*
X22220Y12359D02*
X22280D01*
X22351D02*
X22488D01*
X22235Y12369D02*
X22279D01*
X22358D02*
X22481D01*
X22256Y12378D02*
X22278D01*
X22364D02*
X22470D01*
X22382Y12387D02*
X22458D01*
X22188Y12462D02*
X22507D01*
X22188Y12472D02*
X22507D01*
X22188Y12481D02*
X22507D01*
X22188Y12490D02*
X22507D01*
X22188Y12500D02*
X22223D01*
X22471D02*
X22507D01*
X22188Y12509D02*
X22223D01*
X22471D02*
X22507D01*
X22188Y12519D02*
X22223D01*
X22471D02*
X22507D01*
X22188Y12528D02*
X22223D01*
X22471D02*
X22507D01*
X22188Y12537D02*
X22223D01*
X22471D02*
X22507D01*
X22188Y12547D02*
X22223D01*
X22471D02*
X22507D01*
X22188Y12556D02*
X22223D01*
X22471D02*
X22507D01*
X22188Y12565D02*
X22223D01*
X22471D02*
X22507D01*
X22189Y12575D02*
X22223D01*
X22471D02*
X22507D01*
X22190Y12584D02*
X22223D01*
X22471D02*
X22507D01*
X22191Y12594D02*
X22223D01*
X22471D02*
X22507D01*
X22193Y12603D02*
X22226D01*
X22471D02*
X22507D01*
X22194Y12612D02*
X22229D01*
X22466D02*
X22504D01*
X22196Y12622D02*
X22233D01*
X22461D02*
X22501D01*
X22199Y12631D02*
X22238D01*
X22455D02*
X22498D01*
X22202Y12640D02*
X22246D01*
X22449D02*
X22494D01*
X22205Y12650D02*
X22253D01*
X22443D02*
X22490D01*
X22213Y12659D02*
X22268D01*
X22425D02*
X22485D01*
X22221Y12668D02*
X22300D01*
X22400D02*
X22475D01*
X22228Y12678D02*
X22463D01*
X22238Y12687D02*
X22448D01*
X22256Y12697D02*
X22433D01*
X22275Y12706D02*
X22418D01*
X22345Y12715D02*
X22350D01*
X22496Y12743D02*
X22507D01*
X22472Y12753D02*
X22507D01*
X22448Y12762D02*
X22507D01*
X22424Y12772D02*
X22507D01*
X22400Y12781D02*
X22506D01*
X22375Y12790D02*
X22481D01*
X22351Y12800D02*
X22456D01*
X22327Y12809D02*
X22431D01*
X22303Y12818D02*
X22412D01*
X22279Y12828D02*
X22412D01*
X22255Y12837D02*
X22368D01*
X22377D02*
X22412D01*
X22231Y12846D02*
X22343D01*
X22377D02*
X22412D01*
X22207Y12856D02*
X22318D01*
X22377D02*
X22412D01*
X22188Y12865D02*
X22293D01*
X22377D02*
X22412D01*
X22188Y12875D02*
X22255D01*
X22377D02*
X22412D01*
X22188Y12884D02*
X22223D01*
X22377D02*
X22412D01*
X22188Y12893D02*
X22260D01*
X22377D02*
X22412D01*
X22188Y12903D02*
X22287D01*
X22377D02*
X22412D01*
X22207Y12912D02*
X22309D01*
X22377D02*
X22412D01*
X22230Y12921D02*
X22328D01*
X22377D02*
X22412D01*
X22253Y12931D02*
X22353D01*
X22377D02*
X22412D01*
X22276Y12940D02*
X22412D01*
X22299Y12950D02*
X22412D01*
X22322Y12959D02*
X22429D01*
X22345Y12968D02*
X22450D01*
X22368Y12978D02*
X22472D01*
X22391Y12987D02*
X22493D01*
X22414Y12996D02*
X22507D01*
X22437Y13006D02*
X22507D01*
X22460Y13015D02*
X22507D01*
X22483Y13025D02*
X22507D01*
X22506Y13034D02*
X22507D01*
X22312Y13446D02*
X22300Y13475D01*
X22294Y13511*
X22300Y13546*
X22324Y13576*
X22359Y13599*
X22401Y13605*
X22442Y13599*
X22477Y13576*
X22507Y13540*
X22513Y13493*
X22507Y13458*
X22489Y13428*
X22460Y13405*
X22424Y13393*
X22418Y13434*
X22448Y13440*
X22466Y13458*
X22477Y13475*
X22483Y13499*
X22477Y13523*
X22460Y13546*
X22436Y13558*
X22401Y13564*
X22371Y13558*
X22347Y13546*
X22330Y13523*
X22324Y13499*
X22330Y13464*
X22353Y13440*
X22347Y13399*
X22194Y13428*
Y13594*
X22223*
Y13464*
X22312Y13446*
X22277Y13836D02*
X22507Y13753D01*
Y13718*
X22277Y13629*
Y13664*
X22412Y13718*
X22442Y13729*
X22460Y13735*
X22424Y13747*
X22277Y13800*
Y13836*
X22424Y13394D02*
X22427D01*
X22324Y13403D02*
X22348D01*
X22423D02*
X22455D01*
X22275Y13412D02*
X22349D01*
X22421D02*
X22470D01*
X22227Y13422D02*
X22351D01*
X22420D02*
X22481D01*
X22194Y13431D02*
X22352D01*
X22419D02*
X22491D01*
X22194Y13441D02*
X22353D01*
X22448D02*
X22497D01*
X22194Y13450D02*
X22292D01*
X22310D02*
X22343D01*
X22458D02*
X22502D01*
X22194Y13459D02*
X22245D01*
X22307D02*
X22334D01*
X22467D02*
X22507D01*
X22194Y13469D02*
X22223D01*
X22303D02*
X22329D01*
X22473D02*
X22509D01*
X22194Y13478D02*
X22223D01*
X22300D02*
X22327D01*
X22478D02*
X22510D01*
X22194Y13487D02*
X22223D01*
X22298D02*
X22326D01*
X22480D02*
X22512D01*
X22194Y13497D02*
X22223D01*
X22297D02*
X22324D01*
X22483D02*
X22512D01*
X22194Y13506D02*
X22223D01*
X22295D02*
X22326D01*
X22481D02*
X22511D01*
X22194Y13516D02*
X22223D01*
X22295D02*
X22328D01*
X22479D02*
X22510D01*
X22194Y13525D02*
X22223D01*
X22297D02*
X22331D01*
X22476D02*
X22509D01*
X22194Y13534D02*
X22223D01*
X22298D02*
X22338D01*
X22469D02*
X22508D01*
X22194Y13544D02*
X22223D01*
X22300D02*
X22345D01*
X22462D02*
X22504D01*
X22194Y13553D02*
X22223D01*
X22306D02*
X22361D01*
X22446D02*
X22496D01*
X22194Y13562D02*
X22223D01*
X22313D02*
X22393D01*
X22410D02*
X22489D01*
X22194Y13572D02*
X22223D01*
X22321D02*
X22481D01*
X22194Y13581D02*
X22223D01*
X22332D02*
X22469D01*
X22194Y13591D02*
X22223D01*
X22346D02*
X22455D01*
X22363Y13600D02*
X22439D01*
X22277Y13637D02*
X22298D01*
X22277Y13647D02*
X22323D01*
X22277Y13656D02*
X22347D01*
X22279Y13665D02*
X22372D01*
X22303Y13675D02*
X22396D01*
X22327Y13684D02*
X22420D01*
X22351Y13694D02*
X22445D01*
X22375Y13703D02*
X22469D01*
X22399Y13712D02*
X22493D01*
X22423Y13722D02*
X22507D01*
X22447Y13731D02*
X22507D01*
X22444Y13740D02*
X22507D01*
X22417Y13750D02*
X22507D01*
X22391Y13759D02*
X22490D01*
X22364Y13769D02*
X22463D01*
X22338Y13778D02*
X22437D01*
X22312Y13787D02*
X22411D01*
X22286Y13797D02*
X22385D01*
X22277Y13806D02*
X22359D01*
X22277Y13815D02*
X22333D01*
X22277Y13825D02*
X22307D01*
X22277Y13834D02*
X22281D01*
D02*
D134*
X4924Y5448D02*
Y5202D01*
X5137Y4725D02*
X5476D01*
Y5074*
X5137Y5925D02*
X5476D01*
Y5576*
X5149Y18498D02*
Y18252D01*
X5362Y17775D02*
X5701D01*
Y18124*
X5362Y18975D02*
X5701D01*
Y18626*
X7299Y6898D02*
Y6652D01*
X7512Y6175D02*
X7851D01*
Y6524*
X7512Y7375D02*
X7851D01*
Y7026*
X7614Y17548D02*
Y17302D01*
X7827Y16825D02*
X8166D01*
Y17174*
X7827Y18025D02*
X8166D01*
Y17676*
X9249Y17548D02*
Y17302D01*
X9462Y16825D02*
X9801D01*
Y17174*
X9462Y18025D02*
X9801D01*
Y17676*
X9549Y6798D02*
Y6552D01*
X9762Y6075D02*
X10101D01*
Y6424*
X9762Y7275D02*
X10101D01*
Y6926*
X11649Y17498D02*
Y17252D01*
X11862Y16775D02*
X12201D01*
Y17124*
X11862Y17975D02*
X12201D01*
Y17626*
X11899Y6848D02*
Y6602D01*
X12112Y6125D02*
X12451D01*
Y6474*
X12112Y7325D02*
X12451D01*
Y6976*
X14049Y17498D02*
Y17252D01*
X14149Y6848D02*
Y6602D01*
X14262Y16775D02*
X14601D01*
Y17124*
X14262Y17975D02*
X14601D01*
Y17626*
X14362Y6125D02*
X14701D01*
Y6474*
X14362Y7325D02*
X14701D01*
Y6976*
X16349Y17498D02*
Y17252D01*
X16561Y16775D02*
X16900D01*
Y17124*
X16561Y17975D02*
X16900D01*
Y17626*
X16574Y6798D02*
Y6552D01*
X16787Y6075D02*
X17126D01*
Y6424*
X16787Y7275D02*
X17126D01*
Y6926*
X18699Y17548D02*
Y17302D01*
X18912Y16825D02*
X19251D01*
Y17174*
X18912Y18025D02*
X19251D01*
Y17676*
X19099Y6898D02*
Y6652D01*
X19312Y6175D02*
X19651D01*
Y6524*
X19312Y7375D02*
X19651D01*
Y7026*
X21049Y17498D02*
Y17252D01*
X21262Y16775D02*
X21601D01*
Y17124*
X21262Y17975D02*
X21601D01*
Y17626*
X21474Y7148D02*
Y6902D01*
X21687Y6425D02*
X22026D01*
Y6774*
X21687Y7625D02*
X22026D01*
Y7276*
X0Y0D02*
M02*
