%FSLAX24Y24*%
%MOIN*%
G04 EasyPC Gerber Version 18.0.8 Build 3632 *
%ADD22R,0.03940X0.04330*%
%ADD136R,0.06000X0.06000*%
%ADD10C,0.00500*%
%ADD14C,0.01000*%
%ADD137C,0.01181*%
%ADD138C,0.01969*%
%ADD84C,0.04800*%
%ADD80C,0.05600*%
%ADD15C,0.07874*%
%ADD135R,0.05200X0.03900*%
%ADD71R,0.04330X0.03940*%
X0Y0D02*
D02*
D10*
X4025Y2325D02*
X4038Y2223D01*
X4078Y2128*
X4140Y2047*
X4222Y1984*
X4317Y1945*
X4419Y1931*
X23316*
X23418Y1945*
X23513Y1984*
X23595Y2047*
X23657Y2128*
X23697Y2223*
X23710Y2325*
Y21223*
X23697Y21325*
X23657Y21419*
X23595Y21501*
X23513Y21564*
X23418Y21603*
X23316Y21616*
X4419*
X4317Y21603*
X4222Y21564*
X4140Y21501*
X4078Y21419*
X4038Y21325*
X4025Y21223*
Y2325*
X4275Y9250D02*
Y2325D01*
X4286Y2270*
X4317Y2223*
X4364Y2192*
X4419Y2181*
X23316*
X23371Y2192*
X23418Y2223*
X23449Y2270*
X23460Y2325*
Y9250*
X22700*
Y10100*
X23460*
Y10250*
X22700*
Y10491*
X22225*
X22157Y10504*
X22099Y10541*
X21336*
X21280Y10458*
X21205Y10392*
X21116Y10345*
Y10259*
X21334*
Y10397*
X22016*
Y9753*
X21357*
X21413Y9697*
X22016*
Y9053*
X21509*
Y9001*
X21530Y8980*
X21570Y8920*
X21584Y8850*
Y8716*
X21722*
Y8034*
X21534*
Y7719*
X21735*
Y7079*
X20965*
Y7719*
X21166*
Y8034*
X21078*
Y8716*
X21216*
Y8774*
X21195Y8795*
X21155Y8855*
X21141Y8925*
Y9449*
X21116Y9473*
Y9053*
X20434*
Y9456*
X19966Y9923*
Y9503*
X19457*
X19459Y9475*
Y9447*
X19966*
Y8803*
X19459*
Y8625*
X19450Y8568*
X19424Y8516*
X19972*
Y7834*
X19328*
Y8418*
X19272Y8362*
Y7834*
X19134*
Y7469*
X19360*
Y6829*
X18590*
Y7469*
X18766*
Y7834*
X18628*
Y8516*
X18906*
X19091Y8701*
Y8803*
X18584*
Y9206*
X17099Y10691*
X15119*
X16184Y9627*
Y10097*
X16866*
Y9959*
X16884*
Y10097*
X17566*
Y9453*
X17057*
X17059Y9425*
Y9397*
X17566*
Y9387*
X17648Y9460*
X17746Y9509*
X17853Y9529*
X17962Y9521*
X18065Y9483*
X18154Y9419*
X18222Y9334*
X18265Y9233*
X18280Y9125*
X18265Y9017*
X18222Y8916*
X18154Y8831*
X18065Y8767*
X17962Y8729*
X17853Y8721*
X17746Y8741*
X17648Y8790*
X17566Y8863*
Y8753*
X17059*
Y8675*
X17045Y8605*
X17005Y8545*
X16977Y8516*
X17522*
Y7834*
X16878*
Y8418*
X16822Y8362*
Y7834*
X16684*
Y7369*
X16835*
Y6729*
X16065*
Y7369*
X16316*
Y7834*
X16178*
Y8516*
X16456*
X16691Y8751*
Y8753*
X16184*
Y9106*
X15789Y9501*
X15790Y9475*
X15775Y9372*
X15732Y9277*
X15663Y9199*
X15575Y9142*
X15475Y9114*
X15371Y9114*
X15271Y9144*
X15184Y9201*
X15116Y9280*
Y8803*
X14609*
Y8725*
X14595Y8655*
X14555Y8595*
X14477Y8516*
X15072*
Y7834*
X14428*
Y8468*
X14372Y8412*
Y7834*
X14234*
Y7419*
X14410*
Y6779*
X13640*
Y7419*
X13866*
Y7834*
X13728*
Y8516*
X13956*
X14241Y8801*
Y8803*
X13734*
Y9206*
X13495Y9445*
X13455Y9505*
X13441Y9575*
Y9949*
X12499Y10891*
X10740*
X10677Y10811*
X10594Y10751*
X10498Y10717*
X10548Y10645*
X10579Y10563*
X10590Y10475*
X10590Y10470*
X11384Y9677*
Y10097*
X12066*
Y9959*
X12084*
Y10097*
X12766*
Y9794*
X13055Y9505*
X13095Y9445*
X13109Y9375*
Y8025*
X13095Y7955*
X13055Y7895*
X12730Y7570*
X12670Y7530*
X12600Y7516*
X11934*
Y7419*
X12160*
Y6779*
X11390*
Y7419*
X11566*
Y7834*
X11428*
Y8516*
X12072*
Y7884*
X12128*
Y8516*
X12741*
Y8753*
X12084*
Y9397*
X12643*
X12587Y9453*
X12084*
Y9591*
X12066*
Y9453*
X11607*
X11663Y9397*
X12066*
Y8753*
X11384*
Y9156*
X10466Y10073*
Y9453*
X10063*
X10007Y9397*
X10466*
Y8753*
X9634*
Y8516*
X9772*
Y7834*
X9634*
Y7369*
X9810*
Y6729*
X9066*
Y6621*
X9810*
Y5981*
X9066*
Y5653*
X8909*
Y5501*
X9701Y4709*
X10825*
X10895Y4695*
X10955Y4655*
X11312Y4298*
X11434Y4336*
X11561Y4342*
X11686Y4318*
X11802Y4264*
X11900Y4183*
X11976Y4081*
X12025Y3963*
X12052Y4038*
X10845Y5245*
X10805Y5305*
X10791Y5375*
Y5753*
X10634*
Y6397*
X11316*
Y5753*
X11159*
Y5451*
X12312Y4298*
X12434Y4336*
X12561Y4342*
X12686Y4318*
X12802Y4264*
X12900Y4183*
X12976Y4081*
X13025Y3963*
X13057Y4049*
X13045Y4086*
X13041Y4125*
Y5653*
X12884*
Y6297*
X13566*
Y5653*
X13409*
Y4331*
X13521Y4344*
X13634Y4332*
X13741Y4297*
X13838Y4239*
X13920Y4161*
X13983Y4068*
X14025Y3963*
X14071Y4076*
X14141Y4174*
X14233Y4254*
X14341Y4310*
Y4475*
X14355Y4545*
X14395Y4605*
X15391Y5601*
Y5603*
X15234*
Y6247*
X15916*
Y5763*
X15976Y5849*
X16056Y5916*
X16151Y5960*
X16253Y5979*
X16357Y5972*
X16456Y5937*
X16543Y5879*
X16611Y5800*
X16658Y5707*
X16679Y5605*
X16673Y5500*
X16641Y5401*
X17395Y6155*
X17455Y6195*
X17525Y6209*
X17734*
Y6347*
X18416*
Y5703*
X17734*
Y5841*
X17601*
X15921Y4160*
X15984Y4067*
X16025Y3963*
X16074Y4081*
X16150Y4183*
X16248Y4264*
X16364Y4318*
X16489Y4342*
X16616Y4336*
X16738Y4298*
X17595Y5155*
X17655Y5195*
X17725Y5209*
X18722*
X18658Y5273*
X18610Y5350*
X18580Y5435*
X18570Y5525*
X18584Y5630*
X18624Y5727*
X18689Y5811*
X18773Y5876*
X18870Y5916*
X18975Y5930*
X19080Y5916*
X19177Y5876*
X19261Y5811*
X19326Y5727*
X19366Y5630*
X19380Y5525*
X19370Y5435*
X19340Y5350*
X19292Y5273*
X19228Y5209*
X19399*
X20084Y5894*
Y6297*
X20766*
Y5653*
X20363*
X19605Y4895*
X19545Y4855*
X19475Y4841*
X17801*
X16998Y4038*
X17025Y3963*
X17069Y4073*
X17137Y4169*
X17225Y4248*
X17328Y4305*
X17442Y4337*
X17560Y4343*
X17676Y4321*
X17784Y4274*
X17879Y4204*
X17956Y4114*
X18010Y4009*
X18749*
X20095Y5355*
X20155Y5395*
X20225Y5409*
X21884*
Y5547*
X22566*
Y4903*
X21884*
Y5041*
X20301*
X18955Y3695*
X18895Y3655*
X18825Y3641*
X18010*
X17954Y3533*
X17874Y3441*
X17776Y3371*
X17663Y3325*
X17763Y3286*
X17853Y3227*
X17929Y3150*
X17988Y3060*
X18026Y2959*
X20150*
Y3200*
X21000*
Y2350*
X20150*
Y2591*
X17988*
X17917Y2486*
X17823Y2401*
X17711Y2341*
X17588Y2310*
X17462*
X17339Y2341*
X17227Y2401*
X17133Y2486*
X17062Y2591*
X16988*
X16917Y2486*
X16823Y2401*
X16711Y2341*
X16588Y2310*
X16462*
X16339Y2341*
X16227Y2401*
X16133Y2486*
X16062Y2591*
X15988*
X15922Y2491*
X15835Y2409*
X15731Y2349*
X15617Y2315*
X15498Y2307*
X15380Y2327*
X15270Y2374*
X15173Y2444*
X15095Y2535*
X15040Y2641*
X15010*
X14952Y2530*
X14869Y2437*
X14766Y2366*
X14649Y2321*
X14525Y2306*
X14401Y2321*
X14284Y2366*
X14181Y2437*
X14098Y2530*
X14040Y2641*
X14010*
X13952Y2530*
X13869Y2437*
X13766Y2366*
X13649Y2321*
X13525Y2306*
X13401Y2321*
X13284Y2366*
X13181Y2437*
X13098Y2530*
X13040Y2641*
X13010*
X12952Y2530*
X12869Y2437*
X12766Y2366*
X12649Y2321*
X12525Y2306*
X12401Y2321*
X12284Y2366*
X12181Y2437*
X12098Y2530*
X12040Y2641*
X12010*
X11952Y2530*
X11869Y2437*
X11766Y2366*
X11649Y2321*
X11525Y2306*
X11401Y2321*
X11284Y2366*
X11181Y2437*
X11098Y2530*
X11040Y2641*
X11010*
X10952Y2530*
X10869Y2437*
X10766Y2366*
X10649Y2321*
X10525Y2306*
X10401Y2321*
X10284Y2366*
X10181Y2437*
X10098Y2530*
X10040Y2641*
X8200*
Y2400*
X7350*
Y3250*
X8200*
Y3009*
X10040*
X10096Y3117*
X10176Y3209*
X10274Y3279*
X10387Y3325*
X10274Y3371*
X10176Y3441*
X10096Y3533*
X10040Y3641*
X9275*
X9205Y3655*
X9145Y3695*
X8549Y4291*
X6975*
X6905Y4305*
X6845Y4345*
X6245Y4945*
X6205Y5005*
X6191Y5075*
Y5403*
X6034*
Y5823*
X5855Y5645*
X5985*
Y5005*
X5215*
Y5645*
X5416*
Y5650*
X5430Y5720*
X5470Y5780*
X6034Y6344*
Y6747*
X6716*
Y6103*
X6313*
X6257Y6047*
X6716*
Y5403*
X6559*
Y5151*
X7051Y4659*
X8625*
X8695Y4645*
X8755Y4605*
X9351Y4009*
X10040*
X10092Y4111*
X10165Y4199*
X10256Y4269*
X10360Y4317*
X10472Y4341*
X9625*
X9555Y4355*
X9495Y4395*
X8680Y5210*
X8662Y5107*
X8619Y5012*
X8553Y4931*
X8469Y4869*
X8371Y4832*
X8267Y4820*
X8164Y4835*
X8068Y4877*
X7986Y4941*
X7923Y5025*
X7883Y5121*
X7870Y5225*
X7883Y5327*
X7921Y5422*
X7982Y5505*
X8062Y5569*
X8155Y5612*
X8256Y5630*
X8359Y5621*
X8456Y5588*
X8541Y5530*
Y5653*
X8384*
Y6297*
X9040*
Y6353*
X8384*
Y6591*
X8360*
Y6455*
X7590*
Y7095*
X8360*
Y6959*
X8384*
Y6997*
X9040*
Y7369*
X9266*
Y7834*
X9128*
Y8516*
X9266*
Y8753*
X9134*
Y9397*
X9487*
X9543Y9453*
X9134*
Y9591*
X8888*
X8864Y9490*
X8812Y9400*
X8737Y9328*
X8644Y9280*
X8542Y9260*
X8438Y9270*
X8342Y9309*
X8260Y9374*
X8200Y9459*
X8166Y9557*
Y9453*
X7659*
Y9397*
X8166*
Y8753*
X7659*
Y8725*
X7645Y8655*
X7605Y8595*
X7472Y8462*
Y7834*
X7359*
Y7469*
X7560*
Y6829*
X6790*
Y7469*
X6991*
Y7834*
X6828*
Y8516*
X7007*
X7020Y8530*
X7243Y8753*
X6784*
Y8896*
X6736Y8914*
X6695Y8945*
X6480Y9160*
X6490Y9062*
X6473Y8965*
X6431Y8876*
X6367Y8802*
X6285Y8747*
X6566*
Y8103*
X6163*
X6155Y8095*
X6117Y8065*
X6072Y8047*
X6566*
Y7403*
X5884*
Y8041*
X5847*
Y7884*
X5444*
X4977Y7416*
X5172*
Y6734*
X4984*
Y6019*
X5185*
Y5379*
X4415*
Y6019*
X4616*
Y6734*
X4528*
Y7416*
X4541*
Y7425*
X4555Y7495*
X4595Y7555*
X4923Y7884*
X4503*
Y8566*
X4706*
X5045Y8905*
X5105Y8945*
X5175Y8959*
X5749*
X5772Y8982*
X5760Y9086*
X5778Y9189*
X5825Y9283*
X5896Y9359*
X5986Y9413*
X5913Y9471*
X5857Y9546*
X5822Y9632*
X5810Y9725*
X5825Y9828*
X5868Y9922*
X5936Y10001*
X6023Y10057*
X6123Y10086*
X6227*
X6327Y10057*
X6414Y10001*
X6482Y9922*
X6525Y9828*
X6540Y9725*
X6528Y9632*
X6784Y9377*
Y9397*
X7243*
X7187Y9453*
X6784*
Y10097*
X7466*
Y9959*
X7484*
Y10097*
X8166*
Y9693*
X8195Y9782*
X8246Y9860*
X8315Y9924*
X8398Y9967*
X8489Y9988*
X8582Y9986*
X8672Y9959*
X8675Y9959*
X9134*
Y10097*
X10443*
X10390Y10150*
X10290Y10116*
X10184Y10112*
X10081Y10140*
X9991Y10195*
X9920Y10274*
X9875Y10370*
X9860Y10475*
X9874Y10574*
X9913Y10665*
X9976Y10742*
X10058Y10800*
X10152Y10833*
X10099Y10911*
X10068Y11001*
X10061Y11095*
X10078Y11189*
X10119Y11274*
X10181Y11346*
X10259Y11400*
X10177Y11457*
X10114Y11534*
X10074Y11626*
X10060Y11725*
X10074Y11824*
X10113Y11915*
X10176Y11992*
X10257Y12049*
X10351Y12082*
X10451Y12089*
X10548Y12069*
X10636Y12023*
X10709Y11955*
X10760Y11869*
X10787Y11774*
X11101Y11459*
X12225*
X12166Y11530*
X12127Y11614*
X12111Y11704*
X12117Y11796*
X12146Y11884*
X12196Y11961*
X12264Y12023*
X12193Y12089*
X12142Y12172*
X12114Y12265*
X12112Y12362*
X12136Y12456*
X12184Y12541*
X8240*
X8174Y12458*
X8088Y12398*
X7987Y12365*
X7882Y12363*
X7780Y12390*
X7690Y12446*
X7620Y12525*
X7575Y12620*
X7560Y12725*
X7575Y12828*
X7619Y12923*
X7687Y13002*
X7775Y13058*
X7876Y13087*
X7980Y13086*
X8080Y13055*
X8065Y13114*
X8060Y13175*
X8060Y13186*
X7965Y13162*
X7867Y13165*
X7773Y13193*
X7690Y13246*
X7624Y13318*
X7580Y13406*
X7561Y13502*
X7568Y13600*
X7529Y13618*
X7495Y13645*
X7395Y13745*
X7355Y13805*
X7341Y13875*
Y13903*
X7184*
Y14547*
X7866*
Y13903*
X7807*
X7832Y13878*
X7927Y13890*
X8021Y13877*
X8108Y13841*
X8184Y13783*
X8241Y13707*
X8278Y13619*
X8290Y13525*
X8290Y13514*
X8379Y13537*
X8471*
X8560Y13514*
X8560Y13525*
X8572Y13619*
X8609Y13707*
X8666Y13783*
X8742Y13841*
X8829Y13877*
X8923Y13890*
X9018Y13878*
X9584Y14444*
Y14647*
X10266*
Y14003*
X9663*
X9278Y13618*
X9290Y13530*
X9280Y13442*
X9250Y13359*
X14975*
X15045Y13345*
X15105Y13305*
X15832Y12578*
X15928Y12590*
X16023Y12577*
X16111Y12539*
X16073Y12629*
X16060Y12725*
X16075Y12828*
X16118Y12922*
X16186Y13001*
X16273Y13057*
X16373Y13086*
X16477*
X16577Y13057*
X16664Y13001*
X16732Y12922*
X16775Y12828*
X16790Y12725*
X16777Y12627*
X16737Y12536*
X16675Y12459*
X21651*
X21574Y12507*
X21509Y12571*
X21461Y12648*
X21430Y12734*
X21420Y12825*
X21434Y12932*
X21476Y13031*
X21543Y13116*
X21630Y13180*
X21730Y13219*
X21838Y13230*
X21944Y13212*
X22042Y13167*
X22124Y13098*
X22186Y13009*
X22199*
X22700Y13510*
Y14100*
X23460*
Y21223*
X23449Y21278*
X23418Y21324*
X23371Y21355*
X23316Y21366*
X4419*
X4364Y21355*
X4317Y21324*
X4286Y21278*
X4275Y21223*
Y14100*
X5050*
Y13250*
X4275*
Y13100*
X5050*
Y12250*
X4275*
Y12100*
X5050*
Y11250*
X4275*
Y11100*
X5050*
Y10250*
X4275*
Y10100*
X5050*
Y9250*
X4275*
X4366Y3112D02*
X4380Y3267D01*
X4422Y3416*
X4491Y3555*
X4585Y3679*
X4700Y3783*
X4831Y3865*
X4976Y3921*
X5129Y3949*
X5284*
X5436Y3921*
X5581Y3865*
X5713Y3783*
X5827Y3679*
X5921Y3555*
X5990Y3416*
X6032Y3267*
X6047Y3112*
X6032Y2958*
X5990Y2809*
X5921Y2670*
X5827Y2546*
X5713Y2442*
X5581Y2360*
X5436Y2304*
X5284Y2275*
X5129*
X4976Y2304*
X4831Y2360*
X4700Y2442*
X4585Y2546*
X4491Y2670*
X4422Y2809*
X4380Y2958*
X4366Y3112*
Y20435D02*
X4380Y20590D01*
X4422Y20739*
X4491Y20878*
X4585Y21001*
X4700Y21106*
X4831Y21188*
X4976Y21244*
X5129Y21272*
X5284*
X5436Y21244*
X5581Y21188*
X5713Y21106*
X5827Y21001*
X5921Y20878*
X5990Y20739*
X6032Y20590*
X6047Y20435*
X6032Y20281*
X5990Y20132*
X5921Y19993*
X5827Y19869*
X5713Y19764*
X5581Y19683*
X5436Y19627*
X5284Y19598*
X5129*
X4976Y19627*
X4831Y19683*
X4700Y19764*
X4585Y19869*
X4491Y19993*
X4422Y20132*
X4380Y20281*
X4366Y20435*
X4415Y5271D02*
X5185D01*
Y4631*
X4415*
Y5271*
X4640Y18624D02*
Y19069D01*
X5410*
Y18429*
X4966*
X4858Y18321*
X5410*
Y17681*
X4709*
Y17551*
X5194Y17066*
X5497*
Y16663*
X5505Y16655*
X5535Y16617*
X5553Y16572*
Y17066*
X6197*
Y16384*
X5559*
Y16197*
X5716*
Y16059*
X5734*
Y16197*
X6416*
Y15553*
X5734*
Y15691*
X5716*
Y15553*
X5034*
Y16197*
X5191*
Y16384*
X4853*
Y16887*
X4395Y17345*
X4355Y17405*
X4341Y17475*
Y18249*
X4355Y18319*
X4395Y18379*
X4640Y18624*
X5191Y14590D02*
Y14853D01*
X5034*
Y15497*
X5716*
Y14853*
X5559*
Y14590*
X5634Y14532*
X5692Y14457*
X5728Y14369*
X5740Y14275*
X5725Y14172*
X5682Y14078*
X5614Y13999*
X5527Y13943*
X5427Y13914*
X5323*
X5223Y13943*
X5136Y13999*
X5068Y14078*
X5025Y14172*
X5010Y14275*
X5022Y14369*
X5058Y14457*
X5116Y14532*
X5191Y14590*
X5228Y6734D02*
Y7416D01*
X5872*
Y6734*
X5228*
X5734Y15497D02*
X6416D01*
Y14853*
X5734*
Y15497*
X6210Y18080D02*
Y18055D01*
X5440*
Y18695*
X6210*
Y18556*
X6234Y18549*
Y18997*
X6392*
X6409Y19056*
X6445Y19105*
X6995Y19655*
X7055Y19695*
X7125Y19709*
X10062*
X10121Y19800*
X10196Y19876*
X10287Y19936*
X10387Y19975*
X10283Y20016*
X10190Y20079*
X10112Y20161*
X10054Y20257*
X10018Y20363*
X10006Y20475*
X10021Y20598*
X10065Y20714*
X10134Y20816*
X10226Y20899*
X10335Y20958*
X10455Y20989*
X10579Y20991*
X10700Y20963*
X10811Y20908*
X10905Y20828*
X10978Y20728*
X11025Y20613*
X11071Y20726*
X11143Y20826*
X11236Y20906*
X11345Y20961*
X11464Y20990*
X11586*
X11705Y20961*
X11814Y20906*
X11907Y20826*
X11979Y20726*
X12025Y20613*
X12071Y20726*
X12143Y20826*
X12236Y20906*
X12345Y20961*
X12464Y20990*
X12586*
X12705Y20961*
X12814Y20906*
X12907Y20826*
X12979Y20726*
X13025Y20613*
X13071Y20726*
X13143Y20826*
X13236Y20906*
X13345Y20961*
X13464Y20990*
X13586*
X13705Y20961*
X13814Y20906*
X13907Y20826*
X13979Y20726*
X14025Y20613*
X14071Y20726*
X14143Y20826*
X14236Y20906*
X14345Y20961*
X14464Y20990*
X14586*
X14705Y20961*
X14814Y20906*
X14907Y20826*
X14979Y20726*
X15025Y20613*
X15071Y20726*
X15143Y20826*
X15236Y20906*
X15345Y20961*
X15464Y20990*
X15586*
X15705Y20961*
X15814Y20906*
X15907Y20826*
X15979Y20726*
X16025Y20613*
X16071Y20726*
X16143Y20826*
X16236Y20906*
X16345Y20961*
X16464Y20990*
X16586*
X16705Y20961*
X16814Y20906*
X16907Y20826*
X16979Y20726*
X17025Y20613*
X17072Y20728*
X17145Y20828*
X17239Y20908*
X17350Y20963*
X17471Y20991*
X17595Y20989*
X17714Y20958*
X17824Y20899*
X17916Y20816*
X17985Y20714*
X18029Y20598*
X18044Y20475*
X18032Y20363*
X17996Y20257*
X17938Y20161*
X17860Y20079*
X17767Y20016*
X17663Y19975*
X17762Y19936*
X17852Y19878*
X17927Y19803*
X17986Y19713*
X18025Y19614*
X18043Y19509*
X18475*
X18545Y19495*
X18605Y19455*
X19251Y18809*
X21325*
X21395Y18795*
X21455Y18755*
X21951Y18259*
X22134*
Y18397*
X22816*
Y17753*
X22134*
Y17891*
X21875*
X21805Y17905*
X21745Y17945*
X21249Y18441*
X19175*
X19105Y18455*
X19045Y18495*
X18399Y19141*
X17922*
X17830Y19056*
X17721Y18995*
X17601Y18962*
X17476Y18959*
X17354Y18985*
X17242Y19040*
X17146Y19121*
X17073Y19221*
X17025Y19337*
X16979Y19224*
X16909Y19126*
X16817Y19046*
X16709Y18990*
Y18901*
X16801Y18809*
X18425*
X18495Y18795*
X18555Y18755*
X19001Y18309*
X19734*
Y18397*
X20416*
Y17753*
X19734*
Y17941*
X18960*
Y17724*
X18990Y17695*
Y17745*
X19760*
Y17697*
X20416*
Y17053*
X19734*
Y17105*
X19159*
Y16801*
X19594Y16366*
X19997*
Y15684*
X19909*
Y15347*
X19966*
Y15209*
X19984*
Y15347*
X20666*
Y14703*
X19984*
Y14841*
X19966*
Y14703*
X19284*
Y15347*
X19541*
Y15684*
X19353*
Y16087*
X18845Y16595*
X18805Y16655*
X18791Y16725*
Y16731*
X18190*
Y17371*
X18791*
Y17373*
X18685Y17479*
X18190*
Y18119*
X18671*
X18349Y18441*
X16725*
X16655Y18455*
X16595Y18495*
X16395Y18695*
X16355Y18755*
X16341Y18825*
Y18990*
X16233Y19046*
X16141Y19126*
X16071Y19224*
X16025Y19337*
X15989Y19243*
X15935Y19158*
X15866Y19084*
X15784Y19026*
X16401Y18409*
X17625*
X17690Y18397*
X18116*
Y17753*
X17434*
Y18041*
X16610*
Y17674*
X16639Y17645*
Y17695*
X17409*
Y17559*
X17434*
Y17697*
X18116*
Y17053*
X17434*
Y17191*
X17409*
Y17055*
X16809*
Y16651*
X17251Y16209*
X17353*
Y16366*
X17997*
Y15684*
X17594*
X17409Y15499*
Y15247*
X17566*
Y15109*
X17584*
Y15247*
X18266*
Y14603*
X17584*
Y14741*
X17566*
Y14603*
X16884*
Y14857*
X16849Y14758*
X16788Y14672*
X16913Y14547*
X17566*
Y13903*
X16884*
Y14096*
X16836Y14114*
X16795Y14145*
X16395Y14545*
X16356Y14601*
X16275Y14659*
X16213Y14736*
X16173Y14827*
X16160Y14925*
X16173Y15022*
X16211Y15112*
X16272Y15188*
X16351Y15246*
X16443Y15281*
X16540Y15290*
X16636Y15273*
X16724Y15231*
X16798Y15167*
X16853Y15086*
X16884Y14993*
Y15247*
X17041*
Y15575*
X17055Y15645*
X17095Y15705*
X17231Y15841*
X17175*
X17104Y15855*
X17045Y15895*
X16495Y16445*
X16455Y16505*
X16441Y16575*
Y16681*
X15840*
Y17321*
X16441*
Y17323*
X16335Y17429*
X15840*
Y18069*
X16227*
X16195Y18095*
X15395Y18895*
X15363Y18938*
X15345Y18989*
X15236Y19045*
X15143Y19124*
X15071Y19224*
X15025Y19337*
X14986Y19237*
X14926Y19146*
X14850Y19071*
X14759Y19012*
Y18801*
X15213Y18347*
X15816*
Y17703*
X15134*
Y17906*
X14445Y18595*
X14405Y18655*
X14391Y18725*
Y18974*
X14290Y19012*
X14200Y19071*
X14123Y19147*
X14064Y19237*
X14025Y19337*
X13976Y19219*
X13900Y19117*
X13802Y19036*
X13686Y18982*
X13561Y18958*
X13434Y18964*
X13312Y19002*
X13209Y18899*
Y18347*
X13366*
Y17703*
X12684*
Y18347*
X12841*
Y18975*
X12855Y19045*
X12895Y19105*
X13052Y19262*
X13025Y19337*
X12976Y19219*
X12900Y19117*
X12802Y19036*
X12686Y18982*
X12561Y18958*
X12434Y18964*
X12312Y19002*
X12055Y18745*
X11995Y18705*
X11925Y18691*
X11551*
X10966Y18106*
Y17703*
X10310*
Y17647*
X10966*
Y17003*
X10284*
Y17105*
X9709*
Y16801*
X10005Y16505*
X10045Y16445*
X10059Y16375*
Y16316*
X10197*
Y15634*
X10109*
Y15347*
X10266*
Y15209*
X10284*
Y15347*
X10966*
Y14703*
X10284*
Y14841*
X10266*
Y14703*
X9584*
Y15347*
X9741*
Y15634*
X9553*
Y16316*
X9673*
X9395Y16595*
X9355Y16655*
X9341Y16725*
Y16731*
X8740*
Y17371*
X9243*
X9135Y17479*
X8740*
Y18119*
X9510*
Y17624*
X9540Y17595*
Y17745*
X10284*
Y18347*
X10687*
X11333Y18993*
X11312Y19002*
X11005Y18695*
X10945Y18655*
X10875Y18641*
X8547*
Y18484*
X7903*
Y19166*
X8547*
Y19009*
X10297*
X10204Y19068*
X10125Y19145*
X10064Y19238*
X10024Y19341*
X7201*
X6857Y18997*
X6916*
Y18353*
X6457*
X6513Y18297*
X6916*
Y17653*
X6234*
Y18056*
X6210Y18080*
X6790Y6721D02*
X7560D01*
Y6081*
X6790*
Y6721*
X7341Y15247D02*
Y15584D01*
X7168*
Y16266*
X7371*
X7706Y16601*
Y16731*
X7105*
Y17371*
X7608*
X7500Y17479*
X7105*
Y18119*
X7721*
X7395Y18445*
X7365Y18484*
X7203*
Y19166*
X7847*
Y18513*
X8305Y18055*
X8345Y17995*
X8359Y17925*
Y17745*
X8675*
Y17105*
X8074*
Y16525*
X8060Y16455*
X8020Y16395*
X7892Y16266*
X8512*
Y15584*
X7868*
Y16243*
X7812Y16187*
Y15584*
X7709*
Y15247*
X7866*
Y15109*
X7899*
Y15247*
X8581*
Y14603*
X7899*
Y14741*
X7866*
Y14603*
X7184*
Y15247*
X7341*
X7528Y7834D02*
Y8516D01*
X8172*
Y7834*
X7528*
X7899Y14547D02*
X8581D01*
Y13903*
X7899*
Y14547*
X8200Y3400D02*
X7350D01*
Y4250*
X8200*
Y3400*
X8245Y11200D02*
X8259Y11305D01*
X8299Y11402*
X8364Y11486*
X8448Y11551*
X8545Y11591*
X8650Y11605*
X8755Y11591*
X8852Y11551*
X8936Y11486*
X9001Y11402*
X9041Y11305*
X9055Y11200*
X9041Y11095*
X9001Y10998*
X8936Y10914*
X8852Y10849*
X8755Y10809*
X8650Y10795*
X8545Y10809*
X8448Y10849*
X8364Y10914*
X8299Y10998*
X8259Y11095*
X8245Y11200*
X9770Y5775D02*
X9784Y5880D01*
X9824Y5977*
X9889Y6061*
X9973Y6126*
X10070Y6166*
X10175Y6180*
X10280Y6166*
X10377Y6126*
X10461Y6061*
X10526Y5977*
X10566Y5880*
X10580Y5775*
X10566Y5670*
X10526Y5573*
X10461Y5489*
X10377Y5424*
X10280Y5384*
X10175Y5370*
X10070Y5384*
X9973Y5424*
X9889Y5489*
X9824Y5573*
X9784Y5670*
X9770Y5775*
X10253Y15634D02*
Y16316D01*
X10897*
Y15634*
X10253*
X10284Y14647D02*
X10966D01*
Y14003*
X10284*
Y14647*
X10472Y8077D02*
Y7834D01*
X9828*
Y8516*
X10472*
Y8473*
X10536Y8558*
X10619Y8624*
X10717Y8665*
X10822Y8680*
X10927Y8667*
X11026Y8627*
X11110Y8562*
X11175Y8478*
X11216Y8380*
X11230Y8275*
X11216Y8170*
X11175Y8072*
X11110Y7988*
X11026Y7923*
X10928Y7883*
X10822Y7870*
X10717Y7885*
X10619Y7926*
X10536Y7992*
X10472Y8077*
X10610Y6491D02*
Y6355D01*
X9840*
Y6995*
X10610*
Y6859*
X10634*
Y7097*
X11316*
Y6453*
X10634*
Y6491*
X10610*
X11390Y6671D02*
X12160D01*
Y6031*
X11390*
Y6671*
X11585Y17429D02*
X11140D01*
Y18069*
X11910*
Y17624*
X11940Y17595*
Y17695*
X12710*
Y17647*
X13366*
Y17003*
X12684*
Y17055*
X12155*
X12405Y16805*
X12445Y16745*
X12459Y16675*
Y16366*
X12597*
Y15684*
X12459*
Y15297*
X12516*
Y15159*
X12534*
Y15297*
X13216*
Y14653*
X12534*
Y14791*
X12516*
Y14653*
X11834*
Y15297*
X12091*
Y15684*
X11953*
Y16366*
X12091*
Y16599*
X11910Y16779*
Y16681*
X11140*
Y17321*
X11693*
X11585Y17429*
X11991Y13953D02*
X11834D01*
Y14597*
X12516*
Y13953*
X12359*
Y13909*
X13049*
X13093Y13953*
X12534*
Y14597*
X13216*
Y14520*
X13284Y14599*
X13371Y14656*
X13471Y14686*
X13575Y14686*
X13675Y14658*
X13763Y14601*
X13832Y14523*
X13875Y14428*
X13890Y14325*
X13879Y14234*
X13845Y14149*
X13791Y14075*
X13721Y14017*
X13638Y13978*
X13255Y13595*
X13195Y13555*
X13125Y13541*
X12225*
X12155Y13555*
X12095Y13595*
X12045Y13645*
X12005Y13705*
X11991Y13775*
Y13953*
X12020Y5575D02*
X12034Y5680D01*
X12074Y5777*
X12139Y5861*
X12223Y5926*
X12320Y5966*
X12425Y5980*
X12530Y5966*
X12627Y5926*
X12711Y5861*
X12776Y5777*
X12816Y5680*
X12830Y5575*
X12816Y5470*
X12776Y5373*
X12711Y5289*
X12627Y5224*
X12530Y5184*
X12425Y5170*
X12320Y5184*
X12223Y5224*
X12139Y5289*
X12074Y5373*
X12034Y5470*
X12020Y5575*
X12653Y15684D02*
Y16366D01*
X13297*
Y15684*
X12653*
X12884Y6405D02*
X12190D01*
Y7045*
X12960*
Y6997*
X13566*
Y6353*
X12884*
Y6405*
X13640Y6671D02*
X14410D01*
Y6031*
X13640*
Y6671*
X13670Y5575D02*
X13684Y5680D01*
X13724Y5777*
X13789Y5861*
X13873Y5926*
X13970Y5966*
X14075Y5980*
X14180Y5966*
X14277Y5926*
X14361Y5861*
X14426Y5777*
X14466Y5680*
X14480Y5575*
X14466Y5470*
X14426Y5373*
X14361Y5289*
X14277Y5224*
X14180Y5184*
X14075Y5170*
X13970Y5184*
X13873Y5224*
X13789Y5289*
X13724Y5373*
X13684Y5470*
X13670Y5575*
X14011Y17429D02*
X13540D01*
Y18069*
X14310*
Y17650*
X14340Y17621*
Y17695*
X15110*
Y17559*
X15134*
Y17647*
X15816*
Y17003*
X15134*
Y17191*
X15110*
Y17055*
X14509*
Y16501*
X14744Y16266*
X15097*
Y15584*
X14959*
Y15247*
X15166*
Y15109*
X15234*
Y15247*
X15916*
Y14603*
X15234*
Y14741*
X15166*
Y14603*
X14657*
X14713Y14547*
X15166*
Y13903*
X14484*
Y14256*
X14268Y14472*
X14173Y14460*
X14079Y14473*
X13992Y14509*
X13916Y14567*
X13859Y14643*
X13822Y14731*
X13810Y14825*
X13825Y14928*
X13868Y15023*
X13937Y15101*
X14025Y15158*
X14125Y15186*
X14229Y15186*
X14329Y15156*
X14416Y15099*
X14484Y15020*
Y15247*
X14591*
Y15584*
X14453*
Y16037*
X14195Y16295*
X14155Y16355*
X14141Y16425*
Y16681*
X13540*
Y17321*
X14119*
X14011Y17429*
X15153Y15584D02*
Y16266D01*
X15797*
Y15584*
X15153*
X15210Y6541D02*
Y6405D01*
X14440*
Y7045*
X15210*
Y6909*
X15234*
Y6947*
X15916*
Y6303*
X15234*
Y6541*
X15210*
X15234Y14547D02*
X15916D01*
Y13903*
X15234*
Y14547*
X16065Y6621D02*
X16835D01*
Y5981*
X16065*
Y6621*
X17584Y14547D02*
X18266D01*
Y13903*
X17584*
Y14547*
X17635Y6491D02*
Y6355D01*
X16865*
Y6995*
X17635*
Y6859*
X17734*
Y7047*
X18416*
Y6403*
X17734*
Y6491*
X17635*
X18053Y15684D02*
Y16366D01*
X18697*
Y15684*
X18053*
X18590Y6721D02*
X19360D01*
Y6081*
X18590*
Y6721*
X19205Y14241D02*
X19132Y14174D01*
X19044Y14130*
X18947Y14111*
X18848Y14118*
X18755Y14152*
X18675Y14209*
X18613Y14286*
X18573Y14377*
X18560Y14475*
X18574Y14575*
X18614Y14667*
X18679Y14744*
X18761Y14801*
X18857Y14834*
X18957Y14839*
X19055Y14816*
X19143Y14767*
X19215Y14697*
X19264Y14609*
X19284*
Y14647*
X19966*
Y14003*
X19284*
Y14241*
X19205*
X20053Y15684D02*
Y16366D01*
X20697*
Y15684*
X20053*
X20084Y6455D02*
X19390D01*
Y7095*
X20160*
Y6997*
X20766*
Y6353*
X20084*
Y6455*
X20350Y19950D02*
X21200D01*
Y19100*
X20350*
Y19950*
Y20950D02*
X21200D01*
Y20100*
X20350*
Y20950*
X20665Y14003D02*
X19984D01*
Y14647*
X20666*
Y14004*
X20734Y14028*
X20804Y14039*
X20876Y14036*
X21084Y14244*
Y14647*
X21766*
Y14003*
X21363*
X21166Y13806*
X21184Y13741*
X21190Y13675*
X21175Y13572*
X21132Y13478*
X21064Y13399*
X20977Y13343*
X20877Y13314*
X20773*
X20673Y13343*
X20586Y13399*
X20518Y13478*
X20475Y13572*
X20460Y13675*
X20474Y13776*
X20515Y13868*
X20581Y13946*
X20665Y14003*
X20920Y5825D02*
X20934Y5930D01*
X20974Y6027*
X21039Y6111*
X21123Y6176*
X21220Y6216*
X21325Y6230*
X21430Y6216*
X21527Y6176*
X21611Y6111*
X21676Y6027*
X21716Y5930*
X21730Y5825*
X21716Y5720*
X21676Y5623*
X21611Y5539*
X21527Y5474*
X21430Y5434*
X21325Y5420*
X21220Y5434*
X21123Y5474*
X21039Y5539*
X20974Y5623*
X20934Y5720*
X20920Y5825*
X20965Y6971D02*
X21735D01*
Y6331*
X20965*
Y6971*
X20985Y17429D02*
X20540D01*
Y18069*
X21310*
Y17624*
X21340Y17595*
Y17695*
X22110*
Y17559*
X22134*
Y17697*
X22816*
Y17053*
X22134*
Y17191*
X22110*
Y17055*
X21509*
Y16701*
X21944Y16266*
X22347*
Y15584*
X22204*
X22186Y15536*
X22155Y15495*
X22007Y15347*
X22466*
Y14703*
X21784*
Y14841*
X21766*
Y14703*
X21084*
Y15347*
X21487*
X21723Y15584*
X21703*
Y15987*
X21195Y16495*
X21155Y16555*
X21141Y16625*
Y16681*
X20540*
Y17321*
X21093*
X20985Y17429*
X21000Y3350D02*
X20150D01*
Y4200*
X21000*
Y3350*
X21688Y3112D02*
X21703Y3267D01*
X21745Y3416*
X21814Y3555*
X21908Y3679*
X22022Y3783*
X22154Y3865*
X22299Y3921*
X22451Y3949*
X22606*
X22759Y3921*
X22904Y3865*
X23036Y3783*
X23150Y3679*
X23244Y3555*
X23313Y3416*
X23355Y3267*
X23369Y3112*
X23355Y2958*
X23313Y2809*
X23244Y2670*
X23150Y2546*
X23036Y2442*
X22904Y2360*
X22759Y2304*
X22606Y2275*
X22451*
X22299Y2304*
X22154Y2360*
X22022Y2442*
X21908Y2546*
X21814Y2670*
X21745Y2809*
X21703Y2958*
X21688Y3112*
Y20435D02*
X21703Y20590D01*
X21745Y20739*
X21814Y20878*
X21908Y21001*
X22022Y21106*
X22154Y21188*
X22299Y21244*
X22451Y21272*
X22606*
X22759Y21244*
X22904Y21188*
X23036Y21106*
X23150Y21001*
X23244Y20878*
X23313Y20739*
X23355Y20590*
X23369Y20435*
X23355Y20281*
X23313Y20132*
X23244Y19993*
X23150Y19869*
X23036Y19764*
X22904Y19683*
X22759Y19627*
X22606Y19598*
X22451*
X22299Y19627*
X22154Y19683*
X22022Y19764*
X21908Y19869*
X21814Y19993*
X21745Y20132*
X21703Y20281*
X21688Y20435*
X21778Y8034D02*
Y8716D01*
X22422*
Y8034*
X21778*
X21784Y14647D02*
X22466D01*
Y14003*
X21784*
Y14647*
X22041Y6247D02*
Y6705D01*
X21765*
Y7345*
X22535*
Y6705*
X22409*
Y6247*
X22566*
Y5603*
X21884*
Y6247*
X22041*
X22437Y16266D02*
X22347Y16330D01*
X22278Y16415*
X22235Y16516*
X22220Y16625*
X22234Y16730*
X22274Y16827*
X22339Y16911*
X22423Y16976*
X22520Y17016*
X22625Y17030*
X22730Y17016*
X22827Y16976*
X22911Y16911*
X22976Y16827*
X23016Y16730*
X23030Y16625*
X23015Y16516*
X22972Y16415*
X22903Y16330*
X22813Y16266*
X23047*
Y15584*
X22403*
Y16266*
X22437*
X4371Y2189D02*
X23364D01*
X4305Y2237D02*
X23430D01*
X4281Y2285D02*
X5056D01*
X5357D02*
X22378D01*
X22679D02*
X23454D01*
X4275Y2333D02*
X4890D01*
X5522D02*
X10359D01*
X10691D02*
X11359D01*
X11691D02*
X12359D01*
X12691D02*
X13359D01*
X13691D02*
X14359D01*
X14691D02*
X15359D01*
X15691D02*
X16359D01*
X16691D02*
X17359D01*
X17691D02*
X22213D01*
X22845D02*
X23460D01*
X4275Y2381D02*
X4791D01*
X5621D02*
X10256D01*
X10794D02*
X11256D01*
X11794D02*
X12256D01*
X12794D02*
X13256D01*
X13794D02*
X14256D01*
X14794D02*
X15256D01*
X15794D02*
X16256D01*
X16794D02*
X17256D01*
X17794D02*
X20150D01*
X21000D02*
X22114D01*
X22944D02*
X23460D01*
X4275Y2430D02*
X4716D01*
X5696D02*
X7350D01*
X8200D02*
X10189D01*
X10861D02*
X11189D01*
X11861D02*
X12189D01*
X12861D02*
X13189D01*
X13861D02*
X14189D01*
X14861D02*
X15189D01*
X15861D02*
X16189D01*
X16861D02*
X17189D01*
X17861D02*
X20150D01*
X21000D02*
X22039D01*
X23019D02*
X23460D01*
X4275Y2478D02*
X4655D01*
X5757D02*
X7350D01*
X8200D02*
X10140D01*
X10910D02*
X11140D01*
X11910D02*
X12140D01*
X12910D02*
X13140D01*
X13910D02*
X14140D01*
X14910D02*
X15140D01*
X15910D02*
X16140D01*
X16910D02*
X17140D01*
X17910D02*
X20150D01*
X21000D02*
X21978D01*
X23080D02*
X23460D01*
X4275Y2526D02*
X4604D01*
X5808D02*
X7350D01*
X8200D02*
X10101D01*
X10949D02*
X11101D01*
X11949D02*
X12101D01*
X12949D02*
X13101D01*
X13949D02*
X14101D01*
X14949D02*
X15101D01*
X15949D02*
X16101D01*
X16949D02*
X17101D01*
X17949D02*
X20150D01*
X21000D02*
X21927D01*
X23131D02*
X23460D01*
X4275Y2574D02*
X4561D01*
X5851D02*
X7350D01*
X8200D02*
X10071D01*
X10979D02*
X11071D01*
X11979D02*
X12071D01*
X12979D02*
X13071D01*
X13979D02*
X14071D01*
X14979D02*
X15071D01*
X15979D02*
X16071D01*
X16979D02*
X17071D01*
X17979D02*
X20150D01*
X21000D02*
X21884D01*
X23174D02*
X23460D01*
X4275Y2622D02*
X4524D01*
X5889D02*
X7350D01*
X8200D02*
X10048D01*
X11002D02*
X11048D01*
X12002D02*
X12048D01*
X13002D02*
X13048D01*
X14002D02*
X14048D01*
X15002D02*
X15048D01*
X21000D02*
X21847D01*
X23211D02*
X23460D01*
X4275Y2670D02*
X4492D01*
X5921D02*
X7350D01*
X21000D02*
X21814D01*
X23243D02*
X23460D01*
X4275Y2718D02*
X4464D01*
X5948D02*
X7350D01*
X21000D02*
X21787D01*
X23271D02*
X23460D01*
X4275Y2766D02*
X4440D01*
X5972D02*
X7350D01*
X21000D02*
X21763D01*
X23295D02*
X23460D01*
X4275Y2814D02*
X4420D01*
X5992D02*
X7350D01*
X21000D02*
X21743D01*
X23315D02*
X23460D01*
X4275Y2862D02*
X4404D01*
X6008D02*
X7350D01*
X21000D02*
X21727D01*
X23331D02*
X23460D01*
X4275Y2910D02*
X4390D01*
X6022D02*
X7350D01*
X21000D02*
X21713D01*
X23345D02*
X23460D01*
X4275Y2958D02*
X4380D01*
X6032D02*
X7350D01*
X21000D02*
X21703D01*
X23355D02*
X23460D01*
X4275Y3006D02*
X4372D01*
X6040D02*
X7350D01*
X18011D02*
X20150D01*
X21000D02*
X21695D01*
X23363D02*
X23460D01*
X4275Y3054D02*
X4368D01*
X6045D02*
X7350D01*
X8200D02*
X10060D01*
X17990D02*
X20150D01*
X21000D02*
X21690D01*
X23367D02*
X23460D01*
X4275Y3102D02*
X4366D01*
X6047D02*
X7350D01*
X8200D02*
X10086D01*
X17964D02*
X20150D01*
X21000D02*
X21688D01*
X23369D02*
X23460D01*
X4275Y3150D02*
X4366D01*
X6046D02*
X7350D01*
X8200D02*
X10121D01*
X17929D02*
X20150D01*
X21000D02*
X21689D01*
X23369D02*
X23460D01*
X4275Y3198D02*
X4370D01*
X6042D02*
X7350D01*
X8200D02*
X10165D01*
X17885D02*
X20150D01*
X21000D02*
X21693D01*
X23365D02*
X23460D01*
X4275Y3246D02*
X4376D01*
X6036D02*
X7350D01*
X8200D02*
X10222D01*
X17828D02*
X21699D01*
X23359D02*
X23460D01*
X4275Y3294D02*
X4385D01*
X6027D02*
X10304D01*
X17746D02*
X21708D01*
X23350D02*
X23460D01*
X4275Y3342D02*
X4398D01*
X6015D02*
X10336D01*
X17714D02*
X21720D01*
X23337D02*
X23460D01*
X4275Y3390D02*
X4413D01*
X5999D02*
X10242D01*
X17808D02*
X20150D01*
X21000D02*
X21736D01*
X23322D02*
X23460D01*
X4275Y3438D02*
X4431D01*
X5981D02*
X7350D01*
X8200D02*
X10179D01*
X17871D02*
X20150D01*
X21000D02*
X21754D01*
X23304D02*
X23460D01*
X4275Y3486D02*
X4453D01*
X5959D02*
X7350D01*
X8200D02*
X10132D01*
X17918D02*
X20150D01*
X21000D02*
X21776D01*
X23282D02*
X23460D01*
X4275Y3534D02*
X4479D01*
X5933D02*
X7350D01*
X8200D02*
X10095D01*
X17955D02*
X20150D01*
X21000D02*
X21802D01*
X23256D02*
X23460D01*
X4275Y3582D02*
X4509D01*
X5903D02*
X7350D01*
X8200D02*
X10067D01*
X17983D02*
X20150D01*
X21000D02*
X21832D01*
X23226D02*
X23460D01*
X4275Y3630D02*
X4544D01*
X5868D02*
X7350D01*
X8200D02*
X10044D01*
X18006D02*
X20150D01*
X21000D02*
X21867D01*
X23191D02*
X23460D01*
X4275Y3678D02*
X4585D01*
X5828D02*
X7350D01*
X8200D02*
X9164D01*
X18936D02*
X20150D01*
X21000D02*
X21907D01*
X23150D02*
X23460D01*
X4275Y3726D02*
X4632D01*
X5780D02*
X7350D01*
X8200D02*
X9113D01*
X18987D02*
X20150D01*
X21000D02*
X21955D01*
X23103D02*
X23460D01*
X4275Y3774D02*
X4688D01*
X5724D02*
X7350D01*
X8200D02*
X9065D01*
X19035D02*
X20150D01*
X21000D02*
X22011D01*
X23047D02*
X23460D01*
X4275Y3822D02*
X4756D01*
X5656D02*
X7350D01*
X8200D02*
X9017D01*
X19083D02*
X20150D01*
X21000D02*
X22079D01*
X22979D02*
X23460D01*
X4275Y3870D02*
X4843D01*
X5569D02*
X7350D01*
X8200D02*
X8969D01*
X19131D02*
X20150D01*
X21000D02*
X22166D01*
X22892D02*
X23460D01*
X4275Y3919D02*
X4968D01*
X5444D02*
X7350D01*
X8200D02*
X8921D01*
X19179D02*
X20150D01*
X21000D02*
X22291D01*
X22767D02*
X23460D01*
X4275Y3967D02*
X7350D01*
X8200D02*
X8873D01*
X12024D02*
X12026D01*
X13024D02*
X13026D01*
X14024D02*
X14026D01*
X16024D02*
X16026D01*
X17024D02*
X17026D01*
X19227D02*
X20150D01*
X21000D02*
X23460D01*
X4275Y4015D02*
X7350D01*
X8200D02*
X8825D01*
X9346D02*
X10042D01*
X12008D02*
X12042D01*
X13008D02*
X13042D01*
X14008D02*
X14042D01*
X16008D02*
X16042D01*
X17008D02*
X17042D01*
X18008D02*
X18754D01*
X19275D02*
X20150D01*
X21000D02*
X23460D01*
X4275Y4063D02*
X7350D01*
X8200D02*
X8777D01*
X9298D02*
X10064D01*
X11986D02*
X12027D01*
X12986D02*
X13052D01*
X13986D02*
X14064D01*
X15986D02*
X16064D01*
X17023D02*
X17064D01*
X17986D02*
X18802D01*
X19323D02*
X20150D01*
X21000D02*
X23460D01*
X4275Y4111D02*
X7350D01*
X8200D02*
X8729D01*
X9250D02*
X10092D01*
X11958D02*
X11979D01*
X12958D02*
X13041D01*
X13958D02*
X14092D01*
X15958D02*
X16092D01*
X17071D02*
X17092D01*
X17958D02*
X18850D01*
X19371D02*
X20150D01*
X21000D02*
X23460D01*
X4275Y4159D02*
X7350D01*
X8200D02*
X8681D01*
X9202D02*
X10128D01*
X11922D02*
X11931D01*
X12922D02*
X13041D01*
X13922D02*
X14128D01*
X15922D02*
X16128D01*
X17119D02*
X17128D01*
X17922D02*
X18898D01*
X19419D02*
X20150D01*
X21000D02*
X23460D01*
X4275Y4207D02*
X7350D01*
X8200D02*
X8633D01*
X9154D02*
X10174D01*
X11876D02*
X11883D01*
X12876D02*
X13041D01*
X13876D02*
X14174D01*
X15967D02*
X16174D01*
X17167D02*
X17174D01*
X17876D02*
X18946D01*
X19467D02*
X23460D01*
X4275Y4255D02*
X8585D01*
X9106D02*
X10234D01*
X11816D02*
X11835D01*
X12816D02*
X13041D01*
X13816D02*
X14234D01*
X16015D02*
X16234D01*
X17215D02*
X17234D01*
X17816D02*
X18994D01*
X19515D02*
X23460D01*
X4275Y4303D02*
X6910D01*
X9058D02*
X10323D01*
X11308D02*
X11323D01*
X11727D02*
X11787D01*
X12308D02*
X12323D01*
X12727D02*
X13041D01*
X13727D02*
X14323D01*
X16063D02*
X16323D01*
X16727D02*
X16742D01*
X17263D02*
X17323D01*
X17727D02*
X19042D01*
X19563D02*
X23460D01*
X4275Y4351D02*
X6839D01*
X9010D02*
X9566D01*
X11260D02*
X11739D01*
X12260D02*
X13041D01*
X13409D02*
X14341D01*
X16111D02*
X16790D01*
X17311D02*
X19091D01*
X19611D02*
X23460D01*
X4275Y4399D02*
X6791D01*
X8961D02*
X9491D01*
X11211D02*
X11691D01*
X12211D02*
X13041D01*
X13409D02*
X14341D01*
X16159D02*
X16839D01*
X17359D02*
X19139D01*
X19659D02*
X23460D01*
X4275Y4447D02*
X6743D01*
X8913D02*
X9443D01*
X11163D02*
X11643D01*
X12163D02*
X13041D01*
X13409D02*
X14341D01*
X16207D02*
X16887D01*
X17407D02*
X19187D01*
X19707D02*
X23460D01*
X4275Y4495D02*
X6695D01*
X8865D02*
X9395D01*
X11115D02*
X11595D01*
X12115D02*
X13041D01*
X13409D02*
X14342D01*
X16255D02*
X16935D01*
X17455D02*
X19235D01*
X19755D02*
X23460D01*
X4275Y4543D02*
X6647D01*
X8817D02*
X9347D01*
X11067D02*
X11547D01*
X12067D02*
X13041D01*
X13409D02*
X14354D01*
X16303D02*
X16983D01*
X17503D02*
X19283D01*
X19803D02*
X23460D01*
X4275Y4591D02*
X6599D01*
X8769D02*
X9299D01*
X11019D02*
X11499D01*
X12019D02*
X13041D01*
X13409D02*
X14382D01*
X16351D02*
X17031D01*
X17551D02*
X19331D01*
X19851D02*
X23460D01*
X4275Y4639D02*
X4415D01*
X5185D02*
X6551D01*
X8709D02*
X9251D01*
X10971D02*
X11451D01*
X11971D02*
X13041D01*
X13409D02*
X14429D01*
X16399D02*
X17079D01*
X17599D02*
X19379D01*
X19899D02*
X23460D01*
X4275Y4687D02*
X4415D01*
X5185D02*
X6503D01*
X7023D02*
X9203D01*
X10912D02*
X11403D01*
X11923D02*
X13041D01*
X13409D02*
X14477D01*
X16447D02*
X17127D01*
X17647D02*
X19427D01*
X19947D02*
X23460D01*
X4275Y4735D02*
X4415D01*
X5185D02*
X6455D01*
X6975D02*
X9155D01*
X9675D02*
X11355D01*
X11875D02*
X13041D01*
X13409D02*
X14525D01*
X16495D02*
X17175D01*
X17695D02*
X19475D01*
X19995D02*
X23460D01*
X4275Y4783D02*
X4415D01*
X5185D02*
X6407D01*
X6927D02*
X9107D01*
X9627D02*
X11307D01*
X11827D02*
X13041D01*
X13409D02*
X14573D01*
X16543D02*
X17223D01*
X17743D02*
X19523D01*
X20043D02*
X23460D01*
X4275Y4831D02*
X4415D01*
X5185D02*
X6359D01*
X6879D02*
X8181D01*
X8369D02*
X9059D01*
X9579D02*
X11259D01*
X11779D02*
X13041D01*
X13409D02*
X14621D01*
X16591D02*
X17271D01*
X17791D02*
X19571D01*
X20091D02*
X23460D01*
X4275Y4879D02*
X4415D01*
X5185D02*
X6311D01*
X6831D02*
X8064D01*
X8486D02*
X9011D01*
X9531D02*
X11211D01*
X11731D02*
X13041D01*
X13409D02*
X14669D01*
X16639D02*
X17319D01*
X19587D02*
X19619D01*
X20139D02*
X23460D01*
X4275Y4927D02*
X4415D01*
X5185D02*
X6263D01*
X6783D02*
X8001D01*
X8549D02*
X8963D01*
X9483D02*
X11163D01*
X11683D02*
X13041D01*
X13409D02*
X14717D01*
X16687D02*
X17367D01*
X19637D02*
X19667D01*
X20187D02*
X21884D01*
X22566D02*
X23460D01*
X4275Y4975D02*
X4415D01*
X5185D02*
X6220D01*
X6735D02*
X7956D01*
X8594D02*
X8915D01*
X9435D02*
X11114D01*
X11635D02*
X13041D01*
X13409D02*
X14765D01*
X16735D02*
X17415D01*
X19686D02*
X19715D01*
X20235D02*
X21884D01*
X22566D02*
X23460D01*
X4275Y5023D02*
X4415D01*
X5185D02*
X5215D01*
X5985D02*
X6198D01*
X6687D02*
X7924D01*
X8626D02*
X8866D01*
X9387D02*
X11066D01*
X11587D02*
X13041D01*
X13409D02*
X14813D01*
X16784D02*
X17463D01*
X19734D02*
X19763D01*
X20284D02*
X21884D01*
X22566D02*
X23460D01*
X4275Y5071D02*
X4415D01*
X5185D02*
X5215D01*
X5985D02*
X6191D01*
X6639D02*
X7900D01*
X8650D02*
X8818D01*
X9339D02*
X11018D01*
X11539D02*
X13041D01*
X13409D02*
X14861D01*
X16832D02*
X17511D01*
X19782D02*
X19811D01*
X22566D02*
X23460D01*
X4275Y5119D02*
X4415D01*
X5185D02*
X5215D01*
X5985D02*
X6191D01*
X6591D02*
X7884D01*
X8666D02*
X8770D01*
X9291D02*
X10970D01*
X11491D02*
X13041D01*
X13409D02*
X14909D01*
X16880D02*
X17559D01*
X19830D02*
X19859D01*
X22566D02*
X23460D01*
X4275Y5167D02*
X4415D01*
X5185D02*
X5215D01*
X5985D02*
X6191D01*
X6559D02*
X7874D01*
X8676D02*
X8722D01*
X9243D02*
X10922D01*
X11443D02*
X13041D01*
X13409D02*
X14957D01*
X16928D02*
X17608D01*
X19878D02*
X19907D01*
X22566D02*
X23460D01*
X4275Y5215D02*
X4415D01*
X5185D02*
X5215D01*
X5985D02*
X6191D01*
X6559D02*
X7870D01*
X9195D02*
X10874D01*
X11395D02*
X12239D01*
X12611D02*
X13041D01*
X13409D02*
X13889D01*
X14261D02*
X15005D01*
X16976D02*
X18714D01*
X19236D02*
X19405D01*
X19926D02*
X19955D01*
X22566D02*
X23460D01*
X4275Y5263D02*
X4415D01*
X5185D02*
X5215D01*
X5985D02*
X6191D01*
X6559D02*
X7872D01*
X9147D02*
X10829D01*
X11347D02*
X12166D01*
X12684D02*
X13041D01*
X13409D02*
X13816D01*
X14334D02*
X15053D01*
X17024D02*
X18666D01*
X19284D02*
X19453D01*
X19974D02*
X20003D01*
X22566D02*
X23460D01*
X4275Y5311D02*
X5215D01*
X5985D02*
X6191D01*
X6559D02*
X7879D01*
X9099D02*
X10802D01*
X11299D02*
X12118D01*
X12732D02*
X13041D01*
X13409D02*
X13768D01*
X14382D02*
X15101D01*
X17072D02*
X18631D01*
X19319D02*
X19501D01*
X20022D02*
X20051D01*
X22566D02*
X23460D01*
X4275Y5359D02*
X5215D01*
X5985D02*
X6191D01*
X6559D02*
X7893D01*
X9051D02*
X10792D01*
X11251D02*
X12082D01*
X12768D02*
X13041D01*
X13409D02*
X13732D01*
X14418D02*
X15149D01*
X17120D02*
X18605D01*
X19345D02*
X19549D01*
X20070D02*
X20099D01*
X22566D02*
X23460D01*
X4275Y5407D02*
X4415D01*
X5185D02*
X5215D01*
X5985D02*
X6034D01*
X6716D02*
X7913D01*
X9003D02*
X10005D01*
X10345D02*
X10791D01*
X11203D02*
X12056D01*
X12794D02*
X13041D01*
X13409D02*
X13706D01*
X14444D02*
X15197D01*
X16644D02*
X16647D01*
X17168D02*
X18587D01*
X19363D02*
X19597D01*
X20118D02*
X20201D01*
X22566D02*
X23460D01*
X4275Y5456D02*
X4415D01*
X5185D02*
X5215D01*
X5985D02*
X6034D01*
X6716D02*
X7942D01*
X8955D02*
X9926D01*
X10424D02*
X10791D01*
X11159D02*
X12038D01*
X12812D02*
X13041D01*
X13409D02*
X13688D01*
X14462D02*
X15245D01*
X16662D02*
X16695D01*
X17216D02*
X18576D01*
X19374D02*
X19645D01*
X20166D02*
X21159D01*
X21491D02*
X21884D01*
X22566D02*
X23460D01*
X4275Y5504D02*
X4415D01*
X5185D02*
X5215D01*
X5985D02*
X6034D01*
X6716D02*
X7981D01*
X8909D02*
X9874D01*
X10476D02*
X10791D01*
X11159D02*
X12026D01*
X12824D02*
X13041D01*
X13409D02*
X13676D01*
X14474D02*
X15293D01*
X16674D02*
X16743D01*
X17264D02*
X18571D01*
X19379D02*
X19693D01*
X20214D02*
X21079D01*
X21571D02*
X21884D01*
X22566D02*
X23460D01*
X4275Y5552D02*
X4415D01*
X5185D02*
X5215D01*
X5985D02*
X6034D01*
X6716D02*
X8035D01*
X8515D02*
X8541D01*
X8909D02*
X9837D01*
X10513D02*
X10791D01*
X11159D02*
X12021D01*
X12829D02*
X13041D01*
X13409D02*
X13671D01*
X14479D02*
X15341D01*
X16679D02*
X16791D01*
X17312D02*
X18571D01*
X19379D02*
X19741D01*
X20262D02*
X21026D01*
X21624D02*
X23460D01*
X4275Y5600D02*
X4415D01*
X5185D02*
X5215D01*
X5985D02*
X6034D01*
X6716D02*
X8121D01*
X8429D02*
X8541D01*
X8909D02*
X9810D01*
X10540D02*
X10791D01*
X11159D02*
X12021D01*
X12829D02*
X13041D01*
X13409D02*
X13671D01*
X14479D02*
X15389D01*
X16679D02*
X16839D01*
X17360D02*
X18577D01*
X19373D02*
X19789D01*
X20310D02*
X20989D01*
X21661D02*
X23460D01*
X4275Y5648D02*
X4415D01*
X5185D02*
X5416D01*
X5858D02*
X6034D01*
X6716D02*
X8541D01*
X8909D02*
X9791D01*
X10559D02*
X10791D01*
X11159D02*
X12027D01*
X12823D02*
X13041D01*
X13409D02*
X13677D01*
X14473D02*
X15234D01*
X16673D02*
X16887D01*
X17408D02*
X18589D01*
X19361D02*
X19837D01*
X20358D02*
X20961D01*
X21689D02*
X21884D01*
X22566D02*
X23460D01*
X4275Y5696D02*
X4415D01*
X5185D02*
X5421D01*
X5906D02*
X6034D01*
X6716D02*
X8384D01*
X9066D02*
X9778D01*
X10572D02*
X10791D01*
X11159D02*
X12038D01*
X12812D02*
X12884D01*
X13566D02*
X13688D01*
X14462D02*
X15234D01*
X16662D02*
X16935D01*
X17456D02*
X18608D01*
X19342D02*
X19885D01*
X20766D02*
X20941D01*
X21709D02*
X21884D01*
X22566D02*
X23460D01*
X4275Y5744D02*
X4415D01*
X5185D02*
X5441D01*
X5954D02*
X6034D01*
X6716D02*
X8384D01*
X9066D02*
X9771D01*
X10579D02*
X10791D01*
X11159D02*
X12057D01*
X12793D02*
X12884D01*
X13566D02*
X13707D01*
X14443D02*
X15234D01*
X16643D02*
X16983D01*
X17504D02*
X17734D01*
X18416D02*
X18634D01*
X19316D02*
X19933D01*
X20766D02*
X20928D01*
X21722D02*
X21884D01*
X22566D02*
X23460D01*
X4275Y5792D02*
X4415D01*
X5185D02*
X5481D01*
X6002D02*
X6034D01*
X6716D02*
X8384D01*
X9066D02*
X9770D01*
X10580D02*
X10634D01*
X11316D02*
X12083D01*
X12767D02*
X12884D01*
X13566D02*
X13733D01*
X14417D02*
X15234D01*
X15916D02*
X15933D01*
X16617D02*
X17031D01*
X17552D02*
X17734D01*
X18416D02*
X18670D01*
X19280D02*
X19981D01*
X20766D02*
X20921D01*
X21729D02*
X21884D01*
X22566D02*
X23460D01*
X4275Y5840D02*
X4415D01*
X5185D02*
X5529D01*
X6716D02*
X8384D01*
X9066D02*
X9775D01*
X10575D02*
X10634D01*
X11316D02*
X12119D01*
X12731D02*
X12884D01*
X13566D02*
X13769D01*
X14381D02*
X15234D01*
X15916D02*
X15969D01*
X16581D02*
X17079D01*
X17600D02*
X17734D01*
X18416D02*
X18720D01*
X19230D02*
X20029D01*
X20766D02*
X20920D01*
X21730D02*
X21884D01*
X22566D02*
X23460D01*
X4275Y5888D02*
X4415D01*
X5185D02*
X5577D01*
X6716D02*
X8384D01*
X9066D02*
X9786D01*
X10564D02*
X10634D01*
X11316D02*
X12168D01*
X12682D02*
X12884D01*
X13566D02*
X13818D01*
X14332D02*
X15234D01*
X15916D02*
X16018D01*
X16532D02*
X17127D01*
X18416D02*
X18795D01*
X19155D02*
X20078D01*
X20766D02*
X20925D01*
X21725D02*
X21884D01*
X22566D02*
X23460D01*
X4275Y5936D02*
X4415D01*
X5185D02*
X5626D01*
X6716D02*
X8384D01*
X9066D02*
X9803D01*
X10547D02*
X10634D01*
X11316D02*
X12241D01*
X12609D02*
X12884D01*
X13566D02*
X13891D01*
X14259D02*
X15234D01*
X15916D02*
X16091D01*
X16459D02*
X17176D01*
X18416D02*
X20084D01*
X20766D02*
X20935D01*
X21715D02*
X21884D01*
X22566D02*
X23460D01*
X4275Y5984D02*
X4415D01*
X5185D02*
X5674D01*
X6716D02*
X8384D01*
X9810D02*
X9828D01*
X10522D02*
X10634D01*
X11316D02*
X12884D01*
X13566D02*
X15234D01*
X15916D02*
X16065D01*
X16835D02*
X17224D01*
X18416D02*
X20084D01*
X20766D02*
X20952D01*
X21698D02*
X21884D01*
X22566D02*
X23460D01*
X4275Y6032D02*
X4616D01*
X4984D02*
X5722D01*
X6716D02*
X8384D01*
X9810D02*
X9862D01*
X10488D02*
X10634D01*
X11316D02*
X11390D01*
X12160D02*
X12884D01*
X13566D02*
X13640D01*
X14410D02*
X15234D01*
X15916D02*
X16065D01*
X16835D02*
X17272D01*
X18416D02*
X20084D01*
X20766D02*
X20977D01*
X21673D02*
X21884D01*
X22566D02*
X23460D01*
X4275Y6080D02*
X4616D01*
X4984D02*
X5770D01*
X6290D02*
X8384D01*
X9810D02*
X9908D01*
X10442D02*
X10634D01*
X11316D02*
X11390D01*
X12160D02*
X12884D01*
X13566D02*
X13640D01*
X14410D02*
X15234D01*
X15916D02*
X16065D01*
X16835D02*
X17320D01*
X18416D02*
X20084D01*
X20766D02*
X21010D01*
X21640D02*
X21884D01*
X22566D02*
X23460D01*
X4275Y6128D02*
X4616D01*
X4984D02*
X5818D01*
X6716D02*
X6790D01*
X7560D02*
X8384D01*
X9810D02*
X9976D01*
X10374D02*
X10634D01*
X11316D02*
X11390D01*
X12160D02*
X12884D01*
X13566D02*
X13640D01*
X14410D02*
X15234D01*
X15916D02*
X16065D01*
X16835D02*
X17368D01*
X18416D02*
X18590D01*
X19360D02*
X20084D01*
X20766D02*
X21056D01*
X21594D02*
X21884D01*
X22566D02*
X23460D01*
X4275Y6176D02*
X4616D01*
X4984D02*
X5866D01*
X6716D02*
X6790D01*
X7560D02*
X8384D01*
X9810D02*
X10118D01*
X10232D02*
X10634D01*
X11316D02*
X11390D01*
X12160D02*
X12884D01*
X13566D02*
X13640D01*
X14410D02*
X15234D01*
X15916D02*
X16065D01*
X16835D02*
X17420D01*
X18416D02*
X18590D01*
X19360D02*
X20084D01*
X20766D02*
X21123D01*
X21527D02*
X21884D01*
X22566D02*
X23460D01*
X4275Y6224D02*
X4616D01*
X4984D02*
X5914D01*
X6716D02*
X6790D01*
X7560D02*
X8384D01*
X9810D02*
X10634D01*
X11316D02*
X11390D01*
X12160D02*
X12884D01*
X13566D02*
X13640D01*
X14410D02*
X15234D01*
X15916D02*
X16065D01*
X16835D02*
X17734D01*
X18416D02*
X18590D01*
X19360D02*
X20084D01*
X20766D02*
X21256D01*
X21394D02*
X21884D01*
X22566D02*
X23460D01*
X4275Y6272D02*
X4616D01*
X4984D02*
X5962D01*
X6716D02*
X6790D01*
X7560D02*
X8384D01*
X9810D02*
X10634D01*
X11316D02*
X11390D01*
X12160D02*
X12884D01*
X13566D02*
X13640D01*
X14410D02*
X16065D01*
X16835D02*
X17734D01*
X18416D02*
X18590D01*
X19360D02*
X20084D01*
X20766D02*
X22041D01*
X22409D02*
X23460D01*
X4275Y6320D02*
X4616D01*
X4984D02*
X6010D01*
X6716D02*
X6790D01*
X7560D02*
X9040D01*
X9810D02*
X10634D01*
X11316D02*
X11390D01*
X12160D02*
X13640D01*
X14410D02*
X15234D01*
X15916D02*
X16065D01*
X16835D02*
X17734D01*
X18416D02*
X18590D01*
X19360D02*
X22041D01*
X22409D02*
X23460D01*
X4275Y6368D02*
X4616D01*
X4984D02*
X6034D01*
X6716D02*
X6790D01*
X7560D02*
X8384D01*
X9810D02*
X9840D01*
X10610D02*
X10634D01*
X11316D02*
X11390D01*
X12160D02*
X12884D01*
X13566D02*
X13640D01*
X14410D02*
X15234D01*
X15916D02*
X16065D01*
X16835D02*
X16865D01*
X17635D02*
X18590D01*
X19360D02*
X20084D01*
X20766D02*
X20965D01*
X21735D02*
X22041D01*
X22409D02*
X23460D01*
X4275Y6416D02*
X4616D01*
X4984D02*
X6034D01*
X6716D02*
X6790D01*
X7560D02*
X8384D01*
X9810D02*
X9840D01*
X10610D02*
X11390D01*
X12160D02*
X12190D01*
X13566D02*
X13640D01*
X14410D02*
X14440D01*
X15210D02*
X15234D01*
X15916D02*
X16065D01*
X16835D02*
X16865D01*
X17635D02*
X17734D01*
X18416D02*
X18590D01*
X19360D02*
X20084D01*
X20766D02*
X20965D01*
X21735D02*
X22041D01*
X22409D02*
X23460D01*
X4275Y6464D02*
X4616D01*
X4984D02*
X6034D01*
X6716D02*
X6790D01*
X7560D02*
X7590D01*
X8360D02*
X8384D01*
X9810D02*
X9840D01*
X10610D02*
X10634D01*
X11316D02*
X11390D01*
X12160D02*
X12190D01*
X13566D02*
X13640D01*
X14410D02*
X14440D01*
X15210D02*
X15234D01*
X15916D02*
X16065D01*
X16835D02*
X16865D01*
X17635D02*
X17734D01*
X18416D02*
X18590D01*
X19360D02*
X19390D01*
X20766D02*
X20965D01*
X21735D02*
X22041D01*
X22409D02*
X23460D01*
X4275Y6512D02*
X4616D01*
X4984D02*
X6034D01*
X6716D02*
X6790D01*
X7560D02*
X7590D01*
X8360D02*
X8384D01*
X9810D02*
X9840D01*
X11316D02*
X11390D01*
X12160D02*
X12190D01*
X13566D02*
X13640D01*
X14410D02*
X14440D01*
X15210D02*
X15234D01*
X15916D02*
X16065D01*
X16835D02*
X16865D01*
X18416D02*
X18590D01*
X19360D02*
X19390D01*
X20766D02*
X20965D01*
X21735D02*
X22041D01*
X22409D02*
X23460D01*
X4275Y6560D02*
X4616D01*
X4984D02*
X6034D01*
X6716D02*
X6790D01*
X7560D02*
X7590D01*
X8360D02*
X8384D01*
X9810D02*
X9840D01*
X11316D02*
X11390D01*
X12160D02*
X12190D01*
X13566D02*
X13640D01*
X14410D02*
X14440D01*
X15916D02*
X16065D01*
X16835D02*
X16865D01*
X18416D02*
X18590D01*
X19360D02*
X19390D01*
X20766D02*
X20965D01*
X21735D02*
X22041D01*
X22409D02*
X23460D01*
X4275Y6608D02*
X4616D01*
X4984D02*
X6034D01*
X6716D02*
X6790D01*
X7560D02*
X7590D01*
X9810D02*
X9840D01*
X11316D02*
X11390D01*
X12160D02*
X12190D01*
X13566D02*
X13640D01*
X14410D02*
X14440D01*
X15916D02*
X16065D01*
X16835D02*
X16865D01*
X18416D02*
X18590D01*
X19360D02*
X19390D01*
X20766D02*
X20965D01*
X21735D02*
X22041D01*
X22409D02*
X23460D01*
X4275Y6656D02*
X4616D01*
X4984D02*
X6034D01*
X6716D02*
X6790D01*
X7560D02*
X7590D01*
X9066D02*
X9840D01*
X11316D02*
X11390D01*
X12160D02*
X12190D01*
X13566D02*
X13640D01*
X14410D02*
X14440D01*
X15916D02*
X16865D01*
X18416D02*
X18590D01*
X19360D02*
X19390D01*
X20766D02*
X20965D01*
X21735D02*
X22041D01*
X22409D02*
X23460D01*
X4275Y6704D02*
X4616D01*
X4984D02*
X6034D01*
X6716D02*
X6790D01*
X7560D02*
X7590D01*
X9066D02*
X9840D01*
X11316D02*
X12190D01*
X13566D02*
X14440D01*
X15916D02*
X16865D01*
X18416D02*
X18590D01*
X19360D02*
X19390D01*
X20766D02*
X20965D01*
X21735D02*
X22041D01*
X22409D02*
X23460D01*
X4275Y6752D02*
X4528D01*
X5172D02*
X5228D01*
X5872D02*
X7590D01*
X9810D02*
X9840D01*
X11316D02*
X12190D01*
X13566D02*
X14440D01*
X15916D02*
X16065D01*
X16835D02*
X16865D01*
X18416D02*
X19390D01*
X20766D02*
X20965D01*
X21735D02*
X21765D01*
X22535D02*
X23460D01*
X4275Y6800D02*
X4528D01*
X5172D02*
X5228D01*
X5872D02*
X7590D01*
X9810D02*
X9840D01*
X11316D02*
X11390D01*
X12160D02*
X12190D01*
X13566D02*
X13640D01*
X14410D02*
X14440D01*
X15916D02*
X16065D01*
X16835D02*
X16865D01*
X18416D02*
X19390D01*
X20766D02*
X20965D01*
X21735D02*
X21765D01*
X22535D02*
X23460D01*
X4275Y6848D02*
X4528D01*
X5172D02*
X5228D01*
X5872D02*
X6790D01*
X7560D02*
X7590D01*
X9810D02*
X9840D01*
X11316D02*
X11390D01*
X12160D02*
X12190D01*
X13566D02*
X13640D01*
X14410D02*
X14440D01*
X15916D02*
X16065D01*
X16835D02*
X16865D01*
X18416D02*
X18590D01*
X19360D02*
X19390D01*
X20766D02*
X20965D01*
X21735D02*
X21765D01*
X22535D02*
X23460D01*
X4275Y6896D02*
X4528D01*
X5172D02*
X5228D01*
X5872D02*
X6790D01*
X7560D02*
X7590D01*
X9810D02*
X9840D01*
X10610D02*
X10634D01*
X11316D02*
X11390D01*
X12160D02*
X12190D01*
X13566D02*
X13640D01*
X14410D02*
X14440D01*
X15916D02*
X16065D01*
X16835D02*
X16865D01*
X17635D02*
X17734D01*
X18416D02*
X18590D01*
X19360D02*
X19390D01*
X20766D02*
X20965D01*
X21735D02*
X21765D01*
X22535D02*
X23460D01*
X4275Y6944D02*
X4528D01*
X5172D02*
X5228D01*
X5872D02*
X6790D01*
X7560D02*
X7590D01*
X9810D02*
X9840D01*
X10610D02*
X10634D01*
X11316D02*
X11390D01*
X12160D02*
X12190D01*
X13566D02*
X13640D01*
X14410D02*
X14440D01*
X15210D02*
X15234D01*
X15916D02*
X16065D01*
X16835D02*
X16865D01*
X17635D02*
X17734D01*
X18416D02*
X18590D01*
X19360D02*
X19390D01*
X20766D02*
X20965D01*
X21735D02*
X21765D01*
X22535D02*
X23460D01*
X4275Y6993D02*
X4528D01*
X5172D02*
X5228D01*
X5872D02*
X6790D01*
X7560D02*
X7590D01*
X8360D02*
X8384D01*
X9810D02*
X9840D01*
X10610D02*
X10634D01*
X11316D02*
X11390D01*
X12160D02*
X12190D01*
X13566D02*
X13640D01*
X14410D02*
X14440D01*
X15210D02*
X16065D01*
X16835D02*
X16865D01*
X17635D02*
X17734D01*
X18416D02*
X18590D01*
X19360D02*
X19390D01*
X20766D02*
X21765D01*
X22535D02*
X23460D01*
X4275Y7041D02*
X4528D01*
X5172D02*
X5228D01*
X5872D02*
X6790D01*
X7560D02*
X7590D01*
X8360D02*
X9040D01*
X9810D02*
X10634D01*
X11316D02*
X11390D01*
X12160D02*
X12190D01*
X12960D02*
X13640D01*
X14410D02*
X14440D01*
X15210D02*
X16065D01*
X16835D02*
X17734D01*
X18416D02*
X18590D01*
X19360D02*
X19390D01*
X20160D02*
X21765D01*
X22535D02*
X23460D01*
X4275Y7089D02*
X4528D01*
X5172D02*
X5228D01*
X5872D02*
X6790D01*
X7560D02*
X7590D01*
X8360D02*
X9040D01*
X9810D02*
X10634D01*
X11316D02*
X11390D01*
X12160D02*
X13640D01*
X14410D02*
X16065D01*
X16835D02*
X18590D01*
X19360D02*
X19390D01*
X20160D02*
X20965D01*
X21735D02*
X21765D01*
X22535D02*
X23460D01*
X4275Y7137D02*
X4528D01*
X5172D02*
X5228D01*
X5872D02*
X6790D01*
X7560D02*
X9040D01*
X9810D02*
X11390D01*
X12160D02*
X13640D01*
X14410D02*
X16065D01*
X16835D02*
X18590D01*
X19360D02*
X20965D01*
X21735D02*
X21765D01*
X22535D02*
X23460D01*
X4275Y7185D02*
X4528D01*
X5172D02*
X5228D01*
X5872D02*
X6790D01*
X7560D02*
X9040D01*
X9810D02*
X11390D01*
X12160D02*
X13640D01*
X14410D02*
X16065D01*
X16835D02*
X18590D01*
X19360D02*
X20965D01*
X21735D02*
X21765D01*
X22535D02*
X23460D01*
X4275Y7233D02*
X4528D01*
X5172D02*
X5228D01*
X5872D02*
X6790D01*
X7560D02*
X9040D01*
X9810D02*
X11390D01*
X12160D02*
X13640D01*
X14410D02*
X16065D01*
X16835D02*
X18590D01*
X19360D02*
X20965D01*
X21735D02*
X21765D01*
X22535D02*
X23460D01*
X4275Y7281D02*
X4528D01*
X5172D02*
X5228D01*
X5872D02*
X6790D01*
X7560D02*
X9040D01*
X9810D02*
X11390D01*
X12160D02*
X13640D01*
X14410D02*
X16065D01*
X16835D02*
X18590D01*
X19360D02*
X20965D01*
X21735D02*
X21765D01*
X22535D02*
X23460D01*
X4275Y7329D02*
X4528D01*
X5172D02*
X5228D01*
X5872D02*
X6790D01*
X7560D02*
X9040D01*
X9810D02*
X11390D01*
X12160D02*
X13640D01*
X14410D02*
X16065D01*
X16835D02*
X18590D01*
X19360D02*
X20965D01*
X21735D02*
X21765D01*
X22535D02*
X23460D01*
X4275Y7377D02*
X4528D01*
X5172D02*
X5228D01*
X5872D02*
X6790D01*
X7560D02*
X9266D01*
X9634D02*
X11390D01*
X12160D02*
X13640D01*
X14410D02*
X16316D01*
X16684D02*
X18590D01*
X19360D02*
X20965D01*
X21735D02*
X23460D01*
X4275Y7425D02*
X4541D01*
X4985D02*
X5884D01*
X6566D02*
X6790D01*
X7560D02*
X9266D01*
X9634D02*
X11566D01*
X11934D02*
X13866D01*
X14234D02*
X16316D01*
X16684D02*
X18590D01*
X19360D02*
X20965D01*
X21735D02*
X23460D01*
X4275Y7473D02*
X4547D01*
X5033D02*
X5884D01*
X6566D02*
X6991D01*
X7359D02*
X9266D01*
X9634D02*
X11566D01*
X11934D02*
X13866D01*
X14234D02*
X16316D01*
X16684D02*
X18766D01*
X19134D02*
X20965D01*
X21735D02*
X23460D01*
X4275Y7521D02*
X4568D01*
X5081D02*
X5884D01*
X6566D02*
X6991D01*
X7359D02*
X9266D01*
X9634D02*
X11566D01*
X12642D02*
X13866D01*
X14234D02*
X16316D01*
X16684D02*
X18766D01*
X19134D02*
X20965D01*
X21735D02*
X23460D01*
X4275Y7569D02*
X4609D01*
X5129D02*
X5884D01*
X6566D02*
X6991D01*
X7359D02*
X9266D01*
X9634D02*
X11566D01*
X12729D02*
X13866D01*
X14234D02*
X16316D01*
X16684D02*
X18766D01*
X19134D02*
X20965D01*
X21735D02*
X23460D01*
X4275Y7617D02*
X4657D01*
X5177D02*
X5884D01*
X6566D02*
X6991D01*
X7359D02*
X9266D01*
X9634D02*
X11566D01*
X12777D02*
X13866D01*
X14234D02*
X16316D01*
X16684D02*
X18766D01*
X19134D02*
X20965D01*
X21735D02*
X23460D01*
X4275Y7665D02*
X4705D01*
X5225D02*
X5884D01*
X6566D02*
X6991D01*
X7359D02*
X9266D01*
X9634D02*
X11566D01*
X12825D02*
X13866D01*
X14234D02*
X16316D01*
X16684D02*
X18766D01*
X19134D02*
X20965D01*
X21735D02*
X23460D01*
X4275Y7713D02*
X4753D01*
X5273D02*
X5884D01*
X6566D02*
X6991D01*
X7359D02*
X9266D01*
X9634D02*
X11566D01*
X12873D02*
X13866D01*
X14234D02*
X16316D01*
X16684D02*
X18766D01*
X19134D02*
X20965D01*
X21735D02*
X23460D01*
X4275Y7761D02*
X4801D01*
X5321D02*
X5884D01*
X6566D02*
X6991D01*
X7359D02*
X9266D01*
X9634D02*
X11566D01*
X12921D02*
X13866D01*
X14234D02*
X16316D01*
X16684D02*
X18766D01*
X19134D02*
X21166D01*
X21534D02*
X23460D01*
X4275Y7809D02*
X4849D01*
X5369D02*
X5884D01*
X6566D02*
X6991D01*
X7359D02*
X9266D01*
X9634D02*
X11566D01*
X12969D02*
X13866D01*
X14234D02*
X16316D01*
X16684D02*
X18766D01*
X19134D02*
X21166D01*
X21534D02*
X23460D01*
X4275Y7857D02*
X4897D01*
X5417D02*
X5884D01*
X6566D02*
X6828D01*
X7472D02*
X7528D01*
X8172D02*
X9128D01*
X9772D02*
X9828D01*
X10472D02*
X11428D01*
X13017D02*
X13728D01*
X14372D02*
X14428D01*
X15072D02*
X16178D01*
X16822D02*
X16878D01*
X17522D02*
X18628D01*
X19272D02*
X19328D01*
X19972D02*
X21166D01*
X21534D02*
X23460D01*
X4275Y7905D02*
X4503D01*
X5847D02*
X5884D01*
X6566D02*
X6828D01*
X7472D02*
X7528D01*
X8172D02*
X9128D01*
X9772D02*
X9828D01*
X10472D02*
X10660D01*
X10990D02*
X11428D01*
X12072D02*
X12128D01*
X13065D02*
X13728D01*
X14372D02*
X14428D01*
X15072D02*
X16178D01*
X16822D02*
X16878D01*
X17522D02*
X18628D01*
X19272D02*
X19328D01*
X19972D02*
X21166D01*
X21534D02*
X23460D01*
X4275Y7953D02*
X4503D01*
X5847D02*
X5884D01*
X6566D02*
X6828D01*
X7472D02*
X7528D01*
X8172D02*
X9128D01*
X9772D02*
X9828D01*
X10472D02*
X10579D01*
X11071D02*
X11428D01*
X12072D02*
X12128D01*
X13094D02*
X13728D01*
X14372D02*
X14428D01*
X15072D02*
X16178D01*
X16822D02*
X16878D01*
X17522D02*
X18628D01*
X19272D02*
X19328D01*
X19972D02*
X21166D01*
X21534D02*
X23460D01*
X4275Y8001D02*
X4503D01*
X5847D02*
X5884D01*
X6566D02*
X6828D01*
X7472D02*
X7528D01*
X8172D02*
X9128D01*
X9772D02*
X9828D01*
X10472D02*
X10527D01*
X11123D02*
X11428D01*
X12072D02*
X12128D01*
X13108D02*
X13728D01*
X14372D02*
X14428D01*
X15072D02*
X16178D01*
X16822D02*
X16878D01*
X17522D02*
X18628D01*
X19272D02*
X19328D01*
X19972D02*
X21166D01*
X21534D02*
X23460D01*
X4275Y8049D02*
X4503D01*
X6080D02*
X6828D01*
X7472D02*
X7528D01*
X8172D02*
X9128D01*
X9772D02*
X9828D01*
X10472D02*
X10489D01*
X11161D02*
X11428D01*
X12072D02*
X12128D01*
X13109D02*
X13728D01*
X14372D02*
X14428D01*
X15072D02*
X16178D01*
X16822D02*
X16878D01*
X17522D02*
X18628D01*
X19272D02*
X19328D01*
X19972D02*
X21078D01*
X21722D02*
X21778D01*
X22422D02*
X23460D01*
X4275Y8097D02*
X4503D01*
X6158D02*
X6828D01*
X7472D02*
X7528D01*
X8172D02*
X9128D01*
X9772D02*
X9828D01*
X11189D02*
X11428D01*
X12072D02*
X12128D01*
X13109D02*
X13728D01*
X14372D02*
X14428D01*
X15072D02*
X16178D01*
X16822D02*
X16878D01*
X17522D02*
X18628D01*
X19272D02*
X19328D01*
X19972D02*
X21078D01*
X21722D02*
X21778D01*
X22422D02*
X23460D01*
X4275Y8145D02*
X4503D01*
X6566D02*
X6828D01*
X7472D02*
X7528D01*
X8172D02*
X9128D01*
X9772D02*
X9828D01*
X11209D02*
X11428D01*
X12072D02*
X12128D01*
X13109D02*
X13728D01*
X14372D02*
X14428D01*
X15072D02*
X16178D01*
X16822D02*
X16878D01*
X17522D02*
X18628D01*
X19272D02*
X19328D01*
X19972D02*
X21078D01*
X21722D02*
X21778D01*
X22422D02*
X23460D01*
X4275Y8193D02*
X4503D01*
X6566D02*
X6828D01*
X7472D02*
X7528D01*
X8172D02*
X9128D01*
X9772D02*
X9828D01*
X11222D02*
X11428D01*
X12072D02*
X12128D01*
X13109D02*
X13728D01*
X14372D02*
X14428D01*
X15072D02*
X16178D01*
X16822D02*
X16878D01*
X17522D02*
X18628D01*
X19272D02*
X19328D01*
X19972D02*
X21078D01*
X21722D02*
X21778D01*
X22422D02*
X23460D01*
X4275Y8241D02*
X4503D01*
X6566D02*
X6828D01*
X7472D02*
X7528D01*
X8172D02*
X9128D01*
X9772D02*
X9828D01*
X11229D02*
X11428D01*
X12072D02*
X12128D01*
X13109D02*
X13728D01*
X14372D02*
X14428D01*
X15072D02*
X16178D01*
X16822D02*
X16878D01*
X17522D02*
X18628D01*
X19272D02*
X19328D01*
X19972D02*
X21078D01*
X21722D02*
X21778D01*
X22422D02*
X23460D01*
X4275Y8289D02*
X4503D01*
X6566D02*
X6828D01*
X7472D02*
X7528D01*
X8172D02*
X9128D01*
X9772D02*
X9828D01*
X11230D02*
X11428D01*
X12072D02*
X12128D01*
X13109D02*
X13728D01*
X14372D02*
X14428D01*
X15072D02*
X16178D01*
X16822D02*
X16878D01*
X17522D02*
X18628D01*
X19272D02*
X19328D01*
X19972D02*
X21078D01*
X21722D02*
X21778D01*
X22422D02*
X23460D01*
X4275Y8337D02*
X4503D01*
X6566D02*
X6828D01*
X7472D02*
X7528D01*
X8172D02*
X9128D01*
X9772D02*
X9828D01*
X11225D02*
X11428D01*
X12072D02*
X12128D01*
X13109D02*
X13728D01*
X14372D02*
X14428D01*
X15072D02*
X16178D01*
X16822D02*
X16878D01*
X17522D02*
X18628D01*
X19272D02*
X19328D01*
X19972D02*
X21078D01*
X21722D02*
X21778D01*
X22422D02*
X23460D01*
X4275Y8385D02*
X4503D01*
X6566D02*
X6828D01*
X7472D02*
X7528D01*
X8172D02*
X9128D01*
X9772D02*
X9828D01*
X11215D02*
X11428D01*
X12072D02*
X12128D01*
X13109D02*
X13728D01*
X14372D02*
X14428D01*
X15072D02*
X16178D01*
X16846D02*
X16878D01*
X17522D02*
X18628D01*
X19296D02*
X19328D01*
X19972D02*
X21078D01*
X21722D02*
X21778D01*
X22422D02*
X23460D01*
X4275Y8433D02*
X4503D01*
X6566D02*
X6828D01*
X7472D02*
X7528D01*
X8172D02*
X9128D01*
X9772D02*
X9828D01*
X11198D02*
X11428D01*
X12072D02*
X12128D01*
X13109D02*
X13728D01*
X14394D02*
X14428D01*
X15072D02*
X16178D01*
X17522D02*
X18628D01*
X19972D02*
X21078D01*
X21722D02*
X21778D01*
X22422D02*
X23460D01*
X4275Y8481D02*
X4503D01*
X6566D02*
X6828D01*
X7492D02*
X7528D01*
X8172D02*
X9128D01*
X9772D02*
X9828D01*
X10472D02*
X10477D01*
X11173D02*
X11428D01*
X12072D02*
X12128D01*
X13109D02*
X13728D01*
X15072D02*
X16178D01*
X17522D02*
X18628D01*
X19972D02*
X21078D01*
X21722D02*
X21778D01*
X22422D02*
X23460D01*
X4275Y8530D02*
X4503D01*
X6566D02*
X7019D01*
X7540D02*
X9266D01*
X9634D02*
X10510D01*
X11140D02*
X12741D01*
X13109D02*
X13969D01*
X14490D02*
X16469D01*
X16990D02*
X18919D01*
X19432D02*
X21078D01*
X21722D02*
X21778D01*
X22422D02*
X23460D01*
X4275Y8578D02*
X4717D01*
X6566D02*
X7067D01*
X7588D02*
X9266D01*
X9634D02*
X10556D01*
X11094D02*
X12741D01*
X13109D02*
X14017D01*
X14538D02*
X16517D01*
X17031D02*
X18967D01*
X19453D02*
X21078D01*
X21722D02*
X21778D01*
X22422D02*
X23460D01*
X4275Y8626D02*
X4765D01*
X6566D02*
X7115D01*
X7630D02*
X9266D01*
X9634D02*
X10622D01*
X11028D02*
X12741D01*
X13109D02*
X14065D01*
X14580D02*
X16565D01*
X17052D02*
X19015D01*
X19459D02*
X21078D01*
X21722D02*
X21778D01*
X22422D02*
X23460D01*
X4275Y8674D02*
X4813D01*
X6566D02*
X7163D01*
X7652D02*
X9266D01*
X9634D02*
X10753D01*
X10897D02*
X12741D01*
X13109D02*
X14113D01*
X14602D02*
X16613D01*
X17059D02*
X19063D01*
X19459D02*
X21078D01*
X21722D02*
X21778D01*
X22422D02*
X23460D01*
X4275Y8722D02*
X4861D01*
X6566D02*
X7211D01*
X7659D02*
X9266D01*
X9634D02*
X12741D01*
X13109D02*
X14161D01*
X14609D02*
X16661D01*
X17059D02*
X17838D01*
X17912D02*
X19091D01*
X19459D02*
X21216D01*
X21584D02*
X23460D01*
X4275Y8770D02*
X4909D01*
X6325D02*
X6784D01*
X8166D02*
X9134D01*
X10466D02*
X11384D01*
X12066D02*
X12084D01*
X13109D02*
X14209D01*
X14609D02*
X16184D01*
X17566D02*
X17681D01*
X18069D02*
X19091D01*
X19459D02*
X21216D01*
X21584D02*
X23460D01*
X4275Y8818D02*
X4957D01*
X6384D02*
X6784D01*
X8166D02*
X9134D01*
X10466D02*
X11384D01*
X12066D02*
X12084D01*
X13109D02*
X13734D01*
X15116D02*
X16184D01*
X17566D02*
X17611D01*
X18139D02*
X18584D01*
X19966D02*
X21175D01*
X21584D02*
X23460D01*
X4275Y8866D02*
X5005D01*
X6424D02*
X6784D01*
X8166D02*
X9134D01*
X10466D02*
X11384D01*
X12066D02*
X12084D01*
X13109D02*
X13734D01*
X15116D02*
X16184D01*
X18186D02*
X18584D01*
X19966D02*
X21151D01*
X21583D02*
X23460D01*
X4275Y8914D02*
X5054D01*
X6452D02*
X6736D01*
X8166D02*
X9134D01*
X10466D02*
X11384D01*
X12066D02*
X12084D01*
X13109D02*
X13734D01*
X15116D02*
X16184D01*
X18221D02*
X18584D01*
X19966D02*
X21141D01*
X21573D02*
X23460D01*
X4275Y8962D02*
X5752D01*
X6472D02*
X6678D01*
X8166D02*
X9134D01*
X10466D02*
X11384D01*
X12066D02*
X12084D01*
X13109D02*
X13734D01*
X15116D02*
X16184D01*
X18246D02*
X18584D01*
X19966D02*
X21141D01*
X21546D02*
X23460D01*
X4275Y9010D02*
X5766D01*
X6484D02*
X6630D01*
X8166D02*
X9134D01*
X10466D02*
X11384D01*
X12066D02*
X12084D01*
X13109D02*
X13734D01*
X15116D02*
X16184D01*
X18263D02*
X18584D01*
X19966D02*
X21141D01*
X21509D02*
X23460D01*
X4275Y9058D02*
X5760D01*
X6490D02*
X6582D01*
X8166D02*
X9134D01*
X10466D02*
X11384D01*
X12066D02*
X12084D01*
X13109D02*
X13734D01*
X15116D02*
X16184D01*
X18274D02*
X18584D01*
X19966D02*
X20434D01*
X21116D02*
X21141D01*
X22016D02*
X23460D01*
X4275Y9106D02*
X5761D01*
X6489D02*
X6534D01*
X8166D02*
X9134D01*
X10466D02*
X11384D01*
X12066D02*
X12084D01*
X13109D02*
X13734D01*
X15116D02*
X16184D01*
X18280D02*
X18584D01*
X19966D02*
X20434D01*
X21116D02*
X21141D01*
X22016D02*
X23460D01*
X4275Y9154D02*
X5769D01*
X6481D02*
X6486D01*
X8166D02*
X9134D01*
X10466D02*
X11384D01*
X12066D02*
X12084D01*
X13109D02*
X13734D01*
X15116D02*
X15251D01*
X15599D02*
X16136D01*
X18279D02*
X18584D01*
X19966D02*
X20434D01*
X21116D02*
X21141D01*
X22016D02*
X23460D01*
X4275Y9202D02*
X5783D01*
X8166D02*
X9134D01*
X10466D02*
X11338D01*
X12066D02*
X12084D01*
X13109D02*
X13734D01*
X15116D02*
X15183D01*
X15667D02*
X16088D01*
X18273D02*
X18584D01*
X19966D02*
X20434D01*
X21116D02*
X21141D01*
X22016D02*
X23460D01*
X5050Y9250D02*
X5805D01*
X8166D02*
X9134D01*
X10466D02*
X11290D01*
X12066D02*
X12084D01*
X13109D02*
X13690D01*
X15116D02*
X15138D01*
X15712D02*
X16040D01*
X18260D02*
X18540D01*
X19966D02*
X20434D01*
X21116D02*
X21141D01*
X22016D02*
X22700D01*
X5050Y9298D02*
X5836D01*
X8166D02*
X8363D01*
X8687D02*
X9134D01*
X10466D02*
X11242D01*
X12066D02*
X12084D01*
X13109D02*
X13642D01*
X15744D02*
X15992D01*
X18241D02*
X18492D01*
X19966D02*
X20434D01*
X21116D02*
X21141D01*
X22016D02*
X22700D01*
X5050Y9346D02*
X5881D01*
X8166D02*
X8290D01*
X8760D02*
X9134D01*
X10466D02*
X11194D01*
X12066D02*
X12084D01*
X13109D02*
X13594D01*
X15766D02*
X15944D01*
X18214D02*
X18444D01*
X19966D02*
X20434D01*
X21116D02*
X21141D01*
X22016D02*
X22700D01*
X5050Y9394D02*
X5948D01*
X6766D02*
X6784D01*
X8166D02*
X8242D01*
X8808D02*
X9134D01*
X10466D02*
X11146D01*
X12066D02*
X12084D01*
X13108D02*
X13546D01*
X15781D02*
X15896D01*
X17566D02*
X17572D01*
X18178D02*
X18396D01*
X19966D02*
X20434D01*
X21116D02*
X21141D01*
X22016D02*
X22700D01*
X5050Y9442D02*
X5944D01*
X6718D02*
X7198D01*
X7659D02*
X8209D01*
X8841D02*
X9532D01*
X10052D02*
X11098D01*
X11618D02*
X12598D01*
X13096D02*
X13498D01*
X15789D02*
X15848D01*
X17058D02*
X17623D01*
X18127D02*
X18348D01*
X19966D02*
X20434D01*
X21116D02*
X21141D01*
X22016D02*
X22700D01*
X5050Y9490D02*
X5896D01*
X6670D02*
X6784D01*
X8166D02*
X8186D01*
X8864D02*
X9134D01*
X10466D02*
X11050D01*
X12066D02*
X12084D01*
X13069D02*
X13462D01*
X15790D02*
X15800D01*
X17566D02*
X17700D01*
X18050D02*
X18300D01*
X19458D02*
X20400D01*
X22016D02*
X22700D01*
X5050Y9538D02*
X5861D01*
X6622D02*
X6784D01*
X8166D02*
X8170D01*
X8880D02*
X9134D01*
X10466D02*
X11002D01*
X12066D02*
X12084D01*
X13022D02*
X13445D01*
X17566D02*
X18252D01*
X19966D02*
X20352D01*
X22016D02*
X22700D01*
X5050Y9586D02*
X5837D01*
X6574D02*
X6784D01*
X8888D02*
X9134D01*
X10466D02*
X10954D01*
X12066D02*
X12084D01*
X12974D02*
X13441D01*
X17566D02*
X18204D01*
X19966D02*
X20304D01*
X22016D02*
X22700D01*
X5050Y9634D02*
X5821D01*
X6529D02*
X6784D01*
X10466D02*
X10905D01*
X12926D02*
X13441D01*
X16176D02*
X16184D01*
X17566D02*
X18155D01*
X19966D02*
X20255D01*
X22016D02*
X22700D01*
X5050Y9682D02*
X5813D01*
X6537D02*
X6784D01*
X10466D02*
X10857D01*
X11378D02*
X11384D01*
X12878D02*
X13441D01*
X16128D02*
X16184D01*
X17566D02*
X18107D01*
X19966D02*
X20207D01*
X22016D02*
X22700D01*
X5050Y9730D02*
X5810D01*
X6540D02*
X6784D01*
X8166D02*
X8176D01*
X10466D02*
X10809D01*
X11330D02*
X11384D01*
X12830D02*
X13441D01*
X16080D02*
X16184D01*
X17566D02*
X18059D01*
X19966D02*
X20159D01*
X21380D02*
X22700D01*
X5050Y9778D02*
X5814D01*
X6536D02*
X6784D01*
X8166D02*
X8194D01*
X10466D02*
X10761D01*
X11282D02*
X11384D01*
X12782D02*
X13441D01*
X16032D02*
X16184D01*
X17566D02*
X18011D01*
X19966D02*
X20111D01*
X22016D02*
X22700D01*
X5050Y9826D02*
X5824D01*
X6526D02*
X6784D01*
X8166D02*
X8221D01*
X10466D02*
X10713D01*
X11234D02*
X11384D01*
X12766D02*
X13441D01*
X15984D02*
X16184D01*
X17566D02*
X17963D01*
X19966D02*
X20063D01*
X22016D02*
X22700D01*
X5050Y9874D02*
X5842D01*
X6508D02*
X6784D01*
X8166D02*
X8259D01*
X10466D02*
X10665D01*
X11186D02*
X11384D01*
X12766D02*
X13441D01*
X15936D02*
X16184D01*
X17566D02*
X17915D01*
X19966D02*
X20015D01*
X22016D02*
X22700D01*
X5050Y9922D02*
X5868D01*
X6482D02*
X6784D01*
X8166D02*
X8313D01*
X10466D02*
X10617D01*
X11138D02*
X11384D01*
X12766D02*
X13441D01*
X15888D02*
X16184D01*
X17566D02*
X17867D01*
X19966D02*
X19967D01*
X22016D02*
X22700D01*
X5050Y9970D02*
X5905D01*
X6445D02*
X6784D01*
X7466D02*
X7484D01*
X8166D02*
X8407D01*
X8643D02*
X9134D01*
X10466D02*
X10569D01*
X11090D02*
X11384D01*
X12066D02*
X12084D01*
X12766D02*
X13419D01*
X15840D02*
X16184D01*
X16866D02*
X16884D01*
X17566D02*
X17819D01*
X22016D02*
X22700D01*
X5050Y10019D02*
X5958D01*
X6392D02*
X6784D01*
X7466D02*
X7484D01*
X8166D02*
X9134D01*
X10466D02*
X10521D01*
X11042D02*
X11384D01*
X12066D02*
X12084D01*
X12766D02*
X13371D01*
X15792D02*
X16184D01*
X16866D02*
X16884D01*
X17566D02*
X17771D01*
X22016D02*
X22700D01*
X5050Y10067D02*
X6046D01*
X6304D02*
X6784D01*
X7466D02*
X7484D01*
X8166D02*
X9134D01*
X10466D02*
X10473D01*
X10994D02*
X11384D01*
X12066D02*
X12084D01*
X12766D02*
X13323D01*
X15744D02*
X16184D01*
X16866D02*
X16884D01*
X17566D02*
X17723D01*
X22016D02*
X22700D01*
X4275Y10115D02*
X10167D01*
X10283D02*
X10425D01*
X10946D02*
X13275D01*
X15696D02*
X17675D01*
X22016D02*
X23460D01*
X4275Y10163D02*
X10036D01*
X10898D02*
X13227D01*
X15648D02*
X17627D01*
X22016D02*
X23460D01*
X4275Y10211D02*
X9973D01*
X10850D02*
X13179D01*
X15600D02*
X17579D01*
X22016D02*
X23460D01*
X5050Y10259D02*
X9931D01*
X10802D02*
X13131D01*
X15552D02*
X17531D01*
X22016D02*
X22700D01*
X5050Y10307D02*
X9901D01*
X10754D02*
X13083D01*
X15504D02*
X17483D01*
X21116D02*
X21334D01*
X22016D02*
X22700D01*
X5050Y10355D02*
X9880D01*
X10706D02*
X13035D01*
X15456D02*
X17435D01*
X21139D02*
X21334D01*
X22016D02*
X22700D01*
X5050Y10403D02*
X9867D01*
X10658D02*
X12987D01*
X15408D02*
X17387D01*
X21220D02*
X22700D01*
X5050Y10451D02*
X9861D01*
X10609D02*
X12939D01*
X15359D02*
X17339D01*
X21273D02*
X22700D01*
X5050Y10499D02*
X9861D01*
X10589D02*
X12891D01*
X15311D02*
X17291D01*
X21311D02*
X22172D01*
X5050Y10547D02*
X9867D01*
X10583D02*
X12843D01*
X15263D02*
X17243D01*
X5050Y10595D02*
X9880D01*
X10570D02*
X12795D01*
X15215D02*
X17195D01*
X5050Y10643D02*
X9901D01*
X10549D02*
X12747D01*
X15167D02*
X17147D01*
X5050Y10691D02*
X9931D01*
X10519D02*
X12699D01*
X5050Y10739D02*
X9973D01*
X10568D02*
X12651D01*
X5050Y10787D02*
X10036D01*
X10649D02*
X12603D01*
X5050Y10835D02*
X8474D01*
X8826D02*
X10150D01*
X10700D02*
X12555D01*
X5050Y10883D02*
X8398D01*
X8902D02*
X10115D01*
X10735D02*
X12507D01*
X5050Y10931D02*
X8347D01*
X8953D02*
X10090D01*
X5050Y10979D02*
X8311D01*
X8989D02*
X10073D01*
X5050Y11027D02*
X8284D01*
X9016D02*
X10063D01*
X5050Y11075D02*
X8265D01*
X9035D02*
X10060D01*
X4275Y11123D02*
X8252D01*
X9048D02*
X10063D01*
X4275Y11171D02*
X8246D01*
X9054D02*
X10073D01*
X4275Y11219D02*
X8245D01*
X9055D02*
X10090D01*
X5050Y11267D02*
X8251D01*
X9049D02*
X10115D01*
X5050Y11315D02*
X8262D01*
X9038D02*
X10150D01*
X5050Y11363D02*
X8279D01*
X9021D02*
X10201D01*
X5050Y11411D02*
X8305D01*
X8995D02*
X10238D01*
X5050Y11459D02*
X8339D01*
X8961D02*
X10175D01*
X11101D02*
X12225D01*
X5050Y11507D02*
X8386D01*
X8914D02*
X10132D01*
X11053D02*
X12182D01*
X5050Y11556D02*
X8456D01*
X8844D02*
X10102D01*
X11005D02*
X12152D01*
X5050Y11604D02*
X8616D01*
X8684D02*
X10081D01*
X10957D02*
X12131D01*
X5050Y11652D02*
X10067D01*
X10909D02*
X12117D01*
X5050Y11700D02*
X10061D01*
X10861D02*
X12111D01*
X5050Y11748D02*
X10061D01*
X10813D02*
X12111D01*
X5050Y11796D02*
X10067D01*
X10783D02*
X12117D01*
X5050Y11844D02*
X10080D01*
X10770D02*
X12130D01*
X5050Y11892D02*
X10100D01*
X10750D02*
X12150D01*
X5050Y11940D02*
X10130D01*
X10720D02*
X12180D01*
X5050Y11988D02*
X10172D01*
X10678D02*
X12222D01*
X5050Y12036D02*
X10234D01*
X10616D02*
X12247D01*
X5050Y12084D02*
X10358D01*
X10492D02*
X12198D01*
X4275Y12132D02*
X12163D01*
X4275Y12180D02*
X12138D01*
X4275Y12228D02*
X12122D01*
X5050Y12276D02*
X12113D01*
X5050Y12324D02*
X12110D01*
X5050Y12372D02*
X7832D01*
X8018D02*
X12114D01*
X5050Y12420D02*
X7724D01*
X8126D02*
X12124D01*
X5050Y12468D02*
X7666D01*
X8184D02*
X12141D01*
X16684D02*
X21634D01*
X5050Y12516D02*
X7626D01*
X8224D02*
X12166D01*
X16724D02*
X21563D01*
X5050Y12564D02*
X7597D01*
X16060D02*
X16097D01*
X16753D02*
X21515D01*
X5050Y12612D02*
X7578D01*
X15798D02*
X16078D01*
X16772D02*
X21480D01*
X5050Y12660D02*
X7566D01*
X15750D02*
X16066D01*
X16784D02*
X21455D01*
X5050Y12708D02*
X7560D01*
X15702D02*
X16060D01*
X16790D02*
X21437D01*
X5050Y12756D02*
X7561D01*
X15654D02*
X16061D01*
X16789D02*
X21426D01*
X5050Y12804D02*
X7569D01*
X15606D02*
X16069D01*
X16781D02*
X21421D01*
X5050Y12852D02*
X7583D01*
X15558D02*
X16083D01*
X16767D02*
X21421D01*
X5050Y12900D02*
X7605D01*
X15510D02*
X16105D01*
X16745D02*
X21427D01*
X5050Y12948D02*
X7636D01*
X15462D02*
X16136D01*
X16714D02*
X21439D01*
X5050Y12996D02*
X7681D01*
X15414D02*
X16181D01*
X16669D02*
X21458D01*
X5050Y13044D02*
X7748D01*
X15366D02*
X16249D01*
X16601D02*
X21485D01*
X22165D02*
X22234D01*
X5050Y13093D02*
X8069D01*
X15318D02*
X21521D01*
X22129D02*
X22282D01*
X4275Y13141D02*
X8062D01*
X15270D02*
X21571D01*
X22079D02*
X22330D01*
X4275Y13189D02*
X7783D01*
X15222D02*
X21647D01*
X22003D02*
X22378D01*
X4275Y13237D02*
X7701D01*
X15174D02*
X22426D01*
X5050Y13285D02*
X7650D01*
X15126D02*
X22474D01*
X5050Y13333D02*
X7615D01*
X15070D02*
X20698D01*
X20952D02*
X22522D01*
X5050Y13381D02*
X7590D01*
X9260D02*
X20609D01*
X21041D02*
X22570D01*
X5050Y13429D02*
X7573D01*
X9277D02*
X20556D01*
X21094D02*
X22618D01*
X5050Y13477D02*
X7563D01*
X9287D02*
X20519D01*
X21131D02*
X22666D01*
X5050Y13525D02*
X7560D01*
X8290D02*
X8321D01*
X8529D02*
X8560D01*
X9290D02*
X20492D01*
X21158D02*
X22700D01*
X5050Y13573D02*
X7563D01*
X8287D02*
X8563D01*
X9287D02*
X12121D01*
X13229D02*
X20475D01*
X21175D02*
X22700D01*
X5050Y13621D02*
X7524D01*
X8277D02*
X8573D01*
X9281D02*
X12069D01*
X13281D02*
X20464D01*
X21186D02*
X22700D01*
X5050Y13669D02*
X7471D01*
X8260D02*
X8590D01*
X9329D02*
X12025D01*
X13329D02*
X20460D01*
X21190D02*
X22700D01*
X5050Y13717D02*
X7423D01*
X8235D02*
X8615D01*
X9377D02*
X12000D01*
X13377D02*
X20462D01*
X21188D02*
X22700D01*
X5050Y13765D02*
X7377D01*
X8200D02*
X8650D01*
X9425D02*
X11991D01*
X13425D02*
X20471D01*
X21179D02*
X22700D01*
X5050Y13813D02*
X7352D01*
X8149D02*
X8701D01*
X9473D02*
X11991D01*
X13473D02*
X20487D01*
X21173D02*
X22700D01*
X5050Y13861D02*
X7341D01*
X8068D02*
X8782D01*
X9521D02*
X11991D01*
X13521D02*
X20511D01*
X21221D02*
X22700D01*
X5050Y13909D02*
X7184D01*
X7866D02*
X7899D01*
X8581D02*
X9049D01*
X9569D02*
X11991D01*
X12359D02*
X13049D01*
X13569D02*
X14484D01*
X15166D02*
X15234D01*
X15916D02*
X16884D01*
X17566D02*
X17584D01*
X18266D02*
X20545D01*
X21269D02*
X22700D01*
X5050Y13957D02*
X5196D01*
X5554D02*
X7184D01*
X7866D02*
X7899D01*
X8581D02*
X9097D01*
X9617D02*
X11834D01*
X12516D02*
X12534D01*
X13617D02*
X14484D01*
X15166D02*
X15234D01*
X15916D02*
X16884D01*
X17566D02*
X17584D01*
X18266D02*
X20593D01*
X21317D02*
X22700D01*
X5050Y14005D02*
X5129D01*
X5621D02*
X7184D01*
X7866D02*
X7899D01*
X8581D02*
X9145D01*
X10266D02*
X10284D01*
X10966D02*
X11834D01*
X12516D02*
X12534D01*
X13701D02*
X14484D01*
X15166D02*
X15234D01*
X15916D02*
X16884D01*
X17566D02*
X17584D01*
X18266D02*
X19284D01*
X19966D02*
X19984D01*
X20666D02*
X20669D01*
X21766D02*
X21784D01*
X22466D02*
X22700D01*
X5050Y14053D02*
X5085D01*
X5665D02*
X7184D01*
X7866D02*
X7899D01*
X8581D02*
X9193D01*
X10266D02*
X10284D01*
X10966D02*
X11834D01*
X12516D02*
X12534D01*
X13769D02*
X14484D01*
X15166D02*
X15234D01*
X15916D02*
X16884D01*
X17566D02*
X17584D01*
X18266D02*
X19284D01*
X19966D02*
X19984D01*
X20666D02*
X20893D01*
X21766D02*
X21784D01*
X22466D02*
X22700D01*
X4275Y14101D02*
X5054D01*
X5696D02*
X7184D01*
X7866D02*
X7899D01*
X8581D02*
X9241D01*
X10266D02*
X10284D01*
X10966D02*
X11834D01*
X12516D02*
X12534D01*
X13813D02*
X14484D01*
X15166D02*
X15234D01*
X15916D02*
X16864D01*
X17566D02*
X17584D01*
X18266D02*
X19284D01*
X19966D02*
X19984D01*
X20666D02*
X20941D01*
X21766D02*
X21784D01*
X22466D02*
X23460D01*
X4275Y14149D02*
X5032D01*
X5718D02*
X7184D01*
X7866D02*
X7899D01*
X8581D02*
X9289D01*
X10266D02*
X10284D01*
X10966D02*
X11834D01*
X12516D02*
X12534D01*
X13845D02*
X14484D01*
X15166D02*
X15234D01*
X15916D02*
X16790D01*
X17566D02*
X17584D01*
X18266D02*
X18760D01*
X19090D02*
X19284D01*
X19966D02*
X19984D01*
X20666D02*
X20989D01*
X21766D02*
X21784D01*
X22466D02*
X23460D01*
X4275Y14197D02*
X5018D01*
X5732D02*
X7184D01*
X7866D02*
X7899D01*
X8581D02*
X9337D01*
X10266D02*
X10284D01*
X10966D02*
X11834D01*
X12516D02*
X12534D01*
X13867D02*
X14484D01*
X15166D02*
X15234D01*
X15916D02*
X16742D01*
X17566D02*
X17584D01*
X18266D02*
X18688D01*
X19162D02*
X19284D01*
X19966D02*
X19984D01*
X20666D02*
X21037D01*
X21766D02*
X21784D01*
X22466D02*
X23460D01*
X4275Y14245D02*
X5011D01*
X5739D02*
X7184D01*
X7866D02*
X7899D01*
X8581D02*
X9385D01*
X10266D02*
X10284D01*
X10966D02*
X11834D01*
X12516D02*
X12534D01*
X13881D02*
X14484D01*
X15166D02*
X15234D01*
X15916D02*
X16694D01*
X17566D02*
X17584D01*
X18266D02*
X18641D01*
X19966D02*
X19984D01*
X20666D02*
X21084D01*
X21766D02*
X21784D01*
X22466D02*
X23460D01*
X4275Y14293D02*
X5010D01*
X5740D02*
X7184D01*
X7866D02*
X7899D01*
X8581D02*
X9433D01*
X10266D02*
X10284D01*
X10966D02*
X11834D01*
X12516D02*
X12534D01*
X13889D02*
X14446D01*
X15166D02*
X15234D01*
X15916D02*
X16646D01*
X17566D02*
X17584D01*
X18266D02*
X18608D01*
X19966D02*
X19984D01*
X20666D02*
X21084D01*
X21766D02*
X21784D01*
X22466D02*
X23460D01*
X4275Y14341D02*
X5016D01*
X5734D02*
X7184D01*
X7866D02*
X7899D01*
X8581D02*
X9481D01*
X10266D02*
X10284D01*
X10966D02*
X11834D01*
X12516D02*
X12534D01*
X13890D02*
X14398D01*
X15166D02*
X15234D01*
X15916D02*
X16598D01*
X17566D02*
X17584D01*
X18266D02*
X18585D01*
X19966D02*
X19984D01*
X20666D02*
X21084D01*
X21766D02*
X21784D01*
X22466D02*
X23460D01*
X4275Y14389D02*
X5028D01*
X5722D02*
X7184D01*
X7866D02*
X7899D01*
X8581D02*
X9529D01*
X10266D02*
X10284D01*
X10966D02*
X11834D01*
X12516D02*
X12534D01*
X13884D02*
X14350D01*
X15166D02*
X15234D01*
X15916D02*
X16550D01*
X17566D02*
X17584D01*
X18266D02*
X18570D01*
X19966D02*
X19984D01*
X20666D02*
X21084D01*
X21766D02*
X21784D01*
X22466D02*
X23460D01*
X4275Y14437D02*
X5048D01*
X5702D02*
X7184D01*
X7866D02*
X7899D01*
X8581D02*
X9577D01*
X10266D02*
X10284D01*
X10966D02*
X11834D01*
X12516D02*
X12534D01*
X13872D02*
X14302D01*
X15166D02*
X15234D01*
X15916D02*
X16502D01*
X17566D02*
X17584D01*
X18266D02*
X18562D01*
X19966D02*
X19984D01*
X20666D02*
X21084D01*
X21766D02*
X21784D01*
X22466D02*
X23460D01*
X4275Y14485D02*
X5077D01*
X5673D02*
X7184D01*
X7866D02*
X7899D01*
X8581D02*
X9584D01*
X10266D02*
X10284D01*
X10966D02*
X11834D01*
X12516D02*
X12534D01*
X13853D02*
X14041D01*
X15166D02*
X15234D01*
X15916D02*
X16454D01*
X17566D02*
X17584D01*
X18266D02*
X18560D01*
X19966D02*
X19984D01*
X20666D02*
X21084D01*
X21766D02*
X21784D01*
X22466D02*
X23460D01*
X4275Y14533D02*
X5117D01*
X5633D02*
X7184D01*
X7866D02*
X7899D01*
X8581D02*
X9584D01*
X10266D02*
X10284D01*
X10966D02*
X11834D01*
X12516D02*
X12534D01*
X13216D02*
X13225D01*
X13825D02*
X13955D01*
X15166D02*
X15234D01*
X15916D02*
X16406D01*
X17566D02*
X17584D01*
X18266D02*
X18565D01*
X19966D02*
X19984D01*
X20666D02*
X21084D01*
X21766D02*
X21784D01*
X22466D02*
X23460D01*
X4275Y14581D02*
X5177D01*
X5573D02*
X9584D01*
X10266D02*
X10284D01*
X10966D02*
X11834D01*
X12516D02*
X12534D01*
X13216D02*
X13265D01*
X13785D02*
X13903D01*
X14679D02*
X16366D01*
X16879D02*
X18576D01*
X19966D02*
X19984D01*
X20666D02*
X21084D01*
X21766D02*
X21784D01*
X22466D02*
X23460D01*
X4275Y14630D02*
X5191D01*
X5559D02*
X7184D01*
X7866D02*
X7899D01*
X8581D02*
X9584D01*
X10266D02*
X10284D01*
X10966D02*
X13324D01*
X13726D02*
X13867D01*
X15166D02*
X15234D01*
X15916D02*
X16311D01*
X16831D02*
X16884D01*
X17566D02*
X17584D01*
X18266D02*
X18594D01*
X19256D02*
X19284D01*
X19966D02*
X19984D01*
X20666D02*
X21084D01*
X21766D02*
X21784D01*
X22466D02*
X23460D01*
X4275Y14678D02*
X5191D01*
X5559D02*
X7184D01*
X7866D02*
X7899D01*
X8581D02*
X11834D01*
X12516D02*
X12534D01*
X13216D02*
X13431D01*
X13619D02*
X13841D01*
X15166D02*
X15234D01*
X15916D02*
X16257D01*
X16793D02*
X16884D01*
X17566D02*
X17584D01*
X18266D02*
X18621D01*
X19229D02*
X23460D01*
X4275Y14726D02*
X5191D01*
X5559D02*
X7184D01*
X7866D02*
X7899D01*
X8581D02*
X9584D01*
X10266D02*
X10284D01*
X10966D02*
X11834D01*
X12516D02*
X12534D01*
X13216D02*
X13824D01*
X15166D02*
X15234D01*
X15916D02*
X16219D01*
X16831D02*
X16884D01*
X17566D02*
X17584D01*
X18266D02*
X18660D01*
X19190D02*
X19284D01*
X19966D02*
X19984D01*
X20666D02*
X21084D01*
X21766D02*
X21784D01*
X22466D02*
X23460D01*
X4275Y14774D02*
X5191D01*
X5559D02*
X7184D01*
X8581D02*
X9584D01*
X10266D02*
X10284D01*
X10966D02*
X11834D01*
X12516D02*
X12534D01*
X13216D02*
X13814D01*
X15916D02*
X16193D01*
X16857D02*
X16884D01*
X18266D02*
X18715D01*
X19135D02*
X19284D01*
X19966D02*
X19984D01*
X20666D02*
X21084D01*
X21766D02*
X21784D01*
X22466D02*
X23460D01*
X4275Y14822D02*
X5191D01*
X5559D02*
X7184D01*
X8581D02*
X9584D01*
X10266D02*
X10284D01*
X10966D02*
X11834D01*
X13216D02*
X13810D01*
X15916D02*
X16175D01*
X16875D02*
X16884D01*
X18266D02*
X18811D01*
X19039D02*
X19284D01*
X19966D02*
X19984D01*
X20666D02*
X21084D01*
X21766D02*
X21784D01*
X22466D02*
X23460D01*
X4275Y14870D02*
X5034D01*
X5716D02*
X5734D01*
X6416D02*
X7184D01*
X8581D02*
X9584D01*
X10966D02*
X11834D01*
X13216D02*
X13813D01*
X15916D02*
X16164D01*
X18266D02*
X19284D01*
X20666D02*
X21084D01*
X22466D02*
X23460D01*
X4275Y14918D02*
X5034D01*
X5716D02*
X5734D01*
X6416D02*
X7184D01*
X8581D02*
X9584D01*
X10966D02*
X11834D01*
X13216D02*
X13822D01*
X15916D02*
X16160D01*
X18266D02*
X19284D01*
X20666D02*
X21084D01*
X22466D02*
X23460D01*
X4275Y14966D02*
X5034D01*
X5716D02*
X5734D01*
X6416D02*
X7184D01*
X8581D02*
X9584D01*
X10966D02*
X11834D01*
X13216D02*
X13838D01*
X15916D02*
X16162D01*
X18266D02*
X19284D01*
X20666D02*
X21084D01*
X22466D02*
X23460D01*
X4275Y15014D02*
X5034D01*
X5716D02*
X5734D01*
X6416D02*
X7184D01*
X8581D02*
X9584D01*
X10966D02*
X11834D01*
X13216D02*
X13863D01*
X15916D02*
X16171D01*
X16879D02*
X16884D01*
X18266D02*
X19284D01*
X20666D02*
X21084D01*
X22466D02*
X23460D01*
X4275Y15062D02*
X5034D01*
X5716D02*
X5734D01*
X6416D02*
X7184D01*
X8581D02*
X9584D01*
X10966D02*
X11834D01*
X13216D02*
X13897D01*
X14453D02*
X14484D01*
X15916D02*
X16187D01*
X16863D02*
X16884D01*
X18266D02*
X19284D01*
X20666D02*
X21084D01*
X22466D02*
X23460D01*
X4275Y15110D02*
X5034D01*
X5716D02*
X5734D01*
X6416D02*
X7184D01*
X7866D02*
X7899D01*
X8581D02*
X9584D01*
X10966D02*
X11834D01*
X13216D02*
X13947D01*
X14403D02*
X14484D01*
X15166D02*
X15234D01*
X15916D02*
X16210D01*
X16840D02*
X16884D01*
X17566D02*
X17584D01*
X18266D02*
X19284D01*
X20666D02*
X21084D01*
X22466D02*
X23460D01*
X4275Y15158D02*
X5034D01*
X5716D02*
X5734D01*
X6416D02*
X7184D01*
X7866D02*
X7899D01*
X8581D02*
X9584D01*
X10966D02*
X11834D01*
X13216D02*
X14025D01*
X14325D02*
X14484D01*
X15166D02*
X15234D01*
X15916D02*
X16244D01*
X16806D02*
X16884D01*
X17566D02*
X17584D01*
X18266D02*
X19284D01*
X20666D02*
X21084D01*
X22466D02*
X23460D01*
X4275Y15206D02*
X5034D01*
X5716D02*
X5734D01*
X6416D02*
X7184D01*
X7866D02*
X7899D01*
X8581D02*
X9584D01*
X10966D02*
X11834D01*
X12516D02*
X12534D01*
X13216D02*
X14484D01*
X15166D02*
X15234D01*
X15916D02*
X16292D01*
X16758D02*
X16884D01*
X17566D02*
X17584D01*
X18266D02*
X19284D01*
X20666D02*
X21084D01*
X22466D02*
X23460D01*
X4275Y15254D02*
X5034D01*
X5716D02*
X5734D01*
X6416D02*
X7341D01*
X7709D02*
X9584D01*
X10266D02*
X10284D01*
X10966D02*
X11834D01*
X12516D02*
X12534D01*
X13216D02*
X14591D01*
X14959D02*
X16367D01*
X16683D02*
X17041D01*
X17409D02*
X19284D01*
X19966D02*
X19984D01*
X20666D02*
X21084D01*
X22466D02*
X23460D01*
X4275Y15302D02*
X5034D01*
X5716D02*
X5734D01*
X6416D02*
X7341D01*
X7709D02*
X9584D01*
X10266D02*
X10284D01*
X10966D02*
X12091D01*
X12459D02*
X14591D01*
X14959D02*
X17041D01*
X17409D02*
X19284D01*
X19966D02*
X19984D01*
X20666D02*
X21084D01*
X22466D02*
X23460D01*
X4275Y15350D02*
X5034D01*
X5716D02*
X5734D01*
X6416D02*
X7341D01*
X7709D02*
X9741D01*
X10109D02*
X12091D01*
X12459D02*
X14591D01*
X14959D02*
X17041D01*
X17409D02*
X19541D01*
X19909D02*
X21490D01*
X22010D02*
X23460D01*
X4275Y15398D02*
X5034D01*
X5716D02*
X5734D01*
X6416D02*
X7341D01*
X7709D02*
X9741D01*
X10109D02*
X12091D01*
X12459D02*
X14591D01*
X14959D02*
X17041D01*
X17409D02*
X19541D01*
X19909D02*
X21538D01*
X22058D02*
X23460D01*
X4275Y15446D02*
X5034D01*
X5716D02*
X5734D01*
X6416D02*
X7341D01*
X7709D02*
X9741D01*
X10109D02*
X12091D01*
X12459D02*
X14591D01*
X14959D02*
X17041D01*
X17409D02*
X19541D01*
X19909D02*
X21586D01*
X22106D02*
X23460D01*
X4275Y15494D02*
X5034D01*
X5716D02*
X5734D01*
X6416D02*
X7341D01*
X7709D02*
X9741D01*
X10109D02*
X12091D01*
X12459D02*
X14591D01*
X14959D02*
X17041D01*
X17409D02*
X19541D01*
X19909D02*
X21634D01*
X22154D02*
X23460D01*
X4275Y15542D02*
X7341D01*
X7709D02*
X9741D01*
X10109D02*
X12091D01*
X12459D02*
X14591D01*
X14959D02*
X17041D01*
X17452D02*
X19541D01*
X19909D02*
X21682D01*
X22189D02*
X23460D01*
X4275Y15590D02*
X5034D01*
X5716D02*
X5734D01*
X6416D02*
X7168D01*
X7812D02*
X7868D01*
X8512D02*
X9741D01*
X10109D02*
X12091D01*
X12459D02*
X14453D01*
X15097D02*
X15153D01*
X15797D02*
X17042D01*
X17500D02*
X19541D01*
X19909D02*
X21703D01*
X22347D02*
X22403D01*
X23047D02*
X23460D01*
X4275Y15638D02*
X5034D01*
X5716D02*
X5734D01*
X6416D02*
X7168D01*
X7812D02*
X7868D01*
X8512D02*
X9553D01*
X10197D02*
X10253D01*
X10897D02*
X12091D01*
X12459D02*
X14453D01*
X15097D02*
X15153D01*
X15797D02*
X17052D01*
X17548D02*
X19541D01*
X19909D02*
X21703D01*
X22347D02*
X22403D01*
X23047D02*
X23460D01*
X4275Y15686D02*
X5034D01*
X5716D02*
X5734D01*
X6416D02*
X7168D01*
X7812D02*
X7868D01*
X8512D02*
X9553D01*
X10197D02*
X10253D01*
X10897D02*
X11953D01*
X12597D02*
X12653D01*
X13297D02*
X14453D01*
X15097D02*
X15153D01*
X15797D02*
X17078D01*
X17997D02*
X18053D01*
X18697D02*
X19353D01*
X19997D02*
X20053D01*
X20697D02*
X21703D01*
X22347D02*
X22403D01*
X23047D02*
X23460D01*
X4275Y15734D02*
X5034D01*
X6416D02*
X7168D01*
X7812D02*
X7868D01*
X8512D02*
X9553D01*
X10197D02*
X10253D01*
X10897D02*
X11953D01*
X12597D02*
X12653D01*
X13297D02*
X14453D01*
X15097D02*
X15153D01*
X15797D02*
X17124D01*
X17997D02*
X18053D01*
X18697D02*
X19353D01*
X19997D02*
X20053D01*
X20697D02*
X21703D01*
X22347D02*
X22403D01*
X23047D02*
X23460D01*
X4275Y15782D02*
X5034D01*
X6416D02*
X7168D01*
X7812D02*
X7868D01*
X8512D02*
X9553D01*
X10197D02*
X10253D01*
X10897D02*
X11953D01*
X12597D02*
X12653D01*
X13297D02*
X14453D01*
X15097D02*
X15153D01*
X15797D02*
X17172D01*
X17997D02*
X18053D01*
X18697D02*
X19353D01*
X19997D02*
X20053D01*
X20697D02*
X21703D01*
X22347D02*
X22403D01*
X23047D02*
X23460D01*
X4275Y15830D02*
X5034D01*
X6416D02*
X7168D01*
X7812D02*
X7868D01*
X8512D02*
X9553D01*
X10197D02*
X10253D01*
X10897D02*
X11953D01*
X12597D02*
X12653D01*
X13297D02*
X14453D01*
X15097D02*
X15153D01*
X15797D02*
X17220D01*
X17997D02*
X18053D01*
X18697D02*
X19353D01*
X19997D02*
X20053D01*
X20697D02*
X21703D01*
X22347D02*
X22403D01*
X23047D02*
X23460D01*
X4275Y15878D02*
X5034D01*
X6416D02*
X7168D01*
X7812D02*
X7868D01*
X8512D02*
X9553D01*
X10197D02*
X10253D01*
X10897D02*
X11953D01*
X12597D02*
X12653D01*
X13297D02*
X14453D01*
X15097D02*
X15153D01*
X15797D02*
X17063D01*
X17997D02*
X18053D01*
X18697D02*
X19353D01*
X19997D02*
X20053D01*
X20697D02*
X21703D01*
X22347D02*
X22403D01*
X23047D02*
X23460D01*
X4275Y15926D02*
X5034D01*
X6416D02*
X7168D01*
X7812D02*
X7868D01*
X8512D02*
X9553D01*
X10197D02*
X10253D01*
X10897D02*
X11953D01*
X12597D02*
X12653D01*
X13297D02*
X14453D01*
X15097D02*
X15153D01*
X15797D02*
X17013D01*
X17997D02*
X18053D01*
X18697D02*
X19353D01*
X19997D02*
X20053D01*
X20697D02*
X21703D01*
X22347D02*
X22403D01*
X23047D02*
X23460D01*
X4275Y15974D02*
X5034D01*
X6416D02*
X7168D01*
X7812D02*
X7868D01*
X8512D02*
X9553D01*
X10197D02*
X10253D01*
X10897D02*
X11953D01*
X12597D02*
X12653D01*
X13297D02*
X14453D01*
X15097D02*
X15153D01*
X15797D02*
X16965D01*
X17997D02*
X18053D01*
X18697D02*
X19353D01*
X19997D02*
X20053D01*
X20697D02*
X21703D01*
X22347D02*
X22403D01*
X23047D02*
X23460D01*
X4275Y16022D02*
X5034D01*
X6416D02*
X7168D01*
X7812D02*
X7868D01*
X8512D02*
X9553D01*
X10197D02*
X10253D01*
X10897D02*
X11953D01*
X12597D02*
X12653D01*
X13297D02*
X14453D01*
X15097D02*
X15153D01*
X15797D02*
X16917D01*
X17997D02*
X18053D01*
X18697D02*
X19353D01*
X19997D02*
X20053D01*
X20697D02*
X21667D01*
X22347D02*
X22403D01*
X23047D02*
X23460D01*
X4275Y16070D02*
X5034D01*
X5716D02*
X5734D01*
X6416D02*
X7168D01*
X7812D02*
X7868D01*
X8512D02*
X9553D01*
X10197D02*
X10253D01*
X10897D02*
X11953D01*
X12597D02*
X12653D01*
X13297D02*
X14419D01*
X15097D02*
X15153D01*
X15797D02*
X16869D01*
X17997D02*
X18053D01*
X18697D02*
X19353D01*
X19997D02*
X20053D01*
X20697D02*
X21619D01*
X22347D02*
X22403D01*
X23047D02*
X23460D01*
X4275Y16119D02*
X5034D01*
X5716D02*
X5734D01*
X6416D02*
X7168D01*
X7812D02*
X7868D01*
X8512D02*
X9553D01*
X10197D02*
X10253D01*
X10897D02*
X11953D01*
X12597D02*
X12653D01*
X13297D02*
X14371D01*
X15097D02*
X15153D01*
X15797D02*
X16821D01*
X17997D02*
X18053D01*
X18697D02*
X19321D01*
X19997D02*
X20053D01*
X20697D02*
X21571D01*
X22347D02*
X22403D01*
X23047D02*
X23460D01*
X4275Y16167D02*
X5034D01*
X5716D02*
X5734D01*
X6416D02*
X7168D01*
X7812D02*
X7868D01*
X8512D02*
X9553D01*
X10197D02*
X10253D01*
X10897D02*
X11953D01*
X12597D02*
X12653D01*
X13297D02*
X14323D01*
X15097D02*
X15153D01*
X15797D02*
X16773D01*
X17997D02*
X18053D01*
X18697D02*
X19273D01*
X19997D02*
X20053D01*
X20697D02*
X21523D01*
X22347D02*
X22403D01*
X23047D02*
X23460D01*
X4275Y16215D02*
X5191D01*
X5559D02*
X7168D01*
X7840D02*
X7868D01*
X8512D02*
X9553D01*
X10197D02*
X10253D01*
X10897D02*
X11953D01*
X12597D02*
X12653D01*
X13297D02*
X14275D01*
X15097D02*
X15153D01*
X15797D02*
X16725D01*
X17245D02*
X17353D01*
X17997D02*
X18053D01*
X18697D02*
X19225D01*
X19997D02*
X20053D01*
X20697D02*
X21475D01*
X22347D02*
X22403D01*
X23047D02*
X23460D01*
X4275Y16263D02*
X5191D01*
X5559D02*
X7168D01*
X8512D02*
X9553D01*
X10197D02*
X10253D01*
X10897D02*
X11953D01*
X12597D02*
X12653D01*
X13297D02*
X14227D01*
X15097D02*
X15153D01*
X15797D02*
X16677D01*
X17197D02*
X17353D01*
X17997D02*
X18053D01*
X18697D02*
X19177D01*
X19997D02*
X20053D01*
X20697D02*
X21427D01*
X22347D02*
X22403D01*
X23047D02*
X23460D01*
X4275Y16311D02*
X5191D01*
X5559D02*
X7415D01*
X7936D02*
X9553D01*
X10197D02*
X10253D01*
X10897D02*
X11953D01*
X12597D02*
X12653D01*
X13297D02*
X14181D01*
X14700D02*
X16629D01*
X17149D02*
X17353D01*
X17997D02*
X18053D01*
X18697D02*
X19129D01*
X19997D02*
X20053D01*
X20697D02*
X21379D01*
X21900D02*
X22370D01*
X22880D02*
X23460D01*
X4275Y16359D02*
X5191D01*
X5559D02*
X7463D01*
X7984D02*
X9631D01*
X10059D02*
X11953D01*
X12597D02*
X12653D01*
X13297D02*
X14153D01*
X14652D02*
X16581D01*
X17101D02*
X17353D01*
X17997D02*
X18053D01*
X18697D02*
X19081D01*
X19997D02*
X20053D01*
X20697D02*
X21331D01*
X21852D02*
X22320D01*
X22930D02*
X23460D01*
X4275Y16407D02*
X4853D01*
X6197D02*
X7511D01*
X8031D02*
X9583D01*
X10056D02*
X12091D01*
X12459D02*
X14142D01*
X14604D02*
X16533D01*
X17053D02*
X19033D01*
X19554D02*
X21283D01*
X21804D02*
X22284D01*
X22966D02*
X23460D01*
X4275Y16455D02*
X4853D01*
X6197D02*
X7559D01*
X8060D02*
X9535D01*
X10041D02*
X12091D01*
X12459D02*
X14141D01*
X14556D02*
X16485D01*
X17005D02*
X18985D01*
X19506D02*
X21235D01*
X21756D02*
X22258D01*
X22992D02*
X23460D01*
X4275Y16503D02*
X4853D01*
X6197D02*
X7607D01*
X8073D02*
X9487D01*
X10008D02*
X12091D01*
X12459D02*
X14141D01*
X14509D02*
X16455D01*
X16957D02*
X18937D01*
X19458D02*
X21187D01*
X21708D02*
X22239D01*
X23011D02*
X23460D01*
X4275Y16551D02*
X4853D01*
X6197D02*
X7656D01*
X8074D02*
X9439D01*
X9960D02*
X12091D01*
X12459D02*
X14141D01*
X14509D02*
X16442D01*
X16909D02*
X18889D01*
X19409D02*
X21157D01*
X21659D02*
X22227D01*
X23023D02*
X23460D01*
X4275Y16599D02*
X4853D01*
X5544D02*
X5553D01*
X6197D02*
X7704D01*
X8074D02*
X9391D01*
X9911D02*
X12091D01*
X12459D02*
X14141D01*
X14509D02*
X16441D01*
X16861D02*
X18841D01*
X19361D02*
X21143D01*
X21611D02*
X22221D01*
X23029D02*
X23460D01*
X4275Y16647D02*
X4853D01*
X5513D02*
X5553D01*
X6197D02*
X7706D01*
X8074D02*
X9358D01*
X9863D02*
X12043D01*
X12459D02*
X14141D01*
X14509D02*
X16441D01*
X16813D02*
X18808D01*
X19313D02*
X21141D01*
X21563D02*
X22221D01*
X23029D02*
X23460D01*
X4275Y16695D02*
X4853D01*
X5497D02*
X5553D01*
X6197D02*
X7706D01*
X8074D02*
X9343D01*
X9815D02*
X11140D01*
X11910D02*
X11995D01*
X12458D02*
X13540D01*
X14509D02*
X15840D01*
X16809D02*
X18793D01*
X19265D02*
X20540D01*
X21515D02*
X22226D01*
X23024D02*
X23460D01*
X4275Y16743D02*
X4853D01*
X5497D02*
X5553D01*
X6197D02*
X7105D01*
X8074D02*
X8740D01*
X9767D02*
X11140D01*
X11910D02*
X11947D01*
X12446D02*
X13540D01*
X14509D02*
X15840D01*
X16809D02*
X18190D01*
X19217D02*
X20540D01*
X21509D02*
X22238D01*
X23012D02*
X23460D01*
X4275Y16791D02*
X4853D01*
X5497D02*
X5553D01*
X6197D02*
X7105D01*
X8074D02*
X8740D01*
X9719D02*
X11140D01*
X12418D02*
X13540D01*
X14509D02*
X15840D01*
X16809D02*
X18190D01*
X19169D02*
X20540D01*
X21509D02*
X22256D01*
X22994D02*
X23460D01*
X4275Y16839D02*
X4853D01*
X5497D02*
X5553D01*
X6197D02*
X7105D01*
X8074D02*
X8740D01*
X9709D02*
X11140D01*
X12371D02*
X13540D01*
X14509D02*
X15840D01*
X16809D02*
X18190D01*
X19159D02*
X20540D01*
X21509D02*
X22281D01*
X22969D02*
X23460D01*
X4275Y16887D02*
X4853D01*
X5497D02*
X5553D01*
X6197D02*
X7105D01*
X8074D02*
X8740D01*
X9709D02*
X11140D01*
X12323D02*
X13540D01*
X14509D02*
X15840D01*
X16809D02*
X18190D01*
X19159D02*
X20540D01*
X21509D02*
X22316D01*
X22934D02*
X23460D01*
X4275Y16935D02*
X4805D01*
X5497D02*
X5553D01*
X6197D02*
X7105D01*
X8074D02*
X8740D01*
X9709D02*
X11140D01*
X12275D02*
X13540D01*
X14509D02*
X15840D01*
X16809D02*
X18190D01*
X19159D02*
X20540D01*
X21509D02*
X22364D01*
X22886D02*
X23460D01*
X4275Y16983D02*
X4757D01*
X5497D02*
X5553D01*
X6197D02*
X7105D01*
X8074D02*
X8740D01*
X9709D02*
X11140D01*
X12227D02*
X13540D01*
X14509D02*
X15840D01*
X16809D02*
X18190D01*
X19159D02*
X20540D01*
X21509D02*
X22436D01*
X22814D02*
X23460D01*
X4275Y17031D02*
X4709D01*
X5497D02*
X5553D01*
X6197D02*
X7105D01*
X8074D02*
X8740D01*
X9709D02*
X10284D01*
X10966D02*
X11140D01*
X12179D02*
X12684D01*
X13366D02*
X13540D01*
X14509D02*
X15134D01*
X15816D02*
X15840D01*
X16809D02*
X18190D01*
X19159D02*
X20540D01*
X21509D02*
X23460D01*
X4275Y17079D02*
X4661D01*
X5181D02*
X7105D01*
X8074D02*
X8740D01*
X9709D02*
X10284D01*
X10966D02*
X11140D01*
X13366D02*
X13540D01*
X15110D02*
X15134D01*
X15816D02*
X15840D01*
X17409D02*
X17434D01*
X18116D02*
X18190D01*
X19159D02*
X19734D01*
X20416D02*
X20540D01*
X22110D02*
X22134D01*
X22816D02*
X23460D01*
X4275Y17127D02*
X4613D01*
X5133D02*
X7105D01*
X8675D02*
X8740D01*
X10966D02*
X11140D01*
X13366D02*
X13540D01*
X15110D02*
X15134D01*
X15816D02*
X15840D01*
X17409D02*
X17434D01*
X18116D02*
X18190D01*
X20416D02*
X20540D01*
X22110D02*
X22134D01*
X22816D02*
X23460D01*
X4275Y17175D02*
X4564D01*
X5085D02*
X7105D01*
X8675D02*
X8740D01*
X10966D02*
X11140D01*
X13366D02*
X13540D01*
X15110D02*
X15134D01*
X15816D02*
X15840D01*
X17409D02*
X17434D01*
X18116D02*
X18190D01*
X20416D02*
X20540D01*
X22110D02*
X22134D01*
X22816D02*
X23460D01*
X4275Y17223D02*
X4516D01*
X5037D02*
X7105D01*
X8675D02*
X8740D01*
X10966D02*
X11140D01*
X13366D02*
X13540D01*
X15816D02*
X15840D01*
X18116D02*
X18190D01*
X20416D02*
X20540D01*
X22816D02*
X23460D01*
X4275Y17271D02*
X4468D01*
X4989D02*
X7105D01*
X8675D02*
X8740D01*
X10966D02*
X11140D01*
X13366D02*
X13540D01*
X15816D02*
X15840D01*
X18116D02*
X18190D01*
X20416D02*
X20540D01*
X22816D02*
X23460D01*
X4275Y17319D02*
X4420D01*
X4941D02*
X7105D01*
X8675D02*
X8740D01*
X10966D02*
X11140D01*
X13366D02*
X13540D01*
X15816D02*
X15840D01*
X18116D02*
X18190D01*
X20416D02*
X20540D01*
X22816D02*
X23460D01*
X4275Y17367D02*
X4376D01*
X4893D02*
X7105D01*
X8675D02*
X8740D01*
X10966D02*
X11647D01*
X13366D02*
X14072D01*
X15816D02*
X16396D01*
X18116D02*
X18190D01*
X20416D02*
X21047D01*
X22816D02*
X23460D01*
X4275Y17415D02*
X4351D01*
X4845D02*
X7564D01*
X8675D02*
X9199D01*
X10966D02*
X11599D01*
X13366D02*
X14024D01*
X15816D02*
X16348D01*
X18116D02*
X18749D01*
X20416D02*
X20999D01*
X22816D02*
X23460D01*
X4275Y17463D02*
X4341D01*
X4797D02*
X7516D01*
X8675D02*
X9151D01*
X10966D02*
X11140D01*
X13366D02*
X13540D01*
X15816D02*
X15840D01*
X18116D02*
X18701D01*
X20416D02*
X20540D01*
X22816D02*
X23460D01*
X4275Y17511D02*
X4341D01*
X4749D02*
X7105D01*
X8675D02*
X8740D01*
X10966D02*
X11140D01*
X13366D02*
X13540D01*
X15816D02*
X15840D01*
X18116D02*
X18190D01*
X20416D02*
X20540D01*
X22816D02*
X23460D01*
X4275Y17559D02*
X4341D01*
X4709D02*
X7105D01*
X8675D02*
X8740D01*
X10966D02*
X11140D01*
X13366D02*
X13540D01*
X15110D02*
X15134D01*
X15816D02*
X15840D01*
X17409D02*
X17434D01*
X18116D02*
X18190D01*
X20416D02*
X20540D01*
X22110D02*
X22134D01*
X22816D02*
X23460D01*
X4275Y17607D02*
X4341D01*
X4709D02*
X7105D01*
X8675D02*
X8740D01*
X9527D02*
X9540D01*
X10966D02*
X11140D01*
X11927D02*
X11940D01*
X13366D02*
X13540D01*
X15110D02*
X15134D01*
X15816D02*
X15840D01*
X17409D02*
X17434D01*
X18116D02*
X18190D01*
X20416D02*
X20540D01*
X21327D02*
X21340D01*
X22110D02*
X22134D01*
X22816D02*
X23460D01*
X4275Y17656D02*
X4341D01*
X4709D02*
X6234D01*
X6916D02*
X7105D01*
X8675D02*
X8740D01*
X9510D02*
X9540D01*
X10310D02*
X11140D01*
X11910D02*
X11940D01*
X12710D02*
X13540D01*
X14310D02*
X14340D01*
X15110D02*
X15840D01*
X16629D02*
X16639D01*
X17409D02*
X17434D01*
X18116D02*
X18190D01*
X20416D02*
X20540D01*
X21310D02*
X21340D01*
X22110D02*
X22134D01*
X22816D02*
X23460D01*
X4275Y17704D02*
X4341D01*
X5410D02*
X6234D01*
X6916D02*
X7105D01*
X8675D02*
X8740D01*
X9510D02*
X9540D01*
X10966D02*
X11140D01*
X11910D02*
X12684D01*
X13366D02*
X13540D01*
X14310D02*
X15134D01*
X15816D02*
X15840D01*
X16610D02*
X18190D01*
X18981D02*
X18990D01*
X19760D02*
X20540D01*
X21310D02*
X23460D01*
X4275Y17752D02*
X4341D01*
X5410D02*
X6234D01*
X6916D02*
X7105D01*
X8359D02*
X8740D01*
X9510D02*
X10284D01*
X10966D02*
X11140D01*
X11910D02*
X12684D01*
X13366D02*
X13540D01*
X14310D02*
X15134D01*
X15816D02*
X15840D01*
X16610D02*
X18190D01*
X18960D02*
X20540D01*
X21310D02*
X23460D01*
X4275Y17800D02*
X4341D01*
X5410D02*
X6234D01*
X6916D02*
X7105D01*
X8359D02*
X8740D01*
X9510D02*
X10284D01*
X10966D02*
X11140D01*
X11910D02*
X12684D01*
X13366D02*
X13540D01*
X14310D02*
X15134D01*
X15816D02*
X15840D01*
X16610D02*
X17434D01*
X18116D02*
X18190D01*
X18960D02*
X19734D01*
X20416D02*
X20540D01*
X21310D02*
X22134D01*
X22816D02*
X23460D01*
X4275Y17848D02*
X4341D01*
X5410D02*
X6234D01*
X6916D02*
X7105D01*
X8359D02*
X8740D01*
X9510D02*
X10284D01*
X10966D02*
X11140D01*
X11910D02*
X12684D01*
X13366D02*
X13540D01*
X14310D02*
X15134D01*
X15816D02*
X15840D01*
X16610D02*
X17434D01*
X18116D02*
X18190D01*
X18960D02*
X19734D01*
X20416D02*
X20540D01*
X21310D02*
X22134D01*
X22816D02*
X23460D01*
X4275Y17896D02*
X4341D01*
X5410D02*
X6234D01*
X6916D02*
X7105D01*
X8359D02*
X8740D01*
X9510D02*
X10284D01*
X10966D02*
X11140D01*
X11910D02*
X12684D01*
X13366D02*
X13540D01*
X14310D02*
X15134D01*
X15816D02*
X15840D01*
X16610D02*
X17434D01*
X18116D02*
X18190D01*
X18960D02*
X19734D01*
X20416D02*
X20540D01*
X21310D02*
X21834D01*
X22816D02*
X23460D01*
X4275Y17944D02*
X4341D01*
X5410D02*
X6234D01*
X6916D02*
X7105D01*
X8358D02*
X8740D01*
X9510D02*
X10284D01*
X10966D02*
X11140D01*
X11910D02*
X12684D01*
X13366D02*
X13540D01*
X14310D02*
X15096D01*
X15816D02*
X15840D01*
X16610D02*
X17434D01*
X18116D02*
X18190D01*
X20416D02*
X20540D01*
X21310D02*
X21746D01*
X22816D02*
X23460D01*
X4275Y17992D02*
X4341D01*
X5410D02*
X6234D01*
X6916D02*
X7105D01*
X8347D02*
X8740D01*
X9510D02*
X10284D01*
X10966D02*
X11140D01*
X11910D02*
X12684D01*
X13366D02*
X13540D01*
X14310D02*
X15048D01*
X15816D02*
X15840D01*
X16610D02*
X17434D01*
X18116D02*
X18190D01*
X20416D02*
X20540D01*
X21310D02*
X21698D01*
X22816D02*
X23460D01*
X4275Y18040D02*
X4341D01*
X5410D02*
X6234D01*
X6916D02*
X7105D01*
X8319D02*
X8740D01*
X9510D02*
X10284D01*
X10966D02*
X11140D01*
X11910D02*
X12684D01*
X13366D02*
X13540D01*
X14310D02*
X15000D01*
X15816D02*
X15840D01*
X16610D02*
X17434D01*
X18116D02*
X18190D01*
X20416D02*
X20540D01*
X21310D02*
X21650D01*
X22816D02*
X23460D01*
X4275Y18088D02*
X4341D01*
X5410D02*
X5440D01*
X6916D02*
X7105D01*
X8273D02*
X8740D01*
X9510D02*
X10284D01*
X10966D02*
X12684D01*
X13366D02*
X14952D01*
X15816D02*
X16202D01*
X18116D02*
X18190D01*
X20416D02*
X21602D01*
X22816D02*
X23460D01*
X4275Y18136D02*
X4341D01*
X5410D02*
X5440D01*
X6916D02*
X7704D01*
X8224D02*
X10284D01*
X10996D02*
X12684D01*
X13366D02*
X14904D01*
X15816D02*
X16154D01*
X18116D02*
X18654D01*
X20416D02*
X21554D01*
X22816D02*
X23460D01*
X4275Y18184D02*
X4341D01*
X5410D02*
X5440D01*
X6916D02*
X7656D01*
X8176D02*
X10284D01*
X11044D02*
X12684D01*
X13366D02*
X14856D01*
X15816D02*
X16106D01*
X18116D02*
X18606D01*
X20416D02*
X21506D01*
X22816D02*
X23460D01*
X4275Y18232D02*
X4341D01*
X5410D02*
X5440D01*
X6916D02*
X7608D01*
X8128D02*
X10284D01*
X11092D02*
X12684D01*
X13366D02*
X14808D01*
X15816D02*
X16058D01*
X18116D02*
X18558D01*
X20416D02*
X21458D01*
X22816D02*
X23460D01*
X4275Y18280D02*
X4344D01*
X5410D02*
X5440D01*
X6916D02*
X7560D01*
X8080D02*
X10284D01*
X11140D02*
X12684D01*
X13366D02*
X14760D01*
X15816D02*
X16010D01*
X18116D02*
X18510D01*
X20416D02*
X21410D01*
X21930D02*
X22134D01*
X22816D02*
X23460D01*
X4275Y18328D02*
X4359D01*
X4865D02*
X5440D01*
X6482D02*
X7512D01*
X8032D02*
X10284D01*
X11188D02*
X12684D01*
X13366D02*
X14712D01*
X15816D02*
X15962D01*
X18116D02*
X18462D01*
X18982D02*
X19734D01*
X20416D02*
X21362D01*
X21882D02*
X22134D01*
X22816D02*
X23460D01*
X4275Y18376D02*
X4392D01*
X4913D02*
X5440D01*
X6916D02*
X7464D01*
X7984D02*
X10716D01*
X11236D02*
X12841D01*
X13209D02*
X14664D01*
X15184D02*
X15914D01*
X18116D02*
X18414D01*
X18934D02*
X19734D01*
X20416D02*
X21314D01*
X21834D02*
X22134D01*
X22816D02*
X23460D01*
X4275Y18424D02*
X4440D01*
X4961D02*
X5440D01*
X6916D02*
X7416D01*
X7936D02*
X10764D01*
X11284D02*
X12841D01*
X13209D02*
X14616D01*
X15136D02*
X15866D01*
X16386D02*
X18366D01*
X18886D02*
X21266D01*
X21786D02*
X23460D01*
X4275Y18472D02*
X4488D01*
X5410D02*
X5440D01*
X6916D02*
X7372D01*
X7888D02*
X10812D01*
X11332D02*
X12841D01*
X13209D02*
X14568D01*
X15088D02*
X15818D01*
X16338D02*
X16623D01*
X18838D02*
X19073D01*
X21738D02*
X23460D01*
X4275Y18520D02*
X4536D01*
X5410D02*
X5440D01*
X6916D02*
X7203D01*
X7847D02*
X7903D01*
X8547D02*
X10860D01*
X11380D02*
X12841D01*
X13209D02*
X14520D01*
X15040D02*
X15770D01*
X16290D02*
X16570D01*
X18790D02*
X19020D01*
X21690D02*
X23460D01*
X4275Y18568D02*
X4584D01*
X5410D02*
X5440D01*
X6210D02*
X6234D01*
X6916D02*
X7203D01*
X7847D02*
X7903D01*
X8547D02*
X10908D01*
X11428D02*
X12841D01*
X13209D02*
X14472D01*
X14992D02*
X15722D01*
X16242D02*
X16522D01*
X18742D02*
X18972D01*
X21642D02*
X23460D01*
X4275Y18616D02*
X4632D01*
X5410D02*
X5440D01*
X6210D02*
X6234D01*
X6916D02*
X7203D01*
X7847D02*
X7903D01*
X8547D02*
X10956D01*
X11476D02*
X12841D01*
X13209D02*
X14427D01*
X14944D02*
X15674D01*
X16194D02*
X16474D01*
X18694D02*
X18924D01*
X21594D02*
X23460D01*
X4275Y18664D02*
X4640D01*
X5410D02*
X5440D01*
X6210D02*
X6234D01*
X6916D02*
X7203D01*
X7847D02*
X7903D01*
X10964D02*
X11004D01*
X11524D02*
X12841D01*
X13209D02*
X14401D01*
X14896D02*
X15626D01*
X16146D02*
X16426D01*
X18646D02*
X18876D01*
X21546D02*
X23460D01*
X4275Y18712D02*
X4640D01*
X5410D02*
X6234D01*
X6916D02*
X7203D01*
X7847D02*
X7903D01*
X11023D02*
X11052D01*
X12011D02*
X12841D01*
X13209D02*
X14391D01*
X14848D02*
X15577D01*
X16098D02*
X16380D01*
X18598D02*
X18827D01*
X21498D02*
X23460D01*
X4275Y18760D02*
X4640D01*
X5410D02*
X6234D01*
X6916D02*
X7203D01*
X7847D02*
X7903D01*
X11071D02*
X11100D01*
X12071D02*
X12841D01*
X13209D02*
X14391D01*
X14800D02*
X15529D01*
X16050D02*
X16353D01*
X18550D02*
X18779D01*
X21450D02*
X23460D01*
X4275Y18808D02*
X4640D01*
X5410D02*
X6234D01*
X6916D02*
X7203D01*
X7847D02*
X7903D01*
X11119D02*
X11148D01*
X12119D02*
X12841D01*
X13209D02*
X14391D01*
X14759D02*
X15481D01*
X16002D02*
X16342D01*
X18442D02*
X18731D01*
X21342D02*
X23460D01*
X4275Y18856D02*
X4640D01*
X5410D02*
X6234D01*
X6916D02*
X7203D01*
X7847D02*
X7903D01*
X11167D02*
X11196D01*
X12167D02*
X12841D01*
X13209D02*
X14391D01*
X14759D02*
X15433D01*
X15954D02*
X16341D01*
X16754D02*
X18683D01*
X19204D02*
X23460D01*
X4275Y18904D02*
X4640D01*
X5410D02*
X6234D01*
X6916D02*
X7203D01*
X7847D02*
X7903D01*
X11215D02*
X11244D01*
X12215D02*
X12841D01*
X13215D02*
X14391D01*
X14759D02*
X15386D01*
X15906D02*
X16341D01*
X16709D02*
X18635D01*
X19156D02*
X23460D01*
X4275Y18952D02*
X4640D01*
X5410D02*
X6234D01*
X6916D02*
X7203D01*
X7847D02*
X7903D01*
X11263D02*
X11292D01*
X12263D02*
X12841D01*
X13263D02*
X14391D01*
X14759D02*
X15356D01*
X15858D02*
X16341D01*
X16709D02*
X18587D01*
X19108D02*
X23460D01*
X4275Y19000D02*
X4640D01*
X5410D02*
X6393D01*
X6861D02*
X7203D01*
X7847D02*
X7903D01*
X11311D02*
X11316D01*
X12311D02*
X12316D01*
X12734D02*
X12843D01*
X13311D02*
X13316D01*
X13734D02*
X14316D01*
X14759D02*
X15316D01*
X15810D02*
X16316D01*
X16734D02*
X17316D01*
X17734D02*
X18539D01*
X19060D02*
X23460D01*
X4275Y19048D02*
X4640D01*
X5410D02*
X6406D01*
X6909D02*
X7203D01*
X7847D02*
X7903D01*
X8547D02*
X10230D01*
X12820D02*
X12856D01*
X13820D02*
X14230D01*
X14820D02*
X15230D01*
X15820D02*
X16230D01*
X16820D02*
X17230D01*
X17820D02*
X18491D01*
X19012D02*
X23460D01*
X4275Y19096D02*
X6437D01*
X6957D02*
X7203D01*
X7847D02*
X7903D01*
X8547D02*
X10170D01*
X12880D02*
X12887D01*
X13880D02*
X14170D01*
X14880D02*
X15170D01*
X15880D02*
X16170D01*
X16880D02*
X17170D01*
X17880D02*
X18443D01*
X18964D02*
X23460D01*
X4275Y19144D02*
X6484D01*
X7005D02*
X7203D01*
X7847D02*
X7903D01*
X8547D02*
X10125D01*
X12925D02*
X12934D01*
X13925D02*
X14125D01*
X14925D02*
X15125D01*
X15925D02*
X16125D01*
X16925D02*
X17125D01*
X18916D02*
X20350D01*
X21200D02*
X23460D01*
X4275Y19193D02*
X6532D01*
X7053D02*
X10090D01*
X12960D02*
X12982D01*
X13960D02*
X14090D01*
X14960D02*
X15090D01*
X15960D02*
X16090D01*
X16960D02*
X17090D01*
X18868D02*
X20350D01*
X21200D02*
X23460D01*
X4275Y19241D02*
X6580D01*
X7101D02*
X10062D01*
X12988D02*
X13030D01*
X13988D02*
X14062D01*
X14988D02*
X15062D01*
X15988D02*
X16062D01*
X16988D02*
X17062D01*
X18820D02*
X20350D01*
X21200D02*
X23460D01*
X4275Y19289D02*
X6628D01*
X7149D02*
X10041D01*
X13009D02*
X13041D01*
X14009D02*
X14041D01*
X15009D02*
X15041D01*
X16009D02*
X16041D01*
X17009D02*
X17041D01*
X18772D02*
X20350D01*
X21200D02*
X23460D01*
X4275Y19337D02*
X6676D01*
X7197D02*
X10025D01*
X13025D02*
X13025D01*
X14025D02*
X14025D01*
X15025D02*
X15025D01*
X16025D02*
X16025D01*
X17025D02*
X17025D01*
X18724D02*
X20350D01*
X21200D02*
X23460D01*
X4275Y19385D02*
X6724D01*
X18676D02*
X20350D01*
X21200D02*
X23460D01*
X4275Y19433D02*
X6772D01*
X18628D02*
X20350D01*
X21200D02*
X23460D01*
X4275Y19481D02*
X6820D01*
X18573D02*
X20350D01*
X21200D02*
X23460D01*
X4275Y19529D02*
X6868D01*
X18041D02*
X20350D01*
X21200D02*
X23460D01*
X4275Y19577D02*
X6916D01*
X18034D02*
X20350D01*
X21200D02*
X23460D01*
X4275Y19625D02*
X4983D01*
X5429D02*
X6964D01*
X18022D02*
X20350D01*
X21200D02*
X22306D01*
X22752D02*
X23460D01*
X4275Y19673D02*
X4852D01*
X5560D02*
X7015D01*
X18004D02*
X20350D01*
X21200D02*
X22175D01*
X22883D02*
X23460D01*
X4275Y19721D02*
X4763D01*
X5649D02*
X10068D01*
X17982D02*
X20350D01*
X21200D02*
X22086D01*
X22972D02*
X23460D01*
X4275Y19769D02*
X4694D01*
X5718D02*
X10098D01*
X17952D02*
X20350D01*
X21200D02*
X22017D01*
X23041D02*
X23460D01*
X4275Y19817D02*
X4637D01*
X5776D02*
X10135D01*
X17915D02*
X20350D01*
X21200D02*
X21960D01*
X23098D02*
X23460D01*
X4275Y19865D02*
X4589D01*
X5824D02*
X10183D01*
X17867D02*
X20350D01*
X21200D02*
X21911D01*
X23146D02*
X23460D01*
X4275Y19913D02*
X4547D01*
X5865D02*
X10247D01*
X17803D02*
X20350D01*
X21200D02*
X21870D01*
X23188D02*
X23460D01*
X4275Y19961D02*
X4512D01*
X5900D02*
X10344D01*
X17706D02*
X21835D01*
X23223D02*
X23460D01*
X4275Y20009D02*
X4482D01*
X5931D02*
X10297D01*
X17753D02*
X21804D01*
X23253D02*
X23460D01*
X4275Y20057D02*
X4455D01*
X5957D02*
X10218D01*
X17832D02*
X21778D01*
X23280D02*
X23460D01*
X4275Y20105D02*
X4433D01*
X5979D02*
X10161D01*
X17889D02*
X20350D01*
X21200D02*
X21756D01*
X23302D02*
X23460D01*
X4275Y20153D02*
X4414D01*
X5998D02*
X10118D01*
X17932D02*
X20350D01*
X21200D02*
X21737D01*
X23321D02*
X23460D01*
X4275Y20201D02*
X4399D01*
X6013D02*
X10084D01*
X17966D02*
X20350D01*
X21200D02*
X21722D01*
X23336D02*
X23460D01*
X4275Y20249D02*
X4386D01*
X6026D02*
X10058D01*
X17992D02*
X20350D01*
X21200D02*
X21709D01*
X23349D02*
X23460D01*
X4275Y20297D02*
X4377D01*
X6035D02*
X10038D01*
X18012D02*
X20350D01*
X21200D02*
X21700D01*
X23358D02*
X23460D01*
X4275Y20345D02*
X4370D01*
X6042D02*
X10023D01*
X18027D02*
X20350D01*
X21200D02*
X21693D01*
X23365D02*
X23460D01*
X4275Y20393D02*
X4367D01*
X6046D02*
X10013D01*
X18037D02*
X20350D01*
X21200D02*
X21689D01*
X23368D02*
X23460D01*
X4275Y20441D02*
X4366D01*
X6047D02*
X10007D01*
X18043D02*
X20350D01*
X21200D02*
X21688D01*
X23369D02*
X23460D01*
X4275Y20489D02*
X4367D01*
X6045D02*
X10006D01*
X18044D02*
X20350D01*
X21200D02*
X21690D01*
X23368D02*
X23460D01*
X4275Y20537D02*
X4372D01*
X6040D02*
X10010D01*
X18040D02*
X20350D01*
X21200D02*
X21695D01*
X23363D02*
X23460D01*
X4275Y20585D02*
X4379D01*
X6033D02*
X10018D01*
X18032D02*
X20350D01*
X21200D02*
X21702D01*
X23356D02*
X23460D01*
X4275Y20633D02*
X4389D01*
X6023D02*
X10031D01*
X11019D02*
X11031D01*
X12019D02*
X12031D01*
X13019D02*
X13031D01*
X14019D02*
X14031D01*
X15019D02*
X15031D01*
X16019D02*
X16031D01*
X17019D02*
X17031D01*
X18019D02*
X20350D01*
X21200D02*
X21712D01*
X23346D02*
X23460D01*
X4275Y20681D02*
X4402D01*
X6010D02*
X10049D01*
X11001D02*
X11049D01*
X12001D02*
X12049D01*
X13001D02*
X13049D01*
X14001D02*
X14049D01*
X15001D02*
X15049D01*
X16001D02*
X16049D01*
X17001D02*
X17049D01*
X18001D02*
X20350D01*
X21200D02*
X21725D01*
X23333D02*
X23460D01*
X4275Y20730D02*
X4419D01*
X5993D02*
X10073D01*
X10977D02*
X11073D01*
X11977D02*
X12073D01*
X12977D02*
X13073D01*
X13977D02*
X14073D01*
X14977D02*
X15073D01*
X15977D02*
X16073D01*
X16977D02*
X17073D01*
X17977D02*
X20350D01*
X21200D02*
X21742D01*
X23316D02*
X23460D01*
X4275Y20778D02*
X4438D01*
X5974D02*
X10104D01*
X10946D02*
X11104D01*
X11946D02*
X12104D01*
X12946D02*
X13104D01*
X13946D02*
X14104D01*
X14946D02*
X15104D01*
X15946D02*
X16104D01*
X16946D02*
X17104D01*
X17946D02*
X20350D01*
X21200D02*
X21761D01*
X23297D02*
X23460D01*
X4275Y20826D02*
X4462D01*
X5951D02*
X10143D01*
X10907D02*
X11143D01*
X11907D02*
X12143D01*
X12907D02*
X13143D01*
X13907D02*
X14143D01*
X14907D02*
X15143D01*
X15907D02*
X16143D01*
X16907D02*
X17143D01*
X17907D02*
X20350D01*
X21200D02*
X21785D01*
X23273D02*
X23460D01*
X4275Y20874D02*
X4489D01*
X5923D02*
X10193D01*
X10857D02*
X11193D01*
X11857D02*
X12193D01*
X12857D02*
X13193D01*
X13857D02*
X14193D01*
X14857D02*
X15193D01*
X15857D02*
X16193D01*
X16857D02*
X17193D01*
X17857D02*
X20350D01*
X21200D02*
X21812D01*
X23246D02*
X23460D01*
X4275Y20922D02*
X4521D01*
X5892D02*
X10261D01*
X10789D02*
X11261D01*
X11789D02*
X12261D01*
X12789D02*
X13261D01*
X13789D02*
X14261D01*
X14789D02*
X15261D01*
X15789D02*
X16261D01*
X16789D02*
X17261D01*
X17789D02*
X20350D01*
X21200D02*
X21843D01*
X23214D02*
X23460D01*
X4275Y20970D02*
X4557D01*
X5855D02*
X10369D01*
X10681D02*
X11369D01*
X11681D02*
X12369D01*
X12681D02*
X13369D01*
X13681D02*
X14369D01*
X14681D02*
X15369D01*
X15681D02*
X16369D01*
X16681D02*
X17369D01*
X17681D02*
X21880D01*
X23178D02*
X23460D01*
X4275Y21018D02*
X4600D01*
X5812D02*
X21923D01*
X23135D02*
X23460D01*
X4275Y21066D02*
X4650D01*
X5762D02*
X21973D01*
X23085D02*
X23460D01*
X4275Y21114D02*
X4710D01*
X5702D02*
X22033D01*
X23025D02*
X23460D01*
X4275Y21162D02*
X4783D01*
X5629D02*
X22106D01*
X22952D02*
X23460D01*
X4275Y21210D02*
X4880D01*
X5532D02*
X22203D01*
X22855D02*
X23460D01*
X4279Y21258D02*
X5034D01*
X5379D02*
X22356D01*
X22702D02*
X23456D01*
X4302Y21306D02*
X23433D01*
X4360Y21354D02*
X23375D01*
X4616Y3112D02*
X4630Y2981D01*
X4674Y2856*
X4744Y2744*
X4838Y2651*
X4950Y2580*
X5075Y2537*
X5206Y2522*
X5337Y2537*
X5462Y2580*
X5574Y2651*
X5668Y2744*
X5738Y2856*
X5782Y2981*
X5797Y3112*
X5782Y3244*
X5738Y3369*
X5668Y3481*
X5574Y3574*
X5462Y3644*
X5338Y3688*
X5206Y3703*
X5075Y3688*
X4950Y3644*
X4838Y3574*
X4744Y3481*
X4674Y3369*
X4630Y3244*
X4616Y3112*
Y20435D02*
X4630Y20304D01*
X4674Y20179*
X4744Y20067*
X4838Y19974*
X4950Y19903*
X5075Y19859*
X5206Y19845*
X5337Y19859*
X5462Y19903*
X5574Y19974*
X5668Y20067*
X5738Y20179*
X5782Y20304*
X5797Y20435*
X5782Y20567*
X5738Y20691*
X5668Y20803*
X5574Y20897*
X5462Y20967*
X5338Y21011*
X5206Y21026*
X5075Y21011*
X4950Y20967*
X4838Y20897*
X4744Y20803*
X4674Y20691*
X4630Y20567*
X4616Y20435*
X5147Y8107D02*
X5203Y8163D01*
Y8543*
X5147Y8487*
Y8107*
Y8155D02*
X5195D01*
X5147Y8203D02*
X5203D01*
X5147Y8251D02*
X5203D01*
X5147Y8299D02*
X5203D01*
X5147Y8347D02*
X5203D01*
X5147Y8396D02*
X5203D01*
X5147Y8444D02*
X5203D01*
X5152Y8492D02*
X5203D01*
X5200Y8540D02*
X5203D01*
X5227Y8566D02*
X5847D01*
Y8409*
X5884*
Y8601*
X5825Y8591*
X5251*
X5227Y8566*
X5847Y8422D02*
X5884D01*
X5847Y8470D02*
X5884D01*
X5847Y8518D02*
X5884D01*
X5227Y8566D02*
X5884D01*
X7875Y17624D02*
X7905Y17595D01*
Y17745*
X7991*
Y17849*
X7875Y17964*
Y17624*
X7905*
X7875Y17672D02*
X7905D01*
X7875Y17720D02*
X7905D01*
X7875Y17768D02*
X7991D01*
X7875Y17816D02*
X7991D01*
X7875Y17864D02*
X7975D01*
X7875Y17912D02*
X7927D01*
X7875Y17960D02*
X7879D01*
X8675Y12909D02*
X12775D01*
X12845Y12895*
X12905Y12855*
X13772Y11988*
X13849Y12045*
X13938Y12080*
X14034Y12090*
X14128Y12075*
X14216Y12036*
X14290Y11976*
X14346Y11899*
X14380Y11809*
X22700*
Y12100*
X23460*
Y12250*
X22860*
X22755Y12145*
X22695Y12105*
X22625Y12091*
X16264*
X16215Y12004*
X16144Y11933*
X16057Y11885*
X15960Y11862*
X15860Y11866*
X15765Y11897*
X15682Y11953*
X15617Y12029*
X15576Y12120*
X15560Y12218*
X15572Y12318*
X14899Y12991*
X8740*
X8675Y12909*
X14367Y11852D02*
X22700D01*
X14345Y11900D02*
X15758D01*
X16092D02*
X22700D01*
X14314Y11948D02*
X15687D01*
X16163D02*
X22700D01*
X13764Y11996D02*
X13781D01*
X14269D02*
X15640D01*
X16210D02*
X22700D01*
X13716Y12044D02*
X13849D01*
X14201D02*
X15608D01*
X16242D02*
X22700D01*
X13668Y12093D02*
X15585D01*
X22649D02*
X22700D01*
X13620Y12141D02*
X15570D01*
X22751D02*
X23460D01*
X13572Y12189D02*
X15562D01*
X22799D02*
X23460D01*
X13524Y12237D02*
X15560D01*
X22847D02*
X23460D01*
X13476Y12285D02*
X15565D01*
X13428Y12333D02*
X15557D01*
X13380Y12381D02*
X15509D01*
X13332Y12429D02*
X15461D01*
X13284Y12477D02*
X15413D01*
X13236Y12525D02*
X15365D01*
X13187Y12573D02*
X15317D01*
X13139Y12621D02*
X15269D01*
X13091Y12669D02*
X15221D01*
X13043Y12717D02*
X15173D01*
X12995Y12765D02*
X15125D01*
X12947Y12813D02*
X15077D01*
X12899Y12861D02*
X15029D01*
X8675Y12909D02*
X14981D01*
X8718Y12957D02*
X14933D01*
X10578Y4341D02*
X10699Y4314D01*
X10810Y4258*
X10905Y4178*
X10978Y4078*
X11025Y3963*
X11052Y4038*
X10749Y4341*
X10578*
X11012Y4005D02*
X11038D01*
X10991Y4053D02*
X11037D01*
X10964Y4101D02*
X10989D01*
X10930Y4149D02*
X10941D01*
X10887Y4197D02*
X10893D01*
X10830Y4245D02*
X10845D01*
X10749Y4293D02*
X10797D01*
X10591Y11400D02*
X10676Y11340D01*
X10740Y11259*
X10781*
X10622Y11418*
X10591Y11400*
X10709Y11304D02*
X10736D01*
X10663Y11352D02*
X10688D01*
X10591Y11400D02*
X10640D01*
X10663Y3325D02*
X10776Y3279D01*
X10874Y3209*
X10954Y3117*
X11010Y3009*
X11040*
X11096Y3117*
X11176Y3209*
X11274Y3279*
X11387Y3325*
X11287Y3364*
X11198Y3422*
X11122Y3498*
X11064Y3587*
X11025Y3687*
X10986Y3587*
X10928Y3498*
X10852Y3422*
X10763Y3364*
X10663Y3325*
X10999Y3037D02*
X11051D01*
X10974Y3085D02*
X11076D01*
X10942Y3133D02*
X11108D01*
X10902Y3181D02*
X11148D01*
X10850Y3229D02*
X11200D01*
X10780Y3277D02*
X11270D01*
X10663Y3325D02*
X11387D01*
X10780Y3373D02*
X11271D01*
X10850Y3421D02*
X11200D01*
X10902Y3469D02*
X11148D01*
X10942Y3517D02*
X11108D01*
X10974Y3565D02*
X11076D01*
X10998Y3613D02*
X11052D01*
X11017Y3661D02*
X11033D01*
X10663Y19975D02*
X10763Y19936D01*
X10852Y19878*
X10928Y19802*
X10986Y19713*
X11025Y19613*
X11064Y19713*
X11122Y19802*
X11198Y19878*
X11287Y19936*
X11387Y19975*
X11287Y20014*
X11198Y20072*
X11122Y20148*
X11064Y20237*
X11025Y20337*
X10986Y20237*
X10928Y20148*
X10852Y20072*
X10763Y20014*
X10663Y19975*
X11017Y19639D02*
X11033D01*
X10998Y19687D02*
X11052D01*
X10974Y19735D02*
X11076D01*
X10942Y19783D02*
X11108D01*
X10902Y19831D02*
X11148D01*
X10850Y19879D02*
X11200D01*
X10780Y19927D02*
X11271D01*
X10663Y19975D02*
X11387D01*
X10780Y20023D02*
X11271D01*
X10850Y20071D02*
X11200D01*
X10902Y20119D02*
X11148D01*
X10942Y20167D02*
X11108D01*
X10974Y20215D02*
X11076D01*
X10998Y20263D02*
X11052D01*
X11017Y20311D02*
X11033D01*
X10753Y19009D02*
X10799D01*
X11052Y19262*
X11025Y19337*
X10985Y19235*
X10924Y19144*
X10846Y19067*
X10753Y19009*
X10799*
X10832Y19057D02*
X10847D01*
X10889Y19105D02*
X10895D01*
X10932Y19153D02*
X10943D01*
X10966Y19201D02*
X10991D01*
X10992Y19249D02*
X11039D01*
X11012Y19297D02*
X11038D01*
X11663Y3325D02*
X11776Y3279D01*
X11874Y3209*
X11954Y3117*
X12010Y3009*
X12040*
X12096Y3117*
X12176Y3209*
X12274Y3279*
X12387Y3325*
X12287Y3364*
X12198Y3422*
X12122Y3498*
X12064Y3587*
X12025Y3687*
X11986Y3587*
X11928Y3498*
X11852Y3422*
X11763Y3364*
X11663Y3325*
X11999Y3037D02*
X12051D01*
X11974Y3085D02*
X12076D01*
X11942Y3133D02*
X12108D01*
X11902Y3181D02*
X12148D01*
X11850Y3229D02*
X12200D01*
X11780Y3277D02*
X12270D01*
X11663Y3325D02*
X12387D01*
X11780Y3373D02*
X12271D01*
X11850Y3421D02*
X12200D01*
X11902Y3469D02*
X12148D01*
X11942Y3517D02*
X12108D01*
X11974Y3565D02*
X12076D01*
X11998Y3613D02*
X12052D01*
X12017Y3661D02*
X12033D01*
X11663Y19975D02*
X11763Y19936D01*
X11852Y19878*
X11928Y19802*
X11986Y19713*
X12025Y19613*
X12064Y19713*
X12122Y19802*
X12198Y19878*
X12287Y19936*
X12387Y19975*
X12287Y20014*
X12198Y20072*
X12122Y20148*
X12064Y20237*
X12025Y20337*
X11986Y20237*
X11928Y20148*
X11852Y20072*
X11763Y20014*
X11663Y19975*
X12017Y19639D02*
X12033D01*
X11998Y19687D02*
X12052D01*
X11974Y19735D02*
X12076D01*
X11942Y19783D02*
X12108D01*
X11902Y19831D02*
X12148D01*
X11850Y19879D02*
X12200D01*
X11780Y19927D02*
X12271D01*
X11663Y19975D02*
X12387D01*
X11780Y20023D02*
X12271D01*
X11850Y20071D02*
X12200D01*
X11902Y20119D02*
X12148D01*
X11942Y20167D02*
X12108D01*
X11974Y20215D02*
X12076D01*
X11998Y20263D02*
X12052D01*
X12017Y20311D02*
X12033D01*
X11835Y19059D02*
X11849D01*
X12052Y19262*
X12025Y19337*
X11983Y19231*
X11918Y19137*
X11835Y19059*
X11849*
X11891Y19107D02*
X11897D01*
X11933Y19155D02*
X11945D01*
X11967Y19203D02*
X11993D01*
X11993Y19251D02*
X12041D01*
X12013Y19299D02*
X12037D01*
X12663Y3325D02*
X12776Y3279D01*
X12874Y3209*
X12954Y3117*
X13010Y3009*
X13040*
X13096Y3117*
X13176Y3209*
X13274Y3279*
X13387Y3325*
X13287Y3364*
X13198Y3422*
X13122Y3498*
X13064Y3587*
X13025Y3687*
X12986Y3587*
X12928Y3498*
X12852Y3422*
X12763Y3364*
X12663Y3325*
X12999Y3037D02*
X13051D01*
X12974Y3085D02*
X13076D01*
X12942Y3133D02*
X13108D01*
X12902Y3181D02*
X13148D01*
X12850Y3229D02*
X13200D01*
X12780Y3277D02*
X13270D01*
X12663Y3325D02*
X13387D01*
X12780Y3373D02*
X13271D01*
X12850Y3421D02*
X13200D01*
X12902Y3469D02*
X13148D01*
X12942Y3517D02*
X13108D01*
X12974Y3565D02*
X13076D01*
X12998Y3613D02*
X13052D01*
X13017Y3661D02*
X13033D01*
X12663Y19975D02*
X12763Y19936D01*
X12852Y19878*
X12928Y19802*
X12986Y19713*
X13025Y19613*
X13064Y19713*
X13122Y19802*
X13198Y19878*
X13287Y19936*
X13387Y19975*
X13287Y20014*
X13198Y20072*
X13122Y20148*
X13064Y20237*
X13025Y20337*
X12986Y20237*
X12928Y20148*
X12852Y20072*
X12763Y20014*
X12663Y19975*
X13017Y19639D02*
X13033D01*
X12998Y19687D02*
X13052D01*
X12974Y19735D02*
X13076D01*
X12942Y19783D02*
X13108D01*
X12902Y19831D02*
X13148D01*
X12850Y19879D02*
X13200D01*
X12780Y19927D02*
X13271D01*
X12663Y19975D02*
X13387D01*
X12780Y20023D02*
X13271D01*
X12850Y20071D02*
X13200D01*
X12902Y20119D02*
X13148D01*
X12942Y20167D02*
X13108D01*
X12974Y20215D02*
X13076D01*
X12998Y20263D02*
X13052D01*
X13017Y20311D02*
X13033D01*
X12817Y12193D02*
X13601Y11409D01*
X13842*
X13761Y11473*
X13701Y11556*
X13645Y11595*
X12829Y12411*
X12840Y12338*
X12836Y12265*
X12817Y12193*
X13585Y11425D02*
X13817D01*
X13537Y11473D02*
X13761D01*
X13489Y11521D02*
X13722D01*
X13441Y11569D02*
X13677D01*
X13393Y11617D02*
X13623D01*
X13345Y11665D02*
X13575D01*
X13297Y11713D02*
X13527D01*
X13249Y11761D02*
X13479D01*
X13201Y11809D02*
X13431D01*
X13153Y11857D02*
X13383D01*
X13105Y11905D02*
X13334D01*
X13057Y11953D02*
X13286D01*
X13009Y12001D02*
X13238D01*
X12961Y12049D02*
X13190D01*
X12913Y12097D02*
X13142D01*
X12865Y12145D02*
X13094D01*
X12817Y12193D02*
X13046D01*
X12831Y12241D02*
X12998D01*
X12839Y12289D02*
X12950D01*
X12840Y12337D02*
X12902D01*
X12834Y12386D02*
X12854D01*
X13216Y14077D02*
X13239Y14099D01*
X13216Y14130*
Y14077*
Y14125D02*
X13220D01*
X13419Y10491D02*
X13755Y10155D01*
X13763Y10147*
X14416*
Y10009*
X14434*
Y10147*
X15116*
Y9670*
X15179Y9745*
X15260Y9801*
X15353Y9833*
X15451Y9839*
X14799Y10491*
X13419*
X15116Y9674D02*
X15119D01*
X15116Y9722D02*
X15157D01*
X15116Y9770D02*
X15211D01*
X15116Y9819D02*
X15302D01*
X15116Y9867D02*
X15423D01*
X15116Y9915D02*
X15375D01*
X15116Y9963D02*
X15327D01*
X14416Y10011D02*
X14434D01*
X15116D02*
X15279D01*
X14416Y10059D02*
X14434D01*
X15116D02*
X15231D01*
X14416Y10107D02*
X14434D01*
X15116D02*
X15183D01*
X13756Y10155D02*
X15135D01*
X13708Y10203D02*
X15087D01*
X13660Y10251D02*
X15039D01*
X13611Y10299D02*
X14991D01*
X13563Y10347D02*
X14943D01*
X13515Y10395D02*
X14895D01*
X13467Y10443D02*
X14847D01*
X13663Y3325D02*
X13776Y3279D01*
X13874Y3209*
X13954Y3117*
X14010Y3009*
X14040*
X14096Y3117*
X14176Y3209*
X14274Y3279*
X14387Y3325*
X14287Y3364*
X14198Y3422*
X14122Y3498*
X14064Y3587*
X14025Y3687*
X13986Y3587*
X13928Y3498*
X13852Y3422*
X13763Y3364*
X13663Y3325*
X13999Y3037D02*
X14051D01*
X13974Y3085D02*
X14076D01*
X13942Y3133D02*
X14108D01*
X13902Y3181D02*
X14148D01*
X13850Y3229D02*
X14200D01*
X13780Y3277D02*
X14270D01*
X13663Y3325D02*
X14387D01*
X13780Y3373D02*
X14271D01*
X13850Y3421D02*
X14200D01*
X13902Y3469D02*
X14148D01*
X13942Y3517D02*
X14108D01*
X13974Y3565D02*
X14076D01*
X13998Y3613D02*
X14052D01*
X14017Y3661D02*
X14033D01*
X13663Y19975D02*
X13763Y19936D01*
X13852Y19878*
X13928Y19802*
X13986Y19713*
X14025Y19613*
X14064Y19713*
X14122Y19802*
X14198Y19878*
X14287Y19936*
X14387Y19975*
X14287Y20014*
X14198Y20072*
X14122Y20148*
X14064Y20237*
X14025Y20337*
X13986Y20237*
X13928Y20148*
X13852Y20072*
X13763Y20014*
X13663Y19975*
X14017Y19639D02*
X14033D01*
X13998Y19687D02*
X14052D01*
X13974Y19735D02*
X14076D01*
X13942Y19783D02*
X14108D01*
X13902Y19831D02*
X14148D01*
X13850Y19879D02*
X14200D01*
X13780Y19927D02*
X14271D01*
X13663Y19975D02*
X14387D01*
X13780Y20023D02*
X14271D01*
X13850Y20071D02*
X14200D01*
X13902Y20119D02*
X14148D01*
X13942Y20167D02*
X14108D01*
X13974Y20215D02*
X14076D01*
X13998Y20263D02*
X14052D01*
X14017Y20311D02*
X14033D01*
X13957Y9503D02*
X14013Y9447D01*
X14193*
X14137Y9503*
X13957*
X14005Y9455D02*
X14185D01*
X14208Y11409D02*
X18925D01*
X18995Y11395*
X19055Y11355*
X20434Y9977*
Y10397*
X20737*
X20667Y10462*
X20614Y10541*
X20581Y10630*
X20570Y10725*
X20584Y10832*
X20626Y10931*
X20693Y11016*
X20780Y11080*
X20880Y11119*
X20988Y11130*
X21094Y11112*
X21192Y11067*
X21274Y10998*
X21336Y10909*
X22225*
X22293Y10896*
X22351Y10859*
X22700*
Y11100*
X23460*
Y11250*
X22700*
Y11441*
X14254*
X14208Y11409*
X20394Y10016D02*
X20434D01*
X20346Y10064D02*
X20434D01*
X20298Y10112D02*
X20434D01*
X20250Y10160D02*
X20434D01*
X20202Y10208D02*
X20434D01*
X20154Y10256D02*
X20434D01*
X20106Y10304D02*
X20434D01*
X20058Y10352D02*
X20434D01*
X20010Y10400D02*
X20733D01*
X19962Y10448D02*
X20679D01*
X19914Y10496D02*
X20641D01*
X19866Y10544D02*
X20612D01*
X19818Y10593D02*
X20592D01*
X19770Y10641D02*
X20579D01*
X19722Y10689D02*
X20572D01*
X19674Y10737D02*
X20570D01*
X19626Y10785D02*
X20574D01*
X19578Y10833D02*
X20585D01*
X19530Y10881D02*
X20601D01*
X22323D02*
X22700D01*
X19482Y10929D02*
X20625D01*
X21325D02*
X22700D01*
X19434Y10977D02*
X20658D01*
X21292D02*
X22700D01*
X19386Y11025D02*
X20703D01*
X21247D02*
X22700D01*
X19337Y11073D02*
X20768D01*
X21182D02*
X22700D01*
X19289Y11121D02*
X20889D01*
X21061D02*
X23460D01*
X19241Y11169D02*
X23460D01*
X19193Y11217D02*
X23460D01*
X19145Y11265D02*
X22700D01*
X19097Y11313D02*
X22700D01*
X19049Y11361D02*
X22700D01*
X14208Y11409D02*
X22700D01*
X14607Y9503D02*
X14609Y9475D01*
Y9447*
X15061*
X15060Y9475*
X15061Y9503*
X14607*
X14609Y9455D02*
X15061D01*
X14663Y3325D02*
X14776Y3279D01*
X14874Y3209*
X14954Y3117*
X15010Y3009*
X15040*
X15096Y3117*
X15176Y3209*
X15274Y3279*
X15387Y3325*
X15287Y3364*
X15198Y3422*
X15122Y3498*
X15064Y3587*
X15025Y3687*
X14986Y3587*
X14928Y3498*
X14852Y3422*
X14763Y3364*
X14663Y3325*
X14999Y3037D02*
X15051D01*
X14974Y3085D02*
X15076D01*
X14942Y3133D02*
X15108D01*
X14902Y3181D02*
X15148D01*
X14850Y3229D02*
X15200D01*
X14780Y3277D02*
X15270D01*
X14663Y3325D02*
X15387D01*
X14780Y3373D02*
X15271D01*
X14850Y3421D02*
X15200D01*
X14902Y3469D02*
X15148D01*
X14942Y3517D02*
X15108D01*
X14974Y3565D02*
X15076D01*
X14998Y3613D02*
X15052D01*
X15017Y3661D02*
X15033D01*
X14663Y19975D02*
X14763Y19936D01*
X14852Y19878*
X14928Y19802*
X14986Y19713*
X15025Y19613*
X15064Y19713*
X15122Y19802*
X15198Y19878*
X15287Y19936*
X15387Y19975*
X15287Y20014*
X15198Y20072*
X15122Y20148*
X15064Y20237*
X15025Y20337*
X14986Y20237*
X14928Y20148*
X14852Y20072*
X14763Y20014*
X14663Y19975*
X15017Y19639D02*
X15033D01*
X14998Y19687D02*
X15052D01*
X14974Y19735D02*
X15076D01*
X14942Y19783D02*
X15108D01*
X14902Y19831D02*
X15148D01*
X14850Y19879D02*
X15200D01*
X14780Y19927D02*
X15271D01*
X14663Y19975D02*
X15387D01*
X14780Y20023D02*
X15271D01*
X14850Y20071D02*
X15200D01*
X14902Y20119D02*
X15148D01*
X14942Y20167D02*
X15108D01*
X14974Y20215D02*
X15076D01*
X14998Y20263D02*
X15052D01*
X15017Y20311D02*
X15033D01*
X14709Y4310D02*
X14817Y4254D01*
X14909Y4174*
X14979Y4076*
X15025Y3963*
X15071Y4076*
X15142Y4174*
X15233Y4254*
X15341Y4310*
X15459Y4339*
X15580Y4341*
X16449Y5209*
X16352Y5177*
X16251Y5171*
X16151Y5190*
X16059Y5233*
X15980Y5297*
X15920Y5379*
X15883Y5474*
X15870Y5575*
X15871Y5603*
X15759*
Y5525*
X15745Y5455*
X15705Y5395*
X14709Y4399*
Y4310*
X15022Y3974D02*
X15028D01*
X15005Y4022D02*
X15045D01*
X14982Y4070D02*
X15068D01*
X14953Y4118D02*
X15097D01*
X14916Y4166D02*
X15134D01*
X14868Y4214D02*
X15182D01*
X14805Y4262D02*
X15245D01*
X14709Y4310D02*
X15341D01*
X14709Y4358D02*
X15598D01*
X14716Y4406D02*
X15646D01*
X14764Y4454D02*
X15694D01*
X14812Y4502D02*
X15742D01*
X14860Y4550D02*
X15790D01*
X14908Y4598D02*
X15838D01*
X14956Y4646D02*
X15886D01*
X15004Y4694D02*
X15934D01*
X15053Y4742D02*
X15982D01*
X15101Y4790D02*
X16030D01*
X15149Y4838D02*
X16078D01*
X15197Y4886D02*
X16126D01*
X15245Y4934D02*
X16174D01*
X15293Y4982D02*
X16222D01*
X15341Y5030D02*
X16270D01*
X15389Y5078D02*
X16318D01*
X15437Y5126D02*
X16366D01*
X15485Y5175D02*
X16215D01*
X16335D02*
X16414D01*
X15533Y5223D02*
X16076D01*
X15581Y5271D02*
X16008D01*
X15629Y5319D02*
X15961D01*
X15677Y5367D02*
X15928D01*
X15722Y5415D02*
X15903D01*
X15748Y5463D02*
X15886D01*
X15759Y5511D02*
X15875D01*
X15759Y5559D02*
X15870D01*
X15663Y3325D02*
X15759Y3288D01*
X15845Y3233*
X15919Y3162*
X15978Y3078*
X16019Y2983*
X16029Y2977*
X16069Y3073*
X16128Y3159*
X16202Y3231*
X16290Y3287*
X16387Y3325*
X16287Y3364*
X16198Y3422*
X16122Y3498*
X16064Y3587*
X16025Y3687*
X15986Y3587*
X15928Y3498*
X15852Y3422*
X15763Y3364*
X15663Y3325*
X16017Y2989D02*
X16033D01*
X15999Y3037D02*
X16052D01*
X15974Y3085D02*
X16076D01*
X15942Y3133D02*
X16108D01*
X15902Y3181D02*
X16148D01*
X15850Y3229D02*
X16200D01*
X15780Y3277D02*
X16271D01*
X15663Y3325D02*
X16387D01*
X15780Y3373D02*
X16271D01*
X15850Y3421D02*
X16200D01*
X15902Y3469D02*
X16148D01*
X15942Y3517D02*
X16108D01*
X15974Y3565D02*
X16076D01*
X15998Y3613D02*
X16052D01*
X16017Y3661D02*
X16033D01*
X15663Y19975D02*
X15763Y19936D01*
X15852Y19878*
X15928Y19802*
X15986Y19713*
X16025Y19613*
X16064Y19713*
X16122Y19802*
X16198Y19878*
X16287Y19936*
X16387Y19975*
X16287Y20014*
X16198Y20072*
X16122Y20148*
X16064Y20237*
X16025Y20337*
X15986Y20237*
X15928Y20148*
X15852Y20072*
X15763Y20014*
X15663Y19975*
X16017Y19639D02*
X16033D01*
X15998Y19687D02*
X16052D01*
X15974Y19735D02*
X16076D01*
X15942Y19783D02*
X16108D01*
X15902Y19831D02*
X16148D01*
X15850Y19879D02*
X16200D01*
X15780Y19927D02*
X16271D01*
X15663Y19975D02*
X16387D01*
X15780Y20023D02*
X16271D01*
X15850Y20071D02*
X16200D01*
X15902Y20119D02*
X16148D01*
X15942Y20167D02*
X16108D01*
X15974Y20215D02*
X16076D01*
X15998Y20263D02*
X16052D01*
X16017Y20311D02*
X16033D01*
X16357Y9453D02*
X16413Y9397D01*
X16643*
X16587Y9453*
X16357*
X16405Y9405D02*
X16635D01*
X16663Y3325D02*
X16763Y3286D01*
X16852Y3228*
X16928Y3152*
X16986Y3063*
X17025Y2963*
X17064Y3063*
X17122Y3152*
X17198Y3228*
X17287Y3286*
X17387Y3325*
X17287Y3364*
X17198Y3422*
X17122Y3498*
X17064Y3587*
X17025Y3687*
X16986Y3587*
X16928Y3498*
X16852Y3422*
X16763Y3364*
X16663Y3325*
X17017Y2989D02*
X17033D01*
X16998Y3037D02*
X17052D01*
X16974Y3085D02*
X17076D01*
X16942Y3133D02*
X17108D01*
X16902Y3181D02*
X17148D01*
X16850Y3229D02*
X17200D01*
X16780Y3277D02*
X17271D01*
X16663Y3325D02*
X17387D01*
X16780Y3373D02*
X17271D01*
X16850Y3421D02*
X17200D01*
X16902Y3469D02*
X17148D01*
X16942Y3517D02*
X17108D01*
X16974Y3565D02*
X17076D01*
X16998Y3613D02*
X17052D01*
X17017Y3661D02*
X17033D01*
X16663Y19975D02*
X16763Y19936D01*
X16852Y19878*
X16928Y19802*
X16986Y19713*
X17025Y19613*
X17064Y19713*
X17122Y19802*
X17198Y19878*
X17287Y19936*
X17387Y19975*
X17287Y20014*
X17198Y20072*
X17122Y20148*
X17064Y20237*
X17025Y20337*
X16986Y20237*
X16928Y20148*
X16852Y20072*
X16763Y20014*
X16663Y19975*
X17017Y19639D02*
X17033D01*
X16998Y19687D02*
X17052D01*
X16974Y19735D02*
X17076D01*
X16942Y19783D02*
X17108D01*
X16902Y19831D02*
X17148D01*
X16850Y19879D02*
X17200D01*
X16780Y19927D02*
X17271D01*
X16663Y19975D02*
X17387D01*
X16780Y20023D02*
X17271D01*
X16850Y20071D02*
X17200D01*
X16902Y20119D02*
X17148D01*
X16942Y20167D02*
X17108D01*
X16974Y20215D02*
X17076D01*
X16998Y20263D02*
X17052D01*
X17017Y20311D02*
X17033D01*
X17255Y11041D02*
X17305Y11005D01*
X18584Y9727*
Y10147*
X19266*
Y10009*
X19284*
Y10147*
X19743*
X18849Y11041*
X17255*
X18566Y9744D02*
X18584D01*
X18518Y9792D02*
X18584D01*
X18470Y9840D02*
X18584D01*
X18422Y9888D02*
X18584D01*
X18374Y9936D02*
X18584D01*
X18326Y9984D02*
X18584D01*
X18278Y10032D02*
X18584D01*
X19266D02*
X19284D01*
X18230Y10080D02*
X18584D01*
X19266D02*
X19284D01*
X18182Y10128D02*
X18584D01*
X19266D02*
X19284D01*
X18134Y10176D02*
X19713D01*
X18086Y10224D02*
X19665D01*
X18038Y10272D02*
X19617D01*
X17990Y10320D02*
X19569D01*
X17942Y10369D02*
X19521D01*
X17894Y10417D02*
X19473D01*
X17846Y10465D02*
X19425D01*
X17798Y10513D02*
X19377D01*
X17750Y10561D02*
X19329D01*
X17702Y10609D02*
X19281D01*
X17654Y10657D02*
X19233D01*
X17606Y10705D02*
X19185D01*
X17558Y10753D02*
X19137D01*
X17510Y10801D02*
X19089D01*
X17461Y10849D02*
X19041D01*
X17413Y10897D02*
X18993D01*
X17365Y10945D02*
X18945D01*
X17317Y10993D02*
X18897D01*
X18807Y9503D02*
X18863Y9447D01*
X19043*
X18987Y9503*
X18807*
X18855Y9455D02*
X19035D01*
X20657Y9753D02*
X20713Y9697D01*
X20893*
X20837Y9753*
X20657*
X20705Y9705D02*
X20885D01*
X21219Y9891D02*
X21334Y9777D01*
Y9891*
X21219*
X21315Y9795D02*
X21334D01*
X21267Y9843D02*
X21334D01*
X21938Y3112D02*
X21953Y2981D01*
X21997Y2856*
X22067Y2744*
X22161Y2651*
X22273Y2580*
X22397Y2537*
X22529Y2522*
X22660Y2537*
X22785Y2580*
X22897Y2651*
X22991Y2744*
X23061Y2856*
X23105Y2981*
X23119Y3112*
X23105Y3244*
X23061Y3369*
X22991Y3481*
X22897Y3574*
X22785Y3644*
X22660Y3688*
X22529Y3703*
X22398Y3688*
X22273Y3644*
X22161Y3574*
X22067Y3481*
X21997Y3369*
X21953Y3244*
X21938Y3112*
Y20435D02*
X21953Y20304D01*
X21997Y20179*
X22067Y20067*
X22161Y19974*
X22273Y19903*
X22397Y19859*
X22529Y19845*
X22660Y19859*
X22785Y19903*
X22897Y19974*
X22991Y20067*
X23061Y20179*
X23105Y20304*
X23119Y20435*
X23105Y20567*
X23061Y20691*
X22991Y20803*
X22897Y20897*
X22785Y20967*
X22660Y21011*
X22529Y21026*
X22398Y21011*
X22273Y20967*
X22161Y20897*
X22067Y20803*
X21997Y20691*
X21953Y20567*
X21938Y20435*
X21999Y12459D02*
X22549D01*
X22700Y12610*
Y12990*
X22405Y12695*
X22345Y12655*
X22275Y12641*
X22186*
X22137Y12567*
X22074Y12505*
X21999Y12459*
X22549*
X22076Y12507D02*
X22597D01*
X22127Y12555D02*
X22645D01*
X22164Y12603D02*
X22693D01*
X22336Y12651D02*
X22700D01*
X22410Y12699D02*
X22700D01*
X22458Y12747D02*
X22700D01*
X22506Y12795D02*
X22700D01*
X22554Y12843D02*
X22700D01*
X22602Y12891D02*
X22700D01*
X22650Y12939D02*
X22700D01*
X22698Y12987D02*
X22700D01*
X22810Y13100D02*
X23460D01*
Y13250*
X22960*
X22810Y13100*
X23460*
X22858Y13148D02*
X23460D01*
X22906Y13196D02*
X23460D01*
X22954Y13244D02*
X23460D01*
D02*
D14*
X4590Y4951D02*
X4390D01*
X4625Y9425D02*
Y9225D01*
Y9925D02*
Y10125D01*
X4800Y4806D02*
Y4606D01*
Y5096D02*
Y5296D01*
X4875Y9675D02*
X5075D01*
X5010Y4951D02*
X5210D01*
X5025Y17856D02*
Y17656D01*
Y18146D02*
Y18346D01*
X5235Y18001D02*
X5435D01*
X5403Y7075D02*
X5203D01*
X5550Y6909D02*
Y6709D01*
Y7241D02*
Y7441D01*
X5697Y7075D02*
X5897D01*
X5728Y16725D02*
X5528D01*
X5875Y16559D02*
Y16359D01*
Y16891D02*
Y17091D01*
X5913Y15013D02*
X5728Y14828D01*
X5913Y15337D02*
X5728Y15522D01*
X6022Y16725D02*
X6222D01*
X6059Y7725D02*
X5859D01*
X6225Y7578D02*
Y7378D01*
Y7872D02*
Y8072D01*
X6237Y15013D02*
X6422Y14828D01*
X6237Y15337D02*
X6422Y15522D01*
X6391Y7725D02*
X6591D01*
X6965Y6401D02*
X6765D01*
X7175Y6256D02*
Y6056D01*
Y6546D02*
Y6746D01*
X7280Y17051D02*
X7080D01*
X7385Y6401D02*
X7585D01*
X7490Y16906D02*
Y16706D01*
Y17196D02*
Y17396D01*
X7525Y3825D02*
X7325D01*
X7703Y8175D02*
X7503D01*
X7775Y3575D02*
Y3375D01*
X7825Y8928D02*
Y8728D01*
Y9222D02*
Y9422D01*
X7850Y8009D02*
Y7809D01*
Y8341D02*
Y8541D01*
X7991Y9075D02*
X8191D01*
X7997Y8175D02*
X8197D01*
X8025Y3825D02*
X8225D01*
X8043Y15925D02*
X7843D01*
X8045Y5225D02*
X7845D01*
X8190Y15759D02*
Y15559D01*
Y16091D02*
Y16291D01*
X8240Y14078D02*
Y13878D01*
Y14372D02*
Y14572D01*
X8275Y4995D02*
Y4795D01*
Y5455D02*
Y5655D01*
X8337Y15925D02*
X8537D01*
X8406Y14225D02*
X8606D01*
X8420Y11200D02*
X8220D01*
X8650Y10970D02*
Y10770D01*
Y11430D02*
Y11630D01*
X8880Y11200D02*
X9080D01*
X8915Y17051D02*
X8715D01*
X9125Y16906D02*
Y16706D01*
Y17196D02*
Y17396D01*
X9425Y6156D02*
Y5956D01*
Y6446D02*
Y6646D01*
X9635Y6301D02*
X9835D01*
X9945Y5775D02*
X9745D01*
X10003Y8175D02*
X9803D01*
X10125Y8928D02*
Y8728D01*
Y9222D02*
Y9422D01*
X10150Y8009D02*
Y7809D01*
Y8341D02*
Y8541D01*
X10175Y5545D02*
Y5345D01*
Y6005D02*
Y6205D01*
X10291Y9075D02*
X10491D01*
X10405Y5775D02*
X10605D01*
X10428Y15975D02*
X10228D01*
X10463Y14163D02*
X10278Y13978D01*
X10463Y14487D02*
X10278Y14672D01*
X10575Y15809D02*
Y15609D01*
Y16141D02*
Y16341D01*
X10662Y8112D02*
X10521Y7971D01*
X10662Y8438D02*
X10521Y8579D01*
X10722Y15975D02*
X10922D01*
X10787Y14163D02*
X10972Y13978D01*
X10787Y14487D02*
X10972Y14672D01*
X10988Y8112D02*
X11129Y7971D01*
X10988Y8438D02*
X11129Y8579D01*
X11315Y17001D02*
X11115D01*
X11525Y16856D02*
Y16656D01*
Y17146D02*
Y17346D01*
X11565Y6351D02*
X11365D01*
X11775Y6206D02*
Y6006D01*
Y6496D02*
Y6696D01*
X11985Y6351D02*
X12185D01*
X12195Y5575D02*
X11995D01*
X12303Y8175D02*
X12103D01*
X12425Y5345D02*
Y5145D01*
Y5805D02*
Y6005D01*
Y8928D02*
Y8728D01*
Y9222D02*
Y9422D01*
X12450Y8341D02*
Y8541D01*
X12655Y5575D02*
X12855D01*
X12713Y14437D02*
X12528Y14622D01*
X12828Y16025D02*
X12628D01*
X12975Y15859D02*
Y15659D01*
Y16191D02*
Y16391D01*
X13037Y14437D02*
X13222Y14622D01*
X13122Y16025D02*
X13322D01*
X13715Y17001D02*
X13515D01*
X13815Y6351D02*
X13615D01*
X13845Y5575D02*
X13645D01*
X13925Y16856D02*
Y16656D01*
Y17146D02*
Y17346D01*
X14025Y6206D02*
Y6006D01*
Y6496D02*
Y6696D01*
X14075Y5345D02*
Y5145D01*
Y5805D02*
Y6005D01*
X14235Y6351D02*
X14435D01*
X14305Y5575D02*
X14505D01*
X14603Y8175D02*
X14403D01*
X14750Y8009D02*
Y7809D01*
Y8341D02*
Y8541D01*
X14775Y8978D02*
Y8778D01*
Y9272D02*
Y9472D01*
X14897Y8175D02*
X15097D01*
X14941Y9125D02*
X15141D01*
X15291Y9341D02*
X15149Y9199D01*
X15291Y9609D02*
X15149Y9751D01*
X15328Y15925D02*
X15128D01*
X15409Y14225D02*
X15209D01*
X15475Y15759D02*
Y15559D01*
Y16091D02*
Y16291D01*
X15559Y9341D02*
X15701Y9199D01*
X15575Y14078D02*
Y13878D01*
Y14372D02*
Y14572D01*
X15622Y15925D02*
X15822D01*
X15741Y14225D02*
X15941D01*
X16045Y5575D02*
X15845D01*
X16225Y16856D02*
Y16656D01*
Y17146D02*
Y17346D01*
X16235Y12725D02*
X16035D01*
X16240Y6301D02*
X16040D01*
X16275Y5345D02*
Y5145D01*
X16425Y12915D02*
Y13115D01*
X16450Y6446D02*
Y6646D01*
X16505Y5575D02*
X16705D01*
X16615Y12725D02*
X16815D01*
X16660Y6301D02*
X16860D01*
X17053Y8175D02*
X16853D01*
X17200Y8009D02*
Y7809D01*
Y8341D02*
Y8541D01*
X17225Y8928D02*
Y8728D01*
Y9222D02*
Y9422D01*
X17347Y8175D02*
X17547D01*
X17763Y14063D02*
X17578Y13878D01*
X17763Y14387D02*
X17578Y14572D01*
X17875Y8895D02*
Y8695D01*
Y9355D02*
Y9555D01*
X18087Y14063D02*
X18272Y13878D01*
X18087Y14387D02*
X18272Y14572D01*
X18105Y9125D02*
X18305D01*
X18228Y16025D02*
X18028D01*
X18365Y17051D02*
X18165D01*
X18375Y15859D02*
Y15659D01*
Y16191D02*
Y16391D01*
X18522Y16025D02*
X18722D01*
X18575Y16906D02*
Y16706D01*
Y17196D02*
Y17396D01*
X18745Y5525D02*
X18545D01*
X18765Y6401D02*
X18565D01*
X18975Y5755D02*
Y5955D01*
X18975Y6256D02*
Y6056D01*
Y6546D02*
Y6746D01*
X19185Y6401D02*
X19385D01*
X19205Y5525D02*
X19405D01*
X19503Y8175D02*
X19303D01*
X19625Y8978D02*
Y8778D01*
Y9272D02*
Y9472D01*
X19650Y8009D02*
Y7809D01*
Y8341D02*
Y8541D01*
X19791Y9125D02*
X19991D01*
X19797Y8175D02*
X19997D01*
X20228Y16025D02*
X20028D01*
X20325Y3775D02*
X20125D01*
X20325Y14178D02*
Y13978D01*
Y14472D02*
Y14672D01*
X20375Y15859D02*
Y15659D01*
Y16191D02*
Y16391D01*
X20491Y14325D02*
X20691D01*
X20522Y16025D02*
X20722D01*
X20525Y19525D02*
X20325D01*
X20525Y20525D02*
X20325D01*
X20575Y3525D02*
Y3325D01*
Y4025D02*
Y4225D01*
X20715Y17001D02*
X20515D01*
X20775Y19275D02*
Y19075D01*
Y19775D02*
Y19975D01*
Y20275D02*
Y20075D01*
Y20775D02*
Y20975D01*
X20825Y3775D02*
X21025D01*
X20925Y16856D02*
Y16656D01*
Y17146D02*
Y17346D01*
X21025Y19525D02*
X21225D01*
X21025Y20525D02*
X21225D01*
X21140Y6651D02*
X20940D01*
X21162Y5662D02*
X21021Y5521D01*
X21162Y5988D02*
X21021Y6129D01*
X21350Y6506D02*
Y6306D01*
Y6796D02*
Y6996D01*
X21488Y5662D02*
X21629Y5521D01*
X21488Y5988D02*
X21629Y6129D01*
X21560Y6651D02*
X21760D01*
X21675Y9228D02*
Y9028D01*
Y9522D02*
Y9722D01*
X21841Y9375D02*
X22041D01*
X21953Y8375D02*
X21753D01*
X21963Y14163D02*
X21778Y13978D01*
X21963Y14487D02*
X21778Y14672D01*
X22100Y8209D02*
Y8009D01*
Y8541D02*
Y8741D01*
X22247Y8375D02*
X22447D01*
X22287Y14163D02*
X22472Y13978D01*
X22287Y14487D02*
X22472Y14672D01*
X22462Y16462D02*
X22321Y16321D01*
X22462Y16788D02*
X22321Y16929D01*
X22563Y15763D02*
X22378Y15578D01*
X22563Y16087D02*
X22378Y16272D01*
X22788Y16462D02*
X22929Y16321D01*
X22788Y16788D02*
X22929Y16929D01*
X22875Y9675D02*
X22675D01*
X22887Y15763D02*
X23072Y15578D01*
X22887Y16087D02*
X23072Y16272D01*
X23125Y9425D02*
Y9225D01*
Y9925D02*
Y10125D01*
D02*
D15*
X10525Y2825D03*
Y3825D03*
Y19475D03*
Y20475D03*
X11525Y2825D03*
Y3825D03*
Y19475D03*
Y20475D03*
X12525Y2825D03*
Y3825D03*
Y19475D03*
Y20475D03*
X13525Y2825D03*
Y3825D03*
Y19475D03*
Y20475D03*
X14525Y2825D03*
Y3825D03*
Y19475D03*
Y20475D03*
X15525Y2825D03*
Y3825D03*
Y19475D03*
Y20475D03*
X16525Y2825D03*
Y3825D03*
Y19475D03*
Y20475D03*
X17525Y2825D03*
Y3825D03*
Y19475D03*
Y20475D03*
D02*
D71*
X5375Y15175D03*
Y15875D03*
X6075Y15175D03*
Y15875D03*
X6225Y7725D03*
Y8425D03*
X6375Y5725D03*
Y6425D03*
X6575Y17975D03*
Y18675D03*
X7125Y9075D03*
Y9775D03*
X7525Y14225D03*
Y14925D03*
X7825Y9075D03*
Y9775D03*
X8240Y14225D03*
Y14925D03*
X8725Y5975D03*
Y6675D03*
X9475Y9075D03*
Y9775D03*
X9925Y14325D03*
Y15025D03*
X10125Y9075D03*
Y9775D03*
X10625Y14325D03*
Y15025D03*
Y17325D03*
Y18025D03*
X10975Y6075D03*
Y6775D03*
X11725Y9075D03*
Y9775D03*
X12175Y14275D03*
Y14975D03*
X12425Y9075D03*
Y9775D03*
X12875Y14275D03*
Y14975D03*
X13025Y17325D03*
Y18025D03*
X13225Y5975D03*
Y6675D03*
X14075Y9125D03*
Y9825D03*
X14775Y9125D03*
Y9825D03*
X14825Y14225D03*
Y14925D03*
X15475Y17325D03*
Y18025D03*
X15575Y5925D03*
Y6625D03*
Y14225D03*
Y14925D03*
X16525Y9075D03*
Y9775D03*
X17225Y9075D03*
Y9775D03*
Y14225D03*
Y14925D03*
X17775Y17375D03*
Y18075D03*
X17925Y14225D03*
Y14925D03*
X18075Y6025D03*
Y6725D03*
X18925Y9125D03*
Y9825D03*
X19625Y9125D03*
Y9825D03*
Y14325D03*
Y15025D03*
X20075Y17375D03*
Y18075D03*
X20325Y14325D03*
Y15025D03*
X20425Y5975D03*
Y6675D03*
X20775Y9375D03*
Y10075D03*
X21425Y14325D03*
Y15025D03*
X21675Y9375D03*
Y10075D03*
X22125Y14325D03*
Y15025D03*
X22225Y5225D03*
Y5925D03*
X22475Y17375D03*
Y18075D03*
D02*
D22*
X4825Y8225D03*
X4850Y7075D03*
X5175Y16725D03*
X5525Y8225D03*
X5550Y7075D03*
X5875Y16725D03*
X7150Y8175D03*
X7490Y15925D03*
X7525Y18825D03*
X7850Y8175D03*
X8190Y15925D03*
X8225Y18825D03*
X9450Y8175D03*
X9875Y15975D03*
X10150Y8175D03*
X10575Y15975D03*
X11750Y8175D03*
X12275Y16025D03*
X12450Y8175D03*
X12975Y16025D03*
X14050Y8175D03*
X14750D03*
X14775Y15925D03*
X15475D03*
X16500Y8175D03*
X17200D03*
X17675Y16025D03*
X18375D03*
X18950Y8175D03*
X19650D03*
X19675Y16025D03*
X20375D03*
X21400Y8375D03*
X22025Y15925D03*
X22100Y8375D03*
X22725Y15925D03*
D02*
D80*
X8275Y5225D03*
X8650Y11200D03*
X10175Y5775D03*
X10825Y8275D03*
X12425Y5575D03*
X14075D03*
X16275D03*
X17875Y9125D03*
X18975Y5525D03*
X20975Y10725D03*
X21325Y5825D03*
X21825Y12825D03*
X22625Y16625D03*
D02*
D84*
X5375Y14275D03*
X6125Y9075D03*
X6175Y9725D03*
X7925Y12725D03*
Y13525D03*
X8425Y13175D03*
X8525Y9625D03*
X8925Y13525D03*
X10225Y10475D03*
X10425Y11075D03*
Y11725D03*
X12475D03*
Y12321D03*
X13525Y14325D03*
X14025Y11725D03*
X14175Y14825D03*
X15425Y9475D03*
X15925Y12225D03*
X16425Y12725D03*
X16525Y14925D03*
X18925Y14475D03*
X20825Y13675D03*
D02*
D135*
X4800Y4951D03*
Y5699D03*
X5025Y18001D03*
Y18749D03*
X5600Y5325D03*
X5825Y18375D03*
X7175Y6401D03*
Y7149D03*
X7490Y17051D03*
Y17799D03*
X7975Y6775D03*
X8290Y17425D03*
X9125Y17051D03*
Y17799D03*
X9425Y6301D03*
Y7049D03*
X9925Y17425D03*
X10225Y6675D03*
X11525Y17001D03*
Y17749D03*
X11775Y6351D03*
Y7099D03*
X12325Y17375D03*
X12575Y6725D03*
X13925Y17001D03*
Y17749D03*
X14025Y6351D03*
Y7099D03*
X14725Y17375D03*
X14825Y6725D03*
X16225Y17001D03*
Y17749D03*
X16450Y6301D03*
Y7049D03*
X17024Y17375D03*
X17250Y6675D03*
X18575Y17051D03*
Y17799D03*
X18975Y6401D03*
Y7149D03*
X19375Y17425D03*
X19775Y6775D03*
X20925Y17001D03*
Y17749D03*
X21350Y6651D03*
Y7399D03*
X21725Y17375D03*
X22150Y7025D03*
D02*
D136*
X4625Y9675D03*
Y10675D03*
Y11675D03*
Y12675D03*
Y13675D03*
X7775Y2825D03*
Y3825D03*
X20575Y2775D03*
Y3775D03*
X20775Y19525D03*
Y20525D03*
X23125Y9675D03*
Y10675D03*
Y11675D03*
Y12675D03*
Y13675D03*
D02*
D137*
X4800Y4951D02*
Y4675D01*
X5100Y4375*
X5849*
X6399Y3825*
X7775*
X4800Y5699D02*
Y7025D01*
X4850Y7075*
X4825Y8225D02*
Y8425D01*
X5175Y8775*
X5825*
X6125Y9075*
X5175Y16725D02*
Y16825D01*
X4525Y17475*
Y18249*
X5025Y18749*
X5375Y15175D02*
Y14275D01*
Y15875D02*
Y16525D01*
X5175Y16725*
X5525Y8225D02*
X6025D01*
X6225Y8425*
X5525Y8225D02*
X4725Y7425D01*
Y7200*
X4850Y7075*
X5550D02*
X5675D01*
X6225Y7625*
Y7725*
X5550Y7075D02*
Y6250D01*
X5175Y5875*
Y5326*
X4800Y4951*
X5600Y5325D02*
Y5650D01*
X6375Y6425*
X5825Y18375D02*
X6175D01*
X6575Y17975*
X5875Y16725D02*
X6975D01*
X6825Y16575*
Y15175*
X6075Y15875D02*
X5375D01*
X6375Y5725D02*
Y5075D01*
X6975Y4475*
X8625*
X9275Y3825*
X10525*
X6575Y18675D02*
Y18975D01*
X7125Y19525*
X10475*
X10525Y19475*
X6825Y15175D02*
Y14940D01*
X7190Y14575*
X7890*
X8240Y14225*
X7125Y9075D02*
X6825D01*
X6175Y9725*
X7150Y8175D02*
Y8400D01*
X7475Y8725*
Y9475*
X7425Y9525*
X7375*
X7125Y9775*
X7175Y7149D02*
Y8150D01*
X7150Y8175*
X7490Y15925D02*
Y16125D01*
X7890Y16525*
Y17349*
X7490Y17749*
Y17799*
X7525Y14225D02*
Y13875D01*
X7625Y13775*
X7675*
X7925Y13525*
X7525Y14925D02*
Y15890D01*
X7490Y15925*
X7525Y14925D02*
X8240D01*
X7525Y18825D02*
Y18575D01*
X8175Y17925*
Y17540*
X8290Y17425*
X7775Y2825D02*
X10575D01*
X7825Y9775D02*
X7125D01*
X7850Y8175D02*
Y7600D01*
X7575Y7325*
Y6801*
X7175Y6401*
X7925Y12725D02*
X12775D01*
X13775Y11725*
X14025*
X7975Y6775D02*
X8625D01*
X8725Y6675*
X8190Y15925D02*
X8340D01*
X9340Y14925*
X8225Y18825D02*
X10875D01*
X11525Y19475*
X8425Y13175D02*
X14975D01*
X15925Y12225*
X8725Y5975D02*
Y5425D01*
X9625Y4525*
X10825*
X11525Y3825*
X9340Y14925D02*
X9590Y14675D01*
X11375*
X9450Y8175D02*
Y7074D01*
X9425Y7049*
X9450Y8175D02*
Y9050D01*
X9475Y9075*
X9451Y6301D02*
X9825Y6675D01*
Y7100*
X10150Y7425*
Y8175*
X9475Y9075D02*
Y9125D01*
X10125Y9775*
X9475D02*
X8675D01*
X8525Y9625*
X9875Y15975D02*
Y16375D01*
X9525Y16725*
Y17349*
X9125Y17749*
Y17799*
X9925Y17425D02*
X10525D01*
X10625Y17325*
X9925Y14325D02*
X9725D01*
X8925Y13525*
X9925Y15025D02*
Y15925D01*
X9875Y15975*
X10225Y6675D02*
X10875D01*
X10975Y6775*
X10225Y10475D02*
X10325D01*
X11725Y9075*
X10425Y11075D02*
X12575D01*
X13625Y10025*
Y9575*
X14075Y9125*
X10425Y11725D02*
Y11675D01*
X10625*
X11025Y11275*
X12675*
X13275Y10675*
X14875*
X16475Y9075*
X16525*
X10525Y2825D02*
X10575D01*
X11250*
X10625Y15025D02*
X9925D01*
X10625Y18025D02*
X11475Y18875D01*
X11925*
X12525Y19475*
X10975Y6075D02*
Y5375D01*
X12525Y3825*
X11250Y2825D02*
X15925D01*
Y2775*
X20575*
X11525Y2825D02*
X11250D01*
X11725Y9775D02*
X12525D01*
X12925Y9375*
Y8025*
X12600Y7700*
X11750*
Y8175*
Y7124*
X11775Y7099*
X12175Y14275D02*
Y13775D01*
X12225Y13725*
X13125*
X13525Y14125*
Y14325*
X12175Y14975D02*
X12875D01*
X12275Y16025D02*
Y15075D01*
X12175Y14975*
X12275Y16025D02*
Y16675D01*
X11925Y17025*
Y17349*
X11525Y17749*
X12325Y17375D02*
X12975D01*
X13025Y17325*
X12425Y9775D02*
X11725D01*
X12475Y11725D02*
Y11675D01*
X12625*
X13425Y10875*
X17175*
X18925Y9125*
X12475Y12321D02*
Y12275D01*
X13525Y11225*
X18925*
X20775Y9375*
X12525Y2825D02*
X11525D01*
X12575Y6725D02*
X13175D01*
X13225Y6675*
X12875Y14275D02*
X13375Y14775D01*
X13625*
X14025Y14375*
Y13525*
X14875*
X12975Y16025D02*
Y15725D01*
X13225Y15475*
Y14625*
X12875Y14275*
X13025Y18025D02*
Y18975D01*
X13525Y19475*
X13225Y5975D02*
Y4125D01*
X13525Y3825*
X13925Y17749D02*
X13951D01*
X14325Y17375*
Y16425*
X14775Y15975*
Y15925*
X14050Y8175D02*
Y8350D01*
X14425Y8725*
Y9475*
X14075Y9825*
X14050Y8175D02*
Y7124D01*
X14025Y7099*
X14725Y17375D02*
X15425D01*
X15475Y17325*
X14775Y9825D02*
X14075D01*
X14775Y15925D02*
Y14975D01*
X14825Y14925*
X14825Y6725D02*
X15475D01*
X15575Y6625*
X14825Y14225D02*
X14775D01*
X14175Y14825*
X14875Y13525D02*
X15225Y13875D01*
X15325*
X15475Y18025D02*
X15275D01*
X14575Y18725*
Y19425*
X14525Y19475*
X15525D02*
Y19025D01*
X16325Y18225*
X17625*
X17775Y18075*
X15575Y5925D02*
Y5525D01*
X14525Y4475*
Y3825*
X15575Y14925D02*
X14825D01*
X15925Y12225D02*
Y12275D01*
X22625*
X23075Y12725*
X23125*
Y12675*
X16075Y15875D02*
Y13175D01*
X16500Y8175D02*
Y8300D01*
X16875Y8675*
Y9425*
X16525Y9775*
X16500Y8175D02*
Y7099D01*
X16450Y7049*
X16525Y9775D02*
X17225D01*
X16525Y14925D02*
Y14675D01*
X16925Y14275*
X17175*
X17225Y14225*
Y14925D02*
Y15575D01*
X17675Y16025*
X17225Y14925D02*
X17925D01*
X17250Y6675D02*
X18025D01*
X18075Y6725*
X17675Y16025D02*
X17175D01*
X16625Y16575*
Y17399*
X16275Y17749*
X16225*
X17775Y17375D02*
X17024D01*
X18075Y6025D02*
X17525D01*
X15525Y4025*
Y3825*
X18950Y8175D02*
Y8300D01*
X19275Y8625*
Y9475*
X18925Y9825*
X18950Y8175D02*
Y7174D01*
X18975Y7149*
X19375Y17425D02*
X20025D01*
X20075Y17375*
X19625Y9825D02*
X18925D01*
X19625Y14325D02*
X19475D01*
X19375Y14425*
X18975*
X18925Y14475*
X19625Y15025D02*
X20325D01*
X19650Y8175D02*
Y7450D01*
X19375Y7175*
Y6801*
X18975Y6401*
X19675Y16025D02*
X19625D01*
Y16075*
X18975Y16725*
Y17449*
X18625Y17799*
X18575*
X19675Y16025D02*
Y15825D01*
X19725*
Y15025*
X19625*
X19775Y6775D02*
X20325D01*
X20425Y6675*
X20075Y18075D02*
Y18125D01*
X18925*
X18425Y18625*
X16725*
X16525Y18825*
Y19475*
X20425Y5975D02*
X19475Y5025D01*
X17725*
X16525Y3825*
X20825Y13675D02*
Y13725D01*
X21425Y14325*
X20975Y10725D02*
X22225D01*
Y10675*
X23125*
X21350Y7399D02*
Y8325D01*
X21400Y8375*
Y8850*
X21325Y8925*
Y9525*
X20775Y10075*
X21675D02*
X20775D01*
X21725Y17375D02*
X22475D01*
X22025Y15925D02*
X21325Y16625D01*
Y17349*
X20925Y17749*
X22025Y15925D02*
Y15625D01*
X21425Y15025*
X22100Y8375D02*
Y7700D01*
X21775Y7375*
Y7076*
X21350Y6651*
X22125Y15025D02*
X21425D01*
X22225Y5225D02*
X20225D01*
X18825Y3825*
X17525*
X22225Y5925D02*
Y6950D01*
X22150Y7025*
X22475Y18075D02*
X21875D01*
X21325Y18625*
X19175*
X18475Y19325*
X17675*
X17525Y19475*
X23125Y11675D02*
Y11625D01*
X13925*
X14025Y11725*
X23125Y13675D02*
X22275Y12825D01*
X21825*
D02*
D138*
X5025Y18001D02*
Y17975D01*
X5875Y17125*
Y16725*
X6075Y15175D02*
X5875D01*
Y13975*
X8650Y11200*
X6075Y15175D02*
X6825D01*
X6225Y7725D02*
Y7525D01*
X6725Y7025*
Y6925*
X6775Y6875*
Y6801*
X7175Y6401*
Y6325*
X8275Y5225*
X7490Y17051D02*
Y16990D01*
X7225Y16725*
X5875*
X7850Y8175D02*
Y9050D01*
X7825Y9075*
X8240Y14225D02*
X8640D01*
X9340Y14925*
X9125Y17051D02*
Y16725D01*
X8925Y16525*
Y15925*
X8190*
X9425Y6301D02*
X9451D01*
X10150Y8175D02*
Y9050D01*
X10125Y9075*
X10175Y5775D02*
X9951D01*
X9425Y6301*
X10575Y15975D02*
Y15925D01*
X11375Y15125*
Y14675*
X10625Y14325D02*
X11225D01*
X11425Y14125*
X10825Y8275D02*
X10250D01*
X10150Y8175*
X11375Y14675D02*
Y14425D01*
X11425*
Y14125*
Y13775*
X11725Y13475*
X14825*
X14875Y13525*
X11525Y17001D02*
Y16375D01*
X11125Y15975*
X10575*
X11775Y6351D02*
Y6225D01*
X12425Y5575*
X12450Y8175D02*
Y8250D01*
X12075Y8625*
X11025*
X10825Y8425*
Y8275*
X12450Y8175D02*
Y9050D01*
X12425Y9075*
X13925Y17001D02*
Y16125D01*
X13825Y16025*
X12975*
X14025Y6351D02*
Y5625D01*
X14075Y5575*
X14750Y8175D02*
Y9100D01*
X14775Y9125*
X15075*
X15425Y9475*
X15325Y13875D02*
Y13825D01*
X16000Y13150*
X15575Y14225D02*
X15675D01*
X16025Y14575*
Y15375*
X15475Y15925*
X15575Y14225D02*
Y14075D01*
X15325*
Y13875*
X16000Y13150D02*
X16425Y12725D01*
X16075Y13175D02*
X16050Y13150D01*
X16000*
X16225Y17001D02*
Y16025D01*
X16075Y15875*
X16450Y6301D02*
Y5750D01*
X16275Y5575*
X17200Y8175D02*
Y9050D01*
X17225Y9075*
X17825*
X17875Y9125*
X17925Y14225D02*
X18025D01*
X18475Y14675*
Y15925*
X18375Y16025*
X17925Y14225D02*
X16425Y12725D01*
X18375Y16025D02*
Y15875D01*
X18525*
Y16601*
X18575Y16651*
Y17051*
X18975Y6401D02*
Y5525D01*
X18975Y5525*
X19625Y9125D02*
Y8200D01*
X19650Y8175*
X20325Y14325D02*
Y14175D01*
X19775Y13625*
X18625*
X18025Y14225*
X17925*
X20325Y14325D02*
Y13225D01*
X20475Y13075*
X20875*
X22125Y14325*
X20325D02*
X20475D01*
X20775Y14625*
Y15625*
X20375Y16025*
X20775Y20525D02*
Y19525D01*
X20925Y17001D02*
Y16625D01*
X20425Y16125*
Y16075*
X20375Y16025*
X21350Y6651D02*
Y5850D01*
X21325Y5825*
X21675Y9375D02*
X22475D01*
X22775Y9675*
X23125*
X21675Y9375D02*
Y8800D01*
X22100Y8375*
X22625Y16625D02*
Y15425D01*
X22875*
X22925Y15375*
X22725Y15925D02*
Y15575D01*
X22925Y15375*
Y14675*
X22575Y14325*
X22125*
X0Y0D02*
M02*
