%FSLAX24Y24*%
%MOIN*%
G04 EasyPC Gerber Version 18.0.8 Build 3632 *
%ADD10C,0.00500*%
%ADD95C,0.10000*%
X0Y0D02*
D02*
D10*
X5625Y10269D02*
Y10644D01*
X5938*
X5875Y10456D02*
X5625D01*
Y11269D02*
Y11644D01*
X5938*
X5875Y11456D02*
X5625D01*
Y12269D02*
Y12644D01*
X5938*
X5875Y12456D02*
X5625D01*
Y13269D02*
Y13644D01*
X5938*
X5875Y13456D02*
X5625D01*
Y14269D02*
Y14644D01*
X5938*
X5875Y14456D02*
X5625D01*
X6375Y14869D02*
Y15244D01*
Y15056D02*
X6469D01*
X6688Y15244*
X6469Y15056D02*
X6688Y14869D01*
X7125Y9669D02*
Y10044D01*
Y9856D02*
X7219D01*
X7438Y10044*
X7219Y9856D02*
X7438Y9669D01*
X7175Y10319D02*
Y10694D01*
Y10506D02*
X7269D01*
X7488Y10694*
X7269Y10506D02*
X7488Y10319D01*
X8775Y3419D02*
Y3794D01*
X9088*
X9025Y3606D02*
X8775D01*
Y4419D02*
Y4794D01*
X9088*
X9025Y4606D02*
X8775D01*
X8925Y13319D02*
Y13694D01*
Y13506D02*
X9019D01*
X9238Y13694*
X9019Y13506D02*
X9238Y13319D01*
X8925Y14119D02*
Y14494D01*
Y14306D02*
X9019D01*
X9238Y14494*
X9019Y14306D02*
X9238Y14119D01*
X9494Y6006D02*
X9556Y5975D01*
X9588Y5913*
X9556Y5850*
X9494Y5819*
X9275*
Y6194*
X9494*
X9556Y6163*
X9588Y6100*
X9556Y6038*
X9494Y6006*
X9275*
X9425Y13769D02*
Y14144D01*
Y13956D02*
X9519D01*
X9738Y14144*
X9519Y13956D02*
X9738Y13769D01*
X9525Y10219D02*
Y10594D01*
Y10406D02*
X9619D01*
X9838Y10594*
X9619Y10406D02*
X9838Y10219D01*
X9869Y11981D02*
X9931Y11950D01*
X9963Y11888*
X9931Y11825*
X9869Y11794*
X9650*
Y12169*
X9869*
X9931Y12138*
X9963Y12075*
X9931Y12013*
X9869Y11981*
X9650*
X9925Y14119D02*
Y14494D01*
Y14306D02*
X10019D01*
X10238Y14494*
X10019Y14306D02*
X10238Y14119D01*
X11394Y6556D02*
X11456Y6525D01*
X11488Y6463*
X11456Y6400*
X11394Y6369*
X11175*
Y6744*
X11394*
X11456Y6713*
X11488Y6650*
X11456Y6588*
X11394Y6556*
X11175*
X11225Y11069D02*
Y11444D01*
Y11256D02*
X11319D01*
X11538Y11444*
X11319Y11256D02*
X11538Y11069D01*
X11425Y11669D02*
Y12044D01*
Y11856D02*
X11519D01*
X11738Y12044*
X11519Y11856D02*
X11738Y11669D01*
X11425Y12319D02*
Y12694D01*
Y12506D02*
X11519D01*
X11738Y12694*
X11519Y12506D02*
X11738Y12319D01*
X11525Y3544D02*
Y3669D01*
X11556Y3731*
X11588Y3763*
X11650Y3794*
X11713*
X11775Y3763*
X11806Y3731*
X11838Y3669*
Y3544*
X11806Y3481*
X11775Y3450*
X11713Y3419*
X11650*
X11588Y3450*
X11556Y3481*
X11525Y3544*
X11744Y3513D02*
X11838Y3419D01*
X11525Y4544D02*
Y4669D01*
X11556Y4731*
X11588Y4763*
X11650Y4794*
X11713*
X11775Y4763*
X11806Y4731*
X11838Y4669*
Y4544*
X11806Y4481*
X11775Y4450*
X11713Y4419*
X11650*
X11588Y4450*
X11556Y4481*
X11525Y4544*
X11744Y4513D02*
X11838Y4419D01*
X11525Y20194D02*
Y20319D01*
X11556Y20381*
X11588Y20413*
X11650Y20444*
X11713*
X11775Y20413*
X11806Y20381*
X11838Y20319*
Y20194*
X11806Y20131*
X11775Y20100*
X11713Y20069*
X11650*
X11588Y20100*
X11556Y20131*
X11525Y20194*
X11744Y20163D02*
X11838Y20069D01*
X11525Y21194D02*
Y21319D01*
X11556Y21381*
X11588Y21413*
X11650Y21444*
X11713*
X11775Y21413*
X11806Y21381*
X11838Y21319*
Y21194*
X11806Y21131*
X11775Y21100*
X11713Y21069*
X11650*
X11588Y21100*
X11556Y21131*
X11525Y21194*
X11744Y21163D02*
X11838Y21069D01*
X12044Y9056D02*
X12106Y9025D01*
X12138Y8963*
X12106Y8900*
X12044Y8869*
X11825*
Y9244*
X12044*
X12106Y9213*
X12138Y9150*
X12106Y9088*
X12044Y9056*
X11825*
X12525Y3544D02*
Y3669D01*
X12556Y3731*
X12588Y3763*
X12650Y3794*
X12713*
X12775Y3763*
X12806Y3731*
X12838Y3669*
Y3544*
X12806Y3481*
X12775Y3450*
X12713Y3419*
X12650*
X12588Y3450*
X12556Y3481*
X12525Y3544*
X12744Y3513D02*
X12838Y3419D01*
X12525Y4544D02*
Y4669D01*
X12556Y4731*
X12588Y4763*
X12650Y4794*
X12713*
X12775Y4763*
X12806Y4731*
X12838Y4669*
Y4544*
X12806Y4481*
X12775Y4450*
X12713Y4419*
X12650*
X12588Y4450*
X12556Y4481*
X12525Y4544*
X12744Y4513D02*
X12838Y4419D01*
X12525Y20194D02*
Y20319D01*
X12556Y20381*
X12588Y20413*
X12650Y20444*
X12713*
X12775Y20413*
X12806Y20381*
X12838Y20319*
Y20194*
X12806Y20131*
X12775Y20100*
X12713Y20069*
X12650*
X12588Y20100*
X12556Y20131*
X12525Y20194*
X12744Y20163D02*
X12838Y20069D01*
X12525Y21194D02*
Y21319D01*
X12556Y21381*
X12588Y21413*
X12650Y21444*
X12713*
X12775Y21413*
X12806Y21381*
X12838Y21319*
Y21194*
X12806Y21131*
X12775Y21100*
X12713Y21069*
X12650*
X12588Y21100*
X12556Y21131*
X12525Y21194*
X12744Y21163D02*
X12838Y21069D01*
X13644Y6356D02*
X13706Y6325D01*
X13738Y6263*
X13706Y6200*
X13644Y6169*
X13425*
Y6544*
X13644*
X13706Y6513*
X13738Y6450*
X13706Y6388*
X13644Y6356*
X13425*
X13475Y12319D02*
Y12694D01*
Y12506D02*
X13569D01*
X13788Y12694*
X13569Y12506D02*
X13788Y12319D01*
X13475Y12915D02*
Y13290D01*
Y13102D02*
X13569D01*
X13788Y13290*
X13569Y13102D02*
X13788Y12915D01*
X13525Y3544D02*
Y3669D01*
X13556Y3731*
X13588Y3763*
X13650Y3794*
X13713*
X13775Y3763*
X13806Y3731*
X13838Y3669*
Y3544*
X13806Y3481*
X13775Y3450*
X13713Y3419*
X13650*
X13588Y3450*
X13556Y3481*
X13525Y3544*
X13744Y3513D02*
X13838Y3419D01*
X13525Y4544D02*
Y4669D01*
X13556Y4731*
X13588Y4763*
X13650Y4794*
X13713*
X13775Y4763*
X13806Y4731*
X13838Y4669*
Y4544*
X13806Y4481*
X13775Y4450*
X13713Y4419*
X13650*
X13588Y4450*
X13556Y4481*
X13525Y4544*
X13744Y4513D02*
X13838Y4419D01*
X13525Y20194D02*
Y20319D01*
X13556Y20381*
X13588Y20413*
X13650Y20444*
X13713*
X13775Y20413*
X13806Y20381*
X13838Y20319*
Y20194*
X13806Y20131*
X13775Y20100*
X13713Y20069*
X13650*
X13588Y20100*
X13556Y20131*
X13525Y20194*
X13744Y20163D02*
X13838Y20069D01*
X13525Y21194D02*
Y21319D01*
X13556Y21381*
X13588Y21413*
X13650Y21444*
X13713*
X13775Y21413*
X13806Y21381*
X13838Y21319*
Y21194*
X13806Y21131*
X13775Y21100*
X13713Y21069*
X13650*
X13588Y21100*
X13556Y21131*
X13525Y21194*
X13744Y21163D02*
X13838Y21069D01*
X14525Y3544D02*
Y3669D01*
X14556Y3731*
X14588Y3763*
X14650Y3794*
X14713*
X14775Y3763*
X14806Y3731*
X14838Y3669*
Y3544*
X14806Y3481*
X14775Y3450*
X14713Y3419*
X14650*
X14588Y3450*
X14556Y3481*
X14525Y3544*
X14744Y3513D02*
X14838Y3419D01*
X14525Y4544D02*
Y4669D01*
X14556Y4731*
X14588Y4763*
X14650Y4794*
X14713*
X14775Y4763*
X14806Y4731*
X14838Y4669*
Y4544*
X14806Y4481*
X14775Y4450*
X14713Y4419*
X14650*
X14588Y4450*
X14556Y4481*
X14525Y4544*
X14744Y4513D02*
X14838Y4419D01*
X14525Y14919D02*
Y15294D01*
Y15106D02*
X14619D01*
X14838Y15294*
X14619Y15106D02*
X14838Y14919D01*
X14525Y20194D02*
Y20319D01*
X14556Y20381*
X14588Y20413*
X14650Y20444*
X14713*
X14775Y20413*
X14806Y20381*
X14838Y20319*
Y20194*
X14806Y20131*
X14775Y20100*
X14713Y20069*
X14650*
X14588Y20100*
X14556Y20131*
X14525Y20194*
X14744Y20163D02*
X14838Y20069D01*
X14525Y21194D02*
Y21319D01*
X14556Y21381*
X14588Y21413*
X14650Y21444*
X14713*
X14775Y21413*
X14806Y21381*
X14838Y21319*
Y21194*
X14806Y21131*
X14775Y21100*
X14713Y21069*
X14650*
X14588Y21100*
X14556Y21131*
X14525Y21194*
X14744Y21163D02*
X14838Y21069D01*
X15025Y12319D02*
Y12694D01*
Y12506D02*
X15119D01*
X15338Y12694*
X15119Y12506D02*
X15338Y12319D01*
X15294Y6356D02*
X15356Y6325D01*
X15388Y6263*
X15356Y6200*
X15294Y6169*
X15075*
Y6544*
X15294*
X15356Y6513*
X15388Y6450*
X15356Y6388*
X15294Y6356*
X15075*
X15175Y15419D02*
Y15794D01*
Y15606D02*
X15269D01*
X15488Y15794*
X15269Y15606D02*
X15488Y15419D01*
X15525Y3544D02*
Y3669D01*
X15556Y3731*
X15588Y3763*
X15650Y3794*
X15713*
X15775Y3763*
X15806Y3731*
X15838Y3669*
Y3544*
X15806Y3481*
X15775Y3450*
X15713Y3419*
X15650*
X15588Y3450*
X15556Y3481*
X15525Y3544*
X15744Y3513D02*
X15838Y3419D01*
X15525Y4544D02*
Y4669D01*
X15556Y4731*
X15588Y4763*
X15650Y4794*
X15713*
X15775Y4763*
X15806Y4731*
X15838Y4669*
Y4544*
X15806Y4481*
X15775Y4450*
X15713Y4419*
X15650*
X15588Y4450*
X15556Y4481*
X15525Y4544*
X15744Y4513D02*
X15838Y4419D01*
X15525Y20194D02*
Y20319D01*
X15556Y20381*
X15588Y20413*
X15650Y20444*
X15713*
X15775Y20413*
X15806Y20381*
X15838Y20319*
Y20194*
X15806Y20131*
X15775Y20100*
X15713Y20069*
X15650*
X15588Y20100*
X15556Y20131*
X15525Y20194*
X15744Y20163D02*
X15838Y20069D01*
X15525Y21194D02*
Y21319D01*
X15556Y21381*
X15588Y21413*
X15650Y21444*
X15713*
X15775Y21413*
X15806Y21381*
X15838Y21319*
Y21194*
X15806Y21131*
X15775Y21100*
X15713Y21069*
X15650*
X15588Y21100*
X15556Y21131*
X15525Y21194*
X15744Y21163D02*
X15838Y21069D01*
X16425Y10069D02*
Y10444D01*
Y10256D02*
X16519D01*
X16738Y10444*
X16519Y10256D02*
X16738Y10069D01*
X16525Y3544D02*
Y3669D01*
X16556Y3731*
X16588Y3763*
X16650Y3794*
X16713*
X16775Y3763*
X16806Y3731*
X16838Y3669*
Y3544*
X16806Y3481*
X16775Y3450*
X16713Y3419*
X16650*
X16588Y3450*
X16556Y3481*
X16525Y3544*
X16744Y3513D02*
X16838Y3419D01*
X16525Y4544D02*
Y4669D01*
X16556Y4731*
X16588Y4763*
X16650Y4794*
X16713*
X16775Y4763*
X16806Y4731*
X16838Y4669*
Y4544*
X16806Y4481*
X16775Y4450*
X16713Y4419*
X16650*
X16588Y4450*
X16556Y4481*
X16525Y4544*
X16744Y4513D02*
X16838Y4419D01*
X16525Y20194D02*
Y20319D01*
X16556Y20381*
X16588Y20413*
X16650Y20444*
X16713*
X16775Y20413*
X16806Y20381*
X16838Y20319*
Y20194*
X16806Y20131*
X16775Y20100*
X16713Y20069*
X16650*
X16588Y20100*
X16556Y20131*
X16525Y20194*
X16744Y20163D02*
X16838Y20069D01*
X16525Y21194D02*
Y21319D01*
X16556Y21381*
X16588Y21413*
X16650Y21444*
X16713*
X16775Y21413*
X16806Y21381*
X16838Y21319*
Y21194*
X16806Y21131*
X16775Y21100*
X16713Y21069*
X16650*
X16588Y21100*
X16556Y21131*
X16525Y21194*
X16744Y21163D02*
X16838Y21069D01*
X16925Y12819D02*
Y13194D01*
Y13006D02*
X17019D01*
X17238Y13194*
X17019Y13006D02*
X17238Y12819D01*
X17494Y6356D02*
X17556Y6325D01*
X17588Y6263*
X17556Y6200*
X17494Y6169*
X17275*
Y6544*
X17494*
X17556Y6513*
X17588Y6450*
X17556Y6388*
X17494Y6356*
X17275*
X17425Y13319D02*
Y13694D01*
Y13506D02*
X17519D01*
X17738Y13694*
X17519Y13506D02*
X17738Y13319D01*
X17525Y3544D02*
Y3669D01*
X17556Y3731*
X17588Y3763*
X17650Y3794*
X17713*
X17775Y3763*
X17806Y3731*
X17838Y3669*
Y3544*
X17806Y3481*
X17775Y3450*
X17713Y3419*
X17650*
X17588Y3450*
X17556Y3481*
X17525Y3544*
X17744Y3513D02*
X17838Y3419D01*
X17525Y4544D02*
Y4669D01*
X17556Y4731*
X17588Y4763*
X17650Y4794*
X17713*
X17775Y4763*
X17806Y4731*
X17838Y4669*
Y4544*
X17806Y4481*
X17775Y4450*
X17713Y4419*
X17650*
X17588Y4450*
X17556Y4481*
X17525Y4544*
X17744Y4513D02*
X17838Y4419D01*
X17525Y15519D02*
Y15894D01*
Y15706D02*
X17619D01*
X17838Y15894*
X17619Y15706D02*
X17838Y15519D01*
X17525Y20194D02*
Y20319D01*
X17556Y20381*
X17588Y20413*
X17650Y20444*
X17713*
X17775Y20413*
X17806Y20381*
X17838Y20319*
Y20194*
X17806Y20131*
X17775Y20100*
X17713Y20069*
X17650*
X17588Y20100*
X17556Y20131*
X17525Y20194*
X17744Y20163D02*
X17838Y20069D01*
X17525Y21194D02*
Y21319D01*
X17556Y21381*
X17588Y21413*
X17650Y21444*
X17713*
X17775Y21413*
X17806Y21381*
X17838Y21319*
Y21194*
X17806Y21131*
X17775Y21100*
X17713Y21069*
X17650*
X17588Y21100*
X17556Y21131*
X17525Y21194*
X17744Y21163D02*
X17838Y21069D01*
X18525Y3544D02*
Y3669D01*
X18556Y3731*
X18588Y3763*
X18650Y3794*
X18713*
X18775Y3763*
X18806Y3731*
X18838Y3669*
Y3544*
X18806Y3481*
X18775Y3450*
X18713Y3419*
X18650*
X18588Y3450*
X18556Y3481*
X18525Y3544*
X18744Y3513D02*
X18838Y3419D01*
X18525Y4544D02*
Y4669D01*
X18556Y4731*
X18588Y4763*
X18650Y4794*
X18713*
X18775Y4763*
X18806Y4731*
X18838Y4669*
Y4544*
X18806Y4481*
X18775Y4450*
X18713Y4419*
X18650*
X18588Y4450*
X18556Y4481*
X18525Y4544*
X18744Y4513D02*
X18838Y4419D01*
X18525Y20194D02*
Y20319D01*
X18556Y20381*
X18588Y20413*
X18650Y20444*
X18713*
X18775Y20413*
X18806Y20381*
X18838Y20319*
Y20194*
X18806Y20131*
X18775Y20100*
X18713Y20069*
X18650*
X18588Y20100*
X18556Y20131*
X18525Y20194*
X18744Y20163D02*
X18838Y20069D01*
X18525Y21194D02*
Y21319D01*
X18556Y21381*
X18588Y21413*
X18650Y21444*
X18713*
X18775Y21413*
X18806Y21381*
X18838Y21319*
Y21194*
X18806Y21131*
X18775Y21100*
X18713Y21069*
X18650*
X18588Y21100*
X18556Y21131*
X18525Y21194*
X18744Y21163D02*
X18838Y21069D01*
X19094Y9906D02*
X19156Y9875D01*
X19188Y9813*
X19156Y9750*
X19094Y9719*
X18875*
Y10094*
X19094*
X19156Y10063*
X19188Y10000*
X19156Y9938*
X19094Y9906*
X18875*
X19925Y15069D02*
Y15444D01*
Y15256D02*
X20019D01*
X20238Y15444*
X20019Y15256D02*
X20238Y15069D01*
X20194Y6306D02*
X20256Y6275D01*
X20288Y6213*
X20256Y6150*
X20194Y6119*
X19975*
Y6494*
X20194*
X20256Y6463*
X20288Y6400*
X20256Y6338*
X20194Y6306*
X19975*
X21575Y3369D02*
Y3744D01*
X21888*
X21825Y3556D02*
X21575D01*
Y4369D02*
Y4744D01*
X21888*
X21825Y4556D02*
X21575D01*
X21775Y20119D02*
Y20494D01*
X22088*
X22025Y20306D02*
X21775D01*
Y21119D02*
Y21494D01*
X22088*
X22025Y21306D02*
X21775D01*
X21825Y14269D02*
Y14644D01*
Y14456D02*
X21919D01*
X22138Y14644*
X21919Y14456D02*
X22138Y14269D01*
X22194Y11506D02*
X22256Y11475D01*
X22288Y11413*
X22256Y11350*
X22194Y11319*
X21975*
Y11694*
X22194*
X22256Y11663*
X22288Y11600*
X22256Y11538*
X22194Y11506*
X21975*
X22544Y6606D02*
X22606Y6575D01*
X22638Y6513*
X22606Y6450*
X22544Y6419*
X22325*
Y6794*
X22544*
X22606Y6763*
X22638Y6700*
X22606Y6638*
X22544Y6606*
X22325*
X23044Y13606D02*
X23106Y13575D01*
X23138Y13513*
X23106Y13450*
X23044Y13419*
X22825*
Y13794*
X23044*
X23106Y13763*
X23138Y13700*
X23106Y13638*
X23044Y13606*
X22825*
X23844Y17406D02*
X23906Y17375D01*
X23938Y17313*
X23906Y17250*
X23844Y17219*
X23625*
Y17594*
X23844*
X23906Y17563*
X23938Y17500*
X23906Y17438*
X23844Y17406*
X23625*
X24125Y10269D02*
Y10644D01*
X24438*
X24375Y10456D02*
X24125D01*
Y11269D02*
Y11644D01*
X24438*
X24375Y11456D02*
X24125D01*
Y12269D02*
Y12644D01*
X24438*
X24375Y12456D02*
X24125D01*
Y13269D02*
Y13644D01*
X24438*
X24375Y13456D02*
X24125D01*
Y14269D02*
Y14644D01*
X24438*
X24375Y14456D02*
X24125D01*
D02*
D95*
X4625Y9675D03*
Y10675D03*
Y11675D03*
Y12675D03*
Y13675D03*
X5375Y14275D03*
X6125Y9075D03*
X6175Y9725D03*
X7775Y2825D03*
Y3825D03*
X7925Y12725D03*
Y13525D03*
X8275Y5225D03*
X8425Y13175D03*
X8525Y9625D03*
X8650Y11200D03*
X8925Y13525D03*
X10175Y5775D03*
X10225Y10475D03*
X10425Y11075D03*
Y11725D03*
X10525Y2825D03*
Y3825D03*
Y19475D03*
Y20475D03*
X10825Y8275D03*
X11525Y2825D03*
Y3825D03*
Y19475D03*
Y20475D03*
X12425Y5575D03*
X12475Y11725D03*
Y12321D03*
X12525Y2825D03*
Y3825D03*
Y19475D03*
Y20475D03*
X13525Y2825D03*
Y3825D03*
Y14325D03*
Y19475D03*
Y20475D03*
X14025Y11725D03*
X14075Y5575D03*
X14175Y14825D03*
X14525Y2825D03*
Y3825D03*
Y19475D03*
Y20475D03*
X15425Y9475D03*
X15525Y2825D03*
Y3825D03*
Y19475D03*
Y20475D03*
X15925Y12225D03*
X16275Y5575D03*
X16425Y12725D03*
X16525Y2825D03*
Y3825D03*
Y14925D03*
Y19475D03*
Y20475D03*
X17525Y2825D03*
Y3825D03*
Y19475D03*
Y20475D03*
X17875Y9125D03*
X18925Y14475D03*
X18975Y5525D03*
X20575Y2775D03*
Y3775D03*
X20775Y19525D03*
Y20525D03*
X20825Y13675D03*
X20975Y10725D03*
X21325Y5825D03*
X21825Y12825D03*
X22625Y16625D03*
X23125Y9675D03*
Y10675D03*
Y11675D03*
Y12675D03*
Y13675D03*
X0Y0D02*
M02*
