%FSLAX24Y24*%
%MOIN*%
G04 EasyPC Gerber Version 18.0.8 Build 3632 *
%ADD141R,0.04940X0.05330*%
%ADD140R,0.07000X0.07000*%
%ADD139R,0.06200X0.04900*%
%ADD143R,0.05330X0.04940*%
%ADD142C,0.08874*%
X0Y0D02*
D02*
D139*
X4800Y4951D03*
Y5699D03*
X5025Y18001D03*
Y18749D03*
X5600Y5325D03*
X5825Y18375D03*
X7175Y6401D03*
Y7149D03*
X7490Y17051D03*
Y17799D03*
X7975Y6775D03*
X8290Y17425D03*
X9125Y17051D03*
Y17799D03*
X9425Y6301D03*
Y7049D03*
X9925Y17425D03*
X10225Y6675D03*
X11525Y17001D03*
Y17749D03*
X11775Y6351D03*
Y7099D03*
X12325Y17375D03*
X12575Y6725D03*
X13925Y17001D03*
Y17749D03*
X14025Y6351D03*
Y7099D03*
X14725Y17375D03*
X14825Y6725D03*
X16225Y17001D03*
Y17749D03*
X16450Y6301D03*
Y7049D03*
X17024Y17375D03*
X17250Y6675D03*
X18575Y17051D03*
Y17799D03*
X18975Y6401D03*
Y7149D03*
X19375Y17425D03*
X19775Y6775D03*
X20925Y17001D03*
Y17749D03*
X21350Y6651D03*
Y7399D03*
X21725Y17375D03*
X22150Y7025D03*
D02*
D140*
X4625Y9675D03*
Y10675D03*
Y11675D03*
Y12675D03*
Y13675D03*
X7775Y2825D03*
Y3825D03*
X20575Y2775D03*
Y3775D03*
X20775Y19525D03*
Y20525D03*
X23125Y9675D03*
Y10675D03*
Y11675D03*
Y12675D03*
Y13675D03*
D02*
D141*
X4825Y8225D03*
X4850Y7075D03*
X5175Y16725D03*
X5525Y8225D03*
X5550Y7075D03*
X5875Y16725D03*
X7150Y8175D03*
X7490Y15925D03*
X7525Y18825D03*
X7850Y8175D03*
X8190Y15925D03*
X8225Y18825D03*
X9450Y8175D03*
X9875Y15975D03*
X10150Y8175D03*
X10575Y15975D03*
X11750Y8175D03*
X12275Y16025D03*
X12450Y8175D03*
X12975Y16025D03*
X14050Y8175D03*
X14750D03*
X14775Y15925D03*
X15475D03*
X16500Y8175D03*
X17200D03*
X17675Y16025D03*
X18375D03*
X18950Y8175D03*
X19650D03*
X19675Y16025D03*
X20375D03*
X21400Y8375D03*
X22025Y15925D03*
X22100Y8375D03*
X22725Y15925D03*
D02*
D142*
X10525Y2825D03*
Y3825D03*
Y19475D03*
Y20475D03*
X11525Y2825D03*
Y3825D03*
Y19475D03*
Y20475D03*
X12525Y2825D03*
Y3825D03*
Y19475D03*
Y20475D03*
X13525Y2825D03*
Y3825D03*
Y19475D03*
Y20475D03*
X14525Y2825D03*
Y3825D03*
Y19475D03*
Y20475D03*
X15525Y2825D03*
Y3825D03*
Y19475D03*
Y20475D03*
X16525Y2825D03*
Y3825D03*
Y19475D03*
Y20475D03*
X17525Y2825D03*
Y3825D03*
Y19475D03*
Y20475D03*
D02*
D143*
X5375Y15175D03*
Y15875D03*
X6075Y15175D03*
Y15875D03*
X6225Y7725D03*
Y8425D03*
X6375Y5725D03*
Y6425D03*
X6575Y17975D03*
Y18675D03*
X7125Y9075D03*
Y9775D03*
X7525Y14225D03*
Y14925D03*
X7825Y9075D03*
Y9775D03*
X8240Y14225D03*
Y14925D03*
X8725Y5975D03*
Y6675D03*
X9475Y9075D03*
Y9775D03*
X9925Y14325D03*
Y15025D03*
X10125Y9075D03*
Y9775D03*
X10625Y14325D03*
Y15025D03*
Y17325D03*
Y18025D03*
X10975Y6075D03*
Y6775D03*
X11725Y9075D03*
Y9775D03*
X12175Y14275D03*
Y14975D03*
X12425Y9075D03*
Y9775D03*
X12875Y14275D03*
Y14975D03*
X13025Y17325D03*
Y18025D03*
X13225Y5975D03*
Y6675D03*
X14075Y9125D03*
Y9825D03*
X14775Y9125D03*
Y9825D03*
X14825Y14225D03*
Y14925D03*
X15475Y17325D03*
Y18025D03*
X15575Y5925D03*
Y6625D03*
Y14225D03*
Y14925D03*
X16525Y9075D03*
Y9775D03*
X17225Y9075D03*
Y9775D03*
Y14225D03*
Y14925D03*
X17775Y17375D03*
Y18075D03*
X17925Y14225D03*
Y14925D03*
X18075Y6025D03*
Y6725D03*
X18925Y9125D03*
Y9825D03*
X19625Y9125D03*
Y9825D03*
Y14325D03*
Y15025D03*
X20075Y17375D03*
Y18075D03*
X20325Y14325D03*
Y15025D03*
X20425Y5975D03*
Y6675D03*
X20775Y9375D03*
Y10075D03*
X21425Y14325D03*
Y15025D03*
X21675Y9375D03*
Y10075D03*
X22125Y14325D03*
Y15025D03*
X22225Y5225D03*
Y5925D03*
X22475Y17375D03*
Y18075D03*
X0Y0D02*
M02*
