%FSLAX24Y24*%
%MOIN*%
G04 EasyPC Gerber Version 18.0.8 Build 3632 *
%ADD136R,0.06000X0.06000*%
%ADD10C,0.00500*%
%ADD14C,0.01000*%
%ADD137C,0.01181*%
%ADD138C,0.01969*%
%ADD84C,0.04800*%
%ADD80C,0.05600*%
%ADD15C,0.07874*%
%AMT19*0 Rectangle Pad at angle 45*21,1,0.03940,0.04330,0,0,45*%
%ADD19T19*%
%ADD71R,0.04330X0.03940*%
%AMT146*0 Rectangle Pad at angle 135*21,1,0.01575,0.03937,0,0,135*%
%ADD146T146*%
X0Y0D02*
D02*
D10*
X4275Y9250D02*
Y2325D01*
X4286Y2270*
X4317Y2223*
X4364Y2192*
X4419Y2181*
X23316*
X23371Y2192*
X23418Y2223*
X23449Y2270*
X23460Y2325*
Y9250*
X22700*
Y10100*
X23460*
Y10250*
X22700*
Y11100*
X23460*
Y11250*
X22700*
Y12100*
X23460*
Y12250*
X22700*
Y13100*
X23460*
Y13250*
X22700*
Y14100*
X23460*
Y21223*
X23449Y21278*
X23418Y21324*
X23371Y21355*
X23316Y21366*
X4419*
X4364Y21355*
X4317Y21324*
X4286Y21278*
X4275Y21223*
Y14100*
X4402*
Y14825*
X4409Y14883*
X4431Y14937*
X4467Y14983*
X5417Y15933*
X5463Y15969*
X5517Y15991*
X5575Y15998*
X19775*
X19833Y15991*
X19887Y15969*
X19933Y15933*
X21983Y13883*
X22019Y13837*
X22041Y13783*
X22048Y13725*
Y13163*
X22098Y13124*
X22141Y13078*
Y15649*
X17771Y20018*
X17663Y19975*
X17767Y19934*
X17860Y19871*
X17938Y19789*
X17996Y19693*
X18032Y19587*
X18044Y19475*
X18029Y19352*
X17985Y19236*
X17916Y19134*
X17824Y19051*
X17715Y18992*
X17595Y18961*
X17471Y18959*
X17350Y18987*
X17239Y19042*
X17145Y19122*
X17072Y19222*
X17025Y19337*
X16979Y19224*
X16907Y19124*
X16814Y19044*
X16705Y18989*
X16586Y18960*
X16464*
X16345Y18989*
X16236Y19044*
X16143Y19124*
X16071Y19224*
X16025Y19337*
X15979Y19224*
X15907Y19124*
X15814Y19044*
X15705Y18989*
X15586Y18960*
X15464*
X15345Y18989*
X15236Y19044*
X15143Y19124*
X15071Y19224*
X15025Y19337*
X14979Y19224*
X14907Y19124*
X14814Y19044*
X14705Y18989*
X14586Y18960*
X14464*
X14345Y18989*
X14236Y19044*
X14143Y19124*
X14071Y19224*
X14025Y19337*
X13979Y19224*
X13907Y19124*
X13814Y19044*
X13705Y18989*
X13586Y18960*
X13464*
X13345Y18989*
X13236Y19044*
X13143Y19124*
X13071Y19224*
X13025Y19337*
X12979Y19224*
X12907Y19124*
X12814Y19044*
X12705Y18989*
X12586Y18960*
X12464*
X12345Y18989*
X12236Y19044*
X12143Y19124*
X12071Y19224*
X12025Y19337*
X11979Y19224*
X11907Y19124*
X11814Y19044*
X11705Y18989*
X11586Y18960*
X11464*
X11345Y18989*
X11236Y19044*
X11143Y19124*
X11071Y19224*
X11025Y19337*
X10978Y19222*
X10905Y19122*
X10811Y19042*
X10700Y18987*
X10579Y18959*
X10455Y18961*
X10335Y18992*
X10226Y19051*
X10134Y19134*
X10065Y19236*
X10021Y19352*
X10006Y19475*
X10018Y19587*
X10054Y19693*
X10112Y19789*
X10190Y19871*
X10283Y19934*
X10387Y19975*
X10283Y20016*
X10190Y20079*
X10112Y20161*
X10054Y20257*
X10018Y20363*
X10006Y20475*
X10020Y20594*
X10061Y20707*
X10127Y20807*
X10213Y20890*
X10317Y20950*
X10431Y20985*
X10551Y20993*
X10669Y20973*
X10780Y20927*
X10877Y20856*
X10955Y20765*
X11010Y20659*
X11040*
X11098Y20770*
X11181Y20863*
X11284Y20934*
X11401Y20979*
X11525Y20994*
X11649Y20979*
X11766Y20934*
X11869Y20863*
X11952Y20770*
X12010Y20659*
X12040*
X12098Y20770*
X12181Y20863*
X12284Y20934*
X12401Y20979*
X12525Y20994*
X12649Y20979*
X12766Y20934*
X12869Y20863*
X12952Y20770*
X13010Y20659*
X13040*
X13098Y20770*
X13181Y20863*
X13284Y20934*
X13401Y20979*
X13525Y20994*
X13649Y20979*
X13766Y20934*
X13869Y20863*
X13952Y20770*
X14010Y20659*
X14040*
X14098Y20770*
X14181Y20863*
X14284Y20934*
X14401Y20979*
X14525Y20994*
X14649Y20979*
X14766Y20934*
X14869Y20863*
X14952Y20770*
X15010Y20659*
X15040*
X15098Y20770*
X15181Y20863*
X15284Y20934*
X15401Y20979*
X15525Y20994*
X15649Y20979*
X15766Y20934*
X15869Y20863*
X15952Y20770*
X16010Y20659*
X16040*
X16098Y20770*
X16181Y20863*
X16284Y20934*
X16401Y20979*
X16525Y20994*
X16649Y20979*
X16766Y20934*
X16869Y20863*
X16952Y20770*
X17010Y20659*
X17040*
X17098Y20769*
X17180Y20863*
X17283Y20934*
X17399Y20978*
X17522Y20994*
X17646Y20979*
X17763Y20936*
X17866Y20866*
X17949Y20774*
X18008Y20664*
X18039Y20544*
X18041Y20419*
X18012Y20298*
X22455Y15855*
X22495Y15795*
X22509Y15725*
Y4475*
X22495Y4405*
X22455Y4345*
X21000Y2890*
Y2350*
X20150*
Y3200*
X20790*
X20940Y3350*
X20150*
Y4200*
X21000*
Y3410*
X22141Y4551*
Y12572*
X22098Y12526*
X22048Y12487*
Y9925*
X22041Y9867*
X22019Y9813*
X21983Y9767*
X18383Y6167*
X18337Y6131*
X18283Y6109*
X18225Y6102*
X16342*
Y6003*
X15658*
Y6150*
X15066*
Y6003*
X14384*
Y6150*
X13966*
Y6003*
X13284*
Y6150*
X12842*
Y6003*
X12158*
Y6141*
X11716*
Y6003*
X11034*
Y6647*
X11716*
Y6509*
X12158*
Y6647*
X12842*
Y6500*
X13284*
Y6647*
X13966*
Y6500*
X14384*
Y6647*
X15066*
Y6500*
X15658*
Y6647*
X16342*
Y6548*
X18132*
X21602Y10018*
Y12487*
X21523Y12555*
X21464Y12641*
X20251*
X20055Y12445*
X19995Y12405*
X19925Y12391*
X18266*
Y12253*
X18148*
Y11297*
X18466*
Y10653*
X17784*
Y11000*
X17767Y11017*
X17731Y11063*
X17709Y11117*
X17702Y11175*
Y11916*
X17503Y11718*
X17443Y11678*
X17373Y11664*
X15462*
X15842Y11284*
X15386Y10828*
X14903Y11311*
X15007Y11415*
X14881Y11541*
X14817Y11476*
X14529Y11764*
X14529Y11764*
X14455Y11838*
X14441Y11852*
X14383Y11794*
X14390Y11725*
X14375Y11622*
X14332Y11528*
X14264Y11449*
X14177Y11393*
X14077Y11364*
X13973*
X13873Y11393*
X13786Y11449*
X13718Y11528*
X13675Y11622*
X13660Y11725*
X13673Y11822*
X13712Y11913*
X13773Y11989*
X13853Y12047*
X13945Y12081*
X14043Y12090*
X14140Y12071*
X14181Y12112*
X13898Y12395*
X13798Y12295*
X13738Y12255*
X13668Y12241*
X13509*
Y11451*
X14501Y10459*
X14766*
X14408Y10816*
X14864Y11272*
X15347Y10789*
X15017Y10459*
X17784*
Y10597*
X18466*
Y10459*
X20449*
X20590Y10600*
X20575Y10662*
X20570Y10725*
X20584Y10830*
X20624Y10927*
X20689Y11011*
X20773Y11076*
X20870Y11116*
X20975Y11130*
X21080Y11116*
X21177Y11076*
X21261Y11011*
X21326Y10927*
X21366Y10830*
X21380Y10725*
X21365Y10617*
X21323Y10517*
X21255Y10432*
X21167Y10368*
X21065Y10330*
X20957Y10320*
X20850Y10340*
X20655Y10145*
X20595Y10105*
X20525Y10091*
X18466*
Y9953*
X17784*
Y10091*
X14469*
X15061Y9499*
X15082Y9599*
X15129Y9689*
X15200Y9762*
X15288Y9813*
X15386Y9838*
X15488Y9835*
X15585Y9803*
X15669Y9746*
X15734Y9669*
X15776Y9576*
X15790Y9475*
X15779Y9384*
X15745Y9300*
X15692Y9226*
X15621Y9167*
X15539Y9128*
X15449Y9111*
X15534Y9027*
Y9097*
X16216*
Y8453*
X15659*
Y8397*
X16216*
Y7753*
X15659*
Y7551*
X15863Y7347*
X16342*
Y6703*
X15658*
Y7031*
X15345Y7345*
X15305Y7405*
X15291Y7475*
Y8575*
X15304Y8642*
X15340Y8700*
X15066Y8973*
Y8453*
X14509*
Y8397*
X15066*
Y7753*
X14509*
Y7451*
X14613Y7347*
X15066*
Y6703*
X14384*
Y7056*
X14195Y7245*
X14155Y7305*
X14141Y7375*
Y8575*
X14155Y8645*
X14195Y8705*
X14291Y8801*
X13717Y9375*
X13585*
X13705Y9255*
X13745Y9195*
X13759Y9125*
Y9097*
X13966*
Y8453*
X13459*
Y8397*
X13966*
Y7753*
X13459*
Y7347*
X13966*
Y6703*
X13284*
Y6956*
X13145Y7095*
X13105Y7155*
X13091Y7225*
Y8575*
X13105Y8645*
X13145Y8705*
X13284Y8844*
Y9097*
X13343*
X13249Y9191*
X12875*
X12805Y9205*
X12745Y9245*
X12559Y9431*
Y9097*
X12842*
Y8453*
X12259*
Y8397*
X12842*
Y7753*
X12259*
Y7551*
X12463Y7347*
X12842*
Y6703*
X12158*
Y7131*
X11955Y7335*
X11936Y7286*
X11905Y7245*
X11716Y7056*
Y6703*
X11034*
Y7347*
X11487*
X11591Y7451*
Y7753*
X11034*
Y7928*
X10936Y7885*
X10830Y7870*
X10724Y7883*
X10626Y7922*
X10541Y7987*
X10475Y8071*
X10434Y8169*
X10420Y8275*
X10434Y8381*
X10475Y8479*
X10540Y8563*
X10626Y8627*
X10724Y8667*
X10830Y8680*
X10936Y8665*
X11034Y8622*
Y9097*
X11275*
Y9776*
X10001Y8501*
X9944Y8463*
X9877Y8450*
X6575*
X6508Y8463*
X6451Y8501*
X6228Y8725*
X6128Y8710*
X6029Y8723*
X5936Y8762*
X5858Y8826*
X5801Y8908*
X5767Y9003*
X5761Y9103*
X5782Y9201*
X5830Y9290*
X5899Y9362*
X5986Y9413*
X5913Y9471*
X5857Y9546*
X5822Y9632*
X5810Y9725*
X5825Y9828*
X5868Y9922*
X5936Y10001*
X6023Y10057*
X6123Y10086*
X6227*
X6327Y10057*
X6414Y10001*
X6482Y9922*
X6525Y9828*
X6540Y9725*
X6530Y9640*
X7054Y9116*
X9687*
X10021Y9450*
X8845*
X8781Y9365*
X8695Y9302*
X8594Y9267*
X8487Y9262*
X8384Y9288*
X8293Y9344*
X8221Y9423*
X8176Y9519*
X8160Y9625*
X8176Y9731*
X8221Y9827*
X8293Y9906*
X8384Y9962*
X8487Y9988*
X8594Y9983*
X8695Y9948*
X8781Y9885*
X8845Y9800*
X10103*
X10678Y10375*
X10576*
X10534Y10280*
X10466Y10201*
X10379Y10144*
X10279Y10114*
X10175Y10113*
X10074Y10142*
X9987Y10199*
X9918Y10277*
X9875Y10372*
X9860Y10475*
X9874Y10574*
X9913Y10665*
X9976Y10742*
X10058Y10800*
X10152Y10833*
X10099Y10911*
X10068Y11001*
X10061Y11095*
X10078Y11189*
X10119Y11274*
X10181Y11346*
X10259Y11400*
X10177Y11457*
X10114Y11534*
X10074Y11626*
X10060Y11725*
X10074Y11825*
X10115Y11917*
X10179Y11995*
X10262Y12052*
X10358Y12084*
X10458Y12088*
X10557Y12065*
X10645Y12016*
X10716Y11945*
X10765Y11857*
X10788Y11759*
X10949*
X11043Y11853*
X10659Y12238*
X10659Y12238*
X10478Y12419*
X10933Y12874*
X11112Y12695*
X11234Y12816*
X11299Y12860*
X11375Y12875*
X11925*
X12001Y12860*
X12066Y12816*
X12264Y12619*
X12352Y12665*
X12449Y12685*
X12549Y12679*
X12642Y12645*
X12724Y12588*
X12787Y12511*
X12826Y12420*
X12840Y12321*
X12830Y12235*
X12799Y12153*
X12750Y12081*
X12686Y12023*
X12762Y11951*
X12814Y11859*
X12839Y11757*
X12833Y11651*
X12797Y11552*
X12734Y11468*
X12650Y11405*
X12551Y11368*
X12446Y11361*
X13031Y10776*
X13105Y10702*
X13212Y10595*
X13286Y10521*
X13574Y10233*
X13550Y10209*
X14231*
X13195Y11245*
X13155Y11305*
X13141Y11375*
Y12349*
X12549Y12941*
X9951*
X8614Y11603*
X8725Y11598*
X8831Y11562*
X8923Y11499*
X8995Y11413*
X9040Y11311*
X9055Y11200*
X9041Y11095*
X9001Y10998*
X8936Y10914*
X8852Y10849*
X8755Y10809*
X8650Y10795*
X8545Y10809*
X8448Y10849*
X8364Y10914*
X8299Y10998*
X8259Y11095*
X8245Y11200*
X8247Y11236*
X7555Y10545*
X7495Y10505*
X7425Y10491*
X5050*
Y10250*
X4275*
Y10100*
X5050*
Y9250*
X4275*
X4366Y3112D02*
X4380Y3267D01*
X4422Y3416*
X4491Y3555*
X4585Y3679*
X4700Y3783*
X4831Y3865*
X4976Y3921*
X5129Y3949*
X5284*
X5436Y3921*
X5581Y3865*
X5713Y3783*
X5827Y3679*
X5921Y3555*
X5990Y3416*
X6032Y3267*
X6047Y3112*
X6032Y2958*
X5990Y2809*
X5921Y2670*
X5827Y2546*
X5713Y2442*
X5581Y2360*
X5436Y2304*
X5284Y2275*
X5129*
X4976Y2304*
X4831Y2360*
X4700Y2442*
X4585Y2546*
X4491Y2670*
X4422Y2809*
X4380Y2958*
X4366Y3112*
Y20435D02*
X4380Y20590D01*
X4422Y20739*
X4491Y20878*
X4585Y21001*
X4700Y21106*
X4831Y21188*
X4976Y21244*
X5129Y21272*
X5284*
X5436Y21244*
X5581Y21188*
X5713Y21106*
X5827Y21001*
X5921Y20878*
X5990Y20739*
X6032Y20590*
X6047Y20435*
X6032Y20281*
X5990Y20132*
X5921Y19993*
X5827Y19869*
X5713Y19764*
X5581Y19683*
X5436Y19627*
X5284Y19598*
X5129*
X4976Y19627*
X4831Y19683*
X4700Y19764*
X4585Y19869*
X4491Y19993*
X4422Y20132*
X4380Y20281*
X4366Y20435*
X7870Y5225D02*
X7884Y5330D01*
X7924Y5427*
X7989Y5511*
X8073Y5576*
X8170Y5616*
X8275Y5630*
X8380Y5616*
X8477Y5576*
X8561Y5511*
X8626Y5427*
X8666Y5330*
X8680Y5225*
X8666Y5120*
X8626Y5023*
X8561Y4939*
X8477Y4874*
X8380Y4834*
X8275Y4820*
X8170Y4834*
X8073Y4874*
X7989Y4939*
X7924Y5023*
X7884Y5120*
X7870Y5225*
X8200Y2400D02*
X7350D01*
Y3250*
X8200*
Y2400*
Y3400D02*
X7350D01*
Y4250*
X8200*
Y3400*
X9770Y5775D02*
X9784Y5880D01*
X9824Y5977*
X9889Y6061*
X9973Y6126*
X10070Y6166*
X10175Y6180*
X10280Y6166*
X10377Y6126*
X10461Y6061*
X10526Y5977*
X10566Y5880*
X10580Y5775*
X10566Y5670*
X10526Y5573*
X10461Y5489*
X10377Y5424*
X10280Y5384*
X10175Y5370*
X10070Y5384*
X9973Y5424*
X9889Y5489*
X9824Y5573*
X9784Y5670*
X9770Y5775*
X10387Y3325D02*
X10283Y3366D01*
X10190Y3429*
X10112Y3511*
X10054Y3607*
X10018Y3713*
X10006Y3825*
X10021Y3948*
X10065Y4064*
X10134Y4166*
X10226Y4249*
X10335Y4308*
X10455Y4339*
X10579Y4341*
X10700Y4313*
X10811Y4258*
X10905Y4178*
X10978Y4078*
X11025Y3963*
X11071Y4076*
X11143Y4176*
X11236Y4256*
X11345Y4311*
X11464Y4340*
X11586*
X11705Y4311*
X11814Y4256*
X11907Y4176*
X11979Y4076*
X12025Y3963*
X12071Y4076*
X12143Y4176*
X12236Y4256*
X12345Y4311*
X12464Y4340*
X12586*
X12705Y4311*
X12814Y4256*
X12907Y4176*
X12979Y4076*
X13025Y3963*
X13071Y4076*
X13143Y4176*
X13236Y4256*
X13345Y4311*
X13464Y4340*
X13586*
X13705Y4311*
X13814Y4256*
X13907Y4176*
X13979Y4076*
X14025Y3963*
X14071Y4076*
X14143Y4176*
X14236Y4256*
X14345Y4311*
X14464Y4340*
X14586*
X14705Y4311*
X14814Y4256*
X14907Y4176*
X14979Y4076*
X15025Y3963*
X15071Y4076*
X15143Y4176*
X15236Y4256*
X15345Y4311*
X15464Y4340*
X15586*
X15705Y4311*
X15814Y4256*
X15907Y4176*
X15979Y4076*
X16025Y3963*
X16071Y4076*
X16143Y4176*
X16236Y4256*
X16345Y4311*
X16464Y4340*
X16586*
X16705Y4311*
X16814Y4256*
X16907Y4176*
X16979Y4076*
X17025Y3963*
X17072Y4078*
X17145Y4178*
X17239Y4258*
X17350Y4313*
X17471Y4341*
X17595Y4339*
X17714Y4308*
X17824Y4249*
X17916Y4166*
X17985Y4064*
X18029Y3948*
X18044Y3825*
X18032Y3713*
X17996Y3607*
X17938Y3511*
X17860Y3429*
X17767Y3366*
X17663Y3325*
X17767Y3284*
X17860Y3221*
X17938Y3139*
X17996Y3043*
X18032Y2937*
X18044Y2825*
X18029Y2702*
X17985Y2586*
X17916Y2484*
X17824Y2401*
X17715Y2342*
X17595Y2311*
X17471Y2309*
X17350Y2337*
X17239Y2392*
X17145Y2472*
X17072Y2572*
X17025Y2687*
X16979Y2574*
X16907Y2474*
X16814Y2394*
X16705Y2339*
X16586Y2310*
X16464*
X16345Y2339*
X16236Y2394*
X16143Y2474*
X16071Y2574*
X16025Y2687*
X15979Y2574*
X15907Y2474*
X15814Y2394*
X15705Y2339*
X15586Y2310*
X15464*
X15345Y2339*
X15236Y2394*
X15143Y2474*
X15071Y2574*
X15025Y2687*
X14979Y2574*
X14907Y2474*
X14814Y2394*
X14705Y2339*
X14586Y2310*
X14464*
X14345Y2339*
X14236Y2394*
X14143Y2474*
X14071Y2574*
X14025Y2687*
X13979Y2574*
X13907Y2474*
X13814Y2394*
X13705Y2339*
X13586Y2310*
X13464*
X13345Y2339*
X13236Y2394*
X13143Y2474*
X13071Y2574*
X13025Y2687*
X12979Y2574*
X12907Y2474*
X12814Y2394*
X12705Y2339*
X12586Y2310*
X12464*
X12345Y2339*
X12236Y2394*
X12143Y2474*
X12071Y2574*
X12025Y2687*
X11979Y2574*
X11907Y2474*
X11814Y2394*
X11705Y2339*
X11586Y2310*
X11464*
X11345Y2339*
X11236Y2394*
X11143Y2474*
X11071Y2574*
X11025Y2687*
X10978Y2572*
X10905Y2472*
X10811Y2392*
X10700Y2337*
X10579Y2309*
X10455Y2311*
X10335Y2342*
X10226Y2401*
X10134Y2484*
X10065Y2586*
X10021Y2702*
X10006Y2825*
X10018Y2937*
X10054Y3043*
X10112Y3139*
X10190Y3221*
X10283Y3284*
X10387Y3325*
X12020Y5575D02*
X12034Y5680D01*
X12074Y5777*
X12139Y5861*
X12223Y5926*
X12320Y5966*
X12425Y5980*
X12530Y5966*
X12627Y5926*
X12711Y5861*
X12776Y5777*
X12816Y5680*
X12830Y5575*
X12816Y5470*
X12776Y5373*
X12711Y5289*
X12627Y5224*
X12530Y5184*
X12425Y5170*
X12320Y5184*
X12223Y5224*
X12139Y5289*
X12074Y5373*
X12034Y5470*
X12020Y5575*
X13670D02*
X13684Y5680D01*
X13724Y5777*
X13789Y5861*
X13873Y5926*
X13970Y5966*
X14075Y5980*
X14180Y5966*
X14277Y5926*
X14361Y5861*
X14426Y5777*
X14466Y5680*
X14480Y5575*
X14466Y5470*
X14426Y5373*
X14361Y5289*
X14277Y5224*
X14180Y5184*
X14075Y5170*
X13970Y5184*
X13873Y5224*
X13789Y5289*
X13724Y5373*
X13684Y5470*
X13670Y5575*
X15870D02*
X15884Y5680D01*
X15924Y5777*
X15989Y5861*
X16073Y5926*
X16170Y5966*
X16275Y5980*
X16380Y5966*
X16477Y5926*
X16561Y5861*
X16626Y5777*
X16666Y5680*
X16680Y5575*
X16666Y5470*
X16626Y5373*
X16561Y5289*
X16477Y5224*
X16380Y5184*
X16275Y5170*
X16170Y5184*
X16073Y5224*
X15989Y5289*
X15924Y5373*
X15884Y5470*
X15870Y5575*
X17470Y9125D02*
X17484Y9230D01*
X17524Y9327*
X17589Y9411*
X17673Y9476*
X17770Y9516*
X17875Y9530*
X17980Y9516*
X18077Y9476*
X18161Y9411*
X18226Y9327*
X18266Y9230*
X18280Y9125*
X18266Y9020*
X18226Y8923*
X18161Y8839*
X18077Y8774*
X17980Y8734*
X17875Y8720*
X17770Y8734*
X17673Y8774*
X17589Y8839*
X17524Y8923*
X17484Y9020*
X17470Y9125*
X18570Y5525D02*
X18584Y5630D01*
X18624Y5727*
X18689Y5811*
X18773Y5876*
X18870Y5916*
X18975Y5930*
X19080Y5916*
X19177Y5876*
X19261Y5811*
X19326Y5727*
X19366Y5630*
X19380Y5525*
X19366Y5420*
X19326Y5323*
X19261Y5239*
X19177Y5174*
X19080Y5134*
X18975Y5120*
X18870Y5134*
X18773Y5174*
X18689Y5239*
X18624Y5323*
X18584Y5420*
X18570Y5525*
X20350Y19950D02*
X21200D01*
Y19100*
X20350*
Y19950*
Y20950D02*
X21200D01*
Y20100*
X20350*
Y20950*
X20920Y5825D02*
X20934Y5930D01*
X20974Y6027*
X21039Y6111*
X21123Y6176*
X21220Y6216*
X21325Y6230*
X21430Y6216*
X21527Y6176*
X21611Y6111*
X21676Y6027*
X21716Y5930*
X21730Y5825*
X21716Y5720*
X21676Y5623*
X21611Y5539*
X21527Y5474*
X21430Y5434*
X21325Y5420*
X21220Y5434*
X21123Y5474*
X21039Y5539*
X20974Y5623*
X20934Y5720*
X20920Y5825*
X21688Y3112D02*
X21703Y3267D01*
X21745Y3416*
X21814Y3555*
X21908Y3679*
X22022Y3783*
X22154Y3865*
X22299Y3921*
X22451Y3949*
X22606*
X22759Y3921*
X22904Y3865*
X23036Y3783*
X23150Y3679*
X23244Y3555*
X23313Y3416*
X23355Y3267*
X23369Y3112*
X23355Y2958*
X23313Y2809*
X23244Y2670*
X23150Y2546*
X23036Y2442*
X22904Y2360*
X22759Y2304*
X22606Y2275*
X22451*
X22299Y2304*
X22154Y2360*
X22022Y2442*
X21908Y2546*
X21814Y2670*
X21745Y2809*
X21703Y2958*
X21688Y3112*
Y20435D02*
X21703Y20590D01*
X21745Y20739*
X21814Y20878*
X21908Y21001*
X22022Y21106*
X22154Y21188*
X22299Y21244*
X22451Y21272*
X22606*
X22759Y21244*
X22904Y21188*
X23036Y21106*
X23150Y21001*
X23244Y20878*
X23313Y20739*
X23355Y20590*
X23369Y20435*
X23355Y20281*
X23313Y20132*
X23244Y19993*
X23150Y19869*
X23036Y19764*
X22904Y19683*
X22759Y19627*
X22606Y19598*
X22451*
X22299Y19627*
X22154Y19683*
X22022Y19764*
X21908Y19869*
X21814Y19993*
X21745Y20132*
X21703Y20281*
X21688Y20435*
X22220Y16625D02*
X22234Y16730D01*
X22274Y16827*
X22339Y16911*
X22423Y16976*
X22520Y17016*
X22625Y17030*
X22730Y17016*
X22827Y16976*
X22911Y16911*
X22976Y16827*
X23016Y16730*
X23030Y16625*
X23016Y16520*
X22976Y16423*
X22911Y16339*
X22827Y16274*
X22730Y16234*
X22625Y16220*
X22520Y16234*
X22423Y16274*
X22339Y16339*
X22274Y16423*
X22234Y16520*
X22220Y16625*
X4371Y2189D02*
X23364D01*
X4305Y2237D02*
X23430D01*
X4281Y2285D02*
X5056D01*
X5357D02*
X22378D01*
X22679D02*
X23454D01*
X4275Y2333D02*
X4890D01*
X5522D02*
X10359D01*
X10691D02*
X11359D01*
X11691D02*
X12359D01*
X12691D02*
X13359D01*
X13691D02*
X14359D01*
X14691D02*
X15359D01*
X15691D02*
X16359D01*
X16691D02*
X17359D01*
X17691D02*
X22213D01*
X22845D02*
X23460D01*
X4275Y2381D02*
X4791D01*
X5621D02*
X10256D01*
X10794D02*
X11256D01*
X11794D02*
X12256D01*
X12794D02*
X13256D01*
X13794D02*
X14256D01*
X14794D02*
X15256D01*
X15794D02*
X16256D01*
X16794D02*
X17256D01*
X17794D02*
X20150D01*
X21000D02*
X22114D01*
X22944D02*
X23460D01*
X4275Y2430D02*
X4716D01*
X5696D02*
X7350D01*
X8200D02*
X10189D01*
X10861D02*
X11189D01*
X11861D02*
X12189D01*
X12861D02*
X13189D01*
X13861D02*
X14189D01*
X14861D02*
X15189D01*
X15861D02*
X16189D01*
X16861D02*
X17189D01*
X17861D02*
X20150D01*
X21000D02*
X22039D01*
X23019D02*
X23460D01*
X4275Y2478D02*
X4655D01*
X5757D02*
X7350D01*
X8200D02*
X10140D01*
X10910D02*
X11140D01*
X11910D02*
X12140D01*
X12910D02*
X13140D01*
X13910D02*
X14140D01*
X14910D02*
X15140D01*
X15910D02*
X16140D01*
X16910D02*
X17140D01*
X17910D02*
X20150D01*
X21000D02*
X21978D01*
X23080D02*
X23460D01*
X4275Y2526D02*
X4604D01*
X5808D02*
X7350D01*
X8200D02*
X10101D01*
X10949D02*
X11101D01*
X11949D02*
X12101D01*
X12949D02*
X13101D01*
X13949D02*
X14101D01*
X14949D02*
X15101D01*
X15949D02*
X16101D01*
X16949D02*
X17101D01*
X17949D02*
X20150D01*
X21000D02*
X21927D01*
X23131D02*
X23460D01*
X4275Y2574D02*
X4561D01*
X5851D02*
X7350D01*
X8200D02*
X10071D01*
X10979D02*
X11071D01*
X11979D02*
X12071D01*
X12979D02*
X13071D01*
X13979D02*
X14071D01*
X14979D02*
X15071D01*
X15979D02*
X16071D01*
X16979D02*
X17071D01*
X17979D02*
X20150D01*
X21000D02*
X21884D01*
X23174D02*
X23460D01*
X4275Y2622D02*
X4524D01*
X5889D02*
X7350D01*
X8200D02*
X10048D01*
X11002D02*
X11048D01*
X12002D02*
X12048D01*
X13002D02*
X13048D01*
X14002D02*
X14048D01*
X15002D02*
X15048D01*
X16002D02*
X16048D01*
X17002D02*
X17048D01*
X18002D02*
X20150D01*
X21000D02*
X21847D01*
X23211D02*
X23460D01*
X4275Y2670D02*
X4492D01*
X5921D02*
X7350D01*
X8200D02*
X10030D01*
X11020D02*
X11030D01*
X12020D02*
X12030D01*
X13020D02*
X13030D01*
X14020D02*
X14030D01*
X15020D02*
X15030D01*
X16020D02*
X16030D01*
X17020D02*
X17030D01*
X18020D02*
X20150D01*
X21000D02*
X21814D01*
X23243D02*
X23460D01*
X4275Y2718D02*
X4464D01*
X5948D02*
X7350D01*
X8200D02*
X10018D01*
X18032D02*
X20150D01*
X21000D02*
X21787D01*
X23271D02*
X23460D01*
X4275Y2766D02*
X4440D01*
X5972D02*
X7350D01*
X8200D02*
X10010D01*
X18040D02*
X20150D01*
X21000D02*
X21763D01*
X23295D02*
X23460D01*
X4275Y2814D02*
X4420D01*
X5992D02*
X7350D01*
X8200D02*
X10006D01*
X18044D02*
X20150D01*
X21000D02*
X21743D01*
X23315D02*
X23460D01*
X4275Y2862D02*
X4404D01*
X6008D02*
X7350D01*
X8200D02*
X10008D01*
X18042D02*
X20150D01*
X21000D02*
X21727D01*
X23331D02*
X23460D01*
X4275Y2910D02*
X4390D01*
X6022D02*
X7350D01*
X8200D02*
X10013D01*
X18037D02*
X20150D01*
X21020D02*
X21713D01*
X23345D02*
X23460D01*
X4275Y2958D02*
X4380D01*
X6032D02*
X7350D01*
X8200D02*
X10024D01*
X18026D02*
X20150D01*
X21068D02*
X21703D01*
X23355D02*
X23460D01*
X4275Y3006D02*
X4372D01*
X6040D02*
X7350D01*
X8200D02*
X10039D01*
X18011D02*
X20150D01*
X21116D02*
X21695D01*
X23363D02*
X23460D01*
X4275Y3054D02*
X4368D01*
X6045D02*
X7350D01*
X8200D02*
X10060D01*
X17990D02*
X20150D01*
X21164D02*
X21690D01*
X23367D02*
X23460D01*
X4275Y3102D02*
X4366D01*
X6047D02*
X7350D01*
X8200D02*
X10086D01*
X17964D02*
X20150D01*
X21212D02*
X21688D01*
X23369D02*
X23460D01*
X4275Y3150D02*
X4366D01*
X6046D02*
X7350D01*
X8200D02*
X10121D01*
X17929D02*
X20150D01*
X21260D02*
X21689D01*
X23369D02*
X23460D01*
X4275Y3198D02*
X4370D01*
X6042D02*
X7350D01*
X8200D02*
X10165D01*
X17885D02*
X20150D01*
X21308D02*
X21693D01*
X23365D02*
X23460D01*
X4275Y3246D02*
X4376D01*
X6036D02*
X7350D01*
X8200D02*
X10222D01*
X17828D02*
X20836D01*
X21356D02*
X21699D01*
X23359D02*
X23460D01*
X4275Y3294D02*
X4385D01*
X6027D02*
X10304D01*
X17746D02*
X20884D01*
X21404D02*
X21708D01*
X23350D02*
X23460D01*
X4275Y3342D02*
X4398D01*
X6015D02*
X10336D01*
X17714D02*
X20932D01*
X21452D02*
X21720D01*
X23337D02*
X23460D01*
X4275Y3390D02*
X4413D01*
X5999D02*
X10242D01*
X17808D02*
X20150D01*
X21500D02*
X21736D01*
X23322D02*
X23460D01*
X4275Y3438D02*
X4431D01*
X5981D02*
X7350D01*
X8200D02*
X10179D01*
X17871D02*
X20150D01*
X21000D02*
X21028D01*
X21548D02*
X21754D01*
X23304D02*
X23460D01*
X4275Y3486D02*
X4453D01*
X5959D02*
X7350D01*
X8200D02*
X10132D01*
X17918D02*
X20150D01*
X21000D02*
X21076D01*
X21596D02*
X21776D01*
X23282D02*
X23460D01*
X4275Y3534D02*
X4479D01*
X5933D02*
X7350D01*
X8200D02*
X10095D01*
X17955D02*
X20150D01*
X21000D02*
X21124D01*
X21645D02*
X21802D01*
X23256D02*
X23460D01*
X4275Y3582D02*
X4509D01*
X5903D02*
X7350D01*
X8200D02*
X10067D01*
X17983D02*
X20150D01*
X21000D02*
X21172D01*
X21693D02*
X21832D01*
X23226D02*
X23460D01*
X4275Y3630D02*
X4544D01*
X5868D02*
X7350D01*
X8200D02*
X10044D01*
X18006D02*
X20150D01*
X21000D02*
X21220D01*
X21741D02*
X21867D01*
X23191D02*
X23460D01*
X4275Y3678D02*
X4585D01*
X5828D02*
X7350D01*
X8200D02*
X10027D01*
X18023D02*
X20150D01*
X21000D02*
X21268D01*
X21789D02*
X21907D01*
X23150D02*
X23460D01*
X4275Y3726D02*
X4632D01*
X5780D02*
X7350D01*
X8200D02*
X10016D01*
X18034D02*
X20150D01*
X21000D02*
X21316D01*
X21837D02*
X21955D01*
X23103D02*
X23460D01*
X4275Y3774D02*
X4688D01*
X5724D02*
X7350D01*
X8200D02*
X10009D01*
X18041D02*
X20150D01*
X21000D02*
X21364D01*
X21885D02*
X22011D01*
X23047D02*
X23460D01*
X4275Y3822D02*
X4756D01*
X5656D02*
X7350D01*
X8200D02*
X10006D01*
X18044D02*
X20150D01*
X21000D02*
X21412D01*
X21933D02*
X22079D01*
X22979D02*
X23460D01*
X4275Y3870D02*
X4843D01*
X5569D02*
X7350D01*
X8200D02*
X10008D01*
X18042D02*
X20150D01*
X21000D02*
X21460D01*
X21981D02*
X22166D01*
X22892D02*
X23460D01*
X4275Y3919D02*
X4968D01*
X5444D02*
X7350D01*
X8200D02*
X10015D01*
X18035D02*
X20150D01*
X21000D02*
X21508D01*
X22029D02*
X22291D01*
X22767D02*
X23460D01*
X4275Y3967D02*
X7350D01*
X8200D02*
X10026D01*
X11024D02*
X11026D01*
X12024D02*
X12026D01*
X13024D02*
X13026D01*
X14024D02*
X14026D01*
X15024D02*
X15026D01*
X16024D02*
X16026D01*
X17024D02*
X17026D01*
X18024D02*
X20150D01*
X21000D02*
X21556D01*
X22077D02*
X23460D01*
X4275Y4015D02*
X7350D01*
X8200D02*
X10042D01*
X11008D02*
X11042D01*
X12008D02*
X12042D01*
X13008D02*
X13042D01*
X14008D02*
X14042D01*
X15008D02*
X15042D01*
X16008D02*
X16042D01*
X17008D02*
X17042D01*
X18008D02*
X20150D01*
X21000D02*
X21604D01*
X22125D02*
X23460D01*
X4275Y4063D02*
X7350D01*
X8200D02*
X10064D01*
X10986D02*
X11064D01*
X11986D02*
X12064D01*
X12986D02*
X13064D01*
X13986D02*
X14064D01*
X14986D02*
X15064D01*
X15986D02*
X16064D01*
X16986D02*
X17064D01*
X17986D02*
X20150D01*
X21000D02*
X21652D01*
X22173D02*
X23460D01*
X4275Y4111D02*
X7350D01*
X8200D02*
X10092D01*
X10958D02*
X11092D01*
X11958D02*
X12092D01*
X12958D02*
X13092D01*
X13958D02*
X14092D01*
X14958D02*
X15092D01*
X15958D02*
X16092D01*
X16958D02*
X17092D01*
X17958D02*
X20150D01*
X21000D02*
X21700D01*
X22221D02*
X23460D01*
X4275Y4159D02*
X7350D01*
X8200D02*
X10128D01*
X10922D02*
X11128D01*
X11922D02*
X12128D01*
X12922D02*
X13128D01*
X13922D02*
X14128D01*
X14922D02*
X15128D01*
X15922D02*
X16128D01*
X16922D02*
X17128D01*
X17922D02*
X20150D01*
X21000D02*
X21748D01*
X22269D02*
X23460D01*
X4275Y4207D02*
X7350D01*
X8200D02*
X10174D01*
X10876D02*
X11174D01*
X11876D02*
X12174D01*
X12876D02*
X13174D01*
X13876D02*
X14174D01*
X14876D02*
X15174D01*
X15876D02*
X16174D01*
X16876D02*
X17174D01*
X17876D02*
X21796D01*
X22317D02*
X23460D01*
X4275Y4255D02*
X10234D01*
X10816D02*
X11234D01*
X11816D02*
X12234D01*
X12816D02*
X13234D01*
X13816D02*
X14234D01*
X14816D02*
X15234D01*
X15816D02*
X16234D01*
X16816D02*
X17234D01*
X17816D02*
X21844D01*
X22365D02*
X23460D01*
X4275Y4303D02*
X10323D01*
X10727D02*
X11323D01*
X11727D02*
X12323D01*
X12727D02*
X13323D01*
X13727D02*
X14323D01*
X14727D02*
X15323D01*
X15727D02*
X16323D01*
X16727D02*
X17323D01*
X17727D02*
X21892D01*
X22413D02*
X23460D01*
X4275Y4351D02*
X21941D01*
X22461D02*
X23460D01*
X4275Y4399D02*
X21989D01*
X22493D02*
X23460D01*
X4275Y4447D02*
X22037D01*
X22507D02*
X23460D01*
X4275Y4495D02*
X22085D01*
X22509D02*
X23460D01*
X4275Y4543D02*
X22133D01*
X22509D02*
X23460D01*
X4275Y4591D02*
X22141D01*
X22509D02*
X23460D01*
X4275Y4639D02*
X22141D01*
X22509D02*
X23460D01*
X4275Y4687D02*
X22141D01*
X22509D02*
X23460D01*
X4275Y4735D02*
X22141D01*
X22509D02*
X23460D01*
X4275Y4783D02*
X22141D01*
X22509D02*
X23460D01*
X4275Y4831D02*
X8181D01*
X8369D02*
X22141D01*
X22509D02*
X23460D01*
X4275Y4879D02*
X8064D01*
X8486D02*
X22141D01*
X22509D02*
X23460D01*
X4275Y4927D02*
X8001D01*
X8549D02*
X22141D01*
X22509D02*
X23460D01*
X4275Y4975D02*
X7956D01*
X8594D02*
X22141D01*
X22509D02*
X23460D01*
X4275Y5023D02*
X7924D01*
X8626D02*
X22141D01*
X22509D02*
X23460D01*
X4275Y5071D02*
X7900D01*
X8650D02*
X22141D01*
X22509D02*
X23460D01*
X4275Y5119D02*
X7884D01*
X8666D02*
X22141D01*
X22509D02*
X23460D01*
X4275Y5167D02*
X7874D01*
X8676D02*
X18785D01*
X19165D02*
X22141D01*
X22509D02*
X23460D01*
X4275Y5215D02*
X7870D01*
X8680D02*
X12239D01*
X12611D02*
X13889D01*
X14261D02*
X16089D01*
X16461D02*
X18714D01*
X19236D02*
X22141D01*
X22509D02*
X23460D01*
X4275Y5263D02*
X7872D01*
X8678D02*
X12166D01*
X12684D02*
X13816D01*
X14334D02*
X16016D01*
X16534D02*
X18666D01*
X19284D02*
X22141D01*
X22509D02*
X23460D01*
X4275Y5311D02*
X7879D01*
X8671D02*
X12118D01*
X12732D02*
X13768D01*
X14382D02*
X15968D01*
X16582D02*
X18631D01*
X19319D02*
X22141D01*
X22509D02*
X23460D01*
X4275Y5359D02*
X7893D01*
X8657D02*
X12082D01*
X12768D02*
X13732D01*
X14418D02*
X15932D01*
X16618D02*
X18605D01*
X19345D02*
X22141D01*
X22509D02*
X23460D01*
X4275Y5407D02*
X7913D01*
X8637D02*
X10005D01*
X10345D02*
X12056D01*
X12794D02*
X13706D01*
X14444D02*
X15906D01*
X16644D02*
X18587D01*
X19363D02*
X22141D01*
X22509D02*
X23460D01*
X4275Y5456D02*
X7942D01*
X8608D02*
X9926D01*
X10424D02*
X12038D01*
X12812D02*
X13688D01*
X14462D02*
X15888D01*
X16662D02*
X18576D01*
X19374D02*
X21159D01*
X21491D02*
X22141D01*
X22509D02*
X23460D01*
X4275Y5504D02*
X7981D01*
X8569D02*
X9874D01*
X10476D02*
X12026D01*
X12824D02*
X13676D01*
X14474D02*
X15876D01*
X16674D02*
X18571D01*
X19379D02*
X21079D01*
X21571D02*
X22141D01*
X22509D02*
X23460D01*
X4275Y5552D02*
X8035D01*
X8515D02*
X9837D01*
X10513D02*
X12021D01*
X12829D02*
X13671D01*
X14479D02*
X15871D01*
X16679D02*
X18571D01*
X19379D02*
X21026D01*
X21624D02*
X22141D01*
X22509D02*
X23460D01*
X4275Y5600D02*
X8121D01*
X8429D02*
X9810D01*
X10540D02*
X12021D01*
X12829D02*
X13671D01*
X14479D02*
X15871D01*
X16679D02*
X18577D01*
X19373D02*
X20989D01*
X21661D02*
X22141D01*
X22509D02*
X23460D01*
X4275Y5648D02*
X9791D01*
X10559D02*
X12027D01*
X12823D02*
X13677D01*
X14473D02*
X15877D01*
X16673D02*
X18589D01*
X19361D02*
X20961D01*
X21689D02*
X22141D01*
X22509D02*
X23460D01*
X4275Y5696D02*
X9778D01*
X10572D02*
X12038D01*
X12812D02*
X13688D01*
X14462D02*
X15888D01*
X16662D02*
X18608D01*
X19342D02*
X20941D01*
X21709D02*
X22141D01*
X22509D02*
X23460D01*
X4275Y5744D02*
X9771D01*
X10579D02*
X12057D01*
X12793D02*
X13707D01*
X14443D02*
X15907D01*
X16643D02*
X18634D01*
X19316D02*
X20928D01*
X21722D02*
X22141D01*
X22509D02*
X23460D01*
X4275Y5792D02*
X9770D01*
X10580D02*
X12083D01*
X12767D02*
X13733D01*
X14417D02*
X15933D01*
X16617D02*
X18670D01*
X19280D02*
X20921D01*
X21729D02*
X22141D01*
X22509D02*
X23460D01*
X4275Y5840D02*
X9775D01*
X10575D02*
X12119D01*
X12731D02*
X13769D01*
X14381D02*
X15969D01*
X16581D02*
X18720D01*
X19230D02*
X20920D01*
X21730D02*
X22141D01*
X22509D02*
X23460D01*
X4275Y5888D02*
X9786D01*
X10564D02*
X12168D01*
X12682D02*
X13818D01*
X14332D02*
X16018D01*
X16532D02*
X18795D01*
X19155D02*
X20925D01*
X21725D02*
X22141D01*
X22509D02*
X23460D01*
X4275Y5936D02*
X9803D01*
X10547D02*
X12241D01*
X12609D02*
X13891D01*
X14259D02*
X16091D01*
X16459D02*
X20935D01*
X21715D02*
X22141D01*
X22509D02*
X23460D01*
X4275Y5984D02*
X9828D01*
X10522D02*
X20952D01*
X21698D02*
X22141D01*
X22509D02*
X23460D01*
X4275Y6032D02*
X9862D01*
X10488D02*
X11034D01*
X11716D02*
X12158D01*
X12842D02*
X13284D01*
X13966D02*
X14384D01*
X15066D02*
X15658D01*
X16342D02*
X20977D01*
X21673D02*
X22141D01*
X22509D02*
X23460D01*
X4275Y6080D02*
X9908D01*
X10442D02*
X11034D01*
X11716D02*
X12158D01*
X12842D02*
X13284D01*
X13966D02*
X14384D01*
X15066D02*
X15658D01*
X16342D02*
X21010D01*
X21640D02*
X22141D01*
X22509D02*
X23460D01*
X4275Y6128D02*
X9976D01*
X10374D02*
X11034D01*
X11716D02*
X12158D01*
X12842D02*
X13284D01*
X13966D02*
X14384D01*
X15066D02*
X15658D01*
X18330D02*
X21056D01*
X21594D02*
X22141D01*
X22509D02*
X23460D01*
X4275Y6176D02*
X10118D01*
X10232D02*
X11034D01*
X18392D02*
X21123D01*
X21527D02*
X22141D01*
X22509D02*
X23460D01*
X4275Y6224D02*
X11034D01*
X18440D02*
X21256D01*
X21394D02*
X22141D01*
X22509D02*
X23460D01*
X4275Y6272D02*
X11034D01*
X18488D02*
X22141D01*
X22509D02*
X23460D01*
X4275Y6320D02*
X11034D01*
X18536D02*
X22141D01*
X22509D02*
X23460D01*
X4275Y6368D02*
X11034D01*
X18584D02*
X22141D01*
X22509D02*
X23460D01*
X4275Y6416D02*
X11034D01*
X18632D02*
X22141D01*
X22509D02*
X23460D01*
X4275Y6464D02*
X11034D01*
X18680D02*
X22141D01*
X22509D02*
X23460D01*
X4275Y6512D02*
X11034D01*
X11716D02*
X12158D01*
X12842D02*
X13284D01*
X13966D02*
X14384D01*
X15066D02*
X15658D01*
X18728D02*
X22141D01*
X22509D02*
X23460D01*
X4275Y6560D02*
X11034D01*
X11716D02*
X12158D01*
X12842D02*
X13284D01*
X13966D02*
X14384D01*
X15066D02*
X15658D01*
X16342D02*
X18144D01*
X18776D02*
X22141D01*
X22509D02*
X23460D01*
X4275Y6608D02*
X11034D01*
X11716D02*
X12158D01*
X12842D02*
X13284D01*
X13966D02*
X14384D01*
X15066D02*
X15658D01*
X16342D02*
X18192D01*
X18824D02*
X22141D01*
X22509D02*
X23460D01*
X4275Y6656D02*
X18240D01*
X18872D02*
X22141D01*
X22509D02*
X23460D01*
X4275Y6704D02*
X11034D01*
X11716D02*
X12158D01*
X12842D02*
X13284D01*
X13966D02*
X14384D01*
X15066D02*
X15658D01*
X16342D02*
X18288D01*
X18920D02*
X22141D01*
X22509D02*
X23460D01*
X4275Y6752D02*
X11034D01*
X11716D02*
X12158D01*
X12842D02*
X13284D01*
X13966D02*
X14384D01*
X15066D02*
X15658D01*
X16342D02*
X18336D01*
X18968D02*
X22141D01*
X22509D02*
X23460D01*
X4275Y6800D02*
X11034D01*
X11716D02*
X12158D01*
X12842D02*
X13284D01*
X13966D02*
X14384D01*
X15066D02*
X15658D01*
X16342D02*
X18384D01*
X19016D02*
X22141D01*
X22509D02*
X23460D01*
X4275Y6848D02*
X11034D01*
X11716D02*
X12158D01*
X12842D02*
X13284D01*
X13966D02*
X14384D01*
X15066D02*
X15658D01*
X16342D02*
X18432D01*
X19064D02*
X22141D01*
X22509D02*
X23460D01*
X4275Y6896D02*
X11034D01*
X11716D02*
X12158D01*
X12842D02*
X13284D01*
X13966D02*
X14384D01*
X15066D02*
X15658D01*
X16342D02*
X18480D01*
X19112D02*
X22141D01*
X22509D02*
X23460D01*
X4275Y6944D02*
X11034D01*
X11716D02*
X12158D01*
X12842D02*
X13284D01*
X13966D02*
X14384D01*
X15066D02*
X15658D01*
X16342D02*
X18529D01*
X19160D02*
X22141D01*
X22509D02*
X23460D01*
X4275Y6993D02*
X11034D01*
X11716D02*
X12158D01*
X12842D02*
X13247D01*
X13966D02*
X14384D01*
X15066D02*
X15658D01*
X16342D02*
X18577D01*
X19209D02*
X22141D01*
X22509D02*
X23460D01*
X4275Y7041D02*
X11034D01*
X11716D02*
X12158D01*
X12842D02*
X13199D01*
X13966D02*
X14384D01*
X15066D02*
X15649D01*
X16342D02*
X18625D01*
X19257D02*
X22141D01*
X22509D02*
X23460D01*
X4275Y7089D02*
X11034D01*
X11749D02*
X12158D01*
X12842D02*
X13151D01*
X13966D02*
X14351D01*
X15066D02*
X15601D01*
X16342D02*
X18673D01*
X19305D02*
X22141D01*
X22509D02*
X23460D01*
X4275Y7137D02*
X11034D01*
X11797D02*
X12153D01*
X12842D02*
X13114D01*
X13966D02*
X14303D01*
X15066D02*
X15553D01*
X16342D02*
X18721D01*
X19353D02*
X22141D01*
X22509D02*
X23460D01*
X4275Y7185D02*
X11034D01*
X11845D02*
X12105D01*
X12842D02*
X13095D01*
X13966D02*
X14255D01*
X15066D02*
X15505D01*
X16342D02*
X18769D01*
X19401D02*
X22141D01*
X22509D02*
X23460D01*
X4275Y7233D02*
X11034D01*
X11893D02*
X12057D01*
X12842D02*
X13091D01*
X13966D02*
X14207D01*
X15066D02*
X15457D01*
X16342D02*
X18817D01*
X19449D02*
X22141D01*
X22509D02*
X23460D01*
X4275Y7281D02*
X11034D01*
X11933D02*
X12009D01*
X12842D02*
X13091D01*
X13966D02*
X14167D01*
X15066D02*
X15409D01*
X16342D02*
X18865D01*
X19497D02*
X22141D01*
X22509D02*
X23460D01*
X4275Y7329D02*
X11034D01*
X11953D02*
X11961D01*
X12842D02*
X13091D01*
X13966D02*
X14147D01*
X15066D02*
X15361D01*
X16342D02*
X18913D01*
X19545D02*
X22141D01*
X22509D02*
X23460D01*
X4275Y7377D02*
X11516D01*
X12434D02*
X13091D01*
X13459D02*
X14141D01*
X14584D02*
X15319D01*
X15834D02*
X18961D01*
X19593D02*
X22141D01*
X22509D02*
X23460D01*
X4275Y7425D02*
X11565D01*
X12385D02*
X13091D01*
X13459D02*
X14141D01*
X14535D02*
X15298D01*
X15785D02*
X19009D01*
X19641D02*
X22141D01*
X22509D02*
X23460D01*
X4275Y7473D02*
X11591D01*
X12337D02*
X13091D01*
X13459D02*
X14141D01*
X14509D02*
X15291D01*
X15737D02*
X19057D01*
X19689D02*
X22141D01*
X22509D02*
X23460D01*
X4275Y7521D02*
X11591D01*
X12289D02*
X13091D01*
X13459D02*
X14141D01*
X14509D02*
X15291D01*
X15689D02*
X19105D01*
X19737D02*
X22141D01*
X22509D02*
X23460D01*
X4275Y7569D02*
X11591D01*
X12259D02*
X13091D01*
X13459D02*
X14141D01*
X14509D02*
X15291D01*
X15659D02*
X19153D01*
X19785D02*
X22141D01*
X22509D02*
X23460D01*
X4275Y7617D02*
X11591D01*
X12259D02*
X13091D01*
X13459D02*
X14141D01*
X14509D02*
X15291D01*
X15659D02*
X19201D01*
X19833D02*
X22141D01*
X22509D02*
X23460D01*
X4275Y7665D02*
X11591D01*
X12259D02*
X13091D01*
X13459D02*
X14141D01*
X14509D02*
X15291D01*
X15659D02*
X19249D01*
X19881D02*
X22141D01*
X22509D02*
X23460D01*
X4275Y7713D02*
X11591D01*
X12259D02*
X13091D01*
X13459D02*
X14141D01*
X14509D02*
X15291D01*
X15659D02*
X19297D01*
X19929D02*
X22141D01*
X22509D02*
X23460D01*
X4275Y7761D02*
X11034D01*
X12842D02*
X13091D01*
X13966D02*
X14141D01*
X15066D02*
X15291D01*
X16216D02*
X19345D01*
X19977D02*
X22141D01*
X22509D02*
X23460D01*
X4275Y7809D02*
X11034D01*
X12842D02*
X13091D01*
X13966D02*
X14141D01*
X15066D02*
X15291D01*
X16216D02*
X19393D01*
X20025D02*
X22141D01*
X22509D02*
X23460D01*
X4275Y7857D02*
X11034D01*
X12842D02*
X13091D01*
X13966D02*
X14141D01*
X15066D02*
X15291D01*
X16216D02*
X19441D01*
X20073D02*
X22141D01*
X22509D02*
X23460D01*
X4275Y7905D02*
X10660D01*
X10990D02*
X11034D01*
X12842D02*
X13091D01*
X13966D02*
X14141D01*
X15066D02*
X15291D01*
X16216D02*
X19489D01*
X20121D02*
X22141D01*
X22509D02*
X23460D01*
X4275Y7953D02*
X10579D01*
X12842D02*
X13091D01*
X13966D02*
X14141D01*
X15066D02*
X15291D01*
X16216D02*
X19537D01*
X20169D02*
X22141D01*
X22509D02*
X23460D01*
X4275Y8001D02*
X10527D01*
X12842D02*
X13091D01*
X13966D02*
X14141D01*
X15066D02*
X15291D01*
X16216D02*
X19585D01*
X20217D02*
X22141D01*
X22509D02*
X23460D01*
X4275Y8049D02*
X10489D01*
X12842D02*
X13091D01*
X13966D02*
X14141D01*
X15066D02*
X15291D01*
X16216D02*
X19633D01*
X20265D02*
X22141D01*
X22509D02*
X23460D01*
X4275Y8097D02*
X10461D01*
X12842D02*
X13091D01*
X13966D02*
X14141D01*
X15066D02*
X15291D01*
X16216D02*
X19681D01*
X20313D02*
X22141D01*
X22509D02*
X23460D01*
X4275Y8145D02*
X10441D01*
X12842D02*
X13091D01*
X13966D02*
X14141D01*
X15066D02*
X15291D01*
X16216D02*
X19729D01*
X20361D02*
X22141D01*
X22509D02*
X23460D01*
X4275Y8193D02*
X10428D01*
X12842D02*
X13091D01*
X13966D02*
X14141D01*
X15066D02*
X15291D01*
X16216D02*
X19777D01*
X20409D02*
X22141D01*
X22509D02*
X23460D01*
X4275Y8241D02*
X10421D01*
X12842D02*
X13091D01*
X13966D02*
X14141D01*
X15066D02*
X15291D01*
X16216D02*
X19825D01*
X20457D02*
X22141D01*
X22509D02*
X23460D01*
X4275Y8289D02*
X10420D01*
X12842D02*
X13091D01*
X13966D02*
X14141D01*
X15066D02*
X15291D01*
X16216D02*
X19873D01*
X20505D02*
X22141D01*
X22509D02*
X23460D01*
X4275Y8337D02*
X10425D01*
X12842D02*
X13091D01*
X13966D02*
X14141D01*
X15066D02*
X15291D01*
X16216D02*
X19921D01*
X20553D02*
X22141D01*
X22509D02*
X23460D01*
X4275Y8385D02*
X10435D01*
X12842D02*
X13091D01*
X13966D02*
X14141D01*
X15066D02*
X15291D01*
X16216D02*
X19969D01*
X20601D02*
X22141D01*
X22509D02*
X23460D01*
X4275Y8433D02*
X10452D01*
X12259D02*
X13091D01*
X13459D02*
X14141D01*
X14509D02*
X15291D01*
X15659D02*
X20017D01*
X20649D02*
X22141D01*
X22509D02*
X23460D01*
X4275Y8481D02*
X6475D01*
X9977D02*
X10477D01*
X12842D02*
X13091D01*
X13966D02*
X14141D01*
X15066D02*
X15291D01*
X16216D02*
X20066D01*
X20697D02*
X22141D01*
X22509D02*
X23460D01*
X4275Y8530D02*
X6423D01*
X10029D02*
X10510D01*
X12842D02*
X13091D01*
X13966D02*
X14141D01*
X15066D02*
X15291D01*
X16216D02*
X20114D01*
X20746D02*
X22141D01*
X22509D02*
X23460D01*
X4275Y8578D02*
X6375D01*
X10077D02*
X10556D01*
X12842D02*
X13091D01*
X13966D02*
X14141D01*
X15066D02*
X15291D01*
X16216D02*
X20162D01*
X20794D02*
X22141D01*
X22509D02*
X23460D01*
X4275Y8626D02*
X6327D01*
X10125D02*
X10622D01*
X11028D02*
X11034D01*
X12842D02*
X13098D01*
X13966D02*
X14148D01*
X15066D02*
X15298D01*
X16216D02*
X20210D01*
X20842D02*
X22141D01*
X22509D02*
X23460D01*
X4275Y8674D02*
X6279D01*
X10173D02*
X10753D01*
X10897D02*
X11034D01*
X12842D02*
X13120D01*
X13966D02*
X14170D01*
X15066D02*
X15320D01*
X16216D02*
X20258D01*
X20890D02*
X22141D01*
X22509D02*
X23460D01*
X4275Y8722D02*
X6034D01*
X6216D02*
X6231D01*
X10221D02*
X11034D01*
X12842D02*
X13161D01*
X13966D02*
X14211D01*
X15066D02*
X15318D01*
X16216D02*
X17838D01*
X17912D02*
X20306D01*
X20938D02*
X22141D01*
X22509D02*
X23460D01*
X4275Y8770D02*
X5925D01*
X10269D02*
X11034D01*
X12842D02*
X13209D01*
X13966D02*
X14259D01*
X15066D02*
X15270D01*
X16216D02*
X17681D01*
X18069D02*
X20354D01*
X20986D02*
X22141D01*
X22509D02*
X23460D01*
X4275Y8818D02*
X5866D01*
X10317D02*
X11034D01*
X12842D02*
X13257D01*
X13966D02*
X14275D01*
X15066D02*
X15222D01*
X16216D02*
X17611D01*
X18139D02*
X20402D01*
X21034D02*
X22141D01*
X22509D02*
X23460D01*
X4275Y8866D02*
X5826D01*
X10365D02*
X11034D01*
X12842D02*
X13284D01*
X13966D02*
X14227D01*
X15066D02*
X15174D01*
X16216D02*
X17564D01*
X18186D02*
X20450D01*
X21082D02*
X22141D01*
X22509D02*
X23460D01*
X4275Y8914D02*
X5798D01*
X10413D02*
X11034D01*
X12842D02*
X13284D01*
X13966D02*
X14179D01*
X15066D02*
X15126D01*
X16216D02*
X17529D01*
X18221D02*
X20498D01*
X21130D02*
X22141D01*
X22509D02*
X23460D01*
X4275Y8962D02*
X5778D01*
X10461D02*
X11034D01*
X12842D02*
X13284D01*
X13966D02*
X14131D01*
X15066D02*
X15078D01*
X16216D02*
X17504D01*
X18246D02*
X20546D01*
X21178D02*
X22141D01*
X22509D02*
X23460D01*
X4275Y9010D02*
X5766D01*
X10509D02*
X11034D01*
X12842D02*
X13284D01*
X13966D02*
X14083D01*
X16216D02*
X17487D01*
X18263D02*
X20594D01*
X21226D02*
X22141D01*
X22509D02*
X23460D01*
X4275Y9058D02*
X5760D01*
X10557D02*
X11034D01*
X12842D02*
X13284D01*
X13966D02*
X14035D01*
X15502D02*
X15534D01*
X16216D02*
X17476D01*
X18274D02*
X20642D01*
X21274D02*
X22141D01*
X22509D02*
X23460D01*
X4275Y9106D02*
X5761D01*
X10605D02*
X11275D01*
X12559D02*
X13334D01*
X13759D02*
X13987D01*
X15454D02*
X17470D01*
X18280D02*
X20690D01*
X21322D02*
X22141D01*
X22509D02*
X23460D01*
X4275Y9154D02*
X5769D01*
X7016D02*
X9725D01*
X10653D02*
X11275D01*
X12559D02*
X13286D01*
X13757D02*
X13939D01*
X15599D02*
X17471D01*
X18279D02*
X20738D01*
X21370D02*
X22141D01*
X22509D02*
X23460D01*
X4275Y9202D02*
X5783D01*
X6968D02*
X9773D01*
X10701D02*
X11275D01*
X12559D02*
X12812D01*
X13742D02*
X13890D01*
X15667D02*
X17477D01*
X18273D02*
X20786D01*
X21418D02*
X22141D01*
X22509D02*
X23460D01*
X5050Y9250D02*
X5805D01*
X6920D02*
X9821D01*
X10749D02*
X11275D01*
X12559D02*
X12740D01*
X13710D02*
X13842D01*
X15712D02*
X17490D01*
X18260D02*
X20834D01*
X21466D02*
X22141D01*
X22509D02*
X22700D01*
X5050Y9298D02*
X5836D01*
X6872D02*
X8363D01*
X8687D02*
X9869D01*
X10797D02*
X11275D01*
X12559D02*
X12692D01*
X13662D02*
X13794D01*
X15744D02*
X17509D01*
X18241D02*
X20882D01*
X21514D02*
X22141D01*
X22509D02*
X22700D01*
X5050Y9346D02*
X5881D01*
X6824D02*
X8290D01*
X8760D02*
X9917D01*
X10845D02*
X11275D01*
X12559D02*
X12644D01*
X13614D02*
X13746D01*
X15766D02*
X17536D01*
X18214D02*
X20930D01*
X21562D02*
X22141D01*
X22509D02*
X22700D01*
X5050Y9394D02*
X5948D01*
X6776D02*
X8242D01*
X8808D02*
X9965D01*
X10893D02*
X11275D01*
X12559D02*
X12596D01*
X15781D02*
X17572D01*
X18178D02*
X20978D01*
X21610D02*
X22141D01*
X22509D02*
X22700D01*
X5050Y9442D02*
X5944D01*
X6728D02*
X8209D01*
X8841D02*
X10013D01*
X10941D02*
X11275D01*
X15789D02*
X17623D01*
X18127D02*
X21026D01*
X21658D02*
X22141D01*
X22509D02*
X22700D01*
X5050Y9490D02*
X5896D01*
X6680D02*
X8186D01*
X10989D02*
X11275D01*
X15790D02*
X17700D01*
X18050D02*
X21074D01*
X21706D02*
X22141D01*
X22509D02*
X22700D01*
X5050Y9538D02*
X5861D01*
X6632D02*
X8170D01*
X11038D02*
X11275D01*
X15022D02*
X15066D01*
X15784D02*
X21122D01*
X21754D02*
X22141D01*
X22509D02*
X22700D01*
X5050Y9586D02*
X5837D01*
X6584D02*
X8162D01*
X11086D02*
X11275D01*
X14974D02*
X15077D01*
X15773D02*
X21170D01*
X21802D02*
X22141D01*
X22509D02*
X22700D01*
X5050Y9634D02*
X5821D01*
X6536D02*
X8160D01*
X11134D02*
X11275D01*
X14926D02*
X15097D01*
X15753D02*
X21218D01*
X21850D02*
X22141D01*
X22509D02*
X22700D01*
X5050Y9682D02*
X5813D01*
X6538D02*
X8165D01*
X11182D02*
X11275D01*
X14878D02*
X15125D01*
X15725D02*
X21266D01*
X21898D02*
X22141D01*
X22509D02*
X22700D01*
X5050Y9730D02*
X5810D01*
X6540D02*
X8176D01*
X11230D02*
X11275D01*
X14830D02*
X15164D01*
X15686D02*
X21314D01*
X21946D02*
X22141D01*
X22509D02*
X22700D01*
X5050Y9778D02*
X5814D01*
X6536D02*
X8194D01*
X14782D02*
X15222D01*
X15628D02*
X21362D01*
X21994D02*
X22141D01*
X22509D02*
X22700D01*
X5050Y9826D02*
X5824D01*
X6526D02*
X8221D01*
X8829D02*
X10129D01*
X14734D02*
X15326D01*
X15524D02*
X21410D01*
X22025D02*
X22141D01*
X22509D02*
X22700D01*
X5050Y9874D02*
X5842D01*
X6508D02*
X8259D01*
X8791D02*
X10177D01*
X14686D02*
X21458D01*
X22043D02*
X22141D01*
X22509D02*
X22700D01*
X5050Y9922D02*
X5868D01*
X6482D02*
X8313D01*
X8737D02*
X10225D01*
X14638D02*
X21506D01*
X22048D02*
X22141D01*
X22509D02*
X22700D01*
X5050Y9970D02*
X5905D01*
X6445D02*
X8407D01*
X8643D02*
X10273D01*
X14590D02*
X17784D01*
X18466D02*
X21554D01*
X22048D02*
X22141D01*
X22509D02*
X22700D01*
X5050Y10019D02*
X5958D01*
X6392D02*
X10321D01*
X14542D02*
X17784D01*
X18466D02*
X21602D01*
X22048D02*
X22141D01*
X22509D02*
X22700D01*
X5050Y10067D02*
X6046D01*
X6304D02*
X10369D01*
X14494D02*
X17784D01*
X18466D02*
X21602D01*
X22048D02*
X22141D01*
X22509D02*
X22700D01*
X4275Y10115D02*
X10167D01*
X10283D02*
X10417D01*
X20615D02*
X21602D01*
X22048D02*
X22141D01*
X22509D02*
X23460D01*
X4275Y10163D02*
X10036D01*
X10414D02*
X10465D01*
X20673D02*
X21602D01*
X22048D02*
X22141D01*
X22509D02*
X23460D01*
X4275Y10211D02*
X9973D01*
X10477D02*
X10513D01*
X13551D02*
X14229D01*
X20721D02*
X21602D01*
X22048D02*
X22141D01*
X22509D02*
X23460D01*
X5050Y10259D02*
X9931D01*
X10519D02*
X10561D01*
X13548D02*
X14181D01*
X20769D02*
X21602D01*
X22048D02*
X22141D01*
X22509D02*
X22700D01*
X5050Y10307D02*
X9901D01*
X10549D02*
X10609D01*
X13500D02*
X14133D01*
X20817D02*
X21602D01*
X22048D02*
X22141D01*
X22509D02*
X22700D01*
X5050Y10355D02*
X9880D01*
X10570D02*
X10657D01*
X13452D02*
X14085D01*
X21139D02*
X21602D01*
X22048D02*
X22141D01*
X22509D02*
X22700D01*
X5050Y10403D02*
X9867D01*
X13404D02*
X14037D01*
X21220D02*
X21602D01*
X22048D02*
X22141D01*
X22509D02*
X22700D01*
X5050Y10451D02*
X9861D01*
X13356D02*
X13989D01*
X21273D02*
X21602D01*
X22048D02*
X22141D01*
X22509D02*
X22700D01*
X7478Y10499D02*
X9861D01*
X13308D02*
X13941D01*
X14461D02*
X14726D01*
X15057D02*
X17784D01*
X18466D02*
X20489D01*
X21311D02*
X21602D01*
X22048D02*
X22141D01*
X22509D02*
X22700D01*
X7557Y10547D02*
X9867D01*
X13260D02*
X13893D01*
X14413D02*
X14678D01*
X15105D02*
X17784D01*
X18466D02*
X20537D01*
X21339D02*
X21602D01*
X22048D02*
X22141D01*
X22509D02*
X22700D01*
X7605Y10595D02*
X9880D01*
X13212D02*
X13845D01*
X14365D02*
X14630D01*
X15153D02*
X17784D01*
X18466D02*
X20585D01*
X21359D02*
X21602D01*
X22048D02*
X22141D01*
X22509D02*
X22700D01*
X7653Y10643D02*
X9901D01*
X13164D02*
X13797D01*
X14317D02*
X14582D01*
X15201D02*
X20578D01*
X21372D02*
X21602D01*
X22048D02*
X22141D01*
X22509D02*
X22700D01*
X7701Y10691D02*
X9931D01*
X13116D02*
X13749D01*
X14269D02*
X14534D01*
X15249D02*
X17784D01*
X18466D02*
X20571D01*
X21379D02*
X21602D01*
X22048D02*
X22141D01*
X22509D02*
X22700D01*
X7749Y10739D02*
X9973D01*
X13068D02*
X13701D01*
X14221D02*
X14486D01*
X15297D02*
X17784D01*
X18466D02*
X20570D01*
X21380D02*
X21602D01*
X22048D02*
X22141D01*
X22509D02*
X22700D01*
X7797Y10787D02*
X10036D01*
X13020D02*
X13653D01*
X14173D02*
X14438D01*
X15345D02*
X17784D01*
X18466D02*
X20575D01*
X21375D02*
X21602D01*
X22048D02*
X22141D01*
X22509D02*
X22700D01*
X7845Y10835D02*
X8474D01*
X8826D02*
X10150D01*
X12972D02*
X13605D01*
X14125D02*
X14427D01*
X15300D02*
X15380D01*
X15393D02*
X17784D01*
X18466D02*
X20585D01*
X21365D02*
X21602D01*
X22048D02*
X22141D01*
X22509D02*
X22700D01*
X7893Y10883D02*
X8398D01*
X8902D02*
X10115D01*
X12924D02*
X13557D01*
X14077D02*
X14475D01*
X15252D02*
X15331D01*
X15441D02*
X17784D01*
X18466D02*
X20602D01*
X21348D02*
X21602D01*
X22048D02*
X22141D01*
X22509D02*
X22700D01*
X7941Y10931D02*
X8347D01*
X8953D02*
X10090D01*
X12876D02*
X13509D01*
X14029D02*
X14523D01*
X15204D02*
X15283D01*
X15489D02*
X17784D01*
X18466D02*
X20626D01*
X21324D02*
X21602D01*
X22048D02*
X22141D01*
X22509D02*
X22700D01*
X7989Y10979D02*
X8311D01*
X8989D02*
X10073D01*
X12828D02*
X13461D01*
X13981D02*
X14571D01*
X15156D02*
X15235D01*
X15537D02*
X17784D01*
X18466D02*
X20660D01*
X21290D02*
X21602D01*
X22048D02*
X22141D01*
X22509D02*
X22700D01*
X8037Y11027D02*
X8284D01*
X9016D02*
X10063D01*
X12780D02*
X13413D01*
X13933D02*
X14619D01*
X15108D02*
X15187D01*
X15585D02*
X17757D01*
X18466D02*
X20705D01*
X21245D02*
X21602D01*
X22048D02*
X22141D01*
X22509D02*
X22700D01*
X8086Y11075D02*
X8265D01*
X9035D02*
X10060D01*
X12732D02*
X13364D01*
X13885D02*
X14667D01*
X15060D02*
X15139D01*
X15633D02*
X17725D01*
X18466D02*
X20772D01*
X21178D02*
X21602D01*
X22048D02*
X22141D01*
X22509D02*
X22700D01*
X8134Y11123D02*
X8252D01*
X9048D02*
X10063D01*
X12684D02*
X13316D01*
X13837D02*
X14715D01*
X15012D02*
X15091D01*
X15681D02*
X17708D01*
X18466D02*
X20901D01*
X21049D02*
X21602D01*
X22048D02*
X22141D01*
X22509D02*
X23460D01*
X8182Y11171D02*
X8246D01*
X9054D02*
X10073D01*
X12636D02*
X13268D01*
X13789D02*
X14763D01*
X14964D02*
X15043D01*
X15729D02*
X17702D01*
X18466D02*
X21602D01*
X22048D02*
X22141D01*
X22509D02*
X23460D01*
X8230Y11219D02*
X8245D01*
X9055D02*
X10090D01*
X12588D02*
X13220D01*
X13741D02*
X14811D01*
X14916D02*
X14995D01*
X15777D02*
X17702D01*
X18466D02*
X21602D01*
X22048D02*
X22141D01*
X22509D02*
X23460D01*
X9049Y11267D02*
X10115D01*
X12540D02*
X13176D01*
X13693D02*
X14859D01*
X14868D02*
X14947D01*
X15825D02*
X17702D01*
X18466D02*
X21602D01*
X22048D02*
X22141D01*
X22509D02*
X22700D01*
X9038Y11315D02*
X10150D01*
X12492D02*
X13151D01*
X13645D02*
X14907D01*
X15810D02*
X17702D01*
X18148D02*
X21602D01*
X22048D02*
X22141D01*
X22509D02*
X22700D01*
X9021Y11363D02*
X10201D01*
X12524D02*
X13141D01*
X13597D02*
X13975D01*
X14075D02*
X14955D01*
X15762D02*
X17702D01*
X18148D02*
X21602D01*
X22048D02*
X22141D01*
X22509D02*
X22700D01*
X8995Y11411D02*
X10238D01*
X12662D02*
X13141D01*
X13549D02*
X13838D01*
X14212D02*
X15003D01*
X15714D02*
X17702D01*
X18148D02*
X21602D01*
X22048D02*
X22141D01*
X22509D02*
X22700D01*
X8961Y11459D02*
X10175D01*
X12725D02*
X13141D01*
X13509D02*
X13775D01*
X14275D02*
X14963D01*
X15666D02*
X17702D01*
X18148D02*
X21602D01*
X22048D02*
X22141D01*
X22509D02*
X22700D01*
X8914Y11507D02*
X10132D01*
X12768D02*
X13141D01*
X13509D02*
X13732D01*
X14318D02*
X14786D01*
X14848D02*
X14915D01*
X15618D02*
X17702D01*
X18148D02*
X21602D01*
X22048D02*
X22141D01*
X22509D02*
X22700D01*
X8844Y11556D02*
X10102D01*
X12798D02*
X13141D01*
X13509D02*
X13702D01*
X14348D02*
X14737D01*
X15570D02*
X17702D01*
X18148D02*
X21602D01*
X22048D02*
X22141D01*
X22509D02*
X22700D01*
X8685Y11604D02*
X10081D01*
X12819D02*
X13141D01*
X13509D02*
X13681D01*
X14369D02*
X14689D01*
X15522D02*
X17702D01*
X18148D02*
X21602D01*
X22048D02*
X22141D01*
X22509D02*
X22700D01*
X8662Y11652D02*
X10067D01*
X12833D02*
X13141D01*
X13509D02*
X13667D01*
X14383D02*
X14641D01*
X15474D02*
X17702D01*
X18148D02*
X21602D01*
X22048D02*
X22141D01*
X22509D02*
X22700D01*
X8710Y11700D02*
X10061D01*
X12839D02*
X13141D01*
X13509D02*
X13661D01*
X14389D02*
X14593D01*
X17482D02*
X17702D01*
X18148D02*
X21602D01*
X22048D02*
X22141D01*
X22509D02*
X22700D01*
X8758Y11748D02*
X10061D01*
X12839D02*
X13141D01*
X13509D02*
X13661D01*
X14389D02*
X14545D01*
X17533D02*
X17702D01*
X18148D02*
X21602D01*
X22048D02*
X22141D01*
X22509D02*
X22700D01*
X8806Y11796D02*
X10067D01*
X10783D02*
X10985D01*
X12833D02*
X13141D01*
X13509D02*
X13667D01*
X14385D02*
X14497D01*
X17581D02*
X17702D01*
X18148D02*
X21602D01*
X22048D02*
X22141D01*
X22509D02*
X22700D01*
X8854Y11844D02*
X10080D01*
X10770D02*
X11033D01*
X12820D02*
X13141D01*
X13509D02*
X13680D01*
X14433D02*
X14449D01*
X17629D02*
X17702D01*
X18148D02*
X21602D01*
X22048D02*
X22141D01*
X22509D02*
X22700D01*
X8902Y11892D02*
X10100D01*
X10750D02*
X11005D01*
X12800D02*
X13141D01*
X13509D02*
X13700D01*
X17677D02*
X17702D01*
X18148D02*
X21602D01*
X22048D02*
X22141D01*
X22509D02*
X22700D01*
X8950Y11940D02*
X10130D01*
X10720D02*
X10957D01*
X12770D02*
X13141D01*
X13509D02*
X13730D01*
X18148D02*
X21602D01*
X22048D02*
X22141D01*
X22509D02*
X22700D01*
X8998Y11988D02*
X10172D01*
X10678D02*
X10909D01*
X12728D02*
X13141D01*
X13509D02*
X13772D01*
X18148D02*
X21602D01*
X22048D02*
X22141D01*
X22509D02*
X22700D01*
X9046Y12036D02*
X10234D01*
X10616D02*
X10861D01*
X12703D02*
X13141D01*
X13509D02*
X13834D01*
X18148D02*
X21602D01*
X22048D02*
X22141D01*
X22509D02*
X22700D01*
X9094Y12084D02*
X10358D01*
X10492D02*
X10813D01*
X12752D02*
X13141D01*
X13509D02*
X13958D01*
X14092D02*
X14152D01*
X18148D02*
X21602D01*
X22048D02*
X22141D01*
X22509D02*
X22700D01*
X9142Y12132D02*
X10765D01*
X12787D02*
X13141D01*
X13509D02*
X14161D01*
X18148D02*
X21602D01*
X22048D02*
X22141D01*
X22509D02*
X23460D01*
X9190Y12180D02*
X10717D01*
X12812D02*
X13141D01*
X13509D02*
X14113D01*
X18148D02*
X21602D01*
X22048D02*
X22141D01*
X22509D02*
X23460D01*
X9238Y12228D02*
X10669D01*
X12828D02*
X13141D01*
X13509D02*
X14065D01*
X18148D02*
X21602D01*
X22048D02*
X22141D01*
X22509D02*
X23460D01*
X9286Y12276D02*
X10621D01*
X12837D02*
X13141D01*
X13776D02*
X14017D01*
X18266D02*
X21602D01*
X22048D02*
X22141D01*
X22509D02*
X22700D01*
X9334Y12324D02*
X10573D01*
X12840D02*
X13141D01*
X13827D02*
X13969D01*
X18266D02*
X21602D01*
X22048D02*
X22141D01*
X22509D02*
X22700D01*
X9382Y12372D02*
X10525D01*
X12836D02*
X13118D01*
X13875D02*
X13921D01*
X18266D02*
X21602D01*
X22048D02*
X22141D01*
X22509D02*
X22700D01*
X9430Y12420D02*
X10480D01*
X12826D02*
X13070D01*
X20024D02*
X21602D01*
X22048D02*
X22141D01*
X22509D02*
X22700D01*
X9478Y12468D02*
X10528D01*
X12809D02*
X13022D01*
X20078D02*
X21602D01*
X22048D02*
X22141D01*
X22509D02*
X22700D01*
X9526Y12516D02*
X10576D01*
X12784D02*
X12974D01*
X20126D02*
X21563D01*
X22087D02*
X22141D01*
X22509D02*
X22700D01*
X9574Y12564D02*
X10624D01*
X12747D02*
X12926D01*
X20174D02*
X21515D01*
X22135D02*
X22141D01*
X22509D02*
X22700D01*
X9622Y12612D02*
X10672D01*
X12695D02*
X12878D01*
X20222D02*
X21480D01*
X22509D02*
X22700D01*
X9671Y12660D02*
X10720D01*
X12222D02*
X12340D01*
X12610D02*
X12829D01*
X22509D02*
X22700D01*
X9719Y12708D02*
X10768D01*
X11099D02*
X11126D01*
X12174D02*
X12781D01*
X22509D02*
X22700D01*
X9767Y12756D02*
X10816D01*
X11051D02*
X11174D01*
X12126D02*
X12733D01*
X22509D02*
X22700D01*
X9815Y12804D02*
X10864D01*
X11003D02*
X11222D01*
X12078D02*
X12685D01*
X22509D02*
X22700D01*
X9863Y12852D02*
X10912D01*
X10955D02*
X11283D01*
X12017D02*
X12637D01*
X22509D02*
X22700D01*
X9911Y12900D02*
X12589D01*
X22509D02*
X22700D01*
X22509Y12948D02*
X22700D01*
X22509Y12996D02*
X22700D01*
X22509Y13044D02*
X22700D01*
X22129Y13093D02*
X22141D01*
X22509D02*
X22700D01*
X22079Y13141D02*
X22141D01*
X22509D02*
X23460D01*
X22048Y13189D02*
X22141D01*
X22509D02*
X23460D01*
X22048Y13237D02*
X22141D01*
X22509D02*
X23460D01*
X22048Y13285D02*
X22141D01*
X22509D02*
X22700D01*
X22048Y13333D02*
X22141D01*
X22509D02*
X22700D01*
X22048Y13381D02*
X22141D01*
X22509D02*
X22700D01*
X22048Y13429D02*
X22141D01*
X22509D02*
X22700D01*
X22048Y13477D02*
X22141D01*
X22509D02*
X22700D01*
X22048Y13525D02*
X22141D01*
X22509D02*
X22700D01*
X22048Y13573D02*
X22141D01*
X22509D02*
X22700D01*
X22048Y13621D02*
X22141D01*
X22509D02*
X22700D01*
X22048Y13669D02*
X22141D01*
X22509D02*
X22700D01*
X22048Y13717D02*
X22141D01*
X22509D02*
X22700D01*
X22045Y13765D02*
X22141D01*
X22509D02*
X22700D01*
X22030Y13813D02*
X22141D01*
X22509D02*
X22700D01*
X22002Y13861D02*
X22141D01*
X22509D02*
X22700D01*
X21957Y13909D02*
X22141D01*
X22509D02*
X22700D01*
X21909Y13957D02*
X22141D01*
X22509D02*
X22700D01*
X21861Y14005D02*
X22141D01*
X22509D02*
X22700D01*
X21813Y14053D02*
X22141D01*
X22509D02*
X22700D01*
X4275Y14101D02*
X4402D01*
X21765D02*
X22141D01*
X22509D02*
X23460D01*
X4275Y14149D02*
X4402D01*
X21717D02*
X22141D01*
X22509D02*
X23460D01*
X4275Y14197D02*
X4402D01*
X21669D02*
X22141D01*
X22509D02*
X23460D01*
X4275Y14245D02*
X4402D01*
X21621D02*
X22141D01*
X22509D02*
X23460D01*
X4275Y14293D02*
X4402D01*
X21573D02*
X22141D01*
X22509D02*
X23460D01*
X4275Y14341D02*
X4402D01*
X21525D02*
X22141D01*
X22509D02*
X23460D01*
X4275Y14389D02*
X4402D01*
X21477D02*
X22141D01*
X22509D02*
X23460D01*
X4275Y14437D02*
X4402D01*
X21429D02*
X22141D01*
X22509D02*
X23460D01*
X4275Y14485D02*
X4402D01*
X21381D02*
X22141D01*
X22509D02*
X23460D01*
X4275Y14533D02*
X4402D01*
X21333D02*
X22141D01*
X22509D02*
X23460D01*
X4275Y14581D02*
X4402D01*
X21284D02*
X22141D01*
X22509D02*
X23460D01*
X4275Y14630D02*
X4402D01*
X21236D02*
X22141D01*
X22509D02*
X23460D01*
X4275Y14678D02*
X4402D01*
X21188D02*
X22141D01*
X22509D02*
X23460D01*
X4275Y14726D02*
X4402D01*
X21140D02*
X22141D01*
X22509D02*
X23460D01*
X4275Y14774D02*
X4402D01*
X21092D02*
X22141D01*
X22509D02*
X23460D01*
X4275Y14822D02*
X4402D01*
X21044D02*
X22141D01*
X22509D02*
X23460D01*
X4275Y14870D02*
X4406D01*
X20996D02*
X22141D01*
X22509D02*
X23460D01*
X4275Y14918D02*
X4422D01*
X20948D02*
X22141D01*
X22509D02*
X23460D01*
X4275Y14966D02*
X4451D01*
X20900D02*
X22141D01*
X22509D02*
X23460D01*
X4275Y15014D02*
X4498D01*
X20852D02*
X22141D01*
X22509D02*
X23460D01*
X4275Y15062D02*
X4546D01*
X20804D02*
X22141D01*
X22509D02*
X23460D01*
X4275Y15110D02*
X4594D01*
X20756D02*
X22141D01*
X22509D02*
X23460D01*
X4275Y15158D02*
X4642D01*
X20708D02*
X22141D01*
X22509D02*
X23460D01*
X4275Y15206D02*
X4690D01*
X20660D02*
X22141D01*
X22509D02*
X23460D01*
X4275Y15254D02*
X4738D01*
X20612D02*
X22141D01*
X22509D02*
X23460D01*
X4275Y15302D02*
X4786D01*
X20564D02*
X22141D01*
X22509D02*
X23460D01*
X4275Y15350D02*
X4834D01*
X20516D02*
X22141D01*
X22509D02*
X23460D01*
X4275Y15398D02*
X4882D01*
X20468D02*
X22141D01*
X22509D02*
X23460D01*
X4275Y15446D02*
X4930D01*
X20420D02*
X22141D01*
X22509D02*
X23460D01*
X4275Y15494D02*
X4978D01*
X20372D02*
X22141D01*
X22509D02*
X23460D01*
X4275Y15542D02*
X5026D01*
X20324D02*
X22141D01*
X22509D02*
X23460D01*
X4275Y15590D02*
X5074D01*
X20276D02*
X22141D01*
X22509D02*
X23460D01*
X4275Y15638D02*
X5122D01*
X20228D02*
X22141D01*
X22509D02*
X23460D01*
X4275Y15686D02*
X5170D01*
X20180D02*
X22104D01*
X22509D02*
X23460D01*
X4275Y15734D02*
X5218D01*
X20132D02*
X22055D01*
X22509D02*
X23460D01*
X4275Y15782D02*
X5266D01*
X20084D02*
X22007D01*
X22500D02*
X23460D01*
X4275Y15830D02*
X5314D01*
X20036D02*
X21959D01*
X22476D02*
X23460D01*
X4275Y15878D02*
X5362D01*
X19988D02*
X21911D01*
X22432D02*
X23460D01*
X4275Y15926D02*
X5410D01*
X19940D02*
X21863D01*
X22384D02*
X23460D01*
X4275Y15974D02*
X5474D01*
X19876D02*
X21815D01*
X22336D02*
X23460D01*
X4275Y16022D02*
X21767D01*
X22288D02*
X23460D01*
X4275Y16070D02*
X21719D01*
X22240D02*
X23460D01*
X4275Y16119D02*
X21671D01*
X22192D02*
X23460D01*
X4275Y16167D02*
X21623D01*
X22144D02*
X23460D01*
X4275Y16215D02*
X21575D01*
X22096D02*
X23460D01*
X4275Y16263D02*
X21527D01*
X22048D02*
X22444D01*
X22806D02*
X23460D01*
X4275Y16311D02*
X21479D01*
X22000D02*
X22370D01*
X22880D02*
X23460D01*
X4275Y16359D02*
X21431D01*
X21952D02*
X22320D01*
X22930D02*
X23460D01*
X4275Y16407D02*
X21383D01*
X21904D02*
X22284D01*
X22966D02*
X23460D01*
X4275Y16455D02*
X21335D01*
X21856D02*
X22258D01*
X22992D02*
X23460D01*
X4275Y16503D02*
X21287D01*
X21808D02*
X22239D01*
X23011D02*
X23460D01*
X4275Y16551D02*
X21239D01*
X21760D02*
X22227D01*
X23023D02*
X23460D01*
X4275Y16599D02*
X21191D01*
X21711D02*
X22221D01*
X23029D02*
X23460D01*
X4275Y16647D02*
X21143D01*
X21663D02*
X22221D01*
X23029D02*
X23460D01*
X4275Y16695D02*
X21095D01*
X21615D02*
X22226D01*
X23024D02*
X23460D01*
X4275Y16743D02*
X21047D01*
X21567D02*
X22238D01*
X23012D02*
X23460D01*
X4275Y16791D02*
X20999D01*
X21519D02*
X22256D01*
X22994D02*
X23460D01*
X4275Y16839D02*
X20951D01*
X21471D02*
X22281D01*
X22969D02*
X23460D01*
X4275Y16887D02*
X20903D01*
X21423D02*
X22316D01*
X22934D02*
X23460D01*
X4275Y16935D02*
X20855D01*
X21375D02*
X22364D01*
X22886D02*
X23460D01*
X4275Y16983D02*
X20807D01*
X21327D02*
X22436D01*
X22814D02*
X23460D01*
X4275Y17031D02*
X20759D01*
X21279D02*
X23460D01*
X4275Y17079D02*
X20711D01*
X21231D02*
X23460D01*
X4275Y17127D02*
X20663D01*
X21183D02*
X23460D01*
X4275Y17175D02*
X20615D01*
X21135D02*
X23460D01*
X4275Y17223D02*
X20566D01*
X21087D02*
X23460D01*
X4275Y17271D02*
X20518D01*
X21039D02*
X23460D01*
X4275Y17319D02*
X20470D01*
X20991D02*
X23460D01*
X4275Y17367D02*
X20422D01*
X20943D02*
X23460D01*
X4275Y17415D02*
X20374D01*
X20895D02*
X23460D01*
X4275Y17463D02*
X20326D01*
X20847D02*
X23460D01*
X4275Y17511D02*
X20278D01*
X20799D02*
X23460D01*
X4275Y17559D02*
X20230D01*
X20751D02*
X23460D01*
X4275Y17607D02*
X20182D01*
X20703D02*
X23460D01*
X4275Y17656D02*
X20134D01*
X20655D02*
X23460D01*
X4275Y17704D02*
X20086D01*
X20607D02*
X23460D01*
X4275Y17752D02*
X20038D01*
X20559D02*
X23460D01*
X4275Y17800D02*
X19990D01*
X20511D02*
X23460D01*
X4275Y17848D02*
X19942D01*
X20463D02*
X23460D01*
X4275Y17896D02*
X19894D01*
X20415D02*
X23460D01*
X4275Y17944D02*
X19846D01*
X20367D02*
X23460D01*
X4275Y17992D02*
X19798D01*
X20319D02*
X23460D01*
X4275Y18040D02*
X19750D01*
X20271D02*
X23460D01*
X4275Y18088D02*
X19702D01*
X20222D02*
X23460D01*
X4275Y18136D02*
X19654D01*
X20174D02*
X23460D01*
X4275Y18184D02*
X19606D01*
X20126D02*
X23460D01*
X4275Y18232D02*
X19558D01*
X20078D02*
X23460D01*
X4275Y18280D02*
X19510D01*
X20030D02*
X23460D01*
X4275Y18328D02*
X19462D01*
X19982D02*
X23460D01*
X4275Y18376D02*
X19414D01*
X19934D02*
X23460D01*
X4275Y18424D02*
X19366D01*
X19886D02*
X23460D01*
X4275Y18472D02*
X19318D01*
X19838D02*
X23460D01*
X4275Y18520D02*
X19270D01*
X19790D02*
X23460D01*
X4275Y18568D02*
X19222D01*
X19742D02*
X23460D01*
X4275Y18616D02*
X19174D01*
X19694D02*
X23460D01*
X4275Y18664D02*
X19126D01*
X19646D02*
X23460D01*
X4275Y18712D02*
X19077D01*
X19598D02*
X23460D01*
X4275Y18760D02*
X19029D01*
X19550D02*
X23460D01*
X4275Y18808D02*
X18981D01*
X19502D02*
X23460D01*
X4275Y18856D02*
X18933D01*
X19454D02*
X23460D01*
X4275Y18904D02*
X18885D01*
X19406D02*
X23460D01*
X4275Y18952D02*
X18837D01*
X19358D02*
X23460D01*
X4275Y19000D02*
X10316D01*
X10734D02*
X11316D01*
X11734D02*
X12316D01*
X12734D02*
X13316D01*
X13734D02*
X14316D01*
X14734D02*
X15316D01*
X15734D02*
X16316D01*
X16734D02*
X17316D01*
X17734D02*
X18789D01*
X19310D02*
X23460D01*
X4275Y19048D02*
X10230D01*
X10820D02*
X11230D01*
X11820D02*
X12230D01*
X12820D02*
X13230D01*
X13820D02*
X14230D01*
X14820D02*
X15230D01*
X15820D02*
X16230D01*
X16820D02*
X17230D01*
X17820D02*
X18741D01*
X19262D02*
X23460D01*
X4275Y19096D02*
X10170D01*
X10880D02*
X11170D01*
X11880D02*
X12170D01*
X12880D02*
X13170D01*
X13880D02*
X14170D01*
X14880D02*
X15170D01*
X15880D02*
X16170D01*
X16880D02*
X17170D01*
X17880D02*
X18693D01*
X19214D02*
X23460D01*
X4275Y19144D02*
X10125D01*
X10925D02*
X11125D01*
X11925D02*
X12125D01*
X12925D02*
X13125D01*
X13925D02*
X14125D01*
X14925D02*
X15125D01*
X15925D02*
X16125D01*
X16925D02*
X17125D01*
X17925D02*
X18645D01*
X19166D02*
X20350D01*
X21200D02*
X23460D01*
X4275Y19193D02*
X10090D01*
X10960D02*
X11090D01*
X11960D02*
X12090D01*
X12960D02*
X13090D01*
X13960D02*
X14090D01*
X14960D02*
X15090D01*
X15960D02*
X16090D01*
X16960D02*
X17090D01*
X17960D02*
X18597D01*
X19118D02*
X20350D01*
X21200D02*
X23460D01*
X4275Y19241D02*
X10062D01*
X10988D02*
X11062D01*
X11988D02*
X12062D01*
X12988D02*
X13062D01*
X13988D02*
X14062D01*
X14988D02*
X15062D01*
X15988D02*
X16062D01*
X16988D02*
X17062D01*
X17988D02*
X18549D01*
X19070D02*
X20350D01*
X21200D02*
X23460D01*
X4275Y19289D02*
X10041D01*
X11009D02*
X11041D01*
X12009D02*
X12041D01*
X13009D02*
X13041D01*
X14009D02*
X14041D01*
X15009D02*
X15041D01*
X16009D02*
X16041D01*
X17009D02*
X17041D01*
X18009D02*
X18501D01*
X19022D02*
X20350D01*
X21200D02*
X23460D01*
X4275Y19337D02*
X10025D01*
X11025D02*
X11025D01*
X12025D02*
X12025D01*
X13025D02*
X13025D01*
X14025D02*
X14025D01*
X15025D02*
X15025D01*
X16025D02*
X16025D01*
X17025D02*
X17025D01*
X18025D02*
X18453D01*
X18974D02*
X20350D01*
X21200D02*
X23460D01*
X4275Y19385D02*
X10014D01*
X18036D02*
X18405D01*
X18926D02*
X20350D01*
X21200D02*
X23460D01*
X4275Y19433D02*
X10008D01*
X18042D02*
X18357D01*
X18878D02*
X20350D01*
X21200D02*
X23460D01*
X4275Y19481D02*
X10006D01*
X18044D02*
X18309D01*
X18830D02*
X20350D01*
X21200D02*
X23460D01*
X4275Y19529D02*
X10009D01*
X18041D02*
X18261D01*
X18782D02*
X20350D01*
X21200D02*
X23460D01*
X4275Y19577D02*
X10016D01*
X18034D02*
X18213D01*
X18734D02*
X20350D01*
X21200D02*
X23460D01*
X4275Y19625D02*
X4983D01*
X5429D02*
X10028D01*
X18022D02*
X18165D01*
X18685D02*
X20350D01*
X21200D02*
X22306D01*
X22752D02*
X23460D01*
X4275Y19673D02*
X4852D01*
X5560D02*
X10046D01*
X18004D02*
X18117D01*
X18637D02*
X20350D01*
X21200D02*
X22175D01*
X22883D02*
X23460D01*
X4275Y19721D02*
X4763D01*
X5649D02*
X10068D01*
X17982D02*
X18069D01*
X18589D02*
X20350D01*
X21200D02*
X22086D01*
X22972D02*
X23460D01*
X4275Y19769D02*
X4694D01*
X5718D02*
X10098D01*
X17952D02*
X18021D01*
X18541D02*
X20350D01*
X21200D02*
X22017D01*
X23041D02*
X23460D01*
X4275Y19817D02*
X4637D01*
X5776D02*
X10135D01*
X17915D02*
X17973D01*
X18493D02*
X20350D01*
X21200D02*
X21960D01*
X23098D02*
X23460D01*
X4275Y19865D02*
X4589D01*
X5824D02*
X10183D01*
X17867D02*
X17925D01*
X18445D02*
X20350D01*
X21200D02*
X21911D01*
X23146D02*
X23460D01*
X4275Y19913D02*
X4547D01*
X5865D02*
X10247D01*
X17803D02*
X17877D01*
X18397D02*
X20350D01*
X21200D02*
X21870D01*
X23188D02*
X23460D01*
X4275Y19961D02*
X4512D01*
X5900D02*
X10344D01*
X17706D02*
X17829D01*
X18349D02*
X21835D01*
X23223D02*
X23460D01*
X4275Y20009D02*
X4482D01*
X5931D02*
X10297D01*
X17753D02*
X17781D01*
X18301D02*
X21804D01*
X23253D02*
X23460D01*
X4275Y20057D02*
X4455D01*
X5957D02*
X10218D01*
X18253D02*
X21778D01*
X23280D02*
X23460D01*
X4275Y20105D02*
X4433D01*
X5979D02*
X10161D01*
X18205D02*
X20350D01*
X21200D02*
X21756D01*
X23302D02*
X23460D01*
X4275Y20153D02*
X4414D01*
X5998D02*
X10118D01*
X18157D02*
X20350D01*
X21200D02*
X21737D01*
X23321D02*
X23460D01*
X4275Y20201D02*
X4399D01*
X6013D02*
X10084D01*
X18109D02*
X20350D01*
X21200D02*
X21722D01*
X23336D02*
X23460D01*
X4275Y20249D02*
X4386D01*
X6026D02*
X10058D01*
X18061D02*
X20350D01*
X21200D02*
X21709D01*
X23349D02*
X23460D01*
X4275Y20297D02*
X4377D01*
X6035D02*
X10038D01*
X18013D02*
X20350D01*
X21200D02*
X21700D01*
X23358D02*
X23460D01*
X4275Y20345D02*
X4370D01*
X6042D02*
X10023D01*
X18027D02*
X20350D01*
X21200D02*
X21693D01*
X23365D02*
X23460D01*
X4275Y20393D02*
X4367D01*
X6046D02*
X10013D01*
X18037D02*
X20350D01*
X21200D02*
X21689D01*
X23368D02*
X23460D01*
X4275Y20441D02*
X4366D01*
X6047D02*
X10007D01*
X18043D02*
X20350D01*
X21200D02*
X21688D01*
X23369D02*
X23460D01*
X4275Y20489D02*
X4367D01*
X6045D02*
X10006D01*
X18044D02*
X20350D01*
X21200D02*
X21690D01*
X23368D02*
X23460D01*
X4275Y20537D02*
X4372D01*
X6040D02*
X10010D01*
X18040D02*
X20350D01*
X21200D02*
X21695D01*
X23363D02*
X23460D01*
X4275Y20585D02*
X4379D01*
X6033D02*
X10018D01*
X18032D02*
X20350D01*
X21200D02*
X21702D01*
X23356D02*
X23460D01*
X4275Y20633D02*
X4389D01*
X6023D02*
X10031D01*
X18019D02*
X20350D01*
X21200D02*
X21712D01*
X23346D02*
X23460D01*
X4275Y20681D02*
X4402D01*
X6010D02*
X10049D01*
X11001D02*
X11049D01*
X12001D02*
X12049D01*
X13001D02*
X13049D01*
X14001D02*
X14049D01*
X15001D02*
X15049D01*
X16001D02*
X16049D01*
X17001D02*
X17049D01*
X18001D02*
X20350D01*
X21200D02*
X21725D01*
X23333D02*
X23460D01*
X4275Y20730D02*
X4419D01*
X5993D02*
X10073D01*
X10977D02*
X11073D01*
X11977D02*
X12073D01*
X12977D02*
X13073D01*
X13977D02*
X14073D01*
X14977D02*
X15073D01*
X15977D02*
X16073D01*
X16977D02*
X17073D01*
X17977D02*
X20350D01*
X21200D02*
X21742D01*
X23316D02*
X23460D01*
X4275Y20778D02*
X4438D01*
X5974D02*
X10104D01*
X10946D02*
X11104D01*
X11946D02*
X12104D01*
X12946D02*
X13104D01*
X13946D02*
X14104D01*
X14946D02*
X15104D01*
X15946D02*
X16104D01*
X16946D02*
X17104D01*
X17946D02*
X20350D01*
X21200D02*
X21761D01*
X23297D02*
X23460D01*
X4275Y20826D02*
X4462D01*
X5951D02*
X10143D01*
X10907D02*
X11143D01*
X11907D02*
X12143D01*
X12907D02*
X13143D01*
X13907D02*
X14143D01*
X14907D02*
X15143D01*
X15907D02*
X16143D01*
X16907D02*
X17143D01*
X17907D02*
X20350D01*
X21200D02*
X21785D01*
X23273D02*
X23460D01*
X4275Y20874D02*
X4489D01*
X5923D02*
X10193D01*
X10857D02*
X11193D01*
X11857D02*
X12193D01*
X12857D02*
X13193D01*
X13857D02*
X14193D01*
X14857D02*
X15193D01*
X15857D02*
X16193D01*
X16857D02*
X17193D01*
X17857D02*
X20350D01*
X21200D02*
X21812D01*
X23246D02*
X23460D01*
X4275Y20922D02*
X4521D01*
X5892D02*
X10261D01*
X10789D02*
X11261D01*
X11789D02*
X12261D01*
X12789D02*
X13261D01*
X13789D02*
X14261D01*
X14789D02*
X15261D01*
X15789D02*
X16261D01*
X16789D02*
X17261D01*
X17789D02*
X20350D01*
X21200D02*
X21843D01*
X23214D02*
X23460D01*
X4275Y20970D02*
X4557D01*
X5855D02*
X10369D01*
X10681D02*
X11369D01*
X11681D02*
X12369D01*
X12681D02*
X13369D01*
X13681D02*
X14369D01*
X14681D02*
X15369D01*
X15681D02*
X16369D01*
X16681D02*
X17369D01*
X17681D02*
X21880D01*
X23178D02*
X23460D01*
X4275Y21018D02*
X4600D01*
X5812D02*
X21923D01*
X23135D02*
X23460D01*
X4275Y21066D02*
X4650D01*
X5762D02*
X21973D01*
X23085D02*
X23460D01*
X4275Y21114D02*
X4710D01*
X5702D02*
X22033D01*
X23025D02*
X23460D01*
X4275Y21162D02*
X4783D01*
X5629D02*
X22106D01*
X22952D02*
X23460D01*
X4275Y21210D02*
X4880D01*
X5532D02*
X22203D01*
X22855D02*
X23460D01*
X4279Y21258D02*
X5034D01*
X5379D02*
X22356D01*
X22702D02*
X23456D01*
X4302Y21306D02*
X23433D01*
X4360Y21354D02*
X23375D01*
X4275Y11100D02*
X5050D01*
Y10859*
X7349*
X9745Y13255*
X9795Y13291*
X9205*
X9138Y13229*
X9058Y13185*
X8969Y13163*
X8878Y13163*
X8790Y13186*
X8790Y13175*
X8775Y13072*
X8731Y12977*
X8663Y12898*
X8575Y12842*
X8474Y12813*
X8370Y12814*
X8270Y12845*
X8285Y12786*
X8290Y12725*
X8275Y12620*
X8230Y12524*
X8160Y12445*
X8070Y12390*
X7967Y12362*
X7862Y12366*
X7761Y12399*
X7674Y12460*
X7609Y12543*
X7570Y12641*
X7466*
Y12503*
X7309*
X7294Y12436*
X7255Y12380*
X6570Y11695*
X6511Y11655*
X6440Y11641*
X5050*
Y11250*
X4275*
Y11100*
X5050Y10860D02*
X7350D01*
X5050Y10908D02*
X7398D01*
X5050Y10956D02*
X7446D01*
X5050Y11004D02*
X7494D01*
X5050Y11052D02*
X7542D01*
X4275Y11100D02*
X7590D01*
X4275Y11148D02*
X7638D01*
X4275Y11196D02*
X7686D01*
X4275Y11244D02*
X7734D01*
X5050Y11292D02*
X7782D01*
X5050Y11340D02*
X7830D01*
X5050Y11388D02*
X7878D01*
X5050Y11436D02*
X7926D01*
X5050Y11484D02*
X7974D01*
X5050Y11532D02*
X8022D01*
X5050Y11580D02*
X8070D01*
X5050Y11628D02*
X8118D01*
X6549Y11676D02*
X8166D01*
X6600Y11724D02*
X8214D01*
X6648Y11772D02*
X8262D01*
X6696Y11820D02*
X8310D01*
X6744Y11869D02*
X8358D01*
X6792Y11917D02*
X8406D01*
X6840Y11965D02*
X8454D01*
X6888Y12013D02*
X8502D01*
X6936Y12061D02*
X8550D01*
X6984Y12109D02*
X8598D01*
X7032Y12157D02*
X8646D01*
X7080Y12205D02*
X8694D01*
X7128Y12253D02*
X8742D01*
X7176Y12301D02*
X8790D01*
X7224Y12349D02*
X8839D01*
X7270Y12397D02*
X7765D01*
X8085D02*
X8887D01*
X7297Y12445D02*
X7691D01*
X8159D02*
X8935D01*
X7308Y12493D02*
X7643D01*
X8207D02*
X8983D01*
X7466Y12541D02*
X7610D01*
X8240D02*
X9031D01*
X7466Y12589D02*
X7586D01*
X8264D02*
X9079D01*
X7466Y12637D02*
X7571D01*
X8279D02*
X9127D01*
X8288Y12685D02*
X9175D01*
X8290Y12733D02*
X9223D01*
X8286Y12781D02*
X9271D01*
X8275Y12829D02*
X8308D01*
X8542D02*
X9319D01*
X8636Y12877D02*
X9367D01*
X8691Y12925D02*
X9415D01*
X8729Y12973D02*
X9463D01*
X8756Y13021D02*
X9511D01*
X8774Y13069D02*
X9559D01*
X8785Y13117D02*
X9607D01*
X8790Y13165D02*
X8863D01*
X8987D02*
X9655D01*
X9115Y13213D02*
X9703D01*
X9177Y13261D02*
X9751D01*
X4275Y12100D02*
X5050D01*
Y12009*
X6364*
X6858Y12503*
X6784*
Y12991*
X6716*
Y12503*
X6034*
Y12641*
X5050*
Y12250*
X4275*
Y12100*
X5050Y12052D02*
X6407D01*
X4275Y12100D02*
X6455D01*
X4275Y12148D02*
X6503D01*
X4275Y12196D02*
X6551D01*
X4275Y12244D02*
X6599D01*
X5050Y12292D02*
X6647D01*
X5050Y12340D02*
X6695D01*
X5050Y12388D02*
X6743D01*
X5050Y12436D02*
X6791D01*
X5050Y12484D02*
X6839D01*
X5050Y12532D02*
X6034D01*
X6716D02*
X6784D01*
X5050Y12580D02*
X6034D01*
X6716D02*
X6784D01*
X5050Y12628D02*
X6034D01*
X6716D02*
X6784D01*
X6716Y12676D02*
X6784D01*
X6716Y12724D02*
X6784D01*
X6716Y12772D02*
X6784D01*
X6716Y12820D02*
X6784D01*
X6716Y12869D02*
X6784D01*
X6716Y12917D02*
X6784D01*
X6716Y12965D02*
X6784D01*
X4275Y13100D02*
X5050D01*
Y13009*
X6034*
Y13147*
X6306*
X6343Y13203*
X6034*
Y13491*
X5050*
Y13250*
X4275*
Y13100*
X5050Y13052D02*
X6034D01*
X4275Y13100D02*
X6034D01*
X4275Y13148D02*
X6306D01*
X4275Y13196D02*
X6336D01*
X4275Y13244D02*
X6034D01*
X5050Y13292D02*
X6034D01*
X5050Y13340D02*
X6034D01*
X5050Y13388D02*
X6034D01*
X5050Y13436D02*
X6034D01*
X5050Y13484D02*
X6034D01*
X4848Y14100D02*
X5050D01*
Y13859*
X6225*
X6290Y13847*
X6716*
Y13709*
X6784*
Y13847*
X7466*
Y13359*
X7600*
X7568Y13450*
X7561Y13547*
X7579Y13642*
X7622Y13729*
X7686Y13801*
X7767Y13854*
X7859Y13884*
X7956Y13889*
X8134Y14066*
X8199Y14110*
X8275Y14125*
X10775*
X10851Y14110*
X10916Y14066*
X11058Y13925*
X12344*
X12356Y13937*
X12277Y14016*
X11300*
X11229Y14030*
X11170Y14070*
X11049Y14191*
X8825*
X8755Y14205*
X8695Y14245*
X8599Y14341*
X5734*
X5740Y14275*
X5725Y14172*
X5682Y14078*
X5614Y13999*
X5527Y13943*
X5427Y13914*
X5323*
X5223Y13943*
X5136Y13999*
X5068Y14078*
X5025Y14172*
X5010Y14275*
X5022Y14369*
X5059Y14457*
X5116Y14533*
X5192Y14591*
X5279Y14627*
X5373Y14640*
X5468Y14628*
X5495Y14655*
X5555Y14695*
X5625Y14709*
X8675*
X8745Y14695*
X8805Y14655*
X8901Y14559*
X11125*
X11195Y14545*
X11255Y14505*
X11376Y14384*
X12444*
X12631Y14572*
X12812Y14391*
X13197Y14007*
X13241Y14051*
Y14096*
X13190Y14181*
X13163Y14277*
X13164Y14376*
X13191Y14472*
X13243Y14556*
X13316Y14624*
X13404Y14669*
X13502Y14689*
X13601Y14682*
X13694Y14648*
X13775Y14591*
Y14625*
X13786Y14690*
X13818Y14749*
X13810Y14825*
X13825Y14928*
X13868Y15022*
X13936Y15101*
X14023Y15157*
X14123Y15186*
X14227*
X14327Y15157*
X14414Y15101*
X14482Y15022*
X14525Y14928*
X14540Y14825*
X14528Y14731*
X14491Y14642*
X14433Y14567*
X14357Y14509*
X14269Y14472*
X14175Y14460*
Y14307*
X14233Y14366*
X14298Y14409*
X14375Y14425*
X15742*
X16168Y14850*
X16160Y14925*
X16175Y15028*
X16218Y15122*
X16286Y15201*
X16373Y15257*
X16473Y15286*
X16577*
X16677Y15257*
X16764Y15201*
X16832Y15122*
X16875Y15028*
X16890Y14925*
X16877Y14827*
X16837Y14736*
X16775Y14659*
X18610*
X18676Y14742*
X18762Y14802*
X18863Y14835*
X18968Y14837*
X19070Y14810*
X19160Y14754*
X19230Y14675*
X19275Y14580*
X19290Y14475*
X19276Y14376*
X19237Y14285*
X19173Y14208*
X19092Y14150*
X18998Y14117*
X18898Y14111*
X18801Y14132*
X18858Y14075*
X20625*
X20690Y14064*
X20749Y14032*
X20841Y14040*
X20932Y14024*
X21017Y13986*
X21089Y13927*
X21144Y13853*
X21178Y13767*
X21190Y13675*
X21175Y13572*
X21132Y13478*
X21064Y13399*
X20977Y13343*
X20877Y13314*
X20773*
X20673Y13343*
X20586Y13399*
X20518Y13478*
X20475Y13572*
X20460Y13675*
Y13675*
X18775*
X18699Y13690*
X18634Y13734*
X18442Y13925*
X16958*
X16566Y13534*
X16501Y13490*
X16425Y13475*
X14648*
X14185Y13018*
X14186Y13017*
X14260Y12943*
X14262Y12941*
X14483Y13162*
X14733Y13415*
X14798Y13459*
X14875Y13475*
X16884*
Y13597*
X17566*
Y13459*
X17584*
Y13597*
X18266*
Y12953*
X17584*
Y13091*
X17566*
Y12953*
X16884*
Y13075*
X16528*
X16614Y13038*
X16687Y12979*
X16743Y12904*
X16778Y12818*
X16790Y12725*
X16777Y12630*
X16741Y12542*
X16682Y12466*
X16606Y12408*
X16517Y12372*
X16422Y12360*
X16327Y12373*
X16239Y12411*
X16278Y12319*
X16290Y12221*
X16275Y12123*
X16235Y12032*
X17297*
X17518Y12253*
X16884*
Y12897*
X17566*
Y12302*
X17584Y12319*
Y12897*
X18266*
Y12759*
X19849*
X20045Y12955*
X20105Y12995*
X20175Y13009*
X21464*
X21523Y13095*
X21602Y13163*
Y13632*
X19682Y15552*
X5668*
X4848Y14732*
Y14100*
X16236Y12035D02*
X17299D01*
X16261Y12083D02*
X17347D01*
X16278Y12131D02*
X17395D01*
X16287Y12179D02*
X17443D01*
X16290Y12227D02*
X17491D01*
X16287Y12275D02*
X16884D01*
X16277Y12323D02*
X16884D01*
X17566D02*
X17584D01*
X16260Y12371D02*
X16337D01*
X16513D02*
X16884D01*
X17566D02*
X17584D01*
X16624Y12419D02*
X16884D01*
X17566D02*
X17584D01*
X16683Y12467D02*
X16884D01*
X17566D02*
X17584D01*
X16724Y12515D02*
X16884D01*
X17566D02*
X17584D01*
X16752Y12563D02*
X16884D01*
X17566D02*
X17584D01*
X16772Y12611D02*
X16884D01*
X17566D02*
X17584D01*
X16784Y12659D02*
X16884D01*
X17566D02*
X17584D01*
X16790Y12707D02*
X16884D01*
X17566D02*
X17584D01*
X16789Y12755D02*
X16884D01*
X17566D02*
X17584D01*
X16782Y12803D02*
X16884D01*
X17566D02*
X17584D01*
X18266D02*
X19893D01*
X16767Y12851D02*
X16884D01*
X17566D02*
X17584D01*
X18266D02*
X19941D01*
X16746Y12899D02*
X19989D01*
X14256Y12947D02*
X14269D01*
X16715D02*
X20037D01*
X14208Y12995D02*
X14317D01*
X16670D02*
X16884D01*
X17566D02*
X17584D01*
X18266D02*
X20105D01*
X14210Y13043D02*
X14364D01*
X16604D02*
X16884D01*
X17566D02*
X17584D01*
X18266D02*
X21484D01*
X14259Y13091D02*
X14412D01*
X18266D02*
X21520D01*
X14308Y13139D02*
X14460D01*
X18266D02*
X21570D01*
X14356Y13187D02*
X14508D01*
X18266D02*
X21602D01*
X14405Y13235D02*
X14555D01*
X18266D02*
X21602D01*
X14454Y13283D02*
X14603D01*
X18266D02*
X21602D01*
X14503Y13331D02*
X14650D01*
X18266D02*
X20702D01*
X20948D02*
X21602D01*
X7466Y13380D02*
X7590D01*
X14551D02*
X14697D01*
X18266D02*
X20611D01*
X21039D02*
X21602D01*
X7466Y13428D02*
X7573D01*
X14600D02*
X14746D01*
X18266D02*
X20557D01*
X21093D02*
X21602D01*
X7466Y13476D02*
X7563D01*
X16438D02*
X16884D01*
X17566D02*
X17584D01*
X18266D02*
X20519D01*
X21131D02*
X21602D01*
X7466Y13524D02*
X7560D01*
X16555D02*
X16884D01*
X17566D02*
X17584D01*
X18266D02*
X20493D01*
X21157D02*
X21602D01*
X7466Y13572D02*
X7563D01*
X16604D02*
X16884D01*
X17566D02*
X17584D01*
X18266D02*
X20475D01*
X21175D02*
X21602D01*
X7466Y13620D02*
X7573D01*
X16652D02*
X20464D01*
X21186D02*
X21602D01*
X7466Y13668D02*
X7589D01*
X16700D02*
X20460D01*
X21190D02*
X21566D01*
X6716Y13716D02*
X6784D01*
X7466D02*
X7614D01*
X16748D02*
X18654D01*
X21188D02*
X21518D01*
X6716Y13764D02*
X6784D01*
X7466D02*
X7649D01*
X16796D02*
X18604D01*
X21179D02*
X21470D01*
X6716Y13812D02*
X6784D01*
X7466D02*
X7699D01*
X16844D02*
X18556D01*
X21163D02*
X21422D01*
X5050Y13860D02*
X7780D01*
X16892D02*
X18508D01*
X21140D02*
X21374D01*
X5050Y13908D02*
X7975D01*
X16940D02*
X18460D01*
X21106D02*
X21326D01*
X5050Y13956D02*
X5198D01*
X5552D02*
X8023D01*
X11027D02*
X12337D01*
X21058D02*
X21278D01*
X5050Y14004D02*
X5131D01*
X5619D02*
X8071D01*
X10979D02*
X12289D01*
X20983D02*
X21230D01*
X5050Y14052D02*
X5086D01*
X5664D02*
X8119D01*
X10931D02*
X11191D01*
X13151D02*
X13241D01*
X20718D02*
X21182D01*
X4848Y14100D02*
X5055D01*
X5695D02*
X8179D01*
X10871D02*
X11140D01*
X13103D02*
X13238D01*
X18833D02*
X21134D01*
X4848Y14148D02*
X5033D01*
X5717D02*
X11092D01*
X13055D02*
X13206D01*
X19087D02*
X21086D01*
X4848Y14196D02*
X5019D01*
X5731D02*
X8782D01*
X13007D02*
X13184D01*
X19160D02*
X21038D01*
X4848Y14244D02*
X5011D01*
X5739D02*
X8696D01*
X12959D02*
X13169D01*
X19208D02*
X20990D01*
X4848Y14292D02*
X5010D01*
X5740D02*
X8648D01*
X12911D02*
X13161D01*
X19241D02*
X20942D01*
X4848Y14340D02*
X5016D01*
X5734D02*
X8600D01*
X12863D02*
X13160D01*
X14175D02*
X14208D01*
X19264D02*
X20894D01*
X4848Y14388D02*
X5028D01*
X11372D02*
X12448D01*
X12815D02*
X13166D01*
X14175D02*
X14260D01*
X19280D02*
X20846D01*
X4848Y14436D02*
X5048D01*
X11324D02*
X12496D01*
X12767D02*
X13177D01*
X14175D02*
X15754D01*
X19288D02*
X20798D01*
X4848Y14484D02*
X5076D01*
X11276D02*
X12544D01*
X12719D02*
X13197D01*
X14306D02*
X15802D01*
X19290D02*
X20750D01*
X4848Y14532D02*
X5116D01*
X11221D02*
X12592D01*
X12671D02*
X13225D01*
X14393D02*
X15850D01*
X19285D02*
X20702D01*
X4848Y14580D02*
X5175D01*
X8880D02*
X13264D01*
X14446D02*
X15898D01*
X19274D02*
X20654D01*
X4848Y14628D02*
X5284D01*
X5466D02*
X5468D01*
X8832D02*
X13322D01*
X13728D02*
X13775D01*
X14482D02*
X15946D01*
X19256D02*
X20606D01*
X4848Y14676D02*
X5520D01*
X8780D02*
X13426D01*
X13624D02*
X13782D01*
X14508D02*
X15994D01*
X16792D02*
X18621D01*
X19229D02*
X20558D01*
X4848Y14724D02*
X13802D01*
X14526D02*
X16042D01*
X16830D02*
X18659D01*
X19191D02*
X20510D01*
X4888Y14772D02*
X13814D01*
X14536D02*
X16090D01*
X16857D02*
X18713D01*
X19137D02*
X20462D01*
X4936Y14820D02*
X13810D01*
X14540D02*
X16138D01*
X16875D02*
X18807D01*
X19043D02*
X20414D01*
X4984Y14869D02*
X13813D01*
X14537D02*
X16164D01*
X16886D02*
X20366D01*
X5033Y14917D02*
X13822D01*
X14528D02*
X16160D01*
X16890D02*
X20317D01*
X5081Y14965D02*
X13838D01*
X14512D02*
X16162D01*
X16888D02*
X20269D01*
X5129Y15013D02*
X13862D01*
X14488D02*
X16171D01*
X16879D02*
X20221D01*
X5177Y15061D02*
X13896D01*
X14454D02*
X16186D01*
X16864D02*
X20173D01*
X5225Y15109D02*
X13945D01*
X14405D02*
X16210D01*
X16840D02*
X20125D01*
X5273Y15157D02*
X14023D01*
X14327D02*
X16243D01*
X16807D02*
X20077D01*
X5321Y15205D02*
X16291D01*
X16759D02*
X20029D01*
X5369Y15253D02*
X16364D01*
X16686D02*
X19981D01*
X5417Y15301D02*
X19933D01*
X5465Y15349D02*
X19885D01*
X5513Y15397D02*
X19837D01*
X5561Y15445D02*
X19789D01*
X5609Y15493D02*
X19741D01*
X5657Y15541D02*
X19693D01*
X6475Y8972D02*
X6647Y8800D01*
X6830*
X6483Y9148*
X6490Y9059*
X6475Y8972*
X6619Y8828D02*
X6802D01*
X6571Y8876D02*
X6754D01*
X6523Y8924D02*
X6706D01*
X6475Y8972D02*
X6658D01*
X6486Y9020D02*
X6610D01*
X6490Y9068D02*
X6562D01*
X6488Y9116D02*
X6514D01*
X8272Y13639D02*
X8285Y13583D01*
X8290Y13525*
X8290Y13514*
X8379Y13537*
X8471*
X8560Y13514*
X8560Y13525*
X8575Y13629*
X8620Y13725*
X8358*
X8272Y13639*
X8290Y13543D02*
X8560D01*
X8284Y13591D02*
X8566D01*
X8272Y13639D02*
X8578D01*
X8320Y13687D02*
X8598D01*
X9230Y13725D02*
X9264Y13659D01*
X10758*
X10692Y13725*
X9230*
X9257Y13677D02*
X10740D01*
X10608Y11391D02*
X10676Y11340D01*
X10730Y11275*
X10792*
X10907Y11391*
X10608*
X10716Y11295D02*
X10812D01*
X10673Y11343D02*
X10859D01*
X10633Y10775D02*
X10643D01*
X10744Y10875*
X10730*
X10686Y10820*
X10633Y10775*
X10643*
X10689Y10823D02*
X10691D01*
X10728Y10871D02*
X10739D01*
X10663Y3325D02*
X10763Y3286D01*
X10852Y3228*
X10928Y3152*
X10986Y3063*
X11025Y2963*
X11064Y3063*
X11122Y3152*
X11198Y3228*
X11287Y3286*
X11387Y3325*
X11287Y3364*
X11198Y3422*
X11122Y3498*
X11064Y3587*
X11025Y3687*
X10986Y3587*
X10928Y3498*
X10852Y3422*
X10763Y3364*
X10663Y3325*
X11017Y2989D02*
X11033D01*
X10998Y3037D02*
X11052D01*
X10974Y3085D02*
X11076D01*
X10942Y3133D02*
X11108D01*
X10902Y3181D02*
X11148D01*
X10850Y3229D02*
X11200D01*
X10780Y3277D02*
X11271D01*
X10663Y3325D02*
X11387D01*
X10780Y3373D02*
X11271D01*
X10850Y3421D02*
X11200D01*
X10902Y3469D02*
X11148D01*
X10942Y3517D02*
X11108D01*
X10974Y3565D02*
X11076D01*
X10998Y3613D02*
X11052D01*
X11017Y3661D02*
X11033D01*
X10663Y19975D02*
X10763Y19936D01*
X10852Y19878*
X10928Y19802*
X10986Y19713*
X11025Y19613*
X11064Y19713*
X11122Y19802*
X11198Y19878*
X11287Y19936*
X11387Y19975*
X11274Y20021*
X11176Y20091*
X11096Y20183*
X11040Y20291*
X11010*
X10954Y20183*
X10874Y20091*
X10776Y20021*
X10663Y19975*
X11017Y19639D02*
X11033D01*
X10998Y19687D02*
X11052D01*
X10974Y19735D02*
X11076D01*
X10942Y19783D02*
X11108D01*
X10902Y19831D02*
X11148D01*
X10850Y19879D02*
X11200D01*
X10780Y19927D02*
X11271D01*
X10663Y19975D02*
X11387D01*
X10780Y20023D02*
X11270D01*
X10850Y20071D02*
X11200D01*
X10902Y20119D02*
X11148D01*
X10942Y20167D02*
X11108D01*
X10974Y20215D02*
X11076D01*
X10999Y20263D02*
X11051D01*
X11189Y8453D02*
X11211Y8397D01*
X11591*
Y8453*
X11189*
X11209Y8405D02*
X11591D01*
X11616Y12191D02*
X12111Y11696D01*
X12110Y11725*
X12122Y11818*
X11749Y12191*
X11616*
X12096Y11711D02*
X12110D01*
X12048Y11759D02*
X12112D01*
X12000Y11807D02*
X12119D01*
X11952Y11855D02*
X12085D01*
X11904Y11903D02*
X12037D01*
X11856Y11951D02*
X11989D01*
X11808Y11999D02*
X11941D01*
X11760Y12047D02*
X11893D01*
X11712Y12095D02*
X11845D01*
X11664Y12143D02*
X11797D01*
X11663Y3325D02*
X11763Y3286D01*
X11852Y3228*
X11928Y3152*
X11986Y3063*
X12025Y2963*
X12064Y3063*
X12122Y3152*
X12198Y3228*
X12287Y3286*
X12387Y3325*
X12287Y3364*
X12198Y3422*
X12122Y3498*
X12064Y3587*
X12025Y3687*
X11986Y3587*
X11928Y3498*
X11852Y3422*
X11763Y3364*
X11663Y3325*
X12017Y2989D02*
X12033D01*
X11998Y3037D02*
X12052D01*
X11974Y3085D02*
X12076D01*
X11942Y3133D02*
X12108D01*
X11902Y3181D02*
X12148D01*
X11850Y3229D02*
X12200D01*
X11780Y3277D02*
X12271D01*
X11663Y3325D02*
X12387D01*
X11780Y3373D02*
X12271D01*
X11850Y3421D02*
X12200D01*
X11902Y3469D02*
X12148D01*
X11942Y3517D02*
X12108D01*
X11974Y3565D02*
X12076D01*
X11998Y3613D02*
X12052D01*
X12017Y3661D02*
X12033D01*
X11663Y19975D02*
X11763Y19936D01*
X11852Y19878*
X11928Y19802*
X11986Y19713*
X12025Y19613*
X12064Y19713*
X12122Y19802*
X12198Y19878*
X12287Y19936*
X12387Y19975*
X12274Y20021*
X12176Y20091*
X12096Y20183*
X12040Y20291*
X12010*
X11954Y20183*
X11874Y20091*
X11776Y20021*
X11663Y19975*
X12017Y19639D02*
X12033D01*
X11998Y19687D02*
X12052D01*
X11974Y19735D02*
X12076D01*
X11942Y19783D02*
X12108D01*
X11902Y19831D02*
X12148D01*
X11850Y19879D02*
X12200D01*
X11780Y19927D02*
X12271D01*
X11663Y19975D02*
X12387D01*
X11780Y20023D02*
X12270D01*
X11850Y20071D02*
X12200D01*
X11902Y20119D02*
X12148D01*
X11942Y20167D02*
X12108D01*
X11974Y20215D02*
X12076D01*
X11999Y20263D02*
X12051D01*
X11675Y9097D02*
X11716D01*
Y8935*
X11755Y8905*
X11905Y8755*
X11925Y8732*
X11945Y8755*
X12045Y8855*
X12097Y8892*
X12158Y8908*
Y9097*
X12191*
Y10306*
X11675Y9792*
Y9097*
X11899Y8761D02*
X11951D01*
X11851Y8809D02*
X11999D01*
X11803Y8857D02*
X12047D01*
X11755Y8905D02*
X12136D01*
X11716Y8953D02*
X12158D01*
X11716Y9001D02*
X12158D01*
X11716Y9049D02*
X12158D01*
X11675Y9097D02*
X12191D01*
X11675Y9145D02*
X12191D01*
X11675Y9193D02*
X12191D01*
X11675Y9241D02*
X12191D01*
X11675Y9289D02*
X12191D01*
X11675Y9337D02*
X12191D01*
X11675Y9385D02*
X12191D01*
X11675Y9433D02*
X12191D01*
X11675Y9481D02*
X12191D01*
X11675Y9529D02*
X12191D01*
X11675Y9577D02*
X12191D01*
X11675Y9625D02*
X12191D01*
X11675Y9673D02*
X12191D01*
X11675Y9721D02*
X12191D01*
X11675Y9769D02*
X12191D01*
X11700Y9818D02*
X12191D01*
X11749Y9866D02*
X12191D01*
X11797Y9914D02*
X12191D01*
X11845Y9962D02*
X12191D01*
X11894Y10010D02*
X12191D01*
X11942Y10058D02*
X12191D01*
X11990Y10106D02*
X12191D01*
X12038Y10154D02*
X12191D01*
X12087Y10202D02*
X12191D01*
X12135Y10250D02*
X12191D01*
X12183Y10298D02*
X12191D01*
X12605Y13309D02*
X12625D01*
X12695Y13295*
X12755Y13255*
X13401Y12609*
X13592*
X13638Y12655*
X13624Y12669*
X13624Y12669*
X13550Y12743*
X13443Y12850*
X13369Y12924*
X13369Y12924*
X12802Y13491*
X12655Y13345*
X12605Y13309*
X13374Y12637D02*
X13619D01*
X13326Y12685D02*
X13608D01*
X13278Y12733D02*
X13560D01*
X13230Y12781D02*
X13512D01*
X13182Y12829D02*
X13464D01*
X13134Y12877D02*
X13416D01*
X13085Y12925D02*
X13368D01*
X13037Y12973D02*
X13320D01*
X12989Y13021D02*
X13272D01*
X12941Y13069D02*
X13224D01*
X12893Y13117D02*
X13176D01*
X12845Y13165D02*
X13128D01*
X12797Y13213D02*
X13080D01*
X12749Y13261D02*
X13032D01*
X12605Y13309D02*
X12984D01*
X12667Y13357D02*
X12936D01*
X12715Y13405D02*
X12888D01*
X12763Y13453D02*
X12840D01*
X12663Y3325D02*
X12763Y3286D01*
X12852Y3228*
X12928Y3152*
X12986Y3063*
X13025Y2963*
X13064Y3063*
X13122Y3152*
X13198Y3228*
X13287Y3286*
X13387Y3325*
X13287Y3364*
X13198Y3422*
X13122Y3498*
X13064Y3587*
X13025Y3687*
X12986Y3587*
X12928Y3498*
X12852Y3422*
X12763Y3364*
X12663Y3325*
X13017Y2989D02*
X13033D01*
X12998Y3037D02*
X13052D01*
X12974Y3085D02*
X13076D01*
X12942Y3133D02*
X13108D01*
X12902Y3181D02*
X13148D01*
X12850Y3229D02*
X13200D01*
X12780Y3277D02*
X13271D01*
X12663Y3325D02*
X13387D01*
X12780Y3373D02*
X13271D01*
X12850Y3421D02*
X13200D01*
X12902Y3469D02*
X13148D01*
X12942Y3517D02*
X13108D01*
X12974Y3565D02*
X13076D01*
X12998Y3613D02*
X13052D01*
X13017Y3661D02*
X13033D01*
X12663Y19975D02*
X12763Y19936D01*
X12852Y19878*
X12928Y19802*
X12986Y19713*
X13025Y19613*
X13064Y19713*
X13122Y19802*
X13198Y19878*
X13287Y19936*
X13387Y19975*
X13274Y20021*
X13176Y20091*
X13096Y20183*
X13040Y20291*
X13010*
X12954Y20183*
X12874Y20091*
X12776Y20021*
X12663Y19975*
X13017Y19639D02*
X13033D01*
X12998Y19687D02*
X13052D01*
X12974Y19735D02*
X13076D01*
X12942Y19783D02*
X13108D01*
X12902Y19831D02*
X13148D01*
X12850Y19879D02*
X13200D01*
X12780Y19927D02*
X13271D01*
X12663Y19975D02*
X13387D01*
X12780Y20023D02*
X13270D01*
X12850Y20071D02*
X13200D01*
X12902Y20119D02*
X13148D01*
X12942Y20167D02*
X13108D01*
X12974Y20215D02*
X13076D01*
X12999Y20263D02*
X13051D01*
X13162Y9821D02*
X13208Y9775D01*
X13800*
X13876Y9760*
X13941Y9716*
X14561Y9097*
X14943*
X14199Y9841*
X13202*
X13183Y9842*
X13162Y9821*
X14557Y9101D02*
X14939D01*
X14509Y9149D02*
X14891D01*
X14461Y9197D02*
X14843D01*
X14413Y9245D02*
X14795D01*
X14365Y9293D02*
X14747D01*
X14317Y9341D02*
X14699D01*
X14269Y9389D02*
X14651D01*
X14221Y9437D02*
X14603D01*
X14173Y9485D02*
X14555D01*
X14125Y9533D02*
X14507D01*
X14077Y9581D02*
X14459D01*
X14029Y9629D02*
X14411D01*
X13981Y9677D02*
X14363D01*
X13932Y9725D02*
X14315D01*
X13827Y9773D02*
X14267D01*
X13162Y9821D02*
X14219D01*
X13663Y3325D02*
X13763Y3286D01*
X13852Y3228*
X13928Y3152*
X13986Y3063*
X14025Y2963*
X14064Y3063*
X14122Y3152*
X14198Y3228*
X14287Y3286*
X14387Y3325*
X14287Y3364*
X14198Y3422*
X14122Y3498*
X14064Y3587*
X14025Y3687*
X13986Y3587*
X13928Y3498*
X13852Y3422*
X13763Y3364*
X13663Y3325*
X14017Y2989D02*
X14033D01*
X13998Y3037D02*
X14052D01*
X13974Y3085D02*
X14076D01*
X13942Y3133D02*
X14108D01*
X13902Y3181D02*
X14148D01*
X13850Y3229D02*
X14200D01*
X13780Y3277D02*
X14271D01*
X13663Y3325D02*
X14387D01*
X13780Y3373D02*
X14271D01*
X13850Y3421D02*
X14200D01*
X13902Y3469D02*
X14148D01*
X13942Y3517D02*
X14108D01*
X13974Y3565D02*
X14076D01*
X13998Y3613D02*
X14052D01*
X14017Y3661D02*
X14033D01*
X13663Y19975D02*
X13763Y19936D01*
X13852Y19878*
X13928Y19802*
X13986Y19713*
X14025Y19613*
X14064Y19713*
X14122Y19802*
X14198Y19878*
X14287Y19936*
X14387Y19975*
X14274Y20021*
X14176Y20091*
X14096Y20183*
X14040Y20291*
X14010*
X13954Y20183*
X13874Y20091*
X13776Y20021*
X13663Y19975*
X14017Y19639D02*
X14033D01*
X13998Y19687D02*
X14052D01*
X13974Y19735D02*
X14076D01*
X13942Y19783D02*
X14108D01*
X13902Y19831D02*
X14148D01*
X13850Y19879D02*
X14200D01*
X13780Y19927D02*
X14271D01*
X13663Y19975D02*
X14387D01*
X13780Y20023D02*
X14270D01*
X13850Y20071D02*
X14200D01*
X13902Y20119D02*
X14148D01*
X13942Y20167D02*
X14108D01*
X13974Y20215D02*
X14076D01*
X13999Y20263D02*
X14051D01*
X14545Y12658D02*
X14548Y12655D01*
X14622Y12581*
X14813Y12390*
X14866Y12416*
X14925Y12425*
X15620*
X15680Y12495*
X15755Y12548*
X15842Y12581*
X15934Y12590*
X16026Y12576*
X16111Y12539*
X16074Y12626*
X16060Y12720*
X16071Y12814*
X16106Y12902*
X16162Y12978*
X16236Y13037*
X16322Y13075*
X14959*
X14767Y12881*
X14766Y12881*
X14545Y12658*
X14785Y12418D02*
X14874D01*
X14737Y12466D02*
X15651D01*
X14689Y12514D02*
X15702D01*
X14641Y12562D02*
X15785D01*
X16065D02*
X16098D01*
X14593Y12610D02*
X16079D01*
X14545Y12658D02*
X16066D01*
X14593Y12706D02*
X16060D01*
X14641Y12754D02*
X16061D01*
X14689Y12802D02*
X16068D01*
X14736Y12850D02*
X16082D01*
X14784Y12899D02*
X16104D01*
X14832Y12947D02*
X16135D01*
X14879Y12995D02*
X16179D01*
X14926Y13043D02*
X16245D01*
X14663Y3325D02*
X14763Y3286D01*
X14852Y3228*
X14928Y3152*
X14986Y3063*
X15025Y2963*
X15064Y3063*
X15122Y3152*
X15198Y3228*
X15287Y3286*
X15387Y3325*
X15287Y3364*
X15198Y3422*
X15122Y3498*
X15064Y3587*
X15025Y3687*
X14986Y3587*
X14928Y3498*
X14852Y3422*
X14763Y3364*
X14663Y3325*
X15017Y2989D02*
X15033D01*
X14998Y3037D02*
X15052D01*
X14974Y3085D02*
X15076D01*
X14942Y3133D02*
X15108D01*
X14902Y3181D02*
X15148D01*
X14850Y3229D02*
X15200D01*
X14780Y3277D02*
X15271D01*
X14663Y3325D02*
X15387D01*
X14780Y3373D02*
X15271D01*
X14850Y3421D02*
X15200D01*
X14902Y3469D02*
X15148D01*
X14942Y3517D02*
X15108D01*
X14974Y3565D02*
X15076D01*
X14998Y3613D02*
X15052D01*
X15017Y3661D02*
X15033D01*
X14663Y19975D02*
X14763Y19936D01*
X14852Y19878*
X14928Y19802*
X14986Y19713*
X15025Y19613*
X15064Y19713*
X15122Y19802*
X15198Y19878*
X15287Y19936*
X15387Y19975*
X15274Y20021*
X15176Y20091*
X15096Y20183*
X15040Y20291*
X15010*
X14954Y20183*
X14874Y20091*
X14776Y20021*
X14663Y19975*
X15017Y19639D02*
X15033D01*
X14998Y19687D02*
X15052D01*
X14974Y19735D02*
X15076D01*
X14942Y19783D02*
X15108D01*
X14902Y19831D02*
X15148D01*
X14850Y19879D02*
X15200D01*
X14780Y19927D02*
X15271D01*
X14663Y19975D02*
X15387D01*
X14780Y20023D02*
X15270D01*
X14850Y20071D02*
X15200D01*
X14902Y20119D02*
X15148D01*
X14942Y20167D02*
X15108D01*
X14974Y20215D02*
X15076D01*
X14999Y20263D02*
X15051D01*
X15254Y11664D02*
X15255Y11663D01*
X15256Y11664*
X15254*
X15663Y3325D02*
X15763Y3286D01*
X15852Y3228*
X15928Y3152*
X15986Y3063*
X16025Y2963*
X16064Y3063*
X16122Y3152*
X16198Y3228*
X16287Y3286*
X16387Y3325*
X16287Y3364*
X16198Y3422*
X16122Y3498*
X16064Y3587*
X16025Y3687*
X15986Y3587*
X15928Y3498*
X15852Y3422*
X15763Y3364*
X15663Y3325*
X16017Y2989D02*
X16033D01*
X15998Y3037D02*
X16052D01*
X15974Y3085D02*
X16076D01*
X15942Y3133D02*
X16108D01*
X15902Y3181D02*
X16148D01*
X15850Y3229D02*
X16200D01*
X15780Y3277D02*
X16271D01*
X15663Y3325D02*
X16387D01*
X15780Y3373D02*
X16271D01*
X15850Y3421D02*
X16200D01*
X15902Y3469D02*
X16148D01*
X15942Y3517D02*
X16108D01*
X15974Y3565D02*
X16076D01*
X15998Y3613D02*
X16052D01*
X16017Y3661D02*
X16033D01*
X15663Y19975D02*
X15763Y19936D01*
X15852Y19878*
X15928Y19802*
X15986Y19713*
X16025Y19613*
X16064Y19713*
X16122Y19802*
X16198Y19878*
X16287Y19936*
X16387Y19975*
X16274Y20021*
X16176Y20091*
X16096Y20183*
X16040Y20291*
X16010*
X15954Y20183*
X15874Y20091*
X15776Y20021*
X15663Y19975*
X16017Y19639D02*
X16033D01*
X15998Y19687D02*
X16052D01*
X15974Y19735D02*
X16076D01*
X15942Y19783D02*
X16108D01*
X15902Y19831D02*
X16148D01*
X15850Y19879D02*
X16200D01*
X15780Y19927D02*
X16271D01*
X15663Y19975D02*
X16387D01*
X15780Y20023D02*
X16270D01*
X15850Y20071D02*
X16200D01*
X15902Y20119D02*
X16148D01*
X15942Y20167D02*
X16108D01*
X15974Y20215D02*
X16076D01*
X15999Y20263D02*
X16051D01*
X15992Y14109D02*
X16099D01*
X16551Y14561*
X16450Y14568*
X15992Y14109*
X16099*
X16040Y14157D02*
X16147D01*
X16088Y14205D02*
X16195D01*
X16136Y14253D02*
X16243D01*
X16184Y14301D02*
X16291D01*
X16232Y14349D02*
X16339D01*
X16280Y14397D02*
X16387D01*
X16328Y14445D02*
X16435D01*
X16376Y14493D02*
X16483D01*
X16424Y14541D02*
X16531D01*
X16663Y3325D02*
X16763Y3286D01*
X16852Y3228*
X16928Y3152*
X16986Y3063*
X17025Y2963*
X17064Y3063*
X17122Y3152*
X17198Y3228*
X17287Y3286*
X17387Y3325*
X17287Y3364*
X17198Y3422*
X17122Y3498*
X17064Y3587*
X17025Y3687*
X16986Y3587*
X16928Y3498*
X16852Y3422*
X16763Y3364*
X16663Y3325*
X17017Y2989D02*
X17033D01*
X16998Y3037D02*
X17052D01*
X16974Y3085D02*
X17076D01*
X16942Y3133D02*
X17108D01*
X16902Y3181D02*
X17148D01*
X16850Y3229D02*
X17200D01*
X16780Y3277D02*
X17271D01*
X16663Y3325D02*
X17387D01*
X16780Y3373D02*
X17271D01*
X16850Y3421D02*
X17200D01*
X16902Y3469D02*
X17148D01*
X16942Y3517D02*
X17108D01*
X16974Y3565D02*
X17076D01*
X16998Y3613D02*
X17052D01*
X17017Y3661D02*
X17033D01*
X16663Y19975D02*
X16763Y19936D01*
X16852Y19878*
X16928Y19802*
X16986Y19713*
X17025Y19613*
X17064Y19713*
X17122Y19802*
X17198Y19878*
X17287Y19936*
X17387Y19975*
X17274Y20021*
X17176Y20091*
X17096Y20183*
X17040Y20291*
X17010*
X16954Y20183*
X16874Y20091*
X16776Y20021*
X16663Y19975*
X17017Y19639D02*
X17033D01*
X16998Y19687D02*
X17052D01*
X16974Y19735D02*
X17076D01*
X16942Y19783D02*
X17108D01*
X16902Y19831D02*
X17148D01*
X16850Y19879D02*
X17200D01*
X16780Y19927D02*
X17271D01*
X16663Y19975D02*
X17387D01*
X16780Y20023D02*
X17270D01*
X16850Y20071D02*
X17200D01*
X16902Y20119D02*
X17148D01*
X16942Y20167D02*
X17108D01*
X16974Y20215D02*
X17076D01*
X16999Y20263D02*
X17051D01*
D02*
D14*
X4625Y9425D02*
Y9225D01*
Y9925D02*
Y10125D01*
X4875Y9675D02*
X5075D01*
X7525Y3825D02*
X7325D01*
X7775Y3575D02*
Y3375D01*
Y4075D02*
Y4275D01*
X8025Y3825D02*
X8225D01*
X8045Y5225D02*
X7845D01*
X8275Y4995D02*
Y4795D01*
Y5455D02*
Y5655D01*
X8487Y11037D02*
X8346Y10896D01*
X8505Y5225D02*
X8705D01*
X8813Y11037D02*
X8954Y10896D01*
X8813Y11363D02*
X8954Y11504D01*
X9945Y5775D02*
X9745D01*
X10175Y5545D02*
Y5345D01*
Y6005D02*
Y6205D01*
X10405Y5775D02*
X10605D01*
X10595Y8275D02*
X10395D01*
X10746Y12398D02*
X10604Y12257D01*
X10825Y8045D02*
Y7845D01*
Y8505D02*
Y8705D01*
X10829Y12522D02*
X10688Y12664D01*
X10954Y12606D02*
X11095Y12747D01*
X11375Y7928D02*
Y7728D01*
Y8222D02*
Y8422D01*
X11935Y11416D02*
Y11385D01*
X10175Y9625*
X8525*
X12116Y11235D02*
X12075D01*
Y11234*
X9766Y8925*
X6975*
X6234Y9666*
X6175*
Y9725*
X12262Y5412D02*
X12121Y5271D01*
X12262Y5738D02*
X12121Y5879D01*
X12297Y11054D02*
X12250D01*
Y10998*
X9877Y8625*
X6575*
X6125Y9075*
X12500Y6325D02*
X13625D01*
X12500Y7928D02*
Y7728D01*
Y8222D02*
Y8422D01*
X12588Y5412D02*
X12729Y5271D01*
X12588Y5738D02*
X12729Y5879D01*
X12666Y8075D02*
X12866D01*
X13625Y6325D02*
X14725D01*
X13625Y7928D02*
Y7728D01*
Y8222D02*
Y8422D01*
X13791Y8075D02*
X13991D01*
X13845Y5575D02*
X13645D01*
X14075Y5345D02*
Y5145D01*
Y5805D02*
Y6005D01*
X14254Y12287D02*
X14112Y12146D01*
X14305Y5575D02*
X14505D01*
X14461Y12495D02*
X14603Y12636D01*
X14725Y6325D02*
X16000D01*
X14725Y7928D02*
Y7728D01*
Y8222D02*
Y8422D01*
X14760Y10920D02*
X14618Y11062D01*
X14774Y10699D02*
X14632Y10557D01*
X14891Y8075D02*
X15091D01*
X14900Y11848D02*
Y11770D01*
X15372Y11297*
X14981Y10906D02*
X15123Y11048D01*
X14995Y10685D02*
X15137Y10543D01*
X15291Y9609D02*
X15149Y9751D01*
X15559Y9341D02*
X15701Y9199D01*
X15559Y9609D02*
X15701Y9751D01*
X15875Y7928D02*
Y7728D01*
Y8222D02*
Y8422D01*
X16041Y8075D02*
X16241D01*
X16112Y5412D02*
X15971Y5271D01*
X16112Y5738D02*
X15971Y5879D01*
X16235Y12725D02*
X16035D01*
X16425Y12535D02*
Y12335D01*
X16438Y5412D02*
X16579Y5271D01*
X16438Y5738D02*
X16579Y5879D01*
X16615Y12725D02*
X16815D01*
X17059Y12575D02*
X16859D01*
X17225Y12428D02*
Y12228D01*
Y12722D02*
Y12922D01*
X17645Y9125D02*
X17445D01*
X17875Y8895D02*
Y8695D01*
Y9355D02*
Y9555D01*
X18105Y9125D02*
X18305D01*
X18745Y5525D02*
X18545D01*
X18975Y5295D02*
Y5095D01*
Y5755D02*
Y5955D01*
X19205Y5525D02*
X19405D01*
X20325Y3775D02*
X20125D01*
X20525Y19525D02*
X20325D01*
X20525Y20525D02*
X20325D01*
X20575Y3525D02*
Y3325D01*
Y4025D02*
Y4225D01*
X20775Y19275D02*
Y19075D01*
Y19775D02*
Y19975D01*
Y20275D02*
Y20075D01*
Y20775D02*
Y20975D01*
X20825Y3775D02*
X21025D01*
Y19525D02*
X21225D01*
X21025Y20525D02*
X21225D01*
X21095Y5825D02*
X20895D01*
X21325Y5595D02*
Y5395D01*
Y6055D02*
Y6255D01*
X21555Y5825D02*
X21755D01*
X22395Y16625D02*
X22195D01*
X22625Y16395D02*
Y16195D01*
Y16855D02*
Y17055D01*
X22855Y16625D02*
X23055D01*
X22875Y9675D02*
X22675D01*
X23125Y9425D02*
Y9225D01*
Y9925D02*
Y10125D01*
D02*
D15*
X10525Y2825D03*
Y3825D03*
Y19475D03*
Y20475D03*
X11525Y2825D03*
Y3825D03*
Y19475D03*
Y20475D03*
X12525Y2825D03*
Y3825D03*
Y19475D03*
Y20475D03*
X13525Y2825D03*
Y3825D03*
Y19475D03*
Y20475D03*
X14525Y2825D03*
Y3825D03*
Y19475D03*
Y20475D03*
X15525Y2825D03*
Y3825D03*
Y19475D03*
Y20475D03*
X16525Y2825D03*
Y3825D03*
Y19475D03*
Y20475D03*
X17525Y2825D03*
Y3825D03*
Y19475D03*
Y20475D03*
D02*
D19*
X14878Y10803D03*
X15372Y11297D03*
D02*
D71*
X6375Y12825D03*
Y13525D03*
X7125Y12825D03*
Y13525D03*
X11375Y6325D03*
Y7025D03*
Y8075D03*
Y8775D03*
X12500Y6325D03*
Y7025D03*
Y8075D03*
Y8775D03*
X13625Y6325D03*
Y7025D03*
Y8075D03*
Y8775D03*
X14725Y6325D03*
Y7025D03*
Y8075D03*
Y8775D03*
X15875Y8075D03*
Y8775D03*
X16000Y6325D03*
Y7025D03*
X17225Y12575D03*
Y13275D03*
X17925Y12575D03*
Y13275D03*
X18125Y10275D03*
Y10975D03*
D02*
D80*
X8275Y5225D03*
X8650Y11200D03*
X10175Y5775D03*
X10825Y8275D03*
X12425Y5575D03*
X14075D03*
X16275D03*
X17875Y9125D03*
X18975Y5525D03*
X20975Y10725D03*
X21325Y5825D03*
X21825Y12825D03*
X22625Y16625D03*
D02*
D84*
X5375Y14275D03*
X6125Y9075D03*
X6175Y9725D03*
X7925Y12725D03*
Y13525D03*
X8425Y13175D03*
X8525Y9625D03*
X8925Y13525D03*
X10225Y10475D03*
X10425Y11075D03*
Y11725D03*
X12475D03*
Y12321D03*
X13525Y14325D03*
X14025Y11725D03*
X14175Y14825D03*
X15425Y9475D03*
X15925Y12225D03*
X16425Y12725D03*
X16525Y14925D03*
X18925Y14475D03*
X20825Y13675D03*
D02*
D136*
X4625Y9675D03*
Y10675D03*
Y11675D03*
Y12675D03*
Y13675D03*
X7775Y2825D03*
Y3825D03*
X20575Y2775D03*
Y3775D03*
X20775Y19525D03*
Y20525D03*
X23125Y9675D03*
Y10675D03*
Y11675D03*
Y12675D03*
Y13675D03*
D02*
D137*
X4625Y10675D02*
X7425D01*
X9875Y13125*
X12625*
X13325Y12425*
X4625Y13675D02*
X6225D01*
X6375Y13525*
Y12825D02*
X4775D01*
X4625Y12675*
X6375Y13525D02*
X7125D01*
Y12825D02*
X7825D01*
X7925Y12725*
X7125Y12825D02*
Y12510D01*
X6440Y11825*
X4775*
X4625Y11675*
X8425Y13175D02*
X6575D01*
X6475Y13075*
Y12875*
X6525Y12825*
X6375*
X8650Y11200D02*
X7675Y10225D01*
X5175*
X4625Y9675*
X10525Y20475D02*
X17525D01*
X10850Y12502D02*
X9952D01*
X8650Y11200*
X11375Y6325D02*
X12500D01*
X11375Y7025D02*
X11425D01*
X11775Y7375*
Y8625*
X11625Y8775*
X11375*
X11393Y11959D02*
Y11943D01*
X11025Y11575*
X10575*
X10425Y11725*
X11574Y11778D02*
Y11774D01*
X10875Y11075*
X10425*
X11754Y11597D02*
X11747D01*
X10725Y10575*
X10325*
X10225Y10475*
X12475Y11725D02*
X11825Y12375D01*
X11446*
X11212Y12140*
X12475Y12321D02*
X12279D01*
X11925Y12675*
X11375*
X11021Y12321*
X11031*
X12478Y10874D02*
X12474D01*
X11475Y9875*
Y8875*
X11375Y8775*
X12500Y7025D02*
Y7050D01*
X12075Y7475*
Y8625*
X12175Y8725*
X12450*
X12500Y8775*
Y8075D02*
Y7700D01*
X12925Y7275*
Y6725*
X12875Y6675*
X12548Y14200D02*
X11300D01*
X11125Y14375*
X8825*
X8675Y14525*
X5625*
X5375Y14275*
X12659Y10693D02*
X12643D01*
X12375Y10425*
Y8900*
X12500Y8775*
X12729Y14019D02*
X12719D01*
X12425Y13725*
X10975*
X10775Y13925*
X8275*
X7925Y13575*
Y13525*
X12840Y10512D02*
X12812D01*
X12575Y10275*
Y9675*
X12875Y9375*
X13325*
X13575Y9125*
Y8825*
X13625Y8775*
X12875Y6675D02*
X10925D01*
X10725Y6875*
Y8175*
X10825Y8275*
X12910Y13838D02*
X12888D01*
X12525Y13475*
X8975*
X8925Y13525*
X13021Y10331D02*
Y10321D01*
X12825Y10125*
Y9875*
X13125Y9575*
X13800*
X14600Y8775*
X14725*
X13091Y13657D02*
X13107D01*
X13425Y13975*
Y14225*
X13525Y14325*
X13202Y10150D02*
Y10025D01*
X14275*
X15475Y8825*
X15875*
Y8775*
X13272Y13476D02*
X13276D01*
X13975Y14175*
Y14625*
X14175Y14825*
X13325Y12425D02*
X13668D01*
X13996Y12753*
X13453Y13296D02*
Y13303D01*
X14375Y14225*
X15825*
X16525Y14925*
X13625Y7025D02*
X13475D01*
X13275Y7225*
Y8575*
X13425Y8725*
X13625Y8775*
Y8075D02*
Y7775D01*
X14075Y7325*
Y6675*
X13975*
X13634Y13115D02*
X13665D01*
X14475Y13925*
X16175*
X16725Y14475*
X18925*
X13815Y12934D02*
X13825D01*
X14566Y13675*
X16425*
X16875Y14125*
X18525*
X18775Y13875*
X20625*
X20825Y13675*
X13975Y6675D02*
X12875D01*
X14025Y11725D02*
X14054D01*
X14538Y12210*
X14176Y12572D02*
X14175D01*
X14625Y13022*
Y13025*
X14875Y13275*
X17225*
X14357Y12391D02*
Y12425D01*
X14375*
X14659Y12709*
X16425*
Y12725*
X14357Y12391D02*
X14341D01*
X14125Y12175*
X13725*
X13625Y12075*
Y11475*
X13775Y11325*
X14355*
X14878Y10803*
X14725Y7025D02*
X14675D01*
X14325Y7375*
Y8575*
X14475Y8725*
X14675*
X14725Y8775*
Y8075D02*
Y7825D01*
X15275Y7275*
Y6775*
X15175Y6675*
X14900Y11848D02*
X17373D01*
X17925Y12400*
Y12575*
X15175Y6675D02*
X13975D01*
X15875Y8075D02*
Y8025D01*
X16675Y7225*
Y6775*
X16575Y6675*
X15175*
X15925Y12225D02*
X14925D01*
X14729Y12029*
X14719*
X16000Y7025D02*
X15925D01*
X15475Y7475*
Y8575*
X15575Y8675*
X15775*
X15875Y8775*
X16425Y12725D02*
X17075D01*
Y12575*
X17225*
X17925D02*
X19925D01*
X20175Y12825*
X21825*
X17925Y13275D02*
X17225D01*
X18125Y10275D02*
X20525D01*
X20975Y10725*
X18125Y10275D02*
X14425D01*
X13325Y11375*
Y12425*
X20575Y2775D02*
Y2725D01*
X22325Y4475*
Y15725*
X17525Y20525*
Y20475*
D02*
D138*
X4625Y13675D02*
Y14825D01*
X5575Y15775*
X19775*
X21825Y13725*
Y12825*
X7775Y3825D02*
Y6525D01*
X4625Y9675*
X8275Y5225D02*
X9625D01*
X10175Y5775*
X11375Y8075D02*
X11025D01*
X10825Y8275*
X12425Y5575D02*
X10375D01*
X10175Y5775*
X14075Y5575D02*
X16275D01*
X14075D02*
X12425D01*
X15425Y9475D02*
X17525D01*
X17875Y9125*
X15875Y8075D02*
X16825D01*
X17875Y9125*
X16000Y6325D02*
X18225D01*
X21825Y9925*
Y12825*
X17925Y12575D02*
Y11175D01*
X18125Y10975*
X18975Y5525D02*
X17375D01*
Y5575*
X16275*
X20575Y3775D02*
X20475D01*
X21375Y4675*
Y5775*
X21325Y5825*
X20775Y19525D02*
Y18475D01*
X22625Y16625*
X21325Y5825D02*
X19875D01*
Y5525*
X18975*
D02*
D146*
X10850Y12502D03*
X11031Y12321D03*
X11212Y12140D03*
X11393Y11959D03*
X11574Y11778D03*
X11754Y11597D03*
X11935Y11416D03*
X12116Y11235D03*
X12297Y11054D03*
X12478Y10874D03*
X12548Y14200D03*
X12659Y10693D03*
X12729Y14019D03*
X12840Y10512D03*
X12910Y13838D03*
X13021Y10331D03*
X13091Y13657D03*
X13202Y10150D03*
X13272Y13476D03*
X13453Y13296D03*
X13634Y13115D03*
X13815Y12934D03*
X13996Y12753D03*
X14176Y12572D03*
X14357Y12391D03*
X14538Y12210D03*
X14719Y12029D03*
X14900Y11848D03*
X0Y0D02*
M02*
